# This file uses centimeters as units for non-parametric coordinates.

v -0.000000 -0.000000 20.319285
v 0.000000 0.000000 0.066449
v -2.618799 0.850899 19.061045
v -2.096513 0.681198 19.816012
v -2.666527 0.866407 18.051808
v -2.227683 1.618506 19.061045
v -1.783400 1.295716 19.816010
v -2.268283 1.648004 18.051808
v -1.618507 2.227683 19.061045
v -1.295716 1.783400 19.816010
v -1.648004 2.268283 18.051808
v -0.850899 2.618799 19.061045
v -0.681198 2.096512 19.816010
v -0.866407 2.666526 18.051808
v -0.000000 2.753568 19.061045
v -0.000000 2.204404 19.816010
v -0.000000 2.803752 18.051808
v 0.850899 2.618799 19.061045
v 0.681198 2.096512 19.816010
v 0.866407 2.666526 18.051808
v 1.618506 2.227683 19.061045
v 1.295716 1.783400 19.816012
v 1.648004 2.268282 18.051808
v 2.227682 1.618506 19.061045
v 1.783399 1.295715 19.816012
v 2.268282 1.648003 18.051808
v 2.618798 0.850899 19.061045
v 2.096512 0.681198 19.816012
v 2.666526 0.866407 18.051808
v 2.753567 -0.000000 19.061045
v 2.204403 -0.000000 19.816012
v 2.803751 -0.000000 18.051808
v 2.618798 -0.850899 19.061045
v 2.096512 -0.681198 19.816012
v 2.666526 -0.866407 18.051808
v 2.227682 -1.618506 19.061045
v 1.783399 -1.295716 19.816012
v 2.268282 -1.648004 18.051808
v 1.618506 -2.227682 19.061045
v 1.295716 -1.783399 19.816012
v 1.648003 -2.268282 18.051808
v 0.850899 -2.618798 19.061045
v 0.681198 -2.096512 19.816012
v 0.866407 -2.666526 18.051808
v 0.000000 -2.753567 19.061045
v 0.000000 -2.204403 19.816012
v 0.000000 -2.803751 18.051808
v -0.850899 -2.618798 19.061045
v -0.681198 -2.096512 19.816012
v -0.866406 -2.666525 18.051808
v -1.618506 -2.227682 19.061045
v -1.295716 -1.783399 19.816012
v -1.648003 -2.268282 18.051808
v -2.227682 -1.618506 19.061045
v -1.783399 -1.295716 19.816012
v -2.268282 -1.648004 18.051808
v -2.618797 -0.850899 19.061045
v -2.096511 -0.681198 19.816012
v -2.666525 -0.866407 18.051808
v -2.753567 -0.000000 19.061045
v -2.204403 -0.000001 19.816012
v -2.803751 -0.000000 18.051808
v -1.324758 0.430440 20.319285
v -1.126906 0.818745 20.319285
v -0.818745 1.126906 20.319285
v -0.430440 1.324757 20.319285
v -0.000000 1.392933 20.319285
v 0.430440 1.324757 20.319285
v 0.818745 1.126906 20.319285
v 1.126906 0.818745 20.319285
v 1.324757 0.430440 20.319285
v 1.392932 -0.000000 20.319285
v 1.324757 -0.430440 20.319285
v 1.126905 -0.818745 20.319285
v 0.818745 -1.126906 20.319285
v 0.430440 -1.324757 20.319285
v 0.000000 -1.392932 20.319285
v -0.430440 -1.324757 20.319285
v -0.818745 -1.126905 20.319285
v -1.126905 -0.818745 20.319285
v -1.324757 -0.430440 20.319285
v -1.392932 -0.000000 20.319285
v -0.165171 0.053667 0.169888
v -0.077547 0.025197 0.066449
v -0.140502 0.102081 0.169888
v -0.065966 0.047927 0.066449
v -0.173671 0.000000 0.169888
v -0.081538 0.000000 0.066449
v -0.102081 0.140503 0.169888
v -0.047927 0.065966 0.066449
v -0.053667 0.165171 0.169888
v -0.025197 0.077547 0.066449
v 0.000000 0.173671 0.169888
v 0.000000 0.081538 0.066449
v 0.053667 0.165171 0.169888
v 0.025197 0.077547 0.066449
v 0.102081 0.140503 0.169888
v 0.047927 0.065966 0.066449
v 0.140503 0.102081 0.169888
v 0.065966 0.047927 0.066449
v 0.165171 0.053667 0.169888
v 0.077547 0.025197 0.066449
v 0.173671 0.000000 0.169888
v 0.081538 0.000000 0.066449
v 0.165171 -0.053667 0.169888
v 0.077547 -0.025197 0.066449
v 0.140503 -0.102081 0.169888
v 0.065966 -0.047927 0.066449
v 0.102081 -0.140502 0.169888
v 0.047927 -0.065966 0.066449
v 0.053667 -0.165170 0.169888
v 0.025197 -0.077547 0.066449
v 0.000000 -0.173671 0.169888
v 0.000000 -0.081538 0.066449
v -0.053667 -0.165170 0.169888
v -0.025197 -0.077547 0.066449
v -0.102081 -0.140502 0.169888
v -0.047927 -0.065966 0.066449
v -0.140502 -0.102081 0.169888
v -0.065966 -0.047927 0.066449
v -0.165171 -0.053667 0.169888
v -0.077547 -0.025197 0.066449
vt 0.737764 0.172746
vt 0.250000 0.500000
vt 0.750000 0.500000
vt 0.253609 0.507218
vt 0.702254 0.103054
vt 0.275000 0.500000
vt 0.646946 0.047746
vt 0.300000 0.500000
vt 0.577254 0.012236
vt 0.325000 0.500000
vt 0.500000 -0.000000
vt 0.350000 0.500000
vt 0.422746 0.012236
vt 0.375000 0.500000
vt 0.353054 0.047746
vt 0.400000 0.500000
vt 0.297746 0.103054
vt 0.425000 0.500000
vt 0.262236 0.172746
vt 0.450000 0.500000
vt 0.250000 0.250000
vt 0.475000 0.500000
vt 0.262236 0.327254
vt 0.500000 0.500000
vt 0.297746 0.396946
vt 0.525000 0.500000
vt 0.353054 0.452254
vt 0.550000 0.500000
vt 0.422746 0.487764
vt 0.575000 0.500000
vt 0.500000 0.500000
vt 0.600000 0.500000
vt 0.577254 0.487764
vt 0.625000 0.500000
vt 0.646946 0.452254
vt 0.650000 0.500000
vt 0.702254 0.396946
vt 0.675000 0.500000
vt 0.737764 0.327254
vt 0.700000 0.500000
vt 0.725000 0.500000
vt 0.750000 0.250000
vt 0.500000 0.250000
vt 0.663828 0.196769
vt 0.639361 0.148749
vt 0.601251 0.110639
vt 0.553231 0.086172
vt 0.500000 0.077741
vt 0.446769 0.086172
vt 0.398749 0.110639
vt 0.360639 0.148749
vt 0.336172 0.196769
vt 0.327741 0.250000
vt 0.336172 0.303231
vt 0.360639 0.351251
vt 0.398749 0.389361
vt 0.446769 0.413828
vt 0.500000 0.422259
vt 0.553231 0.413828
vt 0.601251 0.389360
vt 0.639360 0.351251
vt 0.663828 0.303231
vt 0.672259 0.250000
vt 0.592859 0.219828
vt 0.578991 0.192610
vt 0.557390 0.171009
vt 0.530172 0.157141
vt 0.500000 0.152362
vt 0.469828 0.157141
vt 0.442610 0.171009
vt 0.421009 0.192610
vt 0.407141 0.219828
vt 0.402362 0.250000
vt 0.407141 0.280172
vt 0.421009 0.307390
vt 0.442610 0.328991
vt 0.469828 0.342859
vt 0.500000 0.347638
vt 0.530172 0.342859
vt 0.557390 0.328991
vt 0.578991 0.307390
vt 0.592859 0.280172
vt 0.597638 0.250000
vt 0.500000 1.000000
vt 0.278105 0.506826
vt 0.302673 0.506580
vt 0.327288 0.506426
vt 0.351931 0.506329
vt 0.376592 0.506269
vt 0.401265 0.506232
vt 0.425944 0.506209
vt 0.450627 0.506195
vt 0.475313 0.506188
vt 0.500000 0.506186
vt 0.524687 0.506188
vt 0.549373 0.506195
vt 0.574056 0.506209
vt 0.598735 0.506232
vt 0.623408 0.506269
vt 0.648069 0.506329
vt 0.672712 0.506426
vt 0.697327 0.506580
vt 0.721896 0.506826
vt 0.746391 0.507218
vt 0.587258 0.825483
vt 0.413263 0.826527
vt 0.455871 0.911743
vt 0.544401 0.911197
vt 0.422037 0.827107
vt 0.457645 0.904519
vt 0.578481 0.826171
vt 0.542645 0.903998
vt 0.430805 0.827671
vt 0.460866 0.900189
vt 0.439553 0.828181
vt 0.464911 0.897508
vt 0.448261 0.828622
vt 0.469443 0.895802
vt 0.456947 0.828988
vt 0.474271 0.894692
vt 0.465629 0.829278
vt 0.479286 0.893961
vt 0.474294 0.829491
vt 0.484419 0.893480
vt 0.482947 0.829628
vt 0.489626 0.893172
vt 0.491591 0.829689
vt 0.494878 0.892990
vt 0.500232 0.829676
vt 0.500150 0.892910
vt 0.508872 0.829587
vt 0.505422 0.892926
vt 0.517518 0.829423
vt 0.510674 0.893045
vt 0.526172 0.829183
vt 0.515882 0.893290
vt 0.534839 0.828866
vt 0.521016 0.893709
vt 0.543523 0.828473
vt 0.526031 0.894379
vt 0.552227 0.828002
vt 0.530860 0.895429
vt 0.560956 0.827456
vt 0.535391 0.897079
vt 0.569708 0.826840
vt 0.539433 0.899708
vn -0.802134 0.127044 0.583473
vn -0.802134 0.127044 0.583473
vn -0.802134 0.127044 0.583473
vn -0.802134 0.127044 0.583473
vn -0.986500 0.156244 0.049054
vn -0.943341 0.306509 -0.127120
vn -0.991887 -0.000001 -0.127120
vn -0.986500 0.156244 0.049054
vn -0.889934 0.453444 0.049054
vn -0.889934 0.453444 0.049054
vn -0.802453 0.583017 -0.127120
vn -0.723615 0.368700 0.583473
vn -0.723615 0.368700 0.583473
vn -0.723615 0.368700 0.583473
vn -0.723615 0.368700 0.583473
vn -0.706255 0.706256 0.049053
vn -0.706255 0.706256 0.049053
vn -0.583017 0.802454 -0.127120
vn -0.574264 0.574264 0.583474
vn -0.574264 0.574264 0.583474
vn -0.574264 0.574264 0.583474
vn -0.574264 0.574264 0.583474
vn -0.453444 0.889934 0.049053
vn -0.453444 0.889934 0.049053
vn -0.306510 0.943341 -0.127120
vn -0.368700 0.723615 0.583474
vn -0.368700 0.723615 0.583474
vn -0.368700 0.723615 0.583474
vn -0.368700 0.723615 0.583474
vn -0.156246 0.986499 0.049054
vn -0.156246 0.986499 0.049054
vn 0.000000 0.991887 -0.127120
vn -0.127046 0.802134 0.583473
vn -0.127046 0.802134 0.583473
vn -0.127046 0.802134 0.583473
vn -0.127046 0.802134 0.583473
vn 0.156246 0.986499 0.049054
vn 0.156246 0.986499 0.049054
vn 0.306510 0.943341 -0.127120
vn 0.127046 0.802133 0.583474
vn 0.127046 0.802133 0.583474
vn 0.127046 0.802133 0.583474
vn 0.127046 0.802133 0.583474
vn 0.453444 0.889934 0.049053
vn 0.453444 0.889934 0.049053
vn 0.583017 0.802453 -0.127120
vn 0.368700 0.723615 0.583474
vn 0.368700 0.723615 0.583474
vn 0.368700 0.723615 0.583474
vn 0.368700 0.723615 0.583474
vn 0.706257 0.706255 0.049053
vn 0.706257 0.706255 0.049053
vn 0.802454 0.583017 -0.127120
vn 0.574265 0.574264 0.583473
vn 0.574265 0.574264 0.583473
vn 0.574265 0.574264 0.583473
vn 0.574265 0.574264 0.583473
vn 0.889934 0.453444 0.049053
vn 0.889934 0.453444 0.049053
vn 0.943341 0.306510 -0.127120
vn 0.723615 0.368700 0.583473
vn 0.723615 0.368700 0.583473
vn 0.723615 0.368700 0.583473
vn 0.723615 0.368700 0.583473
vn 0.986499 0.156246 0.049053
vn 0.986499 0.156246 0.049053
vn 0.991887 -0.000000 -0.127120
vn 0.802134 0.127046 0.583473
vn 0.802134 0.127046 0.583473
vn 0.802134 0.127046 0.583473
vn 0.802134 0.127046 0.583473
vn 0.986499 -0.156246 0.049053
vn 0.986499 -0.156246 0.049053
vn 0.943341 -0.306510 -0.127120
vn 0.802133 -0.127046 0.583474
vn 0.802133 -0.127046 0.583473
vn 0.802133 -0.127046 0.583474
vn 0.802133 -0.127046 0.583474
vn 0.889934 -0.453444 0.049054
vn 0.889934 -0.453444 0.049054
vn 0.802454 -0.583017 -0.127120
vn 0.723615 -0.368701 0.583473
vn 0.723615 -0.368701 0.583473
vn 0.723615 -0.368701 0.583473
vn 0.723615 -0.368701 0.583473
vn 0.706255 -0.706256 0.049053
vn 0.706255 -0.706256 0.049053
vn 0.583017 -0.802454 -0.127120
vn 0.574264 -0.574264 0.583473
vn 0.574264 -0.574264 0.583473
vn 0.574264 -0.574264 0.583473
vn 0.574264 -0.574264 0.583473
vn 0.453444 -0.889934 0.049053
vn 0.453444 -0.889934 0.049053
vn 0.306510 -0.943341 -0.127120
vn 0.368701 -0.723615 0.583473
vn 0.368701 -0.723615 0.583473
vn 0.368701 -0.723615 0.583473
vn 0.368701 -0.723615 0.583473
vn 0.156246 -0.986499 0.049053
vn 0.156246 -0.986499 0.049053
vn -0.000000 -0.991887 -0.127120
vn 0.127045 -0.802134 0.583473
vn 0.127045 -0.802134 0.583473
vn 0.127045 -0.802134 0.583473
vn 0.127045 -0.802134 0.583473
vn -0.156246 -0.986499 0.049053
vn -0.156246 -0.986499 0.049053
vn -0.306510 -0.943341 -0.127120
vn -0.127046 -0.802134 0.583473
vn -0.127046 -0.802134 0.583473
vn -0.127046 -0.802134 0.583473
vn -0.127046 -0.802134 0.583473
vn -0.453444 -0.889934 0.049053
vn -0.453444 -0.889934 0.049053
vn -0.583017 -0.802454 -0.127120
vn -0.368701 -0.723615 0.583473
vn -0.368701 -0.723615 0.583473
vn -0.368701 -0.723615 0.583473
vn -0.368701 -0.723615 0.583473
vn -0.706255 -0.706256 0.049053
vn -0.706255 -0.706256 0.049053
vn -0.802454 -0.583017 -0.127120
vn -0.574265 -0.574264 0.583473
vn -0.574265 -0.574264 0.583473
vn -0.574265 -0.574264 0.583473
vn -0.574265 -0.574264 0.583473
vn -0.889934 -0.453444 0.049053
vn -0.889934 -0.453444 0.049053
vn -0.943341 -0.306510 -0.127120
vn -0.723616 -0.368700 0.583473
vn -0.723616 -0.368700 0.583473
vn -0.723616 -0.368700 0.583473
vn -0.723616 -0.368700 0.583473
vn -0.986499 -0.156247 0.049053
vn -0.986499 -0.156247 0.049053
vn -0.802134 -0.127046 0.583473
vn -0.802134 -0.127046 0.583473
vn -0.802134 -0.127046 0.583473
vn -0.802134 -0.127046 0.583473
vn -0.000000 -0.000000 1.000000
vn -0.000000 -0.000000 1.000000
vn -0.000000 -0.000000 1.000000
vn -0.525235 0.083189 0.846881
vn -0.525235 0.083189 0.846881
vn -0.525235 0.083189 0.846881
vn -0.525235 0.083189 0.846881
vn -0.473821 0.241425 0.846881
vn -0.473821 0.241425 0.846881
vn -0.473821 0.241425 0.846881
vn -0.473821 0.241425 0.846881
vn -0.000000 -0.000000 1.000000
vn -0.000000 -0.000000 1.000000
vn -0.000000 -0.000000 1.000000
vn -0.376027 0.376027 0.846881
vn -0.376027 0.376027 0.846881
vn -0.376027 0.376027 0.846881
vn -0.376027 0.376027 0.846881
vn -0.000000 -0.000000 1.000000
vn -0.000000 -0.000000 1.000000
vn -0.000000 -0.000000 1.000000
vn -0.241424 0.473822 0.846881
vn -0.241424 0.473822 0.846881
vn -0.241424 0.473822 0.846881
vn -0.241424 0.473822 0.846881
vn -0.000000 -0.000001 1.000000
vn -0.000000 -0.000001 1.000000
vn -0.000000 -0.000001 1.000000
vn -0.083189 0.525236 0.846881
vn -0.083189 0.525236 0.846881
vn -0.083189 0.525236 0.846881
vn -0.083189 0.525236 0.846881
vn -0.000000 0.000000 1.000000
vn -0.000000 0.000000 1.000000
vn -0.000000 0.000000 1.000000
vn 0.083189 0.525236 0.846880
vn 0.083189 0.525236 0.846880
vn 0.083189 0.525236 0.846880
vn 0.083189 0.525236 0.846880
vn -0.000000 -0.000000 1.000000
vn -0.000000 -0.000000 1.000000
vn -0.000000 -0.000000 1.000000
vn 0.241423 0.473822 0.846881
vn 0.241423 0.473822 0.846881
vn 0.241423 0.473822 0.846881
vn 0.241423 0.473822 0.846881
vn -0.000000 0.000002 1.000000
vn -0.000000 0.000002 1.000000
vn -0.000000 0.000002 1.000000
vn 0.376027 0.376027 0.846881
vn 0.376027 0.376027 0.846881
vn 0.376027 0.376027 0.846881
vn 0.376027 0.376027 0.846881
vn -0.000000 -0.000000 1.000000
vn -0.000000 -0.000000 1.000000
vn -0.000000 -0.000000 1.000000
vn 0.473821 0.241423 0.846881
vn 0.473821 0.241423 0.846881
vn 0.473821 0.241423 0.846881
vn 0.473821 0.241423 0.846881
vn -0.000000 -0.000000 1.000000
vn -0.000000 -0.000000 1.000000
vn -0.000000 -0.000000 1.000000
vn 0.525235 0.083190 0.846881
vn 0.525235 0.083190 0.846881
vn 0.525235 0.083190 0.846881
vn 0.525235 0.083190 0.846881
vn -0.000000 -0.000000 1.000000
vn -0.000000 -0.000000 1.000000
vn -0.000000 -0.000000 1.000000
vn 0.525235 -0.083190 0.846881
vn 0.525235 -0.083190 0.846881
vn 0.525235 -0.083190 0.846881
vn 0.525235 -0.083190 0.846881
vn -0.000000 -0.000000 1.000000
vn -0.000000 -0.000000 1.000000
vn -0.000000 -0.000000 1.000000
vn 0.473821 -0.241425 0.846881
vn 0.473821 -0.241425 0.846881
vn 0.473821 -0.241425 0.846881
vn 0.473821 -0.241425 0.846881
vn -0.000000 -0.000000 1.000000
vn -0.000000 -0.000000 1.000000
vn -0.000000 -0.000000 1.000000
vn 0.376027 -0.376026 0.846881
vn 0.376027 -0.376026 0.846881
vn 0.376027 -0.376026 0.846881
vn 0.376027 -0.376026 0.846881
vn -0.000000 -0.000000 1.000000
vn -0.000000 -0.000000 1.000000
vn -0.000000 -0.000000 1.000000
vn 0.241424 -0.473821 0.846881
vn 0.241424 -0.473821 0.846881
vn 0.241424 -0.473821 0.846881
vn 0.241424 -0.473821 0.846881
vn -0.000000 -0.000002 1.000000
vn -0.000000 -0.000002 1.000000
vn -0.000000 -0.000002 1.000000
vn 0.083189 -0.525235 0.846881
vn 0.083189 -0.525235 0.846881
vn 0.083189 -0.525235 0.846881
vn 0.083189 -0.525235 0.846881
vn -0.000000 0.000001 1.000000
vn -0.000000 0.000001 1.000000
vn -0.000000 0.000001 1.000000
vn -0.083189 -0.525235 0.846881
vn -0.083189 -0.525235 0.846881
vn -0.083189 -0.525235 0.846881
vn -0.083189 -0.525235 0.846881
vn -0.000000 -0.000000 1.000000
vn -0.000000 -0.000000 1.000000
vn -0.000000 -0.000000 1.000000
vn -0.241424 -0.473821 0.846881
vn -0.241424 -0.473821 0.846881
vn -0.241424 -0.473821 0.846881
vn -0.241424 -0.473821 0.846881
vn -0.000000 -0.000000 1.000000
vn -0.000000 -0.000000 1.000000
vn -0.000000 -0.000000 1.000000
vn -0.376027 -0.376026 0.846881
vn -0.376027 -0.376026 0.846881
vn -0.376027 -0.376026 0.846881
vn -0.376027 -0.376026 0.846881
vn -0.000000 0.000003 1.000000
vn -0.000000 0.000003 1.000000
vn -0.000000 0.000003 1.000000
vn -0.473821 -0.241424 0.846881
vn -0.473821 -0.241424 0.846881
vn -0.473821 -0.241424 0.846881
vn -0.473821 -0.241424 0.846881
vn -0.000000 -0.000000 1.000000
vn -0.000000 -0.000000 1.000000
vn -0.000000 -0.000000 1.000000
vn -0.525235 -0.083191 0.846881
vn -0.525235 -0.083191 0.846881
vn -0.525235 -0.083191 0.846881
vn -0.525235 -0.083191 0.846881
vn -0.000000 -0.000003 1.000000
vn -0.000000 -0.000003 1.000000
vn -0.000000 -0.000003 1.000000
vn -0.989308 -0.000001 -0.145843
vn -0.940888 0.305712 -0.145843
vn -0.638713 0.207533 -0.740929
vn -0.671583 0.000000 -0.740929
vn -0.543323 0.394743 -0.740930
vn -0.800366 0.581501 -0.145843
vn -0.394746 0.543321 -0.740930
vn -0.581501 0.800367 -0.145843
vn -0.940888 -0.305713 -0.145843
vn -0.638714 -0.207526 -0.740930
vn -0.207531 0.638712 -0.740931
vn -0.305713 0.940887 -0.145843
vn -0.000001 0.671585 -0.740927
vn 0.000000 0.989308 -0.145843
vn 0.207529 0.638720 -0.740924
vn 0.305713 0.940887 -0.145843
vn 0.394748 0.543319 -0.740931
vn 0.581501 0.800366 -0.145843
vn 0.543323 0.394744 -0.740930
vn 0.800367 0.581500 -0.145843
vn 0.638713 0.207534 -0.740929
vn 0.940887 0.305713 -0.145843
vn 0.671583 -0.000005 -0.740929
vn 0.989308 0.000000 -0.145843
vn 0.638713 -0.207529 -0.740930
vn 0.940887 -0.305713 -0.145843
vn 0.543323 -0.394743 -0.740931
vn 0.800367 -0.581501 -0.145843
vn 0.394746 -0.543324 -0.740928
vn 0.581501 -0.800367 -0.145843
vn 0.207530 -0.638717 -0.740927
vn 0.305713 -0.940888 -0.145843
vn -0.000000 -0.671582 -0.740930
vn -0.000000 -0.989308 -0.145843
vn -0.207531 -0.638712 -0.740930
vn -0.305713 -0.940887 -0.145843
vn -0.394745 -0.543326 -0.740927
vn -0.581500 -0.800367 -0.145843
vn -0.543324 -0.394741 -0.740931
vn -0.800367 -0.581500 -0.145843
vn 0.000000 -0.000000 -1.000000
s off
f 61/63/1 4/44/2 3/1/3 60/42/4
s 1
f 3/3/5 5/104/6 62/103/7 60/41/8
f 5/4/6 3/2/9 6/6/10 8/85/11
s off
f 6/5/12 3/1/13 4/44/14 7/45/15
s 1
f 8/85/11 6/6/16 9/8/17 11/86/18
s off
f 9/7/19 6/5/20 7/45/21 10/46/22
s 1
f 11/86/18 9/8/23 12/10/24 14/87/25
s off
f 12/9/26 9/7/27 10/46/28 13/47/29
s 1
f 14/87/25 12/10/30 15/12/31 17/88/32
s off
f 15/11/33 12/9/34 13/47/35 16/48/36
s 1
f 17/88/32 15/12/37 18/14/38 20/89/39
s off
f 18/13/40 15/11/41 16/48/42 19/49/43
s 1
f 20/89/39 18/14/44 21/16/45 23/90/46
s off
f 21/15/47 18/13/48 19/49/49 22/50/50
s 1
f 23/90/46 21/16/51 24/18/52 26/91/53
s off
f 24/17/54 21/15/55 22/50/56 25/51/57
s 1
f 26/91/53 24/18/58 27/20/59 29/92/60
s off
f 27/19/61 24/17/62 25/51/63 28/52/64
s 1
f 29/92/60 27/20/65 30/22/66 32/93/67
s off
f 30/21/68 27/19/69 28/52/70 31/53/71
s 1
f 32/93/67 30/22/72 33/24/73 35/94/74
s off
f 33/23/75 30/21/76 31/53/77 34/54/78
s 1
f 35/94/74 33/24/79 36/26/80 38/95/81
s off
f 36/25/82 33/23/83 34/54/84 37/55/85
s 1
f 38/95/81 36/26/86 39/28/87 41/96/88
s off
f 39/27/89 36/25/90 37/55/91 40/56/92
s 1
f 41/96/88 39/28/93 42/30/94 44/97/95
s off
f 42/29/96 39/27/97 40/56/98 43/57/99
s 1
f 44/97/95 42/30/100 45/32/101 47/98/102
s off
f 45/31/103 42/29/104 43/57/105 46/58/106
s 1
f 47/98/102 45/32/107 48/34/108 50/99/109
s off
f 48/33/110 45/31/111 46/58/112 49/59/113
s 1
f 50/99/109 48/34/114 51/36/115 53/100/116
s off
f 51/35/117 48/33/118 49/59/119 52/60/120
s 1
f 53/100/116 51/36/121 54/38/122 56/101/123
s off
f 54/37/124 51/35/125 52/60/126 55/61/127
s 1
f 56/101/123 54/38/128 57/40/129 59/102/130
s off
f 57/39/131 54/37/132 55/61/133 58/62/134
s 1
f 59/102/130 57/40/135 60/41/136 62/103/7
s off
f 61/63/137 60/42/138 57/39/139 58/62/140
f 63/64/141 82/83/142 1/43/143
f 82/83/144 63/64/145 4/44/146 61/63/147
f 63/64/148 64/65/149 7/45/150 4/44/151
f 64/65/152 63/64/153 1/43/154
f 64/65/155 65/66/156 10/46/157 7/45/158
f 65/66/159 64/65/160 1/43/161
f 65/66/162 66/67/163 13/47/164 10/46/165
f 66/67/166 65/66/167 1/43/168
f 66/67/169 67/68/170 16/48/171 13/47/172
f 67/68/173 66/67/174 1/43/175
f 67/68/176 68/69/177 19/49/178 16/48/179
f 68/69/180 67/68/181 1/43/182
f 68/69/183 69/70/184 22/50/185 19/49/186
f 69/70/187 68/69/188 1/43/189
f 69/70/190 70/71/191 25/51/192 22/50/193
f 70/71/194 69/70/195 1/43/196
f 70/71/197 71/72/198 28/52/199 25/51/200
f 71/72/201 70/71/202 1/43/203
f 71/72/204 72/73/205 31/53/206 28/52/207
f 72/73/208 71/72/209 1/43/210
f 72/73/211 73/74/212 34/54/213 31/53/214
f 73/74/215 72/73/216 1/43/217
f 73/74/218 74/75/219 37/55/220 34/54/221
f 74/75/222 73/74/223 1/43/224
f 74/75/225 75/76/226 40/56/227 37/55/228
f 75/76/229 74/75/230 1/43/231
f 75/76/232 76/77/233 43/57/234 40/56/235
f 76/77/236 75/76/237 1/43/238
f 76/77/239 77/78/240 46/58/241 43/57/242
f 77/78/243 76/77/244 1/43/245
f 77/78/246 78/79/247 49/59/248 46/58/249
f 78/79/250 77/78/251 1/43/252
f 78/79/253 79/80/254 52/60/255 49/59/256
f 79/80/257 78/79/258 1/43/259
f 79/80/260 80/81/261 55/61/262 52/60/263
f 80/81/264 79/80/265 1/43/266
f 80/81/267 81/82/268 58/62/269 55/61/270
f 81/82/271 80/81/272 1/43/273
f 81/82/274 82/83/275 61/63/276 58/62/277
f 82/83/278 81/82/279 1/43/280
s 1
f 87/111/281 83/105/282 84/108/283 88/112/284
f 86/110/285 84/107/283 83/106/282 85/109/286
f 90/114/287 86/110/285 85/109/286 89/113/288
f 121/145/289 87/111/281 88/112/284 122/146/290
f 92/116/291 90/114/287 89/113/288 91/115/292
f 94/118/293 92/116/291 91/115/292 93/117/294
f 96/120/295 94/118/293 93/117/294 95/119/296
f 98/122/297 96/120/295 95/119/296 97/121/298
f 100/124/299 98/122/297 97/121/298 99/123/300
f 102/126/301 100/124/299 99/123/300 101/125/302
f 104/128/303 102/126/301 101/125/302 103/127/304
f 106/130/305 104/128/303 103/127/304 105/129/306
f 108/132/307 106/130/305 105/129/306 107/131/308
f 110/134/309 108/132/307 107/131/308 109/133/310
f 112/136/311 110/134/309 109/133/310 111/135/312
f 114/138/313 112/136/311 111/135/312 113/137/314
f 116/140/315 114/138/313 113/137/314 115/139/316
f 118/142/317 116/140/315 115/139/316 117/141/318
f 120/144/319 118/142/317 117/141/318 119/143/320
f 121/145/289 122/146/290 120/144/319 119/143/320
f 84/107/283 86/110/285 2/84/321
f 88/112/284 84/108/283 2/84/321
f 86/110/285 90/114/287 2/84/321
f 90/114/287 92/116/291 2/84/321
f 92/116/291 94/118/293 2/84/321
f 94/118/293 96/120/295 2/84/321
f 96/120/295 98/122/297 2/84/321
f 98/122/297 100/124/299 2/84/321
f 100/124/299 102/126/301 2/84/321
f 102/126/301 104/128/303 2/84/321
f 104/128/303 106/130/305 2/84/321
f 106/130/305 108/132/307 2/84/321
f 108/132/307 110/134/309 2/84/321
f 110/134/309 112/136/311 2/84/321
f 112/136/311 114/138/313 2/84/321
f 114/138/313 116/140/315 2/84/321
f 116/140/315 118/142/317 2/84/321
f 118/142/317 120/144/319 2/84/321
f 120/144/319 122/146/290 2/84/321
f 122/146/290 88/112/284 2/84/321
f 85/109/286 83/106/282 5/4/6 8/85/11
f 89/113/288 85/109/286 8/85/11 11/86/18
f 91/115/292 89/113/288 11/86/18 14/87/25
f 93/117/294 91/115/292 14/87/25 17/88/32
f 95/119/296 93/117/294 17/88/32 20/89/39
f 97/121/298 95/119/296 20/89/39 23/90/46
f 99/123/300 97/121/298 23/90/46 26/91/53
f 101/125/302 99/123/300 26/91/53 29/92/60
f 103/127/304 101/125/302 29/92/60 32/93/67
f 105/129/306 103/127/304 32/93/67 35/94/74
f 107/131/308 105/129/306 35/94/74 38/95/81
f 109/133/310 107/131/308 38/95/81 41/96/88
f 111/135/312 109/133/310 41/96/88 44/97/95
f 113/137/314 111/135/312 44/97/95 47/98/102
f 115/139/316 113/137/314 47/98/102 50/99/109
f 117/141/318 115/139/316 50/99/109 53/100/116
f 119/143/320 117/141/318 53/100/116 56/101/123
f 121/145/289 119/143/320 56/101/123 59/102/130
f 87/111/281 121/145/289 59/102/130 62/103/7
f 83/105/282 87/111/281 62/103/7 5/104/6
