# MagicaVoxel @ ephtracy

# material
mtllib Amazon.mtl
usemtl palette

# normals
vn -1 0 0
vn 1 0 0
vn 0 0 1
vn 0 0 -1
vn 0 -1 0
vn 0 1 0

# texcoords
vt 0.00585938 0.5
vt 0.0605469 0.5
vt 0.146484 0.5
vt 0.193359 0.5
vt 0.197266 0.5
vt 0.201172 0.5
vt 0.248047 0.5
vt 0.923828 0.5
vt 0.931641 0.5
vt 0.939453 0.5
vt 0.951172 0.5

# verts
v -0.375 0.75 -0.125
v -0.375 0.75 -0.25
v -0.375 0.875 0.25
v -0.375 0.875 -0.125
v -0.375 0.875 -0.25
v -0.375 0.875 -0.375
v -0.375 1 0.25
v -0.375 1 -0.125
v -0.375 1 -0.25
v -0.375 1 -0.375
v -0.375 1.125 -0.125
v -0.375 1.125 -0.25
v -0.375 1.125 -0.375
v -0.375 1.5 -0.25
v -0.375 1.5 -0.375
v -0.375 1.625 -0.25
v -0.375 1.625 -0.375
v -0.25 0 -0.25
v -0.25 0 -0.375
v -0.25 0.125 -0.25
v -0.25 0.125 -0.375
v -0.25 0.375 -0.25
v -0.25 0.375 -0.375
v -0.25 0.5 -0.125
v -0.25 0.5 -0.25
v -0.25 0.5 -0.375
v -0.25 0.5 -0.5
v -0.25 0.75 -0.125
v -0.25 0.75 -0.25
v -0.25 0.875 -0.25
v -0.25 0.875 -0.375
v -0.25 1 -0.375
v -0.25 1 -0.5
v -0.25 1.125 -0.125
v -0.25 1.125 -0.25
v -0.25 1.125 -0.375
v -0.25 1.125 -0.5
v -0.25 1.25 -0.125
v -0.25 1.25 -0.25
v -0.25 1.375 -0.375
v -0.25 1.375 -0.5
v -0.25 1.5 -0.125
v -0.25 1.5 -0.25
v -0.25 1.5 -0.375
v -0.25 1.5 -0.5
v -0.25 1.625 -0.125
v -0.25 1.625 -0.25
v -0.25 1.625 -0.375
v -0.25 1.625 -0.5
v -0.125 1.625 -0.125
v -0.125 1.625 -0.25
v -0.125 1.625 -0.5
v -0.125 1.75 -0.25
v -0.125 1.75 -0.5
v -0.125 1.875 -0.125
v -0.125 1.875 -0.25
v -0.125 1.875 -0.5
v -0.125 2 -0.125
v -0.125 2 -0.25
v -0.125 2 -0.5
v 0 0.5 -0.125
v 0 0.5 -0.25
v 0 0.5 -0.375
v 0 0.5 -0.5
v 0 0.625 -0.125
v 0 0.625 -0.25
v 0 0.625 -0.375
v 0 0.625 -0.5
v 0.25 0 -0.25
v 0.25 0 -0.375
v 0.25 0.125 -0.25
v 0.25 0.125 -0.375
v 0.25 0.375 -0.25
v 0.25 0.375 -0.375
v 0.25 0.5 -0.125
v 0.25 0.5 -0.25
v 0.25 0.5 -0.375
v 0.25 0.5 -0.5
v 0.25 0.625 -0.125
v 0.25 0.625 -0.25
v 0.25 0.625 -0.375
v 0.25 0.625 -0.5
v -0.25 0.875 0.25
v -0.25 0.875 -0.125
v -0.25 1 0.25
v -0.25 1 -0.125
v -0.125 0 -0.25
v -0.125 0 -0.375
v -0.125 0.125 -0.25
v -0.125 0.125 -0.375
v -0.125 0.375 -0.25
v -0.125 0.375 -0.375
v -0.125 0.5 -0.125
v -0.125 0.5 -0.25
v -0.125 0.5 -0.375
v -0.125 0.5 -0.5
v -0.125 0.625 -0.125
v -0.125 0.625 -0.25
v -0.125 0.625 -0.375
v -0.125 0.625 -0.5
v 0.125 0.5 -0.125
v 0.125 0.5 -0.25
v 0.125 0.5 -0.375
v 0.125 0.5 -0.5
v 0.125 0.625 -0.125
v 0.125 0.625 -0.25
v 0.125 0.625 -0.375
v 0.125 0.625 -0.5
v 0.25 1.625 -0.125
v 0.25 1.625 -0.25
v 0.25 1.625 -0.5
v 0.25 1.75 -0.25
v 0.25 1.75 -0.5
v 0.25 1.875 -0.125
v 0.25 1.875 -0.25
v 0.25 1.875 -0.5
v 0.25 2 -0.125
v 0.25 2 -0.25
v 0.25 2 -0.5
v 0.375 0 -0.25
v 0.375 0 -0.375
v 0.375 0.125 -0.25
v 0.375 0.125 -0.375
v 0.375 0.375 -0.25
v 0.375 0.375 -0.375
v 0.375 0.5 -0.125
v 0.375 0.5 -0.25
v 0.375 0.5 -0.375
v 0.375 0.5 -0.5
v 0.375 0.875 -0.25
v 0.375 0.875 -0.375
v 0.375 1 -0.125
v 0.375 1 -0.25
v 0.375 1 -0.375
v 0.375 1 -0.5
v 0.375 1.125 -0.125
v 0.375 1.125 -0.25
v 0.375 1.125 -0.375
v 0.375 1.125 -0.5
v 0.375 1.25 -0.125
v 0.375 1.25 -0.25
v 0.375 1.375 -0.375
v 0.375 1.375 -0.5
v 0.375 1.5 -0.125
v 0.375 1.5 -0.25
v 0.375 1.5 -0.375
v 0.375 1.5 -0.5
v 0.375 1.625 -0.125
v 0.375 1.625 -0.25
v 0.375 1.625 -0.375
v 0.375 1.625 -0.5
v 0.5 0.875 -0.25
v 0.5 0.875 -0.375
v 0.5 1 -0.25
v 0.5 1 -0.375
v 0.5 1.125 -0.25
v 0.5 1.125 -0.375
v 0.5 1.5 -0.25
v 0.5 1.5 -0.375
v 0.5 1.625 -0.25
v 0.5 1.625 -0.375
v -0.375 0.875 0.25
v -0.375 1 0.25
v -0.25 0.875 0.25
v -0.25 1 0.25
v -0.375 0.75 -0.125
v -0.375 0.875 -0.125
v -0.375 1 -0.125
v -0.375 1.125 -0.125
v -0.25 0.5 -0.125
v -0.25 0.75 -0.125
v -0.25 0.875 -0.125
v -0.25 1 -0.125
v -0.25 1.125 -0.125
v -0.25 1.25 -0.125
v -0.25 1.5 -0.125
v -0.25 1.625 -0.125
v -0.125 0.5 -0.125
v -0.125 0.625 -0.125
v -0.125 1 -0.125
v -0.125 1.25 -0.125
v -0.125 1.375 -0.125
v -0.125 1.625 -0.125
v -0.125 1.875 -0.125
v -0.125 2 -0.125
v 0 0.5 -0.125
v 0 0.625 -0.125
v 0 1 -0.125
v 0 1.125 -0.125
v 0 1.375 -0.125
v 0 1.5 -0.125
v 0.125 0.5 -0.125
v 0.125 0.625 -0.125
v 0.125 1 -0.125
v 0.125 1.125 -0.125
v 0.125 1.375 -0.125
v 0.125 1.5 -0.125
v 0.25 0.5 -0.125
v 0.25 0.625 -0.125
v 0.25 1 -0.125
v 0.25 1.25 -0.125
v 0.25 1.375 -0.125
v 0.25 1.625 -0.125
v 0.25 1.875 -0.125
v 0.25 2 -0.125
v 0.375 0.5 -0.125
v 0.375 1 -0.125
v 0.375 1.125 -0.125
v 0.375 1.25 -0.125
v 0.375 1.5 -0.125
v 0.375 1.625 -0.125
v -0.375 1.125 -0.25
v -0.375 1.5 -0.25
v -0.375 1.625 -0.25
v -0.25 0 -0.25
v -0.25 0.125 -0.25
v -0.25 0.375 -0.25
v -0.25 0.5 -0.25
v -0.25 1.125 -0.25
v -0.25 1.25 -0.25
v -0.25 1.5 -0.25
v -0.25 1.625 -0.25
v -0.125 0 -0.25
v -0.125 0.125 -0.25
v -0.125 0.375 -0.25
v -0.125 0.5 -0.25
v -0.125 0.625 -0.25
v 0 0.5 -0.25
v 0 0.625 -0.25
v 0.125 0.5 -0.25
v 0.125 0.625 -0.25
v 0.25 0 -0.25
v 0.25 0.125 -0.25
v 0.25 0.375 -0.25
v 0.25 0.5 -0.25
v 0.25 0.625 -0.25
v 0.375 0 -0.25
v 0.375 0.125 -0.25
v 0.375 0.375 -0.25
v 0.375 0.5 -0.25
v 0.375 0.875 -0.25
v 0.375 1 -0.25
v 0.375 1.125 -0.25
v 0.375 1.25 -0.25
v 0.375 1.5 -0.25
v 0.375 1.625 -0.25
v 0.5 0.875 -0.25
v 0.5 1 -0.25
v 0.5 1.125 -0.25
v 0.5 1.5 -0.25
v 0.5 1.625 -0.25
v -0.375 0.75 -0.25
v -0.375 0.875 -0.25
v -0.25 0.75 -0.25
v -0.25 0.875 -0.25
v -0.375 0.875 -0.375
v -0.375 1 -0.375
v -0.375 1.125 -0.375
v -0.375 1.5 -0.375
v -0.375 1.625 -0.375
v -0.25 0 -0.375
v -0.25 0.125 -0.375
v -0.25 0.375 -0.375
v -0.25 0.5 -0.375
v -0.25 0.875 -0.375
v -0.25 1 -0.375
v -0.25 1.125 -0.375
v -0.25 1.375 -0.375
v -0.25 1.5 -0.375
v -0.25 1.625 -0.375
v -0.125 0 -0.375
v -0.125 0.125 -0.375
v -0.125 0.375 -0.375
v -0.125 0.5 -0.375
v -0.125 0.625 -0.375
v 0 0.5 -0.375
v 0 0.625 -0.375
v 0.125 0.5 -0.375
v 0.125 0.625 -0.375
v 0.25 0 -0.375
v 0.25 0.125 -0.375
v 0.25 0.375 -0.375
v 0.25 0.5 -0.375
v 0.25 0.625 -0.375
v 0.375 0 -0.375
v 0.375 0.125 -0.375
v 0.375 0.375 -0.375
v 0.375 0.5 -0.375
v 0.375 0.875 -0.375
v 0.375 1 -0.375
v 0.375 1.125 -0.375
v 0.375 1.375 -0.375
v 0.375 1.5 -0.375
v 0.375 1.625 -0.375
v 0.5 0.875 -0.375
v 0.5 1 -0.375
v 0.5 1.125 -0.375
v 0.5 1.5 -0.375
v 0.5 1.625 -0.375
v -0.25 0.5 -0.5
v -0.25 1 -0.5
v -0.25 1.125 -0.5
v -0.25 1.375 -0.5
v -0.25 1.5 -0.5
v -0.25 1.625 -0.5
v -0.125 0.5 -0.5
v -0.125 0.625 -0.5
v -0.125 1 -0.5
v -0.125 1.5 -0.5
v -0.125 1.625 -0.5
v -0.125 1.75 -0.5
v -0.125 1.875 -0.5
v -0.125 2 -0.5
v 0 0.5 -0.5
v 0 0.625 -0.5
v 0 1 -0.5
v 0.125 0.5 -0.5
v 0.125 0.625 -0.5
v 0.125 1 -0.5
v 0.25 0.5 -0.5
v 0.25 0.625 -0.5
v 0.25 1 -0.5
v 0.25 1.5 -0.5
v 0.25 1.625 -0.5
v 0.25 1.75 -0.5
v 0.25 1.875 -0.5
v 0.25 2 -0.5
v 0.375 0.5 -0.5
v 0.375 1 -0.5
v 0.375 1.125 -0.5
v 0.375 1.375 -0.5
v 0.375 1.5 -0.5
v 0.375 1.625 -0.5
v -0.25 0 -0.25
v -0.125 0 -0.25
v 0.25 0 -0.25
v 0.375 0 -0.25
v -0.25 0 -0.375
v -0.125 0 -0.375
v 0.25 0 -0.375
v 0.375 0 -0.375
v -0.25 0.5 -0.125
v -0.125 0.5 -0.125
v 0 0.5 -0.125
v 0.125 0.5 -0.125
v 0.25 0.5 -0.125
v 0.375 0.5 -0.125
v -0.25 0.5 -0.25
v -0.125 0.5 -0.25
v 0 0.5 -0.25
v 0.125 0.5 -0.25
v 0.25 0.5 -0.25
v 0.375 0.5 -0.25
v -0.25 0.5 -0.375
v -0.125 0.5 -0.375
v 0 0.5 -0.375
v 0.125 0.5 -0.375
v 0.25 0.5 -0.375
v 0.375 0.5 -0.375
v -0.25 0.5 -0.5
v -0.125 0.5 -0.5
v 0 0.5 -0.5
v 0.125 0.5 -0.5
v 0.25 0.5 -0.5
v 0.375 0.5 -0.5
v -0.125 0.625 -0.125
v 0 0.625 -0.125
v 0.125 0.625 -0.125
v 0.25 0.625 -0.125
v -0.125 0.625 -0.25
v 0 0.625 -0.25
v 0.125 0.625 -0.25
v 0.25 0.625 -0.25
v -0.125 0.625 -0.375
v 0 0.625 -0.375
v 0.125 0.625 -0.375
v 0.25 0.625 -0.375
v -0.125 0.625 -0.5
v 0 0.625 -0.5
v 0.125 0.625 -0.5
v 0.25 0.625 -0.5
v -0.375 0.75 -0.125
v -0.25 0.75 -0.125
v -0.375 0.75 -0.25
v -0.25 0.75 -0.25
v -0.375 0.875 0.25
v -0.25 0.875 0.25
v -0.375 0.875 -0.125
v -0.25 0.875 -0.125
v -0.375 0.875 -0.25
v -0.25 0.875 -0.25
v 0.375 0.875 -0.25
v 0.5 0.875 -0.25
v -0.375 0.875 -0.375
v -0.25 0.875 -0.375
v 0.375 0.875 -0.375
v 0.5 0.875 -0.375
v -0.375 1 0.25
v -0.25 1 0.25
v -0.375 1 -0.125
v -0.25 1 -0.125
v -0.375 1.125 -0.125
v -0.25 1.125 -0.125
v -0.375 1.125 -0.25
v -0.25 1.125 -0.25
v -0.25 1.625 -0.125
v -0.125 1.625 -0.125
v 0.25 1.625 -0.125
v 0.375 1.625 -0.125
v -0.375 1.625 -0.25
v -0.25 1.625 -0.25
v -0.125 1.625 -0.25
v 0.25 1.625 -0.25
v 0.375 1.625 -0.25
v 0.5 1.625 -0.25
v -0.375 1.625 -0.375
v -0.25 1.625 -0.375
v 0.375 1.625 -0.375
v 0.5 1.625 -0.375
v -0.25 1.625 -0.5
v -0.125 1.625 -0.5
v 0.25 1.625 -0.5
v 0.375 1.625 -0.5
v -0.125 2 -0.125
v 0.25 2 -0.125
v -0.125 2 -0.25
v 0.25 2 -0.25
v -0.125 2 -0.5
v 0.25 2 -0.5

# faces
f 4/2/1 2/2/1 1/2/1
f 5/2/1 2/2/1 4/2/1
f 7/2/1 4/2/1 3/2/1
f 7/2/1 5/2/1 4/2/1
f 8/2/1 5/2/1 7/2/1
f 9/3/1 6/3/1 5/3/1
f 9/2/1 5/2/1 8/2/1
f 10/3/1 6/3/1 9/3/1
f 11/2/1 9/2/1 8/2/1
f 12/11/1 10/11/1 9/11/1
f 12/2/1 9/2/1 11/2/1
f 13/11/1 10/11/1 12/11/1
f 14/5/1 13/5/1 12/5/1
f 15/5/1 13/5/1 14/5/1
f 16/3/1 15/3/1 14/3/1
f 17/3/1 15/3/1 16/3/1
f 20/6/1 19/6/1 18/6/1
f 21/6/1 19/6/1 20/6/1
f 22/5/1 21/5/1 20/5/1
f 23/5/1 21/5/1 22/5/1
f 25/11/1 23/11/1 22/11/1
f 26/11/1 23/11/1 25/11/1
f 28/8/1 25/8/1 24/8/1
f 29/9/1 26/9/1 25/9/1
f 29/8/1 25/8/1 28/8/1
f 30/9/1 26/9/1 29/9/1
f 31/8/1 27/8/1 26/8/1
f 31/9/1 26/9/1 30/9/1
f 32/8/1 27/8/1 31/8/1
f 33/8/1 27/8/1 32/8/1
f 36/4/1 33/4/1 32/4/1
f 37/4/1 33/4/1 36/4/1
f 38/3/1 35/3/1 34/3/1
f 39/3/1 35/3/1 38/3/1
f 40/3/1 37/3/1 36/3/1
f 41/3/1 37/3/1 40/3/1
f 42/8/1 39/8/1 38/8/1
f 43/8/1 39/8/1 42/8/1
f 44/4/1 41/4/1 40/4/1
f 45/4/1 41/4/1 44/4/1
f 46/3/1 43/3/1 42/3/1
f 47/3/1 43/3/1 46/3/1
f 48/3/1 45/3/1 44/3/1
f 49/3/1 45/3/1 48/3/1
f 53/3/1 51/3/1 50/3/1
f 53/5/1 52/5/1 51/5/1
f 54/5/1 52/5/1 53/5/1
f 55/3/1 53/3/1 50/3/1
f 56/7/1 54/7/1 53/7/1
f 56/3/1 53/3/1 55/3/1
f 57/7/1 54/7/1 56/7/1
f 58/7/1 56/7/1 55/7/1
f 59/5/1 57/5/1 56/5/1
f 59/7/1 56/7/1 58/7/1
f 60/5/1 57/5/1 59/5/1
f 65/8/1 62/8/1 61/8/1
f 66/8/1 62/8/1 65/8/1
f 67/8/1 64/8/1 63/8/1
f 68/8/1 64/8/1 67/8/1
f 71/6/1 70/6/1 69/6/1
f 72/6/1 70/6/1 71/6/1
f 73/5/1 72/5/1 71/5/1
f 74/5/1 72/5/1 73/5/1
f 76/11/1 74/11/1 73/11/1
f 77/11/1 74/11/1 76/11/1
f 79/8/1 76/8/1 75/8/1
f 80/8/1 76/8/1 79/8/1
f 81/8/1 78/8/1 77/8/1
f 82/8/1 78/8/1 81/8/1
f 83/2/2 84/2/2 85/2/2
f 85/2/2 84/2/2 86/2/2
f 87/6/2 88/6/2 89/6/2
f 89/6/2 88/6/2 90/6/2
f 89/5/2 90/5/2 91/5/2
f 91/5/2 90/5/2 92/5/2
f 91/11/2 92/11/2 94/11/2
f 94/11/2 92/11/2 95/11/2
f 93/8/2 94/8/2 97/8/2
f 97/8/2 94/8/2 98/8/2
f 95/8/2 96/8/2 99/8/2
f 99/8/2 96/8/2 100/8/2
f 101/8/2 102/8/2 105/8/2
f 105/8/2 102/8/2 106/8/2
f 103/8/2 104/8/2 107/8/2
f 107/8/2 104/8/2 108/8/2
f 109/3/2 110/3/2 112/3/2
f 110/5/2 111/5/2 112/5/2
f 112/5/2 111/5/2 113/5/2
f 109/3/2 112/3/2 114/3/2
f 112/7/2 113/7/2 115/7/2
f 114/3/2 112/3/2 115/3/2
f 115/7/2 113/7/2 116/7/2
f 114/7/2 115/7/2 117/7/2
f 115/5/2 116/5/2 118/5/2
f 117/7/2 115/7/2 118/7/2
f 118/5/2 116/5/2 119/5/2
f 120/6/2 121/6/2 122/6/2
f 122/6/2 121/6/2 123/6/2
f 122/5/2 123/5/2 124/5/2
f 124/5/2 123/5/2 125/5/2
f 124/11/2 125/11/2 127/11/2
f 127/11/2 125/11/2 128/11/2
f 127/9/2 128/9/2 130/9/2
f 126/8/2 127/8/2 130/8/2
f 128/8/2 129/8/2 131/8/2
f 130/9/2 128/9/2 131/9/2
f 126/8/2 130/8/2 132/8/2
f 132/8/2 130/8/2 133/8/2
f 131/8/2 129/8/2 134/8/2
f 134/8/2 129/8/2 135/8/2
f 132/4/2 133/4/2 136/4/2
f 136/4/2 133/4/2 137/4/2
f 134/4/2 135/4/2 138/4/2
f 138/4/2 135/4/2 139/4/2
f 136/3/2 137/3/2 140/3/2
f 140/3/2 137/3/2 141/3/2
f 138/3/2 139/3/2 142/3/2
f 142/3/2 139/3/2 143/3/2
f 140/8/2 141/8/2 144/8/2
f 144/8/2 141/8/2 145/8/2
f 142/4/2 143/4/2 146/4/2
f 146/4/2 143/4/2 147/4/2
f 144/3/2 145/3/2 148/3/2
f 148/3/2 145/3/2 149/3/2
f 146/3/2 147/3/2 150/3/2
f 150/3/2 147/3/2 151/3/2
f 152/3/2 153/3/2 154/3/2
f 154/3/2 153/3/2 155/3/2
f 154/11/2 155/11/2 156/11/2
f 156/11/2 155/11/2 157/11/2
f 156/5/2 157/5/2 158/5/2
f 158/5/2 157/5/2 159/5/2
f 158/3/2 159/3/2 160/3/2
f 160/3/2 159/3/2 161/3/2
f 164/2/3 163/2/3 162/2/3
f 165/2/3 163/2/3 164/2/3
f 171/2/3 167/2/3 166/2/3
f 172/2/3 167/2/3 171/2/3
f 173/2/3 169/2/3 168/2/3
f 174/2/3 169/2/3 173/2/3
f 178/8/3 172/8/3 171/8/3
f 178/8/3 171/8/3 170/8/3
f 178/8/3 173/8/3 172/8/3
f 179/8/3 173/8/3 178/8/3
f 180/4/3 174/4/3 173/4/3
f 180/8/3 173/8/3 179/8/3
f 181/8/3 176/8/3 175/8/3
f 181/3/3 175/3/3 174/3/3
f 182/8/3 176/8/3 181/8/3
f 183/3/3 177/3/3 176/3/3
f 187/9/3 180/9/3 179/9/3
f 188/4/3 174/4/3 180/4/3
f 188/9/3 180/9/3 187/9/3
f 189/3/3 181/3/3 174/3/3
f 189/4/3 174/4/3 188/4/3
f 189/3/3 182/3/3 181/3/3
f 190/8/3 176/8/3 182/8/3
f 190/3/3 182/3/3 189/3/3
f 191/3/3 184/3/3 183/3/3
f 191/8/3 176/8/3 190/8/3
f 191/3/3 183/3/3 176/3/3
f 192/8/3 187/8/3 186/8/3
f 192/8/3 188/8/3 187/8/3
f 193/8/3 188/8/3 192/8/3
f 194/7/3 189/7/3 188/7/3
f 194/8/3 188/8/3 193/8/3
f 195/3/3 190/3/3 189/3/3
f 195/7/3 189/7/3 194/7/3
f 195/3/3 191/3/3 190/3/3
f 196/3/3 191/3/3 195/3/3
f 197/3/3 184/3/3 191/3/3
f 197/3/3 191/3/3 196/3/3
f 199/9/3 194/9/3 193/9/3
f 200/4/3 195/4/3 194/4/3
f 200/9/3 194/9/3 199/9/3
f 201/3/3 196/3/3 195/3/3
f 202/8/3 197/8/3 196/8/3
f 202/3/3 196/3/3 201/3/3
f 203/3/3 184/3/3 197/3/3
f 204/7/3 185/7/3 184/7/3
f 204/3/3 184/3/3 203/3/3
f 205/7/3 185/7/3 204/7/3
f 206/8/3 199/8/3 198/8/3
f 206/8/3 200/8/3 199/8/3
f 207/4/3 195/4/3 200/4/3
f 207/8/3 200/8/3 206/8/3
f 208/3/3 201/3/3 195/3/3
f 208/4/3 195/4/3 207/4/3
f 209/8/3 202/8/3 201/8/3
f 209/3/3 201/3/3 208/3/3
f 210/8/3 197/8/3 202/8/3
f 210/8/3 202/8/3 209/8/3
f 210/3/3 203/3/3 197/3/3
f 211/3/3 203/3/3 210/3/3
f 219/5/3 213/5/3 212/5/3
f 220/5/3 213/5/3 219/5/3
f 221/3/3 214/3/3 213/3/3
f 221/5/3 213/5/3 220/5/3
f 222/3/3 214/3/3 221/3/3
f 223/6/3 216/6/3 215/6/3
f 224/5/3 217/5/3 216/5/3
f 224/6/3 216/6/3 223/6/3
f 225/11/3 218/11/3 217/11/3
f 225/5/3 217/5/3 224/5/3
f 226/11/3 218/11/3 225/11/3
f 228/10/3 227/10/3 226/10/3
f 229/10/3 227/10/3 228/10/3
f 235/10/3 231/10/3 230/10/3
f 236/10/3 231/10/3 235/10/3
f 237/6/3 233/6/3 232/6/3
f 238/5/3 234/5/3 233/5/3
f 238/6/3 233/6/3 237/6/3
f 239/11/3 235/11/3 234/11/3
f 239/5/3 234/5/3 238/5/3
f 240/11/3 235/11/3 239/11/3
f 247/3/3 242/3/3 241/3/3
f 248/11/3 243/11/3 242/11/3
f 248/3/3 242/3/3 247/3/3
f 249/5/3 245/5/3 244/5/3
f 249/11/3 243/11/3 248/11/3
f 249/5/3 244/5/3 243/5/3
f 250/3/3 246/3/3 245/3/3
f 250/5/3 245/5/3 249/5/3
f 251/3/3 246/3/3 250/3/3
f 252/2/4 253/2/4 254/2/4
f 254/2/4 253/2/4 255/2/4
f 256/3/4 257/3/4 265/3/4
f 257/11/4 258/11/4 266/11/4
f 265/3/4 257/3/4 266/3/4
f 258/5/4 259/5/4 267/5/4
f 266/11/4 258/11/4 267/11/4
f 267/5/4 259/5/4 268/5/4
f 259/3/4 260/3/4 269/3/4
f 268/5/4 259/5/4 269/5/4
f 269/3/4 260/3/4 270/3/4
f 261/6/4 262/6/4 271/6/4
f 262/5/4 263/5/4 272/5/4
f 271/6/4 262/6/4 272/6/4
f 263/11/4 264/11/4 273/11/4
f 272/5/4 263/5/4 273/5/4
f 273/11/4 264/11/4 274/11/4
f 274/10/4 275/10/4 276/10/4
f 276/10/4 275/10/4 277/10/4
f 278/10/4 279/10/4 283/10/4
f 283/10/4 279/10/4 284/10/4
f 280/6/4 281/6/4 285/6/4
f 281/5/4 282/5/4 286/5/4
f 285/6/4 281/6/4 286/6/4
f 282/11/4 283/11/4 287/11/4
f 286/5/4 282/5/4 287/5/4
f 287/11/4 283/11/4 288/11/4
f 289/3/4 290/3/4 295/3/4
f 290/11/4 291/11/4 296/11/4
f 295/3/4 290/3/4 296/3/4
f 292/5/4 293/5/4 297/5/4
f 296/11/4 291/11/4 297/11/4
f 291/5/4 292/5/4 297/5/4
f 293/3/4 294/3/4 298/3/4
f 297/5/4 293/5/4 298/5/4
f 298/3/4 294/3/4 299/3/4
f 300/8/4 301/8/4 306/8/4
f 306/8/4 301/8/4 307/8/4
f 301/4/4 302/4/4 308/4/4
f 307/8/4 301/8/4 308/8/4
f 304/3/4 305/3/4 309/3/4
f 303/4/4 304/4/4 309/4/4
f 309/3/4 305/3/4 310/3/4
f 307/9/4 308/9/4 315/9/4
f 308/4/4 302/4/4 316/4/4
f 315/9/4 308/9/4 316/9/4
f 314/8/4 315/8/4 317/8/4
f 315/8/4 316/8/4 317/8/4
f 317/8/4 316/8/4 318/8/4
f 316/4/4 302/4/4 319/4/4
f 318/8/4 316/8/4 319/8/4
f 318/9/4 319/9/4 321/9/4
f 319/4/4 302/4/4 322/4/4
f 321/9/4 319/9/4 322/9/4
f 303/4/4 309/4/4 323/4/4
f 309/5/4 310/5/4 323/5/4
f 310/5/4 311/5/4 323/5/4
f 323/5/4 311/5/4 324/5/4
f 311/7/4 312/7/4 325/7/4
f 324/5/4 311/5/4 325/5/4
f 312/5/4 313/5/4 326/5/4
f 325/7/4 312/7/4 326/7/4
f 326/5/4 313/5/4 327/5/4
f 320/8/4 321/8/4 328/8/4
f 321/8/4 322/8/4 328/8/4
f 322/4/4 302/4/4 329/4/4
f 328/8/4 322/8/4 329/8/4
f 302/3/4 303/3/4 330/3/4
f 329/4/4 302/4/4 330/4/4
f 303/4/4 323/4/4 331/4/4
f 330/3/4 303/3/4 331/3/4
f 323/3/4 324/3/4 332/3/4
f 331/4/4 323/4/4 332/4/4
f 332/3/4 324/3/4 333/3/4
f 338/6/5 335/6/5 334/6/5
f 339/6/5 335/6/5 338/6/5
f 340/6/5 337/6/5 336/6/5
f 341/6/5 337/6/5 340/6/5
f 348/8/5 343/8/5 342/8/5
f 349/8/5 343/8/5 348/8/5
f 350/8/5 345/8/5 344/8/5
f 351/8/5 345/8/5 350/8/5
f 352/8/5 347/8/5 346/8/5
f 353/8/5 347/8/5 352/8/5
f 355/10/5 350/10/5 349/10/5
f 356/4/5 351/4/5 350/4/5
f 356/10/5 350/10/5 355/10/5
f 357/10/5 352/10/5 351/10/5
f 357/4/5 351/4/5 356/4/5
f 358/10/5 352/10/5 357/10/5
f 360/8/5 355/8/5 354/8/5
f 361/8/5 355/8/5 360/8/5
f 362/8/5 357/8/5 356/8/5
f 363/8/5 357/8/5 362/8/5
f 364/8/5 359/8/5 358/8/5
f 365/8/5 359/8/5 364/8/5
f 370/9/5 367/9/5 366/9/5
f 371/9/5 367/9/5 370/9/5
f 372/9/5 369/9/5 368/9/5
f 373/9/5 369/9/5 372/9/5
f 378/9/5 375/9/5 374/9/5
f 379/9/5 375/9/5 378/9/5
f 380/9/5 377/9/5 376/9/5
f 381/9/5 377/9/5 380/9/5
f 384/2/5 383/2/5 382/2/5
f 385/2/5 383/2/5 384/2/5
f 388/2/5 387/2/5 386/2/5
f 389/2/5 387/2/5 388/2/5
f 394/3/5 391/3/5 390/3/5
f 395/3/5 391/3/5 394/3/5
f 396/3/5 393/3/5 392/3/5
f 397/3/5 393/3/5 396/3/5
f 398/2/6 399/2/6 400/2/6
f 400/2/6 399/2/6 401/2/6
f 402/2/6 403/2/6 404/2/6
f 404/2/6 403/2/6 405/2/6
f 406/3/6 407/3/6 411/3/6
f 411/3/6 407/3/6 412/3/6
f 408/3/6 409/3/6 413/3/6
f 413/3/6 409/3/6 414/3/6
f 411/3/6 412/3/6 416/3/6
f 410/3/6 411/3/6 416/3/6
f 416/3/6 412/3/6 417/3/6
f 414/3/6 415/3/6 418/3/6
f 413/3/6 414/3/6 418/3/6
f 418/3/6 415/3/6 419/3/6
f 417/3/6 412/3/6 420/3/6
f 420/3/6 412/3/6 421/3/6
f 413/3/6 418/3/6 422/3/6
f 422/3/6 418/3/6 423/3/6
f 424/7/6 425/7/6 426/7/6
f 426/7/6 425/7/6 427/7/6
f 426/5/6 427/5/6 428/5/6
f 428/5/6 427/5/6 429/5/6
