# MagicaVoxel @ ephtracy

# material
mtllib Devil.mtl
usemtl palette

# normals
vn -1 0 0
vn 1 0 0
vn 0 0 1
vn 0 0 -1
vn 0 -1 0
vn 0 1 0

# texcoords
vt 0.107422 0.5
vt 0.115234 0.5
vt 0.119141 0.5
vt 0.123047 0.5
vt 0.158203 0.5
vt 0.197266 0.5
vt 0.923828 0.5
vt 0.970703 0.5

# verts
v -0.625 1.5 0.625
v -0.625 1.5 0.5
v -0.625 1.875 0.625
v -0.625 1.875 0.5
v -0.375 0 0.625
v -0.375 0 0.5
v -0.375 1.125 0.625
v -0.375 1.125 0.5
v -0.375 1.125 -0.125
v -0.375 1.25 0.625
v -0.375 1.25 0.5
v -0.375 1.25 -0.125
v -0.375 1.5 0.625
v -0.375 1.5 0.5
v -0.375 1.625 0.625
v -0.375 1.625 0.5
v -0.375 1.875 0.625
v -0.375 1.875 0.5
v -0.25 0 -0
v -0.25 0 -0.125
v -0.25 0.75 0.125
v -0.25 0.75 -0
v -0.25 0.75 -0.125
v -0.25 0.75 -0.25
v -0.25 1 0.25
v -0.25 1 0.125
v -0.25 1.125 0.25
v -0.25 1.125 0.125
v -0.25 1.125 -0.125
v -0.25 1.25 -0.125
v -0.25 1.25 -0.25
v -0.25 1.5 -0
v -0.25 1.5 -0.125
v -0.25 1.75 -0
v -0.25 1.75 -0.125
v -0.125 0.375 0.125
v -0.125 0.375 -0
v -0.125 0.375 -0.125
v -0.125 0.375 -0.25
v -0.125 0.625 0.125
v -0.125 0.625 -0
v -0.125 0.625 -0.125
v -0.125 0.625 -0.25
v -0.125 0.625 -0.5
v -0.125 0.625 -0.625
v -0.125 0.75 0.125
v -0.125 0.75 -0
v -0.125 0.75 -0.125
v -0.125 0.75 -0.25
v -0.125 0.75 -0.5
v -0.125 0.75 -0.625
v -0.125 1.25 0.125
v -0.125 1.25 -0.25
v -0.125 1.375 0.125
v -0.125 1.375 -0
v -0.125 1.5 0.125
v -0.125 1.5 -0
v -0.125 1.5 -0.125
v -0.125 1.625 0.625
v -0.125 1.625 0.5
v -0.125 1.625 0.125
v -0.125 1.625 -0
v -0.125 1.625 -0.125
v -0.125 1.625 -0.25
v -0.125 1.875 0.625
v -0.125 1.875 0.5
v 0 0.5 -0.25
v 0 0.5 -0.5
v 0 0.625 -0.25
v 0 0.625 -0.375
v 0 0.625 -0.5
v 0 0.75 -0.375
v 0 0.75 -0.5
v 0.25 0 -0
v 0.25 0 -0.125
v 0.25 0.375 -0
v 0.25 0.375 -0.125
v 0.25 1.625 -0
v 0.25 1.625 -0.125
v 0.25 1.75 -0
v 0.25 1.75 -0.125
v -0.5 1.625 0.625
v -0.5 1.625 0.5
v -0.5 1.875 0.625
v -0.5 1.875 0.5
v -0.25 0 0.625
v -0.25 0 0.5
v -0.25 1.125 0.625
v -0.25 1.125 0.5
v -0.25 1.125 0.25
v -0.25 1.25 0.625
v -0.25 1.25 0.5
v -0.25 1.25 0.25
v -0.25 1.5 0.625
v -0.25 1.5 0.5
v -0.25 1.625 0.625
v -0.25 1.625 0.5
v -0.25 1.875 0.625
v -0.25 1.875 0.5
v -0.125 0 -0
v -0.125 0 -0.125
v -0.125 0.375 -0
v -0.125 0.375 -0.125
v -0.125 1.625 -0
v -0.125 1.625 -0.125
v -0.125 1.75 -0
v -0.125 1.75 -0.125
v 0 1.5 0.625
v 0 1.5 0.5
v 0 1.875 0.625
v 0 1.875 0.5
v 0.125 0.5 -0.25
v 0.125 0.5 -0.5
v 0.125 0.625 -0.25
v 0.125 0.625 -0.375
v 0.125 0.625 -0.5
v 0.125 0.625 -0.625
v 0.125 0.75 -0.375
v 0.125 0.75 -0.625
v 0.25 0.375 0.125
v 0.25 0.375 -0
v 0.25 0.375 -0.125
v 0.25 0.375 -0.25
v 0.25 0.625 0.125
v 0.25 0.625 -0
v 0.25 0.625 -0.125
v 0.25 0.625 -0.25
v 0.25 0.75 0.125
v 0.25 0.75 -0
v 0.25 0.75 -0.125
v 0.25 0.75 -0.25
v 0.25 1.25 0.125
v 0.25 1.25 -0.25
v 0.25 1.375 0.125
v 0.25 1.375 -0
v 0.25 1.5 0.125
v 0.25 1.5 -0
v 0.25 1.5 -0.125
v 0.25 1.625 0.125
v 0.25 1.625 -0
v 0.25 1.625 -0.125
v 0.25 1.625 -0.25
v 0.375 0 -0
v 0.375 0 -0.125
v 0.375 0.5 -0
v 0.375 0.5 -0.125
v 0.375 0.75 0.125
v 0.375 0.75 -0
v 0.375 0.75 -0.125
v 0.375 0.75 -0.25
v 0.375 1 0.25
v 0.375 1 0.125
v 0.375 1.125 0.25
v 0.375 1.125 0.125
v 0.375 1.25 0.25
v 0.375 1.25 -0
v 0.375 1.25 -0.125
v 0.375 1.25 -0.25
v 0.375 1.5 -0
v 0.375 1.5 -0.125
v 0.375 1.75 -0
v 0.375 1.75 -0.125
v 0.5 0.5 -0
v 0.5 0.5 -0.125
v 0.5 0.75 -0
v 0.5 0.75 -0.125
v 0.5 1.25 -0
v 0.5 1.25 -0.125
v -0.625 1.5 0.625
v -0.625 1.875 0.625
v -0.5 1.625 0.625
v -0.5 1.875 0.625
v -0.375 0 0.625
v -0.375 1.125 0.625
v -0.375 1.25 0.625
v -0.375 1.5 0.625
v -0.375 1.625 0.625
v -0.375 1.875 0.625
v -0.25 0 0.625
v -0.25 1.125 0.625
v -0.25 1.25 0.625
v -0.25 1.5 0.625
v -0.25 1.625 0.625
v -0.25 1.875 0.625
v -0.125 1.625 0.625
v -0.125 1.875 0.625
v 0 1.5 0.625
v 0 1.875 0.625
v -0.25 1 0.25
v -0.25 1.125 0.25
v -0.25 1.25 0.25
v -0.125 1 0.25
v -0.125 1.125 0.25
v 0.25 1 0.25
v 0.25 1.125 0.25
v 0.375 1 0.25
v 0.375 1.125 0.25
v 0.375 1.25 0.25
v -0.25 0.75 0.125
v -0.25 1 0.125
v -0.125 0.375 0.125
v -0.125 0.625 0.125
v -0.125 0.75 0.125
v -0.125 1 0.125
v -0.125 1.25 0.125
v -0.125 1.375 0.125
v -0.125 1.5 0.125
v -0.125 1.625 0.125
v 0 1.375 0.125
v 0 1.5 0.125
v 0.125 1.375 0.125
v 0.125 1.5 0.125
v 0.25 0.375 0.125
v 0.25 0.625 0.125
v 0.25 0.75 0.125
v 0.25 1 0.125
v 0.25 1.25 0.125
v 0.25 1.375 0.125
v 0.25 1.5 0.125
v 0.25 1.625 0.125
v 0.375 0.75 0.125
v 0.375 1 0.125
v -0.25 0 -0
v -0.25 0.75 -0
v -0.25 1.5 -0
v -0.25 1.75 -0
v -0.125 0 -0
v -0.125 0.375 -0
v -0.125 0.625 -0
v -0.125 0.75 -0
v -0.125 1.5 -0
v -0.125 1.625 -0
v -0.125 1.75 -0
v 0.25 0 -0
v 0.25 0.375 -0
v 0.25 0.625 -0
v 0.25 0.75 -0
v 0.25 1.5 -0
v 0.25 1.625 -0
v 0.25 1.75 -0
v 0.375 0 -0
v 0.375 0.5 -0
v 0.375 0.75 -0
v 0.375 1.25 -0
v 0.375 1.5 -0
v 0.375 1.75 -0
v 0.5 0.5 -0
v 0.5 0.75 -0
v 0.5 1.25 -0
v 0 0.625 -0.375
v 0 0.75 -0.375
v 0.125 0.625 -0.375
v 0.125 0.75 -0.375
v -0.125 0.625 -0.5
v -0.125 0.75 -0.5
v 0 0.625 -0.5
v 0 0.75 -0.5
v -0.625 1.5 0.5
v -0.625 1.875 0.5
v -0.5 1.625 0.5
v -0.5 1.875 0.5
v -0.375 0 0.5
v -0.375 1.125 0.5
v -0.375 1.25 0.5
v -0.375 1.5 0.5
v -0.375 1.625 0.5
v -0.375 1.875 0.5
v -0.25 0 0.5
v -0.25 1.125 0.5
v -0.25 1.25 0.5
v -0.25 1.5 0.5
v -0.25 1.625 0.5
v -0.25 1.875 0.5
v -0.125 1.625 0.5
v -0.125 1.875 0.5
v 0 1.5 0.5
v 0 1.875 0.5
v -0.375 1.125 -0.125
v -0.375 1.25 -0.125
v -0.25 0 -0.125
v -0.25 0.75 -0.125
v -0.25 1.125 -0.125
v -0.25 1.25 -0.125
v -0.25 1.5 -0.125
v -0.25 1.75 -0.125
v -0.125 0 -0.125
v -0.125 0.375 -0.125
v -0.125 0.625 -0.125
v -0.125 0.75 -0.125
v -0.125 1.5 -0.125
v -0.125 1.625 -0.125
v -0.125 1.75 -0.125
v 0.25 0 -0.125
v 0.25 0.375 -0.125
v 0.25 0.625 -0.125
v 0.25 0.75 -0.125
v 0.25 1.5 -0.125
v 0.25 1.625 -0.125
v 0.25 1.75 -0.125
v 0.375 0 -0.125
v 0.375 0.5 -0.125
v 0.375 0.75 -0.125
v 0.375 1.25 -0.125
v 0.375 1.5 -0.125
v 0.375 1.75 -0.125
v 0.5 0.5 -0.125
v 0.5 0.75 -0.125
v 0.5 1.25 -0.125
v -0.25 0.75 -0.25
v -0.25 1.25 -0.25
v -0.125 0.375 -0.25
v -0.125 0.625 -0.25
v -0.125 0.75 -0.25
v -0.125 1.25 -0.25
v -0.125 1.625 -0.25
v 0 0.5 -0.25
v 0 0.625 -0.25
v 0.125 0.5 -0.25
v 0.125 0.625 -0.25
v 0.25 0.375 -0.25
v 0.25 0.625 -0.25
v 0.25 0.75 -0.25
v 0.25 1.25 -0.25
v 0.25 1.625 -0.25
v 0.375 0.75 -0.25
v 0.375 1.25 -0.25
v 0 0.5 -0.5
v 0 0.625 -0.5
v 0.125 0.5 -0.5
v 0.125 0.625 -0.5
v -0.125 0.625 -0.625
v -0.125 0.75 -0.625
v 0.125 0.625 -0.625
v 0.125 0.75 -0.625
v -0.375 0 0.625
v -0.25 0 0.625
v -0.375 0 0.5
v -0.25 0 0.5
v -0.25 0 -0
v -0.125 0 -0
v 0.25 0 -0
v 0.375 0 -0
v -0.25 0 -0.125
v -0.125 0 -0.125
v 0.25 0 -0.125
v 0.375 0 -0.125
v -0.125 0.375 0.125
v 0.25 0.375 0.125
v -0.125 0.375 -0
v 0.25 0.375 -0
v -0.125 0.375 -0.125
v 0.25 0.375 -0.125
v -0.125 0.375 -0.25
v 0.25 0.375 -0.25
v 0.375 0.5 -0
v 0.5 0.5 -0
v 0.375 0.5 -0.125
v 0.5 0.5 -0.125
v 0 0.5 -0.25
v 0.125 0.5 -0.25
v 0 0.5 -0.5
v 0.125 0.5 -0.5
v -0.125 0.625 -0.5
v 0 0.625 -0.5
v 0.125 0.625 -0.5
v -0.125 0.625 -0.625
v 0.125 0.625 -0.625
v -0.25 0.75 0.125
v -0.125 0.75 0.125
v 0.25 0.75 0.125
v 0.375 0.75 0.125
v -0.25 0.75 -0
v -0.125 0.75 -0
v 0.25 0.75 -0
v 0.375 0.75 -0
v -0.25 0.75 -0.125
v -0.125 0.75 -0.125
v 0.25 0.75 -0.125
v 0.375 0.75 -0.125
v -0.25 0.75 -0.25
v -0.125 0.75 -0.25
v 0.25 0.75 -0.25
v 0.375 0.75 -0.25
v -0.25 1 0.25
v -0.125 1 0.25
v 0.25 1 0.25
v 0.375 1 0.25
v -0.25 1 0.125
v -0.125 1 0.125
v 0.25 1 0.125
v 0.375 1 0.125
v -0.375 1.125 0.5
v -0.25 1.125 0.5
v -0.25 1.125 0.25
v -0.25 1.125 0.125
v -0.375 1.125 -0.125
v -0.25 1.125 -0.125
v -0.625 1.5 0.625
v -0.375 1.5 0.625
v -0.25 1.5 0.625
v 0 1.5 0.625
v -0.625 1.5 0.5
v -0.375 1.5 0.5
v -0.25 1.5 0.5
v 0 1.5 0.5
v -0.25 1.5 -0
v -0.125 1.5 -0
v 0.25 1.5 -0
v 0.375 1.5 -0
v -0.25 1.5 -0.125
v -0.125 1.5 -0.125
v 0.25 1.5 -0.125
v 0.375 1.5 -0.125
v 0 0.625 -0.25
v 0.125 0.625 -0.25
v 0 0.625 -0.375
v 0.125 0.625 -0.375
v 0 0.75 -0.375
v 0.125 0.75 -0.375
v -0.125 0.75 -0.5
v 0 0.75 -0.5
v -0.125 0.75 -0.625
v 0.125 0.75 -0.625
v -0.375 1.25 0.5
v -0.25 1.25 0.5
v -0.25 1.25 0.25
v 0.375 1.25 0.25
v -0.125 1.25 0.125
v 0.25 1.25 0.125
v 0.375 1.25 -0
v 0.5 1.25 -0
v -0.375 1.25 -0.125
v -0.25 1.25 -0.125
v 0.375 1.25 -0.125
v 0.5 1.25 -0.125
v -0.25 1.25 -0.25
v -0.125 1.25 -0.25
v 0.25 1.25 -0.25
v 0.375 1.25 -0.25
v -0.5 1.625 0.625
v -0.375 1.625 0.625
v -0.25 1.625 0.625
v -0.125 1.625 0.625
v -0.5 1.625 0.5
v -0.375 1.625 0.5
v -0.25 1.625 0.5
v -0.125 1.625 0.5
v -0.125 1.625 0.125
v 0.25 1.625 0.125
v -0.125 1.625 -0
v 0 1.625 -0
v 0.125 1.625 -0
v 0.25 1.625 -0
v -0.125 1.625 -0.125
v 0 1.625 -0.125
v 0.125 1.625 -0.125
v 0.25 1.625 -0.125
v -0.125 1.625 -0.25
v 0.25 1.625 -0.25
v -0.25 1.75 -0
v -0.125 1.75 -0
v 0.25 1.75 -0
v 0.375 1.75 -0
v -0.25 1.75 -0.125
v -0.125 1.75 -0.125
v 0.25 1.75 -0.125
v 0.375 1.75 -0.125
v -0.625 1.875 0.625
v -0.5 1.875 0.625
v -0.375 1.875 0.625
v -0.25 1.875 0.625
v -0.125 1.875 0.625
v 0 1.875 0.625
v -0.625 1.875 0.5
v -0.5 1.875 0.5
v -0.375 1.875 0.5
v -0.25 1.875 0.5
v -0.125 1.875 0.5
v 0 1.875 0.5

# faces
f 3/7/1 2/7/1 1/7/1
f 4/7/1 2/7/1 3/7/1
f 7/1/1 6/1/1 5/1/1
f 8/1/1 6/1/1 7/1/1
f 10/4/1 8/4/1 7/4/1
f 10/4/1 9/4/1 8/4/1
f 11/4/1 9/4/1 10/4/1
f 12/4/1 9/4/1 11/4/1
f 13/1/1 11/1/1 10/1/1
f 14/1/1 11/1/1 13/1/1
f 17/7/1 16/7/1 15/7/1
f 18/7/1 16/7/1 17/7/1
f 22/4/1 20/4/1 19/4/1
f 23/4/1 20/4/1 22/4/1
f 26/4/1 22/4/1 21/4/1
f 26/4/1 24/4/1 23/4/1
f 26/4/1 23/4/1 22/4/1
f 27/3/1 26/3/1 25/3/1
f 28/4/1 24/4/1 26/4/1
f 28/3/1 26/3/1 27/3/1
f 29/4/1 24/4/1 28/4/1
f 30/4/1 24/4/1 29/4/1
f 31/4/1 24/4/1 30/4/1
f 34/5/1 33/5/1 32/5/1
f 35/5/1 33/5/1 34/5/1
f 40/6/1 37/6/1 36/6/1
f 41/6/1 37/6/1 40/6/1
f 42/6/1 39/6/1 38/6/1
f 43/6/1 39/6/1 42/6/1
f 46/4/1 41/4/1 40/4/1
f 47/4/1 41/4/1 46/4/1
f 48/4/1 43/4/1 42/4/1
f 49/4/1 43/4/1 48/4/1
f 50/4/1 45/4/1 44/4/1
f 51/4/1 45/4/1 50/4/1
f 54/4/1 53/4/1 52/4/1
f 55/4/1 53/4/1 54/4/1
f 56/8/1 55/8/1 54/8/1
f 57/4/1 53/4/1 55/4/1
f 57/8/1 55/8/1 56/8/1
f 58/4/1 53/4/1 57/4/1
f 61/4/1 57/4/1 56/4/1
f 62/4/1 57/4/1 61/4/1
f 63/4/1 53/4/1 58/4/1
f 64/4/1 53/4/1 63/4/1
f 65/7/1 60/7/1 59/7/1
f 66/7/1 60/7/1 65/7/1
f 69/4/1 68/4/1 67/4/1
f 70/4/1 68/4/1 69/4/1
f 71/4/1 68/4/1 70/4/1
f 72/4/1 71/4/1 70/4/1
f 73/4/1 71/4/1 72/4/1
f 76/4/1 75/4/1 74/4/1
f 77/4/1 75/4/1 76/4/1
f 80/5/1 79/5/1 78/5/1
f 81/5/1 79/5/1 80/5/1
f 82/7/2 83/7/2 84/7/2
f 84/7/2 83/7/2 85/7/2
f 86/1/2 87/1/2 88/1/2
f 88/1/2 87/1/2 89/1/2
f 88/4/2 89/4/2 91/4/2
f 89/4/2 90/4/2 91/4/2
f 91/4/2 90/4/2 92/4/2
f 92/4/2 90/4/2 93/4/2
f 91/1/2 92/1/2 94/1/2
f 94/1/2 92/1/2 95/1/2
f 96/7/2 97/7/2 98/7/2
f 98/7/2 97/7/2 99/7/2
f 100/4/2 101/4/2 102/4/2
f 102/4/2 101/4/2 103/4/2
f 104/5/2 105/5/2 106/5/2
f 106/5/2 105/5/2 107/5/2
f 108/7/2 109/7/2 110/7/2
f 110/7/2 109/7/2 111/7/2
f 112/4/2 113/4/2 114/4/2
f 114/4/2 113/4/2 115/4/2
f 115/4/2 113/4/2 116/4/2
f 116/4/2 117/4/2 118/4/2
f 115/4/2 116/4/2 118/4/2
f 118/4/2 117/4/2 119/4/2
f 120/6/2 121/6/2 124/6/2
f 124/6/2 121/6/2 125/6/2
f 122/6/2 123/6/2 126/6/2
f 126/6/2 123/6/2 127/6/2
f 124/4/2 125/4/2 128/4/2
f 128/4/2 125/4/2 129/4/2
f 126/4/2 127/4/2 130/4/2
f 130/4/2 127/4/2 131/4/2
f 132/4/2 133/4/2 134/4/2
f 134/4/2 133/4/2 135/4/2
f 134/8/2 135/8/2 136/8/2
f 135/4/2 133/4/2 137/4/2
f 136/8/2 135/8/2 137/8/2
f 137/4/2 133/4/2 138/4/2
f 136/4/2 137/4/2 139/4/2
f 139/4/2 137/4/2 140/4/2
f 138/4/2 133/4/2 141/4/2
f 141/4/2 133/4/2 142/4/2
f 143/4/2 144/4/2 145/4/2
f 145/4/2 144/4/2 146/4/2
f 147/4/2 148/4/2 152/4/2
f 151/3/2 152/3/2 153/3/2
f 152/4/2 148/4/2 154/4/2
f 153/3/2 152/3/2 154/3/2
f 153/4/2 154/4/2 155/4/2
f 154/4/2 148/4/2 156/4/2
f 155/4/2 154/4/2 156/4/2
f 149/4/2 150/4/2 157/4/2
f 157/4/2 150/4/2 158/4/2
f 159/5/2 160/5/2 161/5/2
f 161/5/2 160/5/2 162/5/2
f 163/2/2 164/2/2 165/2/2
f 165/2/2 164/2/2 166/2/2
f 165/4/2 166/4/2 167/4/2
f 167/4/2 166/4/2 168/4/2
f 171/7/3 170/7/3 169/7/3
f 172/7/3 170/7/3 171/7/3
f 176/7/3 171/7/3 169/7/3
f 177/7/3 171/7/3 176/7/3
f 179/1/3 174/1/3 173/1/3
f 180/4/3 175/4/3 174/4/3
f 180/1/3 174/1/3 179/1/3
f 181/1/3 176/1/3 175/1/3
f 181/4/3 175/4/3 180/4/3
f 182/7/3 178/7/3 177/7/3
f 182/1/3 176/1/3 181/1/3
f 182/7/3 177/7/3 176/7/3
f 183/7/3 178/7/3 182/7/3
f 184/7/3 178/7/3 183/7/3
f 185/7/3 183/7/3 182/7/3
f 187/7/3 185/7/3 182/7/3
f 187/7/3 186/7/3 185/7/3
f 188/7/3 186/7/3 187/7/3
f 192/3/3 190/3/3 189/3/3
f 193/4/3 191/4/3 190/4/3
f 193/3/3 190/3/3 192/3/3
f 194/4/3 193/4/3 192/4/3
f 195/4/3 191/4/3 193/4/3
f 195/4/3 193/4/3 194/4/3
f 196/3/3 195/3/3 194/3/3
f 197/4/3 191/4/3 195/4/3
f 197/3/3 195/3/3 196/3/3
f 198/4/3 191/4/3 197/4/3
f 203/4/3 200/4/3 199/4/3
f 204/4/3 200/4/3 203/4/3
f 209/4/3 206/4/3 205/4/3
f 209/8/3 207/8/3 206/8/3
f 210/4/3 208/4/3 207/4/3
f 210/8/3 207/8/3 209/8/3
f 211/4/3 209/4/3 205/4/3
f 211/4/3 210/4/3 209/4/3
f 212/4/3 208/4/3 210/4/3
f 212/4/3 210/4/3 211/4/3
f 213/6/3 202/6/3 201/6/3
f 214/4/3 203/4/3 202/4/3
f 214/6/3 202/6/3 213/6/3
f 214/4/3 204/4/3 203/4/3
f 215/4/3 204/4/3 214/4/3
f 216/4/3 204/4/3 215/4/3
f 217/4/3 211/4/3 205/4/3
f 218/8/3 212/8/3 211/8/3
f 218/4/3 211/4/3 217/4/3
f 219/4/3 208/4/3 212/4/3
f 219/8/3 212/8/3 218/8/3
f 220/4/3 208/4/3 219/4/3
f 221/4/3 216/4/3 215/4/3
f 222/4/3 216/4/3 221/4/3
f 227/4/3 224/4/3 223/4/3
f 228/4/3 224/4/3 227/4/3
f 229/4/3 224/4/3 228/4/3
f 230/4/3 224/4/3 229/4/3
f 231/5/3 226/5/3 225/5/3
f 232/5/3 226/5/3 231/5/3
f 233/5/3 226/5/3 232/5/3
f 241/4/3 235/4/3 234/4/3
f 241/4/3 236/4/3 235/4/3
f 241/4/3 237/4/3 236/4/3
f 242/4/3 237/4/3 241/4/3
f 243/4/3 237/4/3 242/4/3
f 245/5/3 240/5/3 239/5/3
f 245/5/3 239/5/3 238/5/3
f 246/5/3 240/5/3 245/5/3
f 247/2/3 243/2/3 242/2/3
f 248/4/3 244/4/3 243/4/3
f 248/2/3 243/2/3 247/2/3
f 249/4/3 244/4/3 248/4/3
f 252/4/3 251/4/3 250/4/3
f 253/4/3 251/4/3 252/4/3
f 256/4/3 255/4/3 254/4/3
f 257/4/3 255/4/3 256/4/3
f 258/7/4 259/7/4 260/7/4
f 260/7/4 259/7/4 261/7/4
f 258/7/4 260/7/4 265/7/4
f 265/7/4 260/7/4 266/7/4
f 262/1/4 263/1/4 268/1/4
f 268/1/4 263/1/4 269/1/4
f 264/1/4 265/1/4 270/1/4
f 266/7/4 267/7/4 271/7/4
f 270/1/4 265/1/4 271/1/4
f 265/7/4 266/7/4 271/7/4
f 271/7/4 267/7/4 272/7/4
f 272/7/4 267/7/4 273/7/4
f 271/7/4 272/7/4 274/7/4
f 271/7/4 274/7/4 276/7/4
f 274/7/4 275/7/4 276/7/4
f 276/7/4 275/7/4 277/7/4
f 278/4/4 279/4/4 282/4/4
f 282/4/4 279/4/4 283/4/4
f 280/4/4 281/4/4 286/4/4
f 286/4/4 281/4/4 287/4/4
f 287/4/4 281/4/4 288/4/4
f 288/4/4 281/4/4 289/4/4
f 284/5/4 285/5/4 290/5/4
f 290/5/4 285/5/4 291/5/4
f 291/5/4 285/5/4 292/5/4
f 293/4/4 294/4/4 300/4/4
f 294/4/4 295/4/4 300/4/4
f 295/4/4 296/4/4 300/4/4
f 300/4/4 296/4/4 301/4/4
f 301/4/4 296/4/4 302/4/4
f 298/5/4 299/5/4 304/5/4
f 297/5/4 298/5/4 304/5/4
f 304/5/4 299/5/4 305/5/4
f 301/2/4 302/2/4 306/2/4
f 302/4/4 303/4/4 307/4/4
f 306/2/4 302/2/4 307/2/4
f 307/4/4 303/4/4 308/4/4
f 309/4/4 310/4/4 313/4/4
f 313/4/4 310/4/4 314/4/4
f 311/6/4 312/6/4 316/6/4
f 314/4/4 315/4/4 317/4/4
f 316/6/4 312/6/4 317/6/4
f 312/4/4 313/4/4 317/4/4
f 313/4/4 314/4/4 317/4/4
f 311/6/4 316/6/4 318/6/4
f 317/4/4 315/4/4 319/4/4
f 311/6/4 318/6/4 320/6/4
f 318/6/4 319/6/4 320/6/4
f 319/4/4 315/4/4 321/4/4
f 320/6/4 319/6/4 321/6/4
f 321/4/4 315/4/4 322/4/4
f 322/4/4 315/4/4 323/4/4
f 323/4/4 315/4/4 324/4/4
f 322/4/4 323/4/4 325/4/4
f 325/4/4 323/4/4 326/4/4
f 327/4/4 328/4/4 329/4/4
f 329/4/4 328/4/4 330/4/4
f 331/4/4 332/4/4 333/4/4
f 333/4/4 332/4/4 334/4/4
f 337/1/5 336/1/5 335/1/5
f 338/1/5 336/1/5 337/1/5
f 343/4/5 340/4/5 339/4/5
f 344/4/5 340/4/5 343/4/5
f 345/4/5 342/4/5 341/4/5
f 346/4/5 342/4/5 345/4/5
f 349/6/5 348/6/5 347/6/5
f 350/6/5 348/6/5 349/6/5
f 351/6/5 350/6/5 349/6/5
f 352/6/5 350/6/5 351/6/5
f 353/6/5 352/6/5 351/6/5
f 354/6/5 352/6/5 353/6/5
f 357/2/5 356/2/5 355/2/5
f 358/2/5 356/2/5 357/2/5
f 361/4/5 360/4/5 359/4/5
f 362/4/5 360/4/5 361/4/5
f 366/4/5 364/4/5 363/4/5
f 366/4/5 365/4/5 364/4/5
f 367/4/5 365/4/5 366/4/5
f 372/4/5 369/4/5 368/4/5
f 373/4/5 369/4/5 372/4/5
f 374/4/5 371/4/5 370/4/5
f 375/4/5 371/4/5 374/4/5
f 380/4/5 377/4/5 376/4/5
f 381/4/5 377/4/5 380/4/5
f 382/4/5 379/4/5 378/4/5
f 383/4/5 379/4/5 382/4/5
f 388/3/5 385/3/5 384/3/5
f 389/4/5 386/4/5 385/4/5
f 389/3/5 385/3/5 388/3/5
f 390/3/5 387/3/5 386/3/5
f 390/4/5 386/4/5 389/4/5
f 391/3/5 387/3/5 390/3/5
f 394/4/5 393/4/5 392/4/5
f 395/4/5 394/4/5 392/4/5
f 396/4/5 395/4/5 392/4/5
f 397/4/5 395/4/5 396/4/5
f 402/7/5 399/7/5 398/7/5
f 403/7/5 399/7/5 402/7/5
f 404/7/5 401/7/5 400/7/5
f 405/7/5 401/7/5 404/7/5
f 410/5/5 407/5/5 406/5/5
f 411/5/5 407/5/5 410/5/5
f 412/5/5 409/5/5 408/5/5
f 413/5/5 409/5/5 412/5/5
f 414/4/6 415/4/6 416/4/6
f 416/4/6 415/4/6 417/4/6
f 418/4/6 419/4/6 421/4/6
f 420/4/6 421/4/6 422/4/6
f 421/4/6 419/4/6 423/4/6
f 422/4/6 421/4/6 423/4/6
f 424/4/6 425/4/6 426/4/6
f 426/4/6 427/4/6 428/4/6
f 428/4/6 427/4/6 429/4/6
f 429/4/6 427/4/6 430/4/6
f 424/4/6 426/4/6 432/4/6
f 426/4/6 428/4/6 432/4/6
f 432/4/6 428/4/6 433/4/6
f 430/4/6 431/4/6 434/4/6
f 429/4/6 430/4/6 434/4/6
f 434/4/6 431/4/6 435/4/6
f 433/4/6 428/4/6 436/4/6
f 436/4/6 428/4/6 437/4/6
f 429/4/6 434/4/6 438/4/6
f 438/4/6 434/4/6 439/4/6
f 440/7/6 441/7/6 444/7/6
f 444/7/6 441/7/6 445/7/6
f 442/7/6 443/7/6 446/7/6
f 446/7/6 443/7/6 447/7/6
f 448/4/6 449/4/6 450/4/6
f 450/4/6 449/4/6 451/4/6
f 451/4/6 449/4/6 452/4/6
f 452/4/6 449/4/6 453/4/6
f 450/5/6 451/5/6 454/5/6
f 451/4/6 452/4/6 455/4/6
f 454/5/6 451/5/6 455/5/6
f 452/5/6 453/5/6 456/5/6
f 455/4/6 452/4/6 456/4/6
f 456/5/6 453/5/6 457/5/6
f 454/4/6 455/4/6 458/4/6
f 455/4/6 456/4/6 458/4/6
f 456/4/6 457/4/6 458/4/6
f 458/4/6 457/4/6 459/4/6
f 460/5/6 461/5/6 464/5/6
f 464/5/6 461/5/6 465/5/6
f 462/5/6 463/5/6 466/5/6
f 466/5/6 463/5/6 467/5/6
f 468/7/6 469/7/6 474/7/6
f 474/7/6 469/7/6 475/7/6
f 470/7/6 471/7/6 476/7/6
f 476/7/6 471/7/6 477/7/6
f 472/7/6 473/7/6 478/7/6
f 478/7/6 473/7/6 479/7/6
