# MagicaVoxel @ ephtracy

# material
mtllib Dwarf.mtl
usemtl palette

# normals
vn -1 0 0
vn 1 0 0
vn 0 0 1
vn 0 0 -1
vn 0 -1 0
vn 0 1 0

# texcoords
vt 0.130859 0.5
vt 0.134766 0.5
vt 0.146484 0.5
vt 0.189453 0.5
vt 0.193359 0.5
vt 0.197266 0.5
vt 0.216797 0.5
vt 0.248047 0.5
vt 0.923828 0.5
vt 0.931641 0.5
vt 0.939453 0.5
vt 0.947266 0.5
vt 0.951172 0.5

# verts
v -0.375 0.25 0.375
v -0.375 0.25 0.125
v -0.375 0.375 0.5
v -0.375 0.375 0.375
v -0.375 0.375 0.125
v -0.375 0.375 -0
v -0.375 0.5 0.5
v -0.375 0.5 0.375
v -0.375 0.5 0.125
v -0.375 0.5 -0
v -0.375 0.625 0.375
v -0.375 0.625 0.125
v -0.375 0.625 -0.25
v -0.375 0.625 -0.375
v -0.375 0.625 -0.5
v -0.375 0.75 0.375
v -0.375 0.75 0.25
v -0.375 0.75 -0.25
v -0.375 0.75 -0.375
v -0.375 0.75 -0.5
v -0.375 0.875 0.375
v -0.375 0.875 0.25
v -0.375 1 -0.25
v -0.375 1 -0.375
v -0.375 1.375 -0.25
v -0.375 1.375 -0.375
v -0.25 0 -0.25
v -0.25 0 -0.375
v -0.25 0.125 -0.25
v -0.25 0.125 -0.375
v -0.25 0.25 -0.125
v -0.25 0.25 -0.25
v -0.25 0.25 -0.375
v -0.25 0.25 -0.5
v -0.25 0.625 -0.125
v -0.25 0.625 -0.25
v -0.25 0.625 -0.375
v -0.25 0.625 -0.5
v -0.25 0.75 -0
v -0.25 0.75 -0.25
v -0.25 0.75 -0.375
v -0.25 0.75 -0.5
v -0.25 0.875 -0
v -0.25 0.875 -0.25
v -0.25 0.875 -0.375
v -0.25 0.875 -0.5
v -0.25 1 -0
v -0.25 1 -0.125
v -0.25 1 -0.25
v -0.25 1 -0.375
v -0.25 1.375 -0.125
v -0.25 1.375 -0.25
v -0.25 1.375 -0.375
v -0.25 1.375 -0.5
v -0.125 1.375 -0.125
v -0.125 1.375 -0.25
v -0.125 1.375 -0.5
v -0.125 1.5 -0.125
v -0.125 1.5 -0.25
v -0.125 1.625 -0.125
v -0.125 1.625 -0.5
v -0.125 1.75 -0.125
v -0.125 1.75 -0.5
v 0 1.75 -0.125
v 0 1.75 -0.5
v 0 1.875 -0.125
v 0 1.875 -0.5
v 0.125 0.25 -0.125
v 0.125 0.25 -0.25
v 0.125 0.25 -0.375
v 0.125 0.25 -0.5
v 0.125 0.5 -0.125
v 0.125 0.5 -0.25
v 0.125 0.5 -0.375
v 0.125 0.5 -0.5
v 0.25 0 -0.25
v 0.25 0 -0.375
v 0.25 0.125 -0.25
v 0.25 0.125 -0.375
v 0.25 0.25 -0.25
v 0.25 0.25 -0.375
v -0.25 0.25 0.375
v -0.25 0.25 0.125
v -0.25 0.375 0.5
v -0.25 0.375 0.375
v -0.25 0.375 0.125
v -0.25 0.375 -0
v -0.25 0.5 0.5
v -0.25 0.5 0.375
v -0.25 0.5 0.125
v -0.25 0.5 -0
v -0.25 0.625 0.375
v -0.25 0.625 0.125
v -0.25 0.625 -0
v -0.25 0.75 0.375
v -0.25 0.75 0.25
v -0.25 0.75 -0
v -0.25 0.875 0.375
v -0.25 0.875 0.25
v -0.125 0 -0.25
v -0.125 0 -0.375
v -0.125 0.125 -0.25
v -0.125 0.125 -0.375
v -0.125 0.25 -0.25
v -0.125 0.25 -0.375
v 0 0.25 -0.125
v 0 0.25 -0.25
v 0 0.25 -0.375
v 0 0.25 -0.5
v 0 0.5 -0.125
v 0 0.5 -0.25
v 0 0.5 -0.375
v 0 0.5 -0.5
v 0.125 1.75 -0.125
v 0.125 1.75 -0.5
v 0.125 1.875 -0.125
v 0.125 1.875 -0.5
v 0.25 1.375 -0.125
v 0.25 1.375 -0.25
v 0.25 1.375 -0.5
v 0.25 1.5 -0.125
v 0.25 1.5 -0.25
v 0.25 1.625 -0.125
v 0.25 1.625 -0.5
v 0.25 1.75 -0.125
v 0.25 1.75 -0.5
v 0.375 0 -0.25
v 0.375 0 -0.375
v 0.375 0.125 -0.25
v 0.375 0.125 -0.375
v 0.375 0.25 -0.125
v 0.375 0.25 -0.25
v 0.375 0.25 -0.375
v 0.375 0.25 -0.5
v 0.375 0.625 -0
v 0.375 0.625 -0.125
v 0.375 0.625 -0.25
v 0.375 0.625 -0.375
v 0.375 0.75 -0
v 0.375 0.75 -0.25
v 0.375 0.75 -0.375
v 0.375 0.75 -0.5
v 0.375 0.875 -0
v 0.375 0.875 -0.25
v 0.375 0.875 -0.375
v 0.375 0.875 -0.5
v 0.375 1 -0
v 0.375 1 -0.125
v 0.375 1 -0.25
v 0.375 1 -0.375
v 0.375 1.375 -0.125
v 0.375 1.375 -0.25
v 0.375 1.375 -0.375
v 0.375 1.375 -0.5
v 0.5 0.625 -0.25
v 0.5 0.625 -0.375
v 0.5 0.75 -0.25
v 0.5 0.75 -0.375
v 0.5 1 -0.25
v 0.5 1 -0.375
v 0.5 1.375 -0.25
v 0.5 1.375 -0.375
v -0.375 0.375 0.5
v -0.375 0.5 0.5
v -0.25 0.375 0.5
v -0.25 0.5 0.5
v -0.375 0.25 0.375
v -0.375 0.375 0.375
v -0.375 0.5 0.375
v -0.375 0.625 0.375
v -0.375 0.75 0.375
v -0.375 0.875 0.375
v -0.25 0.25 0.375
v -0.25 0.375 0.375
v -0.25 0.5 0.375
v -0.25 0.625 0.375
v -0.25 0.75 0.375
v -0.25 0.875 0.375
v -0.25 0.625 -0
v -0.25 0.75 -0
v -0.25 0.875 -0
v -0.25 1 -0
v 0 0.75 -0
v 0 0.875 -0
v 0.125 0.75 -0
v 0.125 0.875 -0
v 0.375 0.625 -0
v 0.375 0.75 -0
v 0.375 0.875 -0
v 0.375 1 -0
v -0.25 0.25 -0.125
v -0.25 0.625 -0.125
v -0.25 1 -0.125
v -0.25 1.375 -0.125
v -0.125 1.125 -0.125
v -0.125 1.375 -0.125
v -0.125 1.5 -0.125
v -0.125 1.625 -0.125
v -0.125 1.75 -0.125
v 0 0.25 -0.125
v 0 0.5 -0.125
v 0 1.75 -0.125
v 0 1.875 -0.125
v 0.125 0.25 -0.125
v 0.125 0.5 -0.125
v 0.125 1.75 -0.125
v 0.125 1.875 -0.125
v 0.25 1.125 -0.125
v 0.25 1.375 -0.125
v 0.25 1.5 -0.125
v 0.25 1.625 -0.125
v 0.25 1.75 -0.125
v 0.375 0.25 -0.125
v 0.375 0.625 -0.125
v 0.375 1 -0.125
v 0.375 1.375 -0.125
v -0.375 0.75 -0.25
v -0.375 1 -0.25
v -0.375 1.375 -0.25
v -0.25 0 -0.25
v -0.25 0.125 -0.25
v -0.25 0.25 -0.25
v -0.25 0.75 -0.25
v -0.25 0.875 -0.25
v -0.25 1 -0.25
v -0.25 1.375 -0.25
v -0.125 0 -0.25
v -0.125 0.125 -0.25
v -0.125 0.25 -0.25
v 0 0.25 -0.25
v 0 0.5 -0.25
v 0.125 0.25 -0.25
v 0.125 0.5 -0.25
v 0.25 0 -0.25
v 0.25 0.125 -0.25
v 0.25 0.25 -0.25
v 0.375 0 -0.25
v 0.375 0.125 -0.25
v 0.375 0.25 -0.25
v 0.375 0.625 -0.25
v 0.375 0.75 -0.25
v 0.375 0.875 -0.25
v 0.375 1 -0.25
v 0.375 1.375 -0.25
v 0.5 0.625 -0.25
v 0.5 0.75 -0.25
v 0.5 1 -0.25
v 0.5 1.375 -0.25
v -0.375 0.75 0.25
v -0.375 0.875 0.25
v -0.25 0.75 0.25
v -0.25 0.875 0.25
v -0.375 0.25 0.125
v -0.375 0.375 0.125
v -0.375 0.5 0.125
v -0.375 0.625 0.125
v -0.25 0.25 0.125
v -0.25 0.375 0.125
v -0.25 0.5 0.125
v -0.25 0.625 0.125
v -0.375 0.375 -0
v -0.375 0.5 -0
v -0.25 0.375 -0
v -0.25 0.5 -0
v -0.375 0.75 -0.375
v -0.375 1 -0.375
v -0.375 1.375 -0.375
v -0.25 0 -0.375
v -0.25 0.125 -0.375
v -0.25 0.25 -0.375
v -0.25 0.75 -0.375
v -0.25 0.875 -0.375
v -0.25 1 -0.375
v -0.25 1.375 -0.375
v -0.125 0 -0.375
v -0.125 0.125 -0.375
v -0.125 0.25 -0.375
v 0 0.25 -0.375
v 0 0.5 -0.375
v 0.125 0.25 -0.375
v 0.125 0.5 -0.375
v 0.25 0 -0.375
v 0.25 0.125 -0.375
v 0.25 0.25 -0.375
v 0.375 0 -0.375
v 0.375 0.125 -0.375
v 0.375 0.25 -0.375
v 0.375 0.625 -0.375
v 0.375 0.75 -0.375
v 0.375 0.875 -0.375
v 0.375 1 -0.375
v 0.375 1.375 -0.375
v 0.5 0.625 -0.375
v 0.5 0.75 -0.375
v 0.5 1 -0.375
v 0.5 1.375 -0.375
v -0.375 0.625 -0.5
v -0.375 0.75 -0.5
v -0.25 0.25 -0.5
v -0.25 0.625 -0.5
v -0.25 0.75 -0.5
v -0.25 0.875 -0.5
v -0.25 1.375 -0.5
v -0.125 1.375 -0.5
v -0.125 1.625 -0.5
v -0.125 1.75 -0.5
v 0 0.25 -0.5
v 0 0.5 -0.5
v 0 1.75 -0.5
v 0 1.875 -0.5
v 0.125 0.25 -0.5
v 0.125 0.5 -0.5
v 0.125 1.75 -0.5
v 0.125 1.875 -0.5
v 0.25 1.375 -0.5
v 0.25 1.625 -0.5
v 0.25 1.75 -0.5
v 0.375 0.25 -0.5
v 0.375 0.75 -0.5
v 0.375 0.875 -0.5
v 0.375 1.375 -0.5
v -0.25 0 -0.25
v -0.125 0 -0.25
v 0.25 0 -0.25
v 0.375 0 -0.25
v -0.25 0 -0.375
v -0.125 0 -0.375
v 0.25 0 -0.375
v 0.375 0 -0.375
v -0.375 0.25 0.375
v -0.25 0.25 0.375
v -0.375 0.25 0.125
v -0.25 0.25 0.125
v -0.25 0.25 -0.125
v 0 0.25 -0.125
v 0.125 0.25 -0.125
v 0.375 0.25 -0.125
v -0.25 0.25 -0.25
v -0.125 0.25 -0.25
v 0 0.25 -0.25
v 0.125 0.25 -0.25
v 0.25 0.25 -0.25
v 0.375 0.25 -0.25
v -0.25 0.25 -0.375
v -0.125 0.25 -0.375
v 0 0.25 -0.375
v 0.125 0.25 -0.375
v 0.25 0.25 -0.375
v 0.375 0.25 -0.375
v -0.25 0.25 -0.5
v 0 0.25 -0.5
v 0.125 0.25 -0.5
v 0.375 0.25 -0.5
v -0.375 0.375 0.5
v -0.25 0.375 0.5
v -0.375 0.375 0.375
v -0.25 0.375 0.375
v -0.375 0.375 0.125
v -0.25 0.375 0.125
v -0.375 0.375 -0
v -0.25 0.375 -0
v 0 0.5 -0.125
v 0.125 0.5 -0.125
v 0 0.5 -0.25
v 0.125 0.5 -0.25
v 0 0.5 -0.375
v 0.125 0.5 -0.375
v 0 0.5 -0.5
v 0.125 0.5 -0.5
v -0.375 0.625 0.125
v -0.25 0.625 0.125
v -0.25 0.625 -0
v 0.375 0.625 -0
v -0.25 0.625 -0.125
v 0.375 0.625 -0.125
v -0.375 0.625 -0.25
v -0.25 0.625 -0.25
v 0.375 0.625 -0.25
v 0.5 0.625 -0.25
v -0.375 0.625 -0.375
v -0.25 0.625 -0.375
v 0.375 0.625 -0.375
v 0.5 0.625 -0.375
v -0.375 0.625 -0.5
v -0.25 0.625 -0.5
v -0.375 0.5 0.5
v -0.25 0.5 0.5
v -0.375 0.5 0.375
v -0.25 0.5 0.375
v -0.375 0.5 0.125
v -0.25 0.5 0.125
v -0.375 0.5 -0
v -0.25 0.5 -0
v -0.375 0.75 0.25
v -0.25 0.75 0.25
v -0.25 0.75 -0
v -0.375 0.75 -0.25
v -0.25 0.75 -0.25
v -0.375 0.75 -0.375
v -0.25 0.75 -0.375
v -0.375 0.75 -0.5
v -0.25 0.75 -0.5
v -0.375 0.875 0.375
v -0.25 0.875 0.375
v -0.375 0.875 0.25
v -0.25 0.875 0.25
v -0.25 1 -0
v 0.375 1 -0
v -0.25 1 -0.125
v 0.375 1 -0.125
v -0.25 1.375 -0.125
v -0.125 1.375 -0.125
v 0.25 1.375 -0.125
v 0.375 1.375 -0.125
v -0.375 1.375 -0.25
v -0.25 1.375 -0.25
v -0.125 1.375 -0.25
v 0.25 1.375 -0.25
v 0.375 1.375 -0.25
v 0.5 1.375 -0.25
v -0.375 1.375 -0.375
v -0.25 1.375 -0.375
v 0.375 1.375 -0.375
v 0.5 1.375 -0.375
v -0.25 1.375 -0.5
v -0.125 1.375 -0.5
v 0.25 1.375 -0.5
v 0.375 1.375 -0.5
v -0.125 1.75 -0.125
v 0 1.75 -0.125
v 0.125 1.75 -0.125
v 0.25 1.75 -0.125
v -0.125 1.75 -0.5
v 0 1.75 -0.5
v 0.125 1.75 -0.5
v 0.25 1.75 -0.5
v 0 1.875 -0.125
v 0.125 1.875 -0.125
v 0 1.875 -0.5
v 0.125 1.875 -0.5

# faces
f 4/12/1 2/12/1 1/12/1
f 5/12/1 2/12/1 4/12/1
f 7/12/1 4/12/1 3/12/1
f 7/12/1 6/12/1 5/12/1
f 7/12/1 5/12/1 4/12/1
f 8/12/1 6/12/1 7/12/1
f 9/12/1 6/12/1 8/12/1
f 10/12/1 6/12/1 9/12/1
f 11/12/1 9/12/1 8/12/1
f 12/12/1 9/12/1 11/12/1
f 16/6/1 12/6/1 11/6/1
f 16/6/1 13/6/1 12/6/1
f 17/6/1 13/6/1 16/6/1
f 18/3/1 14/3/1 13/3/1
f 18/6/1 13/6/1 17/6/1
f 19/6/1 15/6/1 14/6/1
f 19/3/1 14/3/1 18/3/1
f 20/6/1 15/6/1 19/6/1
f 21/12/1 17/12/1 16/12/1
f 22/12/1 17/12/1 21/12/1
f 23/4/1 19/4/1 18/4/1
f 24/4/1 19/4/1 23/4/1
f 25/3/1 24/3/1 23/3/1
f 26/3/1 24/3/1 25/3/1
f 29/6/1 28/6/1 27/6/1
f 30/6/1 28/6/1 29/6/1
f 32/13/1 30/13/1 29/13/1
f 33/13/1 30/13/1 32/13/1
f 35/5/1 33/5/1 32/5/1
f 35/5/1 34/5/1 33/5/1
f 35/5/1 32/5/1 31/5/1
f 36/5/1 34/5/1 35/5/1
f 37/5/1 34/5/1 36/5/1
f 38/5/1 34/5/1 37/5/1
f 43/7/1 40/7/1 39/7/1
f 44/7/1 40/7/1 43/7/1
f 45/7/1 42/7/1 41/7/1
f 46/7/1 42/7/1 45/7/1
f 47/3/1 44/3/1 43/3/1
f 48/3/1 44/3/1 47/3/1
f 49/3/1 44/3/1 48/3/1
f 50/3/1 46/3/1 45/3/1
f 51/3/1 49/3/1 48/3/1
f 52/3/1 49/3/1 51/3/1
f 53/3/1 46/3/1 50/3/1
f 54/3/1 46/3/1 53/3/1
f 58/1/1 56/1/1 55/1/1
f 59/3/1 57/3/1 56/3/1
f 59/1/1 56/1/1 58/1/1
f 60/3/1 59/3/1 58/3/1
f 61/3/1 57/3/1 59/3/1
f 61/3/1 59/3/1 60/3/1
f 62/1/1 61/1/1 60/1/1
f 63/1/1 61/1/1 62/1/1
f 66/2/1 65/2/1 64/2/1
f 67/2/1 65/2/1 66/2/1
f 72/5/1 69/5/1 68/5/1
f 73/5/1 69/5/1 72/5/1
f 74/5/1 71/5/1 70/5/1
f 75/5/1 71/5/1 74/5/1
f 78/6/1 77/6/1 76/6/1
f 79/6/1 77/6/1 78/6/1
f 80/13/1 79/13/1 78/13/1
f 81/13/1 79/13/1 80/13/1
f 82/12/2 83/12/2 85/12/2
f 85/12/2 83/12/2 86/12/2
f 84/12/2 85/12/2 88/12/2
f 86/12/2 87/12/2 88/12/2
f 85/12/2 86/12/2 88/12/2
f 88/12/2 87/12/2 89/12/2
f 89/12/2 87/12/2 90/12/2
f 90/12/2 87/12/2 91/12/2
f 89/12/2 90/12/2 92/12/2
f 92/12/2 90/12/2 93/12/2
f 92/6/2 93/6/2 95/6/2
f 93/6/2 94/6/2 95/6/2
f 95/6/2 94/6/2 96/6/2
f 96/6/2 94/6/2 97/6/2
f 95/12/2 96/12/2 98/12/2
f 98/12/2 96/12/2 99/12/2
f 100/6/2 101/6/2 102/6/2
f 102/6/2 101/6/2 103/6/2
f 102/13/2 103/13/2 104/13/2
f 104/13/2 103/13/2 105/13/2
f 106/5/2 107/5/2 110/5/2
f 110/5/2 107/5/2 111/5/2
f 108/5/2 109/5/2 112/5/2
f 112/5/2 109/5/2 113/5/2
f 114/2/2 115/2/2 116/2/2
f 116/2/2 115/2/2 117/2/2
f 118/1/2 119/1/2 121/1/2
f 119/3/2 120/3/2 122/3/2
f 121/1/2 119/1/2 122/1/2
f 121/3/2 122/3/2 123/3/2
f 122/3/2 120/3/2 124/3/2
f 123/3/2 122/3/2 124/3/2
f 123/1/2 124/1/2 125/1/2
f 125/1/2 124/1/2 126/1/2
f 127/6/2 128/6/2 129/6/2
f 129/6/2 128/6/2 130/6/2
f 129/13/2 130/13/2 132/13/2
f 132/13/2 130/13/2 133/13/2
f 132/5/2 133/5/2 136/5/2
f 133/5/2 134/5/2 136/5/2
f 131/5/2 132/5/2 136/5/2
f 136/5/2 134/5/2 137/5/2
f 137/5/2 134/5/2 138/5/2
f 135/5/2 136/5/2 139/5/2
f 136/5/2 137/5/2 139/5/2
f 139/5/2 137/5/2 140/5/2
f 138/5/2 134/5/2 141/5/2
f 141/5/2 134/5/2 142/5/2
f 139/7/2 140/7/2 143/7/2
f 143/7/2 140/7/2 144/7/2
f 141/7/2 142/7/2 145/7/2
f 145/7/2 142/7/2 146/7/2
f 143/3/2 144/3/2 147/3/2
f 147/3/2 144/3/2 148/3/2
f 148/3/2 144/3/2 149/3/2
f 145/3/2 146/3/2 150/3/2
f 148/3/2 149/3/2 151/3/2
f 151/3/2 149/3/2 152/3/2
f 150/3/2 146/3/2 153/3/2
f 153/3/2 146/3/2 154/3/2
f 155/3/2 156/3/2 157/3/2
f 157/3/2 156/3/2 158/3/2
f 157/4/2 158/4/2 159/4/2
f 159/4/2 158/4/2 160/4/2
f 159/3/2 160/3/2 161/3/2
f 161/3/2 160/3/2 162/3/2
f 165/12/3 164/12/3 163/12/3
f 166/12/3 164/12/3 165/12/3
f 173/12/3 168/12/3 167/12/3
f 174/12/3 168/12/3 173/12/3
f 175/12/3 170/12/3 169/12/3
f 176/6/3 171/6/3 170/6/3
f 176/12/3 170/12/3 175/12/3
f 177/12/3 172/12/3 171/12/3
f 177/6/3 171/6/3 176/6/3
f 178/12/3 172/12/3 177/12/3
f 183/5/3 180/5/3 179/5/3
f 183/7/3 181/7/3 180/7/3
f 184/3/3 182/3/3 181/3/3
f 184/7/3 181/7/3 183/7/3
f 185/5/3 183/5/3 179/5/3
f 185/4/3 184/4/3 183/4/3
f 186/3/3 182/3/3 184/3/3
f 186/4/3 184/4/3 185/4/3
f 187/5/3 185/5/3 179/5/3
f 188/7/3 186/7/3 185/7/3
f 188/5/3 185/5/3 187/5/3
f 189/3/3 182/3/3 186/3/3
f 189/7/3 186/7/3 188/7/3
f 190/3/3 182/3/3 189/3/3
f 195/3/3 194/3/3 193/3/3
f 196/3/3 194/3/3 195/3/3
f 200/5/3 192/5/3 191/5/3
f 201/5/3 192/5/3 200/5/3
f 202/1/3 199/1/3 198/1/3
f 205/5/3 192/5/3 201/5/3
f 206/1/3 202/1/3 198/1/3
f 206/2/3 203/2/3 202/2/3
f 207/2/3 203/2/3 206/2/3
f 208/3/3 195/3/3 193/3/3
f 208/1/3 196/1/3 195/1/3
f 208/1/3 197/1/3 196/1/3
f 209/1/3 197/1/3 208/1/3
f 210/3/3 198/3/3 197/3/3
f 210/1/3 197/1/3 209/1/3
f 211/1/3 206/1/3 198/1/3
f 211/3/3 198/3/3 210/3/3
f 212/1/3 206/1/3 211/1/3
f 213/5/3 205/5/3 204/5/3
f 214/5/3 192/5/3 205/5/3
f 214/5/3 205/5/3 213/5/3
f 215/3/3 208/3/3 193/3/3
f 215/3/3 209/3/3 208/3/3
f 216/3/3 209/3/3 215/3/3
f 223/4/3 218/4/3 217/4/3
f 224/4/3 218/4/3 223/4/3
f 225/3/3 219/3/3 218/3/3
f 225/4/3 218/4/3 224/4/3
f 226/3/3 219/3/3 225/3/3
f 227/6/3 221/6/3 220/6/3
f 228/13/3 222/13/3 221/13/3
f 228/6/3 221/6/3 227/6/3
f 229/13/3 222/13/3 228/13/3
f 232/5/3 231/5/3 230/5/3
f 233/5/3 231/5/3 232/5/3
f 237/6/3 235/6/3 234/6/3
f 238/13/3 236/13/3 235/13/3
f 238/6/3 235/6/3 237/6/3
f 239/13/3 236/13/3 238/13/3
f 245/3/3 241/3/3 240/3/3
f 246/4/3 243/4/3 242/4/3
f 246/3/3 241/3/3 245/3/3
f 246/4/3 242/4/3 241/4/3
f 247/3/3 244/3/3 243/3/3
f 247/4/3 243/4/3 246/4/3
f 248/3/3 244/3/3 247/3/3
f 249/12/4 250/12/4 251/12/4
f 251/12/4 250/12/4 252/12/4
f 253/12/4 254/12/4 257/12/4
f 257/12/4 254/12/4 258/12/4
f 255/12/4 256/12/4 259/12/4
f 259/12/4 256/12/4 260/12/4
f 261/12/4 262/12/4 263/12/4
f 263/12/4 262/12/4 264/12/4
f 265/4/4 266/4/4 271/4/4
f 271/4/4 266/4/4 272/4/4
f 266/3/4 267/3/4 273/3/4
f 272/4/4 266/4/4 273/4/4
f 273/3/4 267/3/4 274/3/4
f 268/6/4 269/6/4 275/6/4
f 269/13/4 270/13/4 276/13/4
f 275/6/4 269/6/4 276/6/4
f 276/13/4 270/13/4 277/13/4
f 278/5/4 279/5/4 280/5/4
f 280/5/4 279/5/4 281/5/4
f 282/6/4 283/6/4 285/6/4
f 283/13/4 284/13/4 286/13/4
f 285/6/4 283/6/4 286/6/4
f 286/13/4 284/13/4 287/13/4
f 288/3/4 289/3/4 293/3/4
f 290/4/4 291/4/4 294/4/4
f 293/3/4 289/3/4 294/3/4
f 289/4/4 290/4/4 294/4/4
f 291/3/4 292/3/4 295/3/4
f 294/4/4 291/4/4 295/4/4
f 295/3/4 292/3/4 296/3/4
f 297/6/4 298/6/4 300/6/4
f 300/6/4 298/6/4 301/6/4
f 302/3/4 303/3/4 304/3/4
f 299/5/4 300/5/4 307/5/4
f 300/5/4 301/5/4 307/5/4
f 307/5/4 301/5/4 308/5/4
f 305/1/4 306/1/4 309/1/4
f 308/5/4 301/5/4 312/5/4
f 305/1/4 309/1/4 313/1/4
f 309/2/4 310/2/4 313/2/4
f 313/2/4 310/2/4 314/2/4
f 304/3/4 305/3/4 315/3/4
f 302/3/4 304/3/4 315/3/4
f 305/1/4 313/1/4 316/1/4
f 315/3/4 305/3/4 316/3/4
f 316/1/4 313/1/4 317/1/4
f 311/5/4 312/5/4 318/5/4
f 301/7/4 302/7/4 319/7/4
f 318/5/4 312/5/4 319/5/4
f 312/5/4 301/5/4 319/5/4
f 302/3/4 315/3/4 320/3/4
f 319/7/4 302/7/4 320/7/4
f 320/3/4 315/3/4 321/3/4
f 326/6/5 323/6/5 322/6/5
f 327/6/5 323/6/5 326/6/5
f 328/6/5 325/6/5 324/6/5
f 329/6/5 325/6/5 328/6/5
f 332/12/5 331/12/5 330/12/5
f 333/12/5 331/12/5 332/12/5
f 338/5/5 335/5/5 334/5/5
f 339/5/5 335/5/5 338/5/5
f 340/5/5 335/5/5 339/5/5
f 341/5/5 337/5/5 336/5/5
f 342/5/5 337/5/5 341/5/5
f 343/5/5 337/5/5 342/5/5
f 345/11/5 340/11/5 339/11/5
f 346/5/5 342/5/5 341/5/5
f 346/5/5 341/5/5 340/5/5
f 346/11/5 340/11/5 345/11/5
f 347/5/5 342/5/5 346/5/5
f 348/5/5 342/5/5 347/5/5
f 350/5/5 345/5/5 344/5/5
f 350/5/5 346/5/5 345/5/5
f 351/5/5 346/5/5 350/5/5
f 352/5/5 349/5/5 348/5/5
f 352/5/5 348/5/5 347/5/5
f 353/5/5 349/5/5 352/5/5
f 356/12/5 355/12/5 354/12/5
f 357/12/5 355/12/5 356/12/5
f 360/12/5 359/12/5 358/12/5
f 361/12/5 359/12/5 360/12/5
f 364/5/5 363/5/5 362/5/5
f 365/5/5 363/5/5 364/5/5
f 368/5/5 367/5/5 366/5/5
f 369/5/5 367/5/5 368/5/5
f 372/6/5 371/6/5 370/6/5
f 374/6/5 372/6/5 370/6/5
f 374/5/5 373/5/5 372/5/5
f 375/5/5 373/5/5 374/5/5
f 376/6/5 374/6/5 370/6/5
f 377/6/5 374/6/5 376/6/5
f 380/3/5 377/3/5 376/3/5
f 381/3/5 377/3/5 380/3/5
f 382/3/5 379/3/5 378/3/5
f 383/3/5 379/3/5 382/3/5
f 384/6/5 381/6/5 380/6/5
f 385/6/5 381/6/5 384/6/5
f 386/12/6 387/12/6 388/12/6
f 388/12/6 387/12/6 389/12/6
f 390/12/6 391/12/6 392/12/6
f 392/12/6 391/12/6 393/12/6
f 394/6/6 395/6/6 396/6/6
f 394/6/6 396/6/6 397/6/6
f 397/6/6 396/6/6 398/6/6
f 399/6/6 400/6/6 401/6/6
f 401/6/6 400/6/6 402/6/6
f 403/12/6 404/12/6 405/12/6
f 405/12/6 404/12/6 406/12/6
f 407/3/6 408/3/6 409/3/6
f 409/3/6 408/3/6 410/3/6
f 411/3/6 412/3/6 416/3/6
f 416/3/6 412/3/6 417/3/6
f 413/3/6 414/3/6 418/3/6
f 418/3/6 414/3/6 419/3/6
f 416/3/6 417/3/6 421/3/6
f 415/3/6 416/3/6 421/3/6
f 421/3/6 417/3/6 422/3/6
f 419/3/6 420/3/6 423/3/6
f 418/3/6 419/3/6 423/3/6
f 423/3/6 420/3/6 424/3/6
f 422/3/6 417/3/6 425/3/6
f 425/3/6 417/3/6 426/3/6
f 418/3/6 423/3/6 427/3/6
f 427/3/6 423/3/6 428/3/6
f 429/1/6 430/1/6 433/1/6
f 433/1/6 430/1/6 434/1/6
f 431/1/6 432/1/6 435/1/6
f 435/1/6 432/1/6 436/1/6
f 437/2/6 438/2/6 439/2/6
f 439/2/6 438/2/6 440/2/6
