# MagicaVoxel @ ephtracy

# material
mtllib Enchanter.mtl
usemtl palette

# normals
vn -1 0 0
vn 1 0 0
vn 0 0 1
vn 0 0 -1
vn 0 -1 0
vn 0 1 0

# texcoords
vt 0.146484 0.5
vt 0.193359 0.5
vt 0.197266 0.5
vt 0.216797 0.5
vt 0.224609 0.5
vt 0.248047 0.5
vt 0.568359 0.5
vt 0.607422 0.5
vt 0.681641 0.5
vt 0.939453 0.5

# verts
v -0.375 0.25 -0.5
v -0.375 0.25 -0.625
v -0.375 0.375 -0.375
v -0.375 0.375 -0.5
v -0.375 0.5 -0.25
v -0.375 0.5 -0.375
v -0.375 0.5 -0.5
v -0.375 0.5 -0.625
v -0.375 0.625 -0.125
v -0.375 0.625 -0.25
v -0.375 0.625 -0.375
v -0.375 0.625 -0.5
v -0.375 0.75 -0
v -0.375 0.75 -0.125
v -0.375 0.75 -0.25
v -0.375 0.75 -0.375
v -0.375 0.875 0.125
v -0.375 0.875 -0
v -0.375 0.875 -0.125
v -0.375 0.875 -0.25
v -0.375 0.875 -0.375
v -0.375 1 0.25
v -0.375 1 0.125
v -0.375 1 -0
v -0.375 1 -0.125
v -0.375 1.125 0.375
v -0.375 1.125 0.25
v -0.375 1.125 0.125
v -0.375 1.125 -0
v -0.375 1.25 0.5
v -0.375 1.25 0.375
v -0.375 1.25 0.25
v -0.375 1.25 0.125
v -0.375 1.375 0.625
v -0.375 1.375 0.5
v -0.375 1.375 0.375
v -0.375 1.375 0.25
v -0.375 1.375 0.125
v -0.375 1.375 -0.25
v -0.375 1.375 -0.375
v -0.375 1.5 0.5
v -0.375 1.5 0.375
v -0.375 1.5 0.25
v -0.375 1.5 -0.25
v -0.375 1.5 -0.375
v -0.375 1.625 0.25
v -0.375 1.625 0.125
v -0.375 1.75 0.625
v -0.375 1.75 0.5
v -0.25 0 -0.25
v -0.25 0 -0.375
v -0.25 0.125 -0.125
v -0.25 0.125 -0.25
v -0.25 0.125 -0.375
v -0.25 0.125 -0.5
v -0.25 0.25 -0.5
v -0.25 0.375 -0.375
v -0.25 0.375 -0.5
v -0.25 0.5 -0.25
v -0.25 0.5 -0.375
v -0.25 0.625 -0.125
v -0.25 0.625 -0.25
v -0.25 0.625 -0.375
v -0.25 0.625 -0.5
v -0.25 0.75 -0.375
v -0.25 0.875 -0.125
v -0.25 0.875 -0.25
v -0.25 0.875 -0.375
v -0.25 1 -0.125
v -0.25 1 -0.25
v -0.25 1.125 -0.125
v -0.25 1.125 -0.25
v -0.25 1.25 -0.125
v -0.25 1.25 -0.25
v -0.25 1.375 -0.125
v -0.25 1.375 -0.25
v -0.25 1.375 -0.375
v -0.25 1.375 -0.5
v -0.25 1.5 -0.375
v -0.25 1.5 -0.5
v -0.25 1.625 -0.375
v -0.25 1.625 -0.5
v -0.25 1.75 -0.25
v -0.25 1.75 -0.375
v -0.25 1.875 -0.25
v -0.25 1.875 -0.5
v -0.125 1 -0.125
v -0.125 1 -0.25
v -0.125 1.125 -0.125
v -0.125 1.125 -0.25
v -0.125 1.25 -0.5
v -0.125 1.25 -0.625
v -0.125 1.375 -0.5
v -0.125 1.5 -0.125
v -0.125 1.5 -0.25
v -0.125 1.5 -0.5
v -0.125 1.625 -0.375
v -0.125 1.625 -0.5
v -0.125 1.75 -0.125
v -0.125 1.75 -0.25
v -0.125 1.75 -0.375
v -0.125 1.875 -0.125
v -0.125 1.875 -0.25
v -0.125 1.875 -0.5
v -0.125 1.875 -0.625
v -0.125 2 -0.25
v -0.125 2 -0.5
v 0.25 0 -0.25
v 0.25 0 -0.375
v 0.25 0.125 -0.25
v 0.25 0.125 -0.375
v 0.25 0.25 -0.25
v 0.25 0.25 -0.375
v -0.25 0.25 -0.5
v -0.25 0.25 -0.625
v -0.25 0.5 -0.5
v -0.25 0.5 -0.625
v -0.25 0.75 -0
v -0.25 0.75 -0.125
v -0.25 0.875 0.125
v -0.25 0.875 -0
v -0.25 1 0.25
v -0.25 1 0.125
v -0.25 1 -0
v -0.25 1 -0.125
v -0.25 1.125 0.375
v -0.25 1.125 0.25
v -0.25 1.125 0.125
v -0.25 1.125 -0
v -0.25 1.25 0.5
v -0.25 1.25 0.375
v -0.25 1.25 0.25
v -0.25 1.25 0.125
v -0.25 1.375 0.625
v -0.25 1.375 0.5
v -0.25 1.375 0.375
v -0.25 1.375 0.25
v -0.25 1.375 0.125
v -0.25 1.5 0.5
v -0.25 1.5 0.375
v -0.25 1.5 0.25
v -0.25 1.625 0.25
v -0.25 1.625 0.125
v -0.25 1.75 0.625
v -0.25 1.75 0.5
v -0.125 0 -0.25
v -0.125 0 -0.375
v -0.125 0.125 -0.25
v -0.125 0.125 -0.375
v -0.125 0.25 -0.25
v -0.125 0.25 -0.375
v 0.25 1 -0.125
v 0.25 1 -0.25
v 0.25 1.125 -0.125
v 0.25 1.125 -0.25
v 0.25 1.25 -0.5
v 0.25 1.25 -0.625
v 0.25 1.375 -0.5
v 0.25 1.5 -0.125
v 0.25 1.5 -0.25
v 0.25 1.5 -0.5
v 0.25 1.625 -0.375
v 0.25 1.625 -0.5
v 0.25 1.75 -0.125
v 0.25 1.75 -0.25
v 0.25 1.75 -0.375
v 0.25 1.875 -0.125
v 0.25 1.875 -0.25
v 0.25 1.875 -0.5
v 0.25 1.875 -0.625
v 0.25 2 -0.25
v 0.25 2 -0.5
v 0.375 0 -0.25
v 0.375 0 -0.375
v 0.375 0.125 -0.125
v 0.375 0.125 -0.25
v 0.375 0.125 -0.375
v 0.375 0.125 -0.5
v 0.375 0.75 -0.25
v 0.375 0.75 -0.375
v 0.375 0.875 -0.25
v 0.375 0.875 -0.375
v 0.375 1 -0.125
v 0.375 1 -0.25
v 0.375 1.125 -0.125
v 0.375 1.125 -0.25
v 0.375 1.25 -0.125
v 0.375 1.25 -0.25
v 0.375 1.375 -0.125
v 0.375 1.375 -0.25
v 0.375 1.375 -0.375
v 0.375 1.375 -0.5
v 0.375 1.5 -0.375
v 0.375 1.5 -0.5
v 0.375 1.625 -0.375
v 0.375 1.625 -0.5
v 0.375 1.75 -0.25
v 0.375 1.75 -0.375
v 0.375 1.875 -0.25
v 0.375 1.875 -0.5
v 0.5 0.75 -0.25
v 0.5 0.75 -0.375
v 0.5 0.875 -0.25
v 0.5 0.875 -0.375
v 0.5 1.375 -0.25
v 0.5 1.375 -0.375
v 0.5 1.5 -0.25
v 0.5 1.5 -0.375
v -0.375 1.375 0.625
v -0.375 1.75 0.625
v -0.25 1.375 0.625
v -0.25 1.75 0.625
v -0.375 1.25 0.5
v -0.375 1.375 0.5
v -0.25 1.25 0.5
v -0.25 1.375 0.5
v -0.375 1.125 0.375
v -0.375 1.25 0.375
v -0.25 1.125 0.375
v -0.25 1.25 0.375
v -0.375 1 0.25
v -0.375 1.125 0.25
v -0.375 1.5 0.25
v -0.375 1.625 0.25
v -0.25 1 0.25
v -0.25 1.125 0.25
v -0.25 1.5 0.25
v -0.25 1.625 0.25
v -0.375 0.875 0.125
v -0.375 1 0.125
v -0.25 0.875 0.125
v -0.25 1 0.125
v -0.375 0.75 -0
v -0.375 0.875 -0
v -0.25 0.75 -0
v -0.25 0.875 -0
v -0.375 0.625 -0.125
v -0.375 0.75 -0.125
v -0.25 0.125 -0.125
v -0.25 0.625 -0.125
v -0.25 0.75 -0.125
v -0.25 1 -0.125
v -0.25 1.125 -0.125
v -0.25 1.25 -0.125
v -0.25 1.375 -0.125
v -0.125 1 -0.125
v -0.125 1.125 -0.125
v -0.125 1.25 -0.125
v -0.125 1.375 -0.125
v -0.125 1.5 -0.125
v -0.125 1.75 -0.125
v -0.125 1.875 -0.125
v 0.25 1 -0.125
v 0.25 1.125 -0.125
v 0.25 1.25 -0.125
v 0.25 1.375 -0.125
v 0.25 1.5 -0.125
v 0.25 1.75 -0.125
v 0.25 1.875 -0.125
v 0.375 0.125 -0.125
v 0.375 1 -0.125
v 0.375 1.125 -0.125
v 0.375 1.25 -0.125
v 0.375 1.375 -0.125
v -0.375 0.5 -0.25
v -0.375 0.625 -0.25
v -0.375 0.875 -0.25
v -0.375 1.375 -0.25
v -0.375 1.5 -0.25
v -0.25 0 -0.25
v -0.25 0.125 -0.25
v -0.25 0.5 -0.25
v -0.25 0.625 -0.25
v -0.25 0.875 -0.25
v -0.25 1 -0.25
v -0.25 1.125 -0.25
v -0.25 1.25 -0.25
v -0.25 1.375 -0.25
v -0.25 1.75 -0.25
v -0.25 1.875 -0.25
v -0.125 0 -0.25
v -0.125 0.125 -0.25
v -0.125 1 -0.25
v -0.125 1.125 -0.25
v -0.125 1.375 -0.25
v -0.125 1.5 -0.25
v -0.125 1.75 -0.25
v -0.125 1.875 -0.25
v -0.125 2 -0.25
v 0.25 0 -0.25
v 0.25 0.125 -0.25
v 0.25 1 -0.25
v 0.25 1.125 -0.25
v 0.25 1.375 -0.25
v 0.25 1.5 -0.25
v 0.25 1.75 -0.25
v 0.25 1.875 -0.25
v 0.25 2 -0.25
v 0.375 0 -0.25
v 0.375 0.125 -0.25
v 0.375 0.75 -0.25
v 0.375 0.875 -0.25
v 0.375 1 -0.25
v 0.375 1.125 -0.25
v 0.375 1.25 -0.25
v 0.375 1.375 -0.25
v 0.375 1.75 -0.25
v 0.375 1.875 -0.25
v 0.5 0.75 -0.25
v 0.5 0.875 -0.25
v 0.5 1.375 -0.25
v 0.5 1.5 -0.25
v -0.375 0.375 -0.375
v -0.375 0.5 -0.375
v -0.25 0.375 -0.375
v -0.25 0.5 -0.375
v -0.25 1.625 -0.375
v -0.25 1.75 -0.375
v -0.125 0.125 -0.375
v -0.125 0.25 -0.375
v -0.125 1.625 -0.375
v -0.125 1.75 -0.375
v 0.25 0.125 -0.375
v 0.25 0.25 -0.375
v 0.25 1.625 -0.375
v 0.25 1.75 -0.375
v 0.375 1.625 -0.375
v 0.375 1.75 -0.375
v -0.375 0.25 -0.5
v -0.375 0.375 -0.5
v -0.25 0.25 -0.5
v -0.25 0.375 -0.5
v -0.375 1.5 0.5
v -0.375 1.75 0.5
v -0.25 1.5 0.5
v -0.25 1.75 0.5
v -0.375 1.25 0.25
v -0.375 1.375 0.25
v -0.25 1.25 0.25
v -0.25 1.375 0.25
v -0.375 1.125 0.125
v -0.375 1.25 0.125
v -0.375 1.375 0.125
v -0.375 1.625 0.125
v -0.25 1.125 0.125
v -0.25 1.25 0.125
v -0.25 1.375 0.125
v -0.25 1.625 0.125
v -0.375 1 -0
v -0.375 1.125 -0
v -0.25 1 -0
v -0.25 1.125 -0
v -0.375 0.875 -0.125
v -0.375 1 -0.125
v -0.25 0.875 -0.125
v -0.25 1 -0.125
v -0.125 0.125 -0.25
v -0.125 0.25 -0.25
v 0.25 0.125 -0.25
v 0.25 0.25 -0.25
v -0.375 0.625 -0.375
v -0.375 0.75 -0.375
v -0.375 0.875 -0.375
v -0.375 1.375 -0.375
v -0.375 1.5 -0.375
v -0.25 0 -0.375
v -0.25 0.125 -0.375
v -0.25 0.625 -0.375
v -0.25 0.75 -0.375
v -0.25 0.875 -0.375
v -0.25 1.375 -0.375
v -0.25 1.5 -0.375
v -0.125 0 -0.375
v -0.125 0.125 -0.375
v 0.25 0 -0.375
v 0.25 0.125 -0.375
v 0.375 0 -0.375
v 0.375 0.125 -0.375
v 0.375 0.75 -0.375
v 0.375 0.875 -0.375
v 0.375 1.375 -0.375
v 0.375 1.5 -0.375
v 0.5 0.75 -0.375
v 0.5 0.875 -0.375
v 0.5 1.375 -0.375
v 0.5 1.5 -0.375
v -0.375 0.5 -0.5
v -0.375 0.625 -0.5
v -0.25 0.125 -0.5
v -0.25 0.25 -0.5
v -0.25 0.5 -0.5
v -0.25 0.625 -0.5
v -0.25 1.375 -0.5
v -0.25 1.5 -0.5
v -0.25 1.625 -0.5
v -0.25 1.875 -0.5
v -0.125 1.25 -0.5
v -0.125 1.375 -0.5
v -0.125 1.5 -0.5
v -0.125 1.625 -0.5
v -0.125 1.875 -0.5
v -0.125 2 -0.5
v 0.25 1.25 -0.5
v 0.25 1.375 -0.5
v 0.25 1.5 -0.5
v 0.25 1.625 -0.5
v 0.25 1.875 -0.5
v 0.25 2 -0.5
v 0.375 0.125 -0.5
v 0.375 1.375 -0.5
v 0.375 1.5 -0.5
v 0.375 1.625 -0.5
v 0.375 1.875 -0.5
v -0.375 0.25 -0.625
v -0.375 0.5 -0.625
v -0.25 0.25 -0.625
v -0.25 0.5 -0.625
v -0.125 1.25 -0.625
v -0.125 1.875 -0.625
v 0.25 1.25 -0.625
v 0.25 1.875 -0.625
v -0.25 0 -0.25
v -0.125 0 -0.25
v 0.25 0 -0.25
v 0.375 0 -0.25
v -0.25 0 -0.375
v -0.125 0 -0.375
v 0.25 0 -0.375
v 0.375 0 -0.375
v -0.25 0.125 -0.125
v 0.375 0.125 -0.125
v -0.25 0.125 -0.25
v -0.125 0.125 -0.25
v 0.25 0.125 -0.25
v 0.375 0.125 -0.25
v -0.25 0.125 -0.375
v -0.125 0.125 -0.375
v 0.25 0.125 -0.375
v 0.375 0.125 -0.375
v -0.25 0.125 -0.5
v 0.375 0.125 -0.5
v -0.125 0.25 -0.25
v 0.25 0.25 -0.25
v -0.125 0.25 -0.375
v 0.25 0.25 -0.375
v -0.375 0.25 -0.5
v -0.25 0.25 -0.5
v -0.375 0.25 -0.625
v -0.25 0.25 -0.625
v -0.375 0.375 -0.375
v -0.25 0.375 -0.375
v -0.375 0.375 -0.5
v -0.25 0.375 -0.5
v -0.375 0.5 -0.25
v -0.25 0.5 -0.25
v -0.375 0.5 -0.375
v -0.25 0.5 -0.375
v -0.375 0.625 -0.125
v -0.25 0.625 -0.125
v -0.375 0.625 -0.25
v -0.25 0.625 -0.25
v -0.375 0.75 -0
v -0.25 0.75 -0
v -0.375 0.75 -0.125
v -0.25 0.75 -0.125
v 0.375 0.75 -0.25
v 0.5 0.75 -0.25
v 0.375 0.75 -0.375
v 0.5 0.75 -0.375
v -0.375 0.875 0.125
v -0.25 0.875 0.125
v -0.375 0.875 -0
v -0.25 0.875 -0
v -0.375 1 0.25
v -0.25 1 0.25
v -0.375 1 0.125
v -0.25 1 0.125
v -0.375 1.125 0.375
v -0.25 1.125 0.375
v -0.375 1.125 0.25
v -0.25 1.125 0.25
v -0.25 1.125 -0.125
v -0.125 1.125 -0.125
v 0.25 1.125 -0.125
v 0.375 1.125 -0.125
v -0.25 1.125 -0.25
v -0.125 1.125 -0.25
v 0.25 1.125 -0.25
v 0.375 1.125 -0.25
v -0.375 1.25 0.5
v -0.25 1.25 0.5
v -0.375 1.25 0.375
v -0.25 1.25 0.375
v -0.125 1.25 -0.5
v 0.25 1.25 -0.5
v -0.125 1.25 -0.625
v 0.25 1.25 -0.625
v -0.375 1.375 0.625
v -0.25 1.375 0.625
v -0.375 1.375 0.5
v -0.25 1.375 0.5
v -0.375 1.375 0.25
v -0.25 1.375 0.25
v -0.375 1.375 0.125
v -0.25 1.375 0.125
v -0.125 1.5 -0.125
v 0.25 1.5 -0.125
v -0.125 1.5 -0.25
v 0.25 1.5 -0.25
v -0.25 1.625 -0.375
v -0.125 1.625 -0.375
v 0.25 1.625 -0.375
v 0.375 1.625 -0.375
v -0.25 1.625 -0.5
v -0.125 1.625 -0.5
v 0.25 1.625 -0.5
v 0.375 1.625 -0.5
v -0.25 1.75 -0.25
v -0.125 1.75 -0.25
v 0.25 1.75 -0.25
v 0.375 1.75 -0.25
v -0.25 1.75 -0.375
v -0.125 1.75 -0.375
v 0.25 1.75 -0.375
v 0.375 1.75 -0.375
v -0.375 0.5 -0.5
v -0.25 0.5 -0.5
v -0.375 0.5 -0.625
v -0.25 0.5 -0.625
v -0.375 0.625 -0.375
v -0.25 0.625 -0.375
v -0.375 0.625 -0.5
v -0.25 0.625 -0.5
v -0.375 0.875 -0.125
v -0.25 0.875 -0.125
v -0.375 0.875 -0.25
v -0.25 0.875 -0.25
v -0.375 1 -0
v -0.25 1 -0
v -0.375 1 -0.125
v -0.25 1 -0.125
v -0.125 1 -0.125
v 0.25 1 -0.125
v 0.375 1 -0.125
v -0.25 1 -0.25
v -0.125 1 -0.25
v 0.25 1 -0.25
v 0.375 1 -0.25
v -0.375 1.125 0.125
v -0.25 1.125 0.125
v -0.375 1.125 -0
v -0.25 1.125 -0
v -0.375 1.25 0.25
v -0.25 1.25 0.25
v -0.375 1.25 0.125
v -0.25 1.25 0.125
v -0.25 1.375 -0.125
v -0.125 1.375 -0.125
v 0.25 1.375 -0.125
v 0.375 1.375 -0.125
v -0.25 1.375 -0.25
v -0.125 1.375 -0.25
v 0.25 1.375 -0.25
v 0.375 1.375 -0.25
v -0.375 1.5 0.5
v -0.25 1.5 0.5
v -0.375 1.5 0.375
v -0.25 1.5 0.375
v -0.375 1.5 0.25
v -0.25 1.5 0.25
v -0.375 1.5 -0.25
v -0.125 1.5 -0.25
v 0.25 1.5 -0.25
v 0.5 1.5 -0.25
v -0.375 1.5 -0.375
v -0.25 1.5 -0.375
v 0.375 1.5 -0.375
v 0.5 1.5 -0.375
v -0.25 1.5 -0.5
v -0.125 1.5 -0.5
v 0.25 1.5 -0.5
v 0.375 1.5 -0.5
v -0.375 1.625 0.25
v -0.25 1.625 0.25
v -0.375 1.625 0.125
v -0.25 1.625 0.125
v -0.375 1.75 0.625
v -0.25 1.75 0.625
v -0.375 1.75 0.5
v -0.25 1.75 0.5
v -0.125 1.875 -0.125
v 0.25 1.875 -0.125
v -0.25 1.875 -0.25
v -0.125 1.875 -0.25
v 0.25 1.875 -0.25
v 0.375 1.875 -0.25
v -0.25 1.875 -0.5
v -0.125 1.875 -0.5
v 0.25 1.875 -0.5
v 0.375 1.875 -0.5
v -0.125 1.875 -0.625
v 0.25 1.875 -0.625
v -0.125 2 -0.25
v 0.25 2 -0.25
v -0.125 2 -0.5
v 0.25 2 -0.5

# faces
f 4/9/1 2/9/1 1/9/1
f 6/9/1 4/9/1 3/9/1
f 7/9/1 2/9/1 4/9/1
f 7/9/1 4/9/1 6/9/1
f 8/9/1 2/9/1 7/9/1
f 10/9/1 6/9/1 5/9/1
f 10/9/1 7/9/1 6/9/1
f 11/9/1 7/9/1 10/9/1
f 12/9/1 7/9/1 11/9/1
f 14/9/1 10/9/1 9/9/1
f 14/9/1 11/9/1 10/9/1
f 15/9/1 11/9/1 14/9/1
f 16/9/1 11/9/1 15/9/1
f 18/9/1 14/9/1 13/9/1
f 18/9/1 15/9/1 14/9/1
f 19/9/1 15/9/1 18/9/1
f 20/1/1 16/1/1 15/1/1
f 20/9/1 15/9/1 19/9/1
f 21/1/1 16/1/1 20/1/1
f 23/9/1 19/9/1 18/9/1
f 23/9/1 18/9/1 17/9/1
f 24/9/1 19/9/1 23/9/1
f 25/9/1 19/9/1 24/9/1
f 27/9/1 23/9/1 22/9/1
f 27/9/1 24/9/1 23/9/1
f 28/9/1 24/9/1 27/9/1
f 29/9/1 24/9/1 28/9/1
f 31/6/1 27/6/1 26/6/1
f 32/9/1 28/9/1 27/9/1
f 32/6/1 27/6/1 31/6/1
f 33/9/1 28/9/1 32/9/1
f 35/6/1 31/6/1 30/6/1
f 35/6/1 32/6/1 31/6/1
f 36/6/1 32/6/1 35/6/1
f 37/6/1 32/6/1 36/6/1
f 39/8/1 21/8/1 20/8/1
f 40/8/1 21/8/1 39/8/1
f 41/6/1 36/6/1 35/6/1
f 41/6/1 35/6/1 34/6/1
f 42/8/1 37/8/1 36/8/1
f 42/6/1 36/6/1 41/6/1
f 43/6/1 38/6/1 37/6/1
f 43/8/1 37/8/1 42/8/1
f 44/4/1 40/4/1 39/4/1
f 45/4/1 40/4/1 44/4/1
f 46/6/1 38/6/1 43/6/1
f 47/6/1 38/6/1 46/6/1
f 48/6/1 41/6/1 34/6/1
f 49/6/1 41/6/1 48/6/1
f 53/3/1 51/3/1 50/3/1
f 54/3/1 51/3/1 53/3/1
f 56/8/1 53/8/1 52/8/1
f 56/8/1 55/8/1 54/8/1
f 56/8/1 54/8/1 53/8/1
f 57/8/1 56/8/1 52/8/1
f 58/8/1 56/8/1 57/8/1
f 59/8/1 57/8/1 52/8/1
f 60/8/1 57/8/1 59/8/1
f 61/8/1 59/8/1 52/8/1
f 62/8/1 59/8/1 61/8/1
f 65/8/1 64/8/1 63/8/1
f 68/8/1 64/8/1 65/8/1
f 69/8/1 67/8/1 66/8/1
f 70/8/1 67/8/1 69/8/1
f 73/8/1 72/8/1 71/8/1
f 74/8/1 72/8/1 73/8/1
f 75/4/1 74/4/1 73/4/1
f 76/4/1 74/4/1 75/4/1
f 77/8/1 64/8/1 68/8/1
f 78/8/1 64/8/1 77/8/1
f 79/4/1 78/4/1 77/4/1
f 80/4/1 78/4/1 79/4/1
f 84/5/1 82/5/1 81/5/1
f 85/5/1 84/5/1 83/5/1
f 86/5/1 82/5/1 84/5/1
f 86/5/1 84/5/1 85/5/1
f 89/8/1 88/8/1 87/8/1
f 90/8/1 88/8/1 89/8/1
f 93/5/1 92/5/1 91/5/1
f 96/5/1 92/5/1 93/5/1
f 97/1/1 95/1/1 94/1/1
f 97/1/1 96/1/1 95/1/1
f 98/5/1 92/5/1 96/5/1
f 98/1/1 96/1/1 97/1/1
f 99/1/1 97/1/1 94/1/1
f 100/1/1 97/1/1 99/1/1
f 101/1/1 97/1/1 100/1/1
f 102/5/1 100/5/1 99/5/1
f 103/5/1 100/5/1 102/5/1
f 104/5/1 92/5/1 98/5/1
f 105/5/1 92/5/1 104/5/1
f 106/5/1 104/5/1 103/5/1
f 107/5/1 104/5/1 106/5/1
f 110/3/1 109/3/1 108/3/1
f 111/3/1 109/3/1 110/3/1
f 112/8/1 111/8/1 110/8/1
f 113/8/1 111/8/1 112/8/1
f 114/9/2 115/9/2 116/9/2
f 116/9/2 115/9/2 117/9/2
f 118/9/2 119/9/2 121/9/2
f 120/9/2 121/9/2 123/9/2
f 121/9/2 119/9/2 124/9/2
f 123/9/2 121/9/2 124/9/2
f 124/9/2 119/9/2 125/9/2
f 122/9/2 123/9/2 127/9/2
f 123/9/2 124/9/2 127/9/2
f 127/9/2 124/9/2 128/9/2
f 128/9/2 124/9/2 129/9/2
f 126/6/2 127/6/2 131/6/2
f 127/9/2 128/9/2 132/9/2
f 131/6/2 127/6/2 132/6/2
f 132/9/2 128/9/2 133/9/2
f 130/6/2 131/6/2 135/6/2
f 131/6/2 132/6/2 135/6/2
f 135/6/2 132/6/2 136/6/2
f 136/6/2 132/6/2 137/6/2
f 134/6/2 135/6/2 139/6/2
f 135/6/2 136/6/2 139/6/2
f 136/8/2 137/8/2 140/8/2
f 139/6/2 136/6/2 140/6/2
f 137/6/2 138/6/2 141/6/2
f 140/8/2 137/8/2 141/8/2
f 141/6/2 138/6/2 142/6/2
f 142/6/2 138/6/2 143/6/2
f 134/6/2 139/6/2 144/6/2
f 144/6/2 139/6/2 145/6/2
f 146/3/2 147/3/2 148/3/2
f 148/3/2 147/3/2 149/3/2
f 148/8/2 149/8/2 150/8/2
f 150/8/2 149/8/2 151/8/2
f 152/8/2 153/8/2 154/8/2
f 154/8/2 153/8/2 155/8/2
f 156/5/2 157/5/2 158/5/2
f 158/5/2 157/5/2 161/5/2
f 159/1/2 160/1/2 162/1/2
f 160/1/2 161/1/2 162/1/2
f 161/5/2 157/5/2 163/5/2
f 162/1/2 161/1/2 163/1/2
f 159/1/2 162/1/2 164/1/2
f 164/1/2 162/1/2 165/1/2
f 165/1/2 162/1/2 166/1/2
f 164/5/2 165/5/2 167/5/2
f 167/5/2 165/5/2 168/5/2
f 163/5/2 157/5/2 169/5/2
f 169/5/2 157/5/2 170/5/2
f 168/5/2 169/5/2 171/5/2
f 171/5/2 169/5/2 172/5/2
f 173/3/2 174/3/2 176/3/2
f 176/3/2 174/3/2 177/3/2
f 175/8/2 176/8/2 179/8/2
f 177/8/2 178/8/2 179/8/2
f 176/8/2 177/8/2 179/8/2
f 179/8/2 178/8/2 180/8/2
f 175/8/2 179/8/2 181/8/2
f 180/8/2 178/8/2 182/8/2
f 175/8/2 181/8/2 183/8/2
f 183/8/2 181/8/2 184/8/2
f 185/8/2 186/8/2 187/8/2
f 187/8/2 186/8/2 188/8/2
f 187/4/2 188/4/2 189/4/2
f 189/4/2 188/4/2 190/4/2
f 182/8/2 178/8/2 191/8/2
f 191/8/2 178/8/2 192/8/2
f 191/4/2 192/4/2 193/4/2
f 193/4/2 192/4/2 194/4/2
f 195/5/2 196/5/2 198/5/2
f 197/5/2 198/5/2 199/5/2
f 198/5/2 196/5/2 200/5/2
f 199/5/2 198/5/2 200/5/2
f 201/1/2 202/1/2 203/1/2
f 203/1/2 202/1/2 204/1/2
f 203/8/2 204/8/2 205/8/2
f 205/8/2 204/8/2 206/8/2
f 205/4/2 206/4/2 207/4/2
f 207/4/2 206/4/2 208/4/2
f 211/6/3 210/6/3 209/6/3
f 212/6/3 210/6/3 211/6/3
f 215/6/3 214/6/3 213/6/3
f 216/6/3 214/6/3 215/6/3
f 219/6/3 218/6/3 217/6/3
f 220/6/3 218/6/3 219/6/3
f 225/9/3 222/9/3 221/9/3
f 226/9/3 222/9/3 225/9/3
f 227/6/3 224/6/3 223/6/3
f 228/6/3 224/6/3 227/6/3
f 231/9/3 230/9/3 229/9/3
f 232/9/3 230/9/3 231/9/3
f 235/9/3 234/9/3 233/9/3
f 236/9/3 234/9/3 235/9/3
f 240/9/3 238/9/3 237/9/3
f 241/9/3 238/9/3 240/9/3
f 246/8/3 240/8/3 239/8/3
f 246/8/3 241/8/3 240/8/3
f 246/8/3 242/8/3 241/8/3
f 247/8/3 244/8/3 243/8/3
f 248/4/3 245/4/3 244/4/3
f 248/8/3 244/8/3 247/8/3
f 249/4/3 245/4/3 248/4/3
f 253/8/3 247/8/3 246/8/3
f 253/8/3 246/8/3 239/8/3
f 253/8/3 248/8/3 247/8/3
f 254/8/3 248/8/3 253/8/3
f 255/1/3 249/1/3 248/1/3
f 255/8/3 248/8/3 254/8/3
f 256/1/3 249/1/3 255/1/3
f 257/1/3 251/1/3 250/1/3
f 258/5/3 252/5/3 251/5/3
f 258/1/3 251/1/3 257/1/3
f 259/5/3 252/5/3 258/5/3
f 260/8/3 253/8/3 239/8/3
f 261/8/3 253/8/3 260/8/3
f 262/8/3 255/8/3 254/8/3
f 263/4/3 256/4/3 255/4/3
f 263/8/3 255/8/3 262/8/3
f 264/4/3 256/4/3 263/4/3
f 272/9/3 266/9/3 265/9/3
f 273/9/3 266/9/3 272/9/3
f 274/8/3 268/8/3 267/8/3
f 275/8/3 268/8/3 274/8/3
f 276/8/3 268/8/3 275/8/3
f 277/8/3 268/8/3 276/8/3
f 278/4/3 269/4/3 268/4/3
f 278/8/3 268/8/3 277/8/3
f 281/3/3 271/3/3 270/3/3
f 282/3/3 271/3/3 281/3/3
f 283/8/3 276/8/3 275/8/3
f 284/8/3 276/8/3 283/8/3
f 285/4/3 269/4/3 278/4/3
f 286/4/3 269/4/3 285/4/3
f 287/5/3 280/5/3 279/5/3
f 288/5/3 280/5/3 287/5/3
f 294/1/3 286/1/3 285/1/3
f 295/1/3 286/1/3 294/1/3
f 297/5/3 289/5/3 288/5/3
f 298/5/3 289/5/3 297/5/3
f 299/3/3 291/3/3 290/3/3
f 300/3/3 291/3/3 299/3/3
f 303/8/3 293/8/3 292/8/3
f 304/8/3 293/8/3 303/8/3
f 306/4/3 295/4/3 294/4/3
f 307/5/3 297/5/3 296/5/3
f 308/5/3 297/5/3 307/5/3
f 309/1/3 302/1/3 301/1/3
f 310/8/3 305/8/3 304/8/3
f 310/1/3 302/1/3 309/1/3
f 310/8/3 306/8/3 305/8/3
f 310/8/3 303/8/3 302/8/3
f 310/8/3 304/8/3 303/8/3
f 311/4/3 295/4/3 306/4/3
f 311/8/3 306/8/3 310/8/3
f 312/4/3 295/4/3 311/4/3
f 315/9/3 314/9/3 313/9/3
f 316/9/3 314/9/3 315/9/3
f 321/5/3 318/5/3 317/5/3
f 322/5/3 318/5/3 321/5/3
f 323/8/3 320/8/3 319/8/3
f 324/8/3 320/8/3 323/8/3
f 327/5/3 326/5/3 325/5/3
f 328/5/3 326/5/3 327/5/3
f 331/9/3 330/9/3 329/9/3
f 332/9/3 330/9/3 331/9/3
f 333/6/4 334/6/4 335/6/4
f 335/6/4 334/6/4 336/6/4
f 337/6/4 338/6/4 339/6/4
f 339/6/4 338/6/4 340/6/4
f 341/9/4 342/9/4 345/9/4
f 345/9/4 342/9/4 346/9/4
f 343/6/4 344/6/4 347/6/4
f 347/6/4 344/6/4 348/6/4
f 349/9/4 350/9/4 351/9/4
f 351/9/4 350/9/4 352/9/4
f 353/9/4 354/9/4 355/9/4
f 355/9/4 354/9/4 356/9/4
f 357/8/4 358/8/4 359/8/4
f 359/8/4 358/8/4 360/8/4
f 361/9/4 362/9/4 368/9/4
f 362/1/4 363/1/4 369/1/4
f 368/9/4 362/9/4 369/9/4
f 363/8/4 364/8/4 370/8/4
f 369/1/4 363/1/4 370/1/4
f 364/4/4 365/4/4 371/4/4
f 370/8/4 364/8/4 371/8/4
f 371/4/4 365/4/4 372/4/4
f 366/3/4 367/3/4 373/3/4
f 373/3/4 367/3/4 374/3/4
f 375/3/4 376/3/4 377/3/4
f 377/3/4 376/3/4 378/3/4
f 379/1/4 380/1/4 383/1/4
f 380/8/4 381/8/4 384/8/4
f 383/1/4 380/1/4 384/1/4
f 381/4/4 382/4/4 385/4/4
f 384/8/4 381/8/4 385/8/4
f 385/4/4 382/4/4 386/4/4
f 387/9/4 388/9/4 391/9/4
f 391/9/4 388/9/4 392/9/4
f 389/8/4 390/8/4 397/8/4
f 390/8/4 391/8/4 397/8/4
f 391/8/4 392/8/4 397/8/4
f 392/8/4 393/8/4 397/8/4
f 393/4/4 394/4/4 398/4/4
f 397/8/4 393/8/4 398/8/4
f 398/4/4 394/4/4 399/4/4
f 395/5/4 396/5/4 400/5/4
f 400/5/4 396/5/4 401/5/4
f 389/8/4 397/8/4 403/8/4
f 401/5/4 402/5/4 407/5/4
f 407/5/4 402/5/4 408/5/4
f 389/8/4 403/8/4 409/8/4
f 403/8/4 404/8/4 409/8/4
f 404/4/4 405/4/4 410/4/4
f 409/8/4 404/8/4 410/8/4
f 410/4/4 405/4/4 411/4/4
f 406/5/4 407/5/4 412/5/4
f 412/5/4 407/5/4 413/5/4
f 414/9/4 415/9/4 416/9/4
f 416/9/4 415/9/4 417/9/4
f 418/5/4 419/5/4 420/5/4
f 420/5/4 419/5/4 421/5/4
f 426/3/5 423/3/5 422/3/5
f 427/3/5 423/3/5 426/3/5
f 428/3/5 425/3/5 424/3/5
f 429/3/5 425/3/5 428/3/5
f 432/8/5 431/8/5 430/8/5
f 433/8/5 431/8/5 432/8/5
f 434/8/5 431/8/5 433/8/5
f 435/8/5 431/8/5 434/8/5
f 440/8/5 437/8/5 436/8/5
f 440/8/5 439/8/5 438/8/5
f 440/8/5 438/8/5 437/8/5
f 441/8/5 439/8/5 440/8/5
f 444/8/5 443/8/5 442/8/5
f 445/8/5 443/8/5 444/8/5
f 448/9/5 447/9/5 446/9/5
f 449/9/5 447/9/5 448/9/5
f 452/9/5 451/9/5 450/9/5
f 453/9/5 451/9/5 452/9/5
f 456/9/5 455/9/5 454/9/5
f 457/9/5 455/9/5 456/9/5
f 460/9/5 459/9/5 458/9/5
f 461/9/5 459/9/5 460/9/5
f 464/9/5 463/9/5 462/9/5
f 465/9/5 463/9/5 464/9/5
f 468/1/5 467/1/5 466/1/5
f 469/1/5 467/1/5 468/1/5
f 472/9/5 471/9/5 470/9/5
f 473/9/5 471/9/5 472/9/5
f 476/9/5 475/9/5 474/9/5
f 477/9/5 475/9/5 476/9/5
f 480/6/5 479/6/5 478/6/5
f 481/6/5 479/6/5 480/6/5
f 486/8/5 483/8/5 482/8/5
f 487/8/5 483/8/5 486/8/5
f 488/8/5 485/8/5 484/8/5
f 489/8/5 485/8/5 488/8/5
f 492/6/5 491/6/5 490/6/5
f 493/6/5 491/6/5 492/6/5
f 496/5/5 495/5/5 494/5/5
f 497/5/5 495/5/5 496/5/5
f 500/6/5 499/6/5 498/6/5
f 501/6/5 499/6/5 500/6/5
f 504/6/5 503/6/5 502/6/5
f 505/6/5 503/6/5 504/6/5
f 508/1/5 507/1/5 506/1/5
f 509/1/5 507/1/5 508/1/5
f 514/5/5 511/5/5 510/5/5
f 515/5/5 511/5/5 514/5/5
f 516/5/5 513/5/5 512/5/5
f 517/5/5 513/5/5 516/5/5
f 522/5/5 519/5/5 518/5/5
f 523/5/5 519/5/5 522/5/5
f 524/5/5 521/5/5 520/5/5
f 525/5/5 521/5/5 524/5/5
f 526/9/6 527/9/6 528/9/6
f 528/9/6 527/9/6 529/9/6
f 530/9/6 531/9/6 532/9/6
f 532/9/6 531/9/6 533/9/6
f 534/9/6 535/9/6 536/9/6
f 536/9/6 535/9/6 537/9/6
f 538/9/6 539/9/6 540/9/6
f 540/9/6 539/9/6 541/9/6
f 541/8/6 542/8/6 545/8/6
f 545/8/6 542/8/6 546/8/6
f 543/8/6 544/8/6 547/8/6
f 547/8/6 544/8/6 548/8/6
f 549/9/6 550/9/6 551/9/6
f 551/9/6 550/9/6 552/9/6
f 553/9/6 554/9/6 555/9/6
f 555/9/6 554/9/6 556/9/6
f 557/4/6 558/4/6 561/4/6
f 558/1/6 559/1/6 562/1/6
f 561/4/6 558/4/6 562/4/6
f 559/4/6 560/4/6 563/4/6
f 562/1/6 559/1/6 563/1/6
f 563/4/6 560/4/6 564/4/6
f 565/6/6 566/6/6 567/6/6
f 567/6/6 566/6/6 568/6/6
f 567/8/6 568/8/6 569/8/6
f 569/8/6 568/8/6 570/8/6
f 571/4/6 572/4/6 575/4/6
f 575/4/6 572/4/6 576/4/6
f 573/4/6 574/4/6 577/4/6
f 577/4/6 574/4/6 578/4/6
f 576/4/6 572/4/6 579/4/6
f 579/4/6 572/4/6 580/4/6
f 573/4/6 577/4/6 581/4/6
f 581/4/6 577/4/6 582/4/6
f 583/6/6 584/6/6 585/6/6
f 585/6/6 584/6/6 586/6/6
f 587/6/6 588/6/6 589/6/6
f 589/6/6 588/6/6 590/6/6
f 591/5/6 592/5/6 594/5/6
f 594/5/6 592/5/6 595/5/6
f 593/5/6 594/5/6 597/5/6
f 597/5/6 594/5/6 598/5/6
f 595/5/6 596/5/6 599/5/6
f 599/5/6 596/5/6 600/5/6
f 598/5/6 599/5/6 601/5/6
f 601/5/6 599/5/6 602/5/6
f 603/5/6 604/5/6 605/5/6
f 605/5/6 604/5/6 606/5/6
