# MagicaVoxel @ ephtracy

# material
mtllib Mage.mtl
usemtl palette

# normals
vn -1 0 0
vn 1 0 0
vn 0 0 1
vn 0 0 -1
vn 0 -1 0
vn 0 1 0

# texcoords
vt 0.146484 0.5
vt 0.169922 0.5
vt 0.189453 0.5
vt 0.193359 0.5
vt 0.197266 0.5
vt 0.251953 0.5
vt 0.568359 0.5
vt 0.572266 0.5
vt 0.595703 0.5
vt 0.939453 0.5
vt 0.982422 0.5

# verts
v -0.375 0.375 -0.375
v -0.375 0.375 -0.625
v -0.375 0.5 -0.5
v -0.375 0.5 -0.625
v -0.375 0.625 -0.25
v -0.375 0.625 -0.375
v -0.375 0.75 -0
v -0.375 0.75 -0.25
v -0.375 0.75 -0.375
v -0.375 0.75 -0.5
v -0.375 0.875 0.125
v -0.375 0.875 -0
v -0.375 0.875 -0.125
v -0.375 0.875 -0.25
v -0.375 0.875 -0.375
v -0.375 1 0.25
v -0.375 1 0.125
v -0.375 1 -0
v -0.375 1 -0.125
v -0.375 1.125 0.375
v -0.375 1.125 0.25
v -0.375 1.125 0.125
v -0.375 1.125 -0
v -0.375 1.25 0.25
v -0.375 1.25 0.125
v -0.375 1.375 0.5
v -0.375 1.375 0.375
v -0.375 1.375 0.25
v -0.375 1.5 0.5
v -0.375 1.5 0.25
v -0.375 1.5 -0.25
v -0.375 1.5 -0.375
v -0.25 0 -0.25
v -0.25 0 -0.375
v -0.25 0.25 -0.125
v -0.25 0.25 -0.25
v -0.25 0.25 -0.375
v -0.25 0.25 -0.5
v -0.25 0.375 -0.375
v -0.25 0.375 -0.5
v -0.25 0.625 -0.25
v -0.25 0.625 -0.375
v -0.25 0.75 -0.125
v -0.25 0.75 -0.25
v -0.25 0.75 -0.375
v -0.25 0.75 -0.5
v -0.25 0.875 -0.125
v -0.25 0.875 -0.25
v -0.25 0.875 -0.375
v -0.25 1 -0.125
v -0.25 1.5 -0.125
v -0.25 1.5 -0.25
v -0.25 1.5 -0.375
v -0.25 1.5 -0.5
v -0.25 1.75 -0
v -0.25 1.75 -0.625
v -0.25 1.875 -0
v -0.25 1.875 -0.625
v -0.125 1.25 -0
v -0.125 1.25 -0.125
v -0.125 1.5 -0.125
v -0.125 1.5 -0.5
v -0.125 1.625 -0
v -0.125 1.625 -0.125
v -0.125 1.75 -0.125
v -0.125 1.75 -0.5
v -0.125 1.875 -0.125
v -0.125 1.875 -0.5
v -0.125 2 -0.125
v -0.125 2 -0.25
v -0.125 2 -0.5
v -0.125 2 -0.625
v -0.125 2.125 -0.25
v -0.125 2.125 -0.625
v 0 1.125 -0
v 0 1.125 -0.125
v 0 1.25 -0
v 0 1.25 -0.125
v 0.25 0 -0.25
v 0.25 0 -0.375
v 0.25 0.25 -0.25
v 0.25 0.25 -0.375
v -0.25 0.375 -0.5
v -0.25 0.375 -0.625
v -0.25 0.5 -0.5
v -0.25 0.5 -0.625
v -0.25 0.75 -0
v -0.25 0.75 -0.125
v -0.25 0.875 0.125
v -0.25 0.875 -0
v -0.25 1 0.25
v -0.25 1 0.125
v -0.25 1 -0
v -0.25 1 -0.125
v -0.25 1.125 0.375
v -0.25 1.125 0.25
v -0.25 1.125 0.125
v -0.25 1.125 -0
v -0.25 1.25 0.25
v -0.25 1.25 0.125
v -0.25 1.375 0.5
v -0.25 1.375 0.375
v -0.25 1.375 0.25
v -0.25 1.5 0.5
v -0.25 1.5 0.25
v -0.125 0 -0.25
v -0.125 0 -0.375
v -0.125 0.25 -0.25
v -0.125 0.25 -0.375
v 0.125 1.125 -0
v 0.125 1.125 -0.125
v 0.125 1.25 -0
v 0.125 1.25 -0.125
v 0.25 1.25 -0
v 0.25 1.25 -0.125
v 0.25 1.5 -0.125
v 0.25 1.5 -0.5
v 0.25 1.625 -0
v 0.25 1.625 -0.125
v 0.25 1.75 -0.125
v 0.25 1.75 -0.5
v 0.25 1.875 -0.125
v 0.25 1.875 -0.5
v 0.25 2 -0.125
v 0.25 2 -0.25
v 0.25 2 -0.5
v 0.25 2 -0.625
v 0.25 2.125 -0.25
v 0.25 2.125 -0.625
v 0.375 0 -0.25
v 0.375 0 -0.375
v 0.375 0.25 -0.125
v 0.375 0.25 -0.25
v 0.375 0.25 -0.375
v 0.375 0.25 -0.5
v 0.375 0.75 -0.25
v 0.375 0.75 -0.375
v 0.375 0.875 -0.25
v 0.375 0.875 -0.375
v 0.375 1.5 -0.125
v 0.375 1.5 -0.25
v 0.375 1.5 -0.375
v 0.375 1.5 -0.5
v 0.375 1.75 -0
v 0.375 1.75 -0.625
v 0.375 1.875 -0
v 0.375 1.875 -0.625
v 0.5 0.75 -0.25
v 0.5 0.75 -0.375
v 0.5 0.875 -0.25
v 0.5 0.875 -0.375
v 0.5 1.5 -0.25
v 0.5 1.5 -0.375
v -0.375 1.375 0.5
v -0.375 1.5 0.5
v -0.25 1.375 0.5
v -0.25 1.5 0.5
v -0.375 1.125 0.375
v -0.375 1.375 0.375
v -0.25 1.125 0.375
v -0.25 1.375 0.375
v -0.375 1 0.25
v -0.375 1.125 0.25
v -0.25 1 0.25
v -0.25 1.125 0.25
v -0.375 0.875 0.125
v -0.375 1 0.125
v -0.25 0.875 0.125
v -0.25 1 0.125
v -0.375 0.75 -0
v -0.375 0.875 -0
v -0.25 0.75 -0
v -0.25 0.875 -0
v -0.25 1.75 -0
v -0.25 1.875 -0
v -0.125 1.25 -0
v -0.125 1.625 -0
v 0 1.125 -0
v 0 1.25 -0
v 0.125 1.125 -0
v 0.125 1.25 -0
v 0.25 1.25 -0
v 0.25 1.625 -0
v 0.375 1.75 -0
v 0.375 1.875 -0
v -0.25 0.25 -0.125
v -0.25 0.75 -0.125
v -0.25 1 -0.125
v -0.25 1.5 -0.125
v -0.125 1.25 -0.125
v -0.125 1.5 -0.125
v -0.125 1.625 -0.125
v -0.125 1.75 -0.125
v -0.125 1.875 -0.125
v -0.125 2 -0.125
v 0 1.125 -0.125
v 0 1.25 -0.125
v 0.125 1.125 -0.125
v 0.125 1.25 -0.125
v 0.25 1.25 -0.125
v 0.25 1.5 -0.125
v 0.25 1.625 -0.125
v 0.25 1.75 -0.125
v 0.25 1.875 -0.125
v 0.25 2 -0.125
v 0.375 0.25 -0.125
v 0.375 1.5 -0.125
v -0.375 0.625 -0.25
v -0.375 0.75 -0.25
v -0.375 0.875 -0.25
v -0.375 1.5 -0.25
v -0.25 0 -0.25
v -0.25 0.25 -0.25
v -0.25 0.625 -0.25
v -0.25 0.75 -0.25
v -0.25 0.875 -0.25
v -0.25 1.5 -0.25
v -0.125 0 -0.25
v -0.125 0.25 -0.25
v -0.125 2 -0.25
v -0.125 2.125 -0.25
v 0.25 0 -0.25
v 0.25 0.25 -0.25
v 0.25 2 -0.25
v 0.25 2.125 -0.25
v 0.375 0 -0.25
v 0.375 0.25 -0.25
v 0.375 0.75 -0.25
v 0.375 0.875 -0.25
v 0.375 1.5 -0.25
v 0.5 0.75 -0.25
v 0.5 0.875 -0.25
v 0.5 1.5 -0.25
v -0.375 0.375 -0.375
v -0.375 0.625 -0.375
v -0.25 0.375 -0.375
v -0.25 0.625 -0.375
v -0.375 1.25 0.25
v -0.375 1.375 0.25
v -0.375 1.5 0.25
v -0.25 1.25 0.25
v -0.25 1.375 0.25
v -0.25 1.5 0.25
v -0.375 1.125 0.125
v -0.375 1.25 0.125
v -0.25 1.125 0.125
v -0.25 1.25 0.125
v -0.375 1 -0
v -0.375 1.125 -0
v -0.25 1 -0
v -0.25 1.125 -0
v -0.375 0.875 -0.125
v -0.375 1 -0.125
v -0.25 0.875 -0.125
v -0.25 1 -0.125
v -0.375 0.75 -0.375
v -0.375 0.875 -0.375
v -0.375 1.5 -0.375
v -0.25 0 -0.375
v -0.25 0.25 -0.375
v -0.25 0.75 -0.375
v -0.25 0.875 -0.375
v -0.25 1.5 -0.375
v -0.125 0 -0.375
v -0.125 0.25 -0.375
v 0.25 0 -0.375
v 0.25 0.25 -0.375
v 0.375 0 -0.375
v 0.375 0.25 -0.375
v 0.375 0.75 -0.375
v 0.375 0.875 -0.375
v 0.375 1.5 -0.375
v 0.5 0.75 -0.375
v 0.5 0.875 -0.375
v 0.5 1.5 -0.375
v -0.375 0.5 -0.5
v -0.375 0.75 -0.5
v -0.25 0.25 -0.5
v -0.25 0.375 -0.5
v -0.25 0.5 -0.5
v -0.25 0.75 -0.5
v -0.25 1.5 -0.5
v -0.125 1.5 -0.5
v -0.125 1.75 -0.5
v -0.125 1.875 -0.5
v -0.125 2 -0.5
v 0.25 1.5 -0.5
v 0.25 1.75 -0.5
v 0.25 1.875 -0.5
v 0.25 2 -0.5
v 0.375 0.25 -0.5
v 0.375 1.5 -0.5
v -0.375 0.375 -0.625
v -0.375 0.5 -0.625
v -0.25 0.375 -0.625
v -0.25 0.5 -0.625
v -0.25 1.75 -0.625
v -0.25 1.875 -0.625
v -0.125 2 -0.625
v -0.125 2.125 -0.625
v 0.25 2 -0.625
v 0.25 2.125 -0.625
v 0.375 1.75 -0.625
v 0.375 1.875 -0.625
v -0.25 0 -0.25
v -0.125 0 -0.25
v 0.25 0 -0.25
v 0.375 0 -0.25
v -0.25 0 -0.375
v -0.125 0 -0.375
v 0.25 0 -0.375
v 0.375 0 -0.375
v -0.25 0.25 -0.125
v 0.375 0.25 -0.125
v -0.25 0.25 -0.25
v -0.125 0.25 -0.25
v 0.25 0.25 -0.25
v 0.375 0.25 -0.25
v -0.25 0.25 -0.375
v -0.125 0.25 -0.375
v 0.25 0.25 -0.375
v 0.375 0.25 -0.375
v -0.25 0.25 -0.5
v 0.375 0.25 -0.5
v -0.375 0.375 -0.375
v -0.25 0.375 -0.375
v -0.25 0.375 -0.5
v -0.375 0.375 -0.625
v -0.25 0.375 -0.625
v -0.375 0.625 -0.25
v -0.25 0.625 -0.25
v -0.375 0.625 -0.375
v -0.25 0.625 -0.375
v -0.375 0.75 -0
v -0.25 0.75 -0
v -0.25 0.75 -0.125
v -0.375 0.75 -0.25
v -0.25 0.75 -0.25
v 0.375 0.75 -0.25
v 0.5 0.75 -0.25
v 0.375 0.75 -0.375
v 0.5 0.75 -0.375
v -0.375 0.875 0.125
v -0.25 0.875 0.125
v -0.375 0.875 -0
v -0.25 0.875 -0
v -0.375 1 0.25
v -0.25 1 0.25
v -0.375 1 0.125
v -0.25 1 0.125
v -0.375 1.125 0.375
v -0.25 1.125 0.375
v -0.375 1.125 0.25
v -0.25 1.125 0.25
v 0 1.125 -0
v 0.125 1.125 -0
v 0 1.125 -0.125
v 0.125 1.125 -0.125
v -0.125 1.25 -0
v 0 1.25 -0
v 0.125 1.25 -0
v 0.25 1.25 -0
v -0.125 1.25 -0.125
v 0 1.25 -0.125
v 0.125 1.25 -0.125
v 0.25 1.25 -0.125
v -0.375 1.375 0.5
v -0.25 1.375 0.5
v -0.375 1.375 0.375
v -0.25 1.375 0.375
v -0.25 1.75 -0
v 0.375 1.75 -0
v -0.125 1.75 -0.125
v 0.25 1.75 -0.125
v -0.125 1.75 -0.5
v 0.25 1.75 -0.5
v -0.25 1.75 -0.625
v 0.375 1.75 -0.625
v -0.125 2 -0.5
v 0.25 2 -0.5
v -0.125 2 -0.625
v 0.25 2 -0.625
v -0.375 0.5 -0.5
v -0.25 0.5 -0.5
v -0.375 0.5 -0.625
v -0.25 0.5 -0.625
v -0.375 0.75 -0.375
v -0.25 0.75 -0.375
v -0.375 0.75 -0.5
v -0.25 0.75 -0.5
v -0.375 0.875 -0.125
v -0.25 0.875 -0.125
v -0.375 0.875 -0.25
v -0.25 0.875 -0.25
v -0.375 1 -0
v -0.25 1 -0
v -0.375 1 -0.125
v -0.25 1 -0.125
v -0.375 1.125 0.125
v -0.25 1.125 0.125
v -0.375 1.125 -0
v -0.25 1.125 -0
v -0.375 1.25 0.25
v -0.25 1.25 0.25
v -0.375 1.25 0.125
v -0.25 1.25 0.125
v -0.375 1.5 0.5
v -0.25 1.5 0.5
v -0.375 1.5 0.25
v -0.25 1.5 0.25
v -0.25 1.5 -0.125
v -0.125 1.5 -0.125
v 0.25 1.5 -0.125
v 0.375 1.5 -0.125
v -0.375 1.5 -0.25
v -0.25 1.5 -0.25
v 0.375 1.5 -0.25
v 0.5 1.5 -0.25
v -0.375 1.5 -0.375
v -0.25 1.5 -0.375
v 0.375 1.5 -0.375
v 0.5 1.5 -0.375
v -0.25 1.5 -0.5
v -0.125 1.5 -0.5
v 0.25 1.5 -0.5
v 0.375 1.5 -0.5
v -0.125 1.625 -0
v 0.25 1.625 -0
v -0.125 1.625 -0.125
v 0.25 1.625 -0.125
v -0.25 1.875 -0
v 0.375 1.875 -0
v -0.125 1.875 -0.125
v 0.25 1.875 -0.125
v -0.125 1.875 -0.5
v 0.25 1.875 -0.5
v -0.25 1.875 -0.625
v 0.375 1.875 -0.625
v -0.125 2 -0.125
v 0.25 2 -0.125
v -0.125 2 -0.25
v 0.25 2 -0.25
v -0.125 2.125 -0.25
v 0.25 2.125 -0.25
v -0.125 2.125 -0.625
v 0.25 2.125 -0.625

# faces
f 3/3/1 2/3/1 1/3/1
f 4/3/1 2/3/1 3/3/1
f 6/3/1 3/3/1 1/3/1
f 8/3/1 6/3/1 5/3/1
f 9/3/1 3/3/1 6/3/1
f 9/3/1 6/3/1 8/3/1
f 10/3/1 3/3/1 9/3/1
f 12/3/1 8/3/1 7/3/1
f 13/3/1 8/3/1 12/3/1
f 14/1/1 9/1/1 8/1/1
f 14/3/1 8/3/1 13/3/1
f 15/1/1 9/1/1 14/1/1
f 17/3/1 13/3/1 12/3/1
f 17/3/1 12/3/1 11/3/1
f 18/3/1 13/3/1 17/3/1
f 19/3/1 13/3/1 18/3/1
f 21/3/1 17/3/1 16/3/1
f 21/3/1 18/3/1 17/3/1
f 22/3/1 18/3/1 21/3/1
f 23/3/1 18/3/1 22/3/1
f 24/3/1 21/3/1 20/3/1
f 24/3/1 22/3/1 21/3/1
f 25/3/1 22/3/1 24/3/1
f 27/3/1 24/3/1 20/3/1
f 28/3/1 24/3/1 27/3/1
f 29/6/1 27/6/1 26/6/1
f 29/6/1 28/6/1 27/6/1
f 30/6/1 28/6/1 29/6/1
f 31/7/1 15/7/1 14/7/1
f 32/7/1 15/7/1 31/7/1
f 36/5/1 34/5/1 33/5/1
f 37/5/1 34/5/1 36/5/1
f 39/7/1 36/7/1 35/7/1
f 39/7/1 38/7/1 37/7/1
f 39/7/1 37/7/1 36/7/1
f 40/7/1 38/7/1 39/7/1
f 41/7/1 39/7/1 35/7/1
f 42/7/1 39/7/1 41/7/1
f 43/7/1 41/7/1 35/7/1
f 44/7/1 41/7/1 43/7/1
f 49/7/1 46/7/1 45/7/1
f 50/7/1 48/7/1 47/7/1
f 51/7/1 48/7/1 50/7/1
f 52/7/1 48/7/1 51/7/1
f 53/7/1 46/7/1 49/7/1
f 54/7/1 46/7/1 53/7/1
f 57/2/1 56/2/1 55/2/1
f 58/2/1 56/2/1 57/2/1
f 61/9/1 60/9/1 59/9/1
f 63/9/1 61/9/1 59/9/1
f 64/1/1 62/1/1 61/1/1
f 64/9/1 61/9/1 63/9/1
f 65/1/1 62/1/1 64/1/1
f 66/1/1 62/1/1 65/1/1
f 69/2/1 68/2/1 67/2/1
f 70/2/1 68/2/1 69/2/1
f 71/2/1 68/2/1 70/2/1
f 73/2/1 71/2/1 70/2/1
f 73/2/1 72/2/1 71/2/1
f 74/2/1 72/2/1 73/2/1
f 77/9/1 76/9/1 75/9/1
f 78/9/1 76/9/1 77/9/1
f 81/5/1 80/5/1 79/5/1
f 82/5/1 80/5/1 81/5/1
f 83/3/2 84/3/2 85/3/2
f 85/3/2 84/3/2 86/3/2
f 87/3/2 88/3/2 90/3/2
f 89/3/2 90/3/2 92/3/2
f 90/3/2 88/3/2 93/3/2
f 92/3/2 90/3/2 93/3/2
f 93/3/2 88/3/2 94/3/2
f 91/3/2 92/3/2 96/3/2
f 92/3/2 93/3/2 96/3/2
f 96/3/2 93/3/2 97/3/2
f 97/3/2 93/3/2 98/3/2
f 95/3/2 96/3/2 99/3/2
f 96/3/2 97/3/2 99/3/2
f 99/3/2 97/3/2 100/3/2
f 95/3/2 99/3/2 102/3/2
f 102/3/2 99/3/2 103/3/2
f 101/6/2 102/6/2 104/6/2
f 102/6/2 103/6/2 104/6/2
f 104/6/2 103/6/2 105/6/2
f 106/5/2 107/5/2 108/5/2
f 108/5/2 107/5/2 109/5/2
f 110/9/2 111/9/2 112/9/2
f 112/9/2 111/9/2 113/9/2
f 114/9/2 115/9/2 116/9/2
f 114/9/2 116/9/2 118/9/2
f 116/1/2 117/1/2 119/1/2
f 118/9/2 116/9/2 119/9/2
f 119/1/2 117/1/2 120/1/2
f 120/1/2 117/1/2 121/1/2
f 122/2/2 123/2/2 124/2/2
f 124/2/2 123/2/2 125/2/2
f 125/2/2 123/2/2 126/2/2
f 125/2/2 126/2/2 128/2/2
f 126/2/2 127/2/2 128/2/2
f 128/2/2 127/2/2 129/2/2
f 130/5/2 131/5/2 133/5/2
f 133/5/2 131/5/2 134/5/2
f 132/7/2 133/7/2 136/7/2
f 134/7/2 135/7/2 136/7/2
f 133/7/2 134/7/2 136/7/2
f 136/7/2 135/7/2 137/7/2
f 132/7/2 136/7/2 138/7/2
f 137/7/2 135/7/2 139/7/2
f 132/7/2 138/7/2 140/7/2
f 140/7/2 138/7/2 141/7/2
f 139/7/2 135/7/2 142/7/2
f 142/7/2 135/7/2 143/7/2
f 144/2/2 145/2/2 146/2/2
f 146/2/2 145/2/2 147/2/2
f 148/1/2 149/1/2 150/1/2
f 150/1/2 149/1/2 151/1/2
f 150/7/2 151/7/2 152/7/2
f 152/7/2 151/7/2 153/7/2
f 156/6/3 155/6/3 154/6/3
f 157/6/3 155/6/3 156/6/3
f 160/3/3 159/3/3 158/3/3
f 161/3/3 159/3/3 160/3/3
f 164/3/3 163/3/3 162/3/3
f 165/3/3 163/3/3 164/3/3
f 168/3/3 167/3/3 166/3/3
f 169/3/3 167/3/3 168/3/3
f 172/3/3 171/3/3 170/3/3
f 173/3/3 171/3/3 172/3/3
f 179/9/3 177/9/3 176/9/3
f 180/9/3 179/9/3 178/9/3
f 181/9/3 177/9/3 179/9/3
f 181/9/3 179/9/3 180/9/3
f 182/9/3 177/9/3 181/9/3
f 183/9/3 177/9/3 182/9/3
f 184/2/3 175/2/3 174/2/3
f 185/2/3 175/2/3 184/2/3
f 190/7/3 187/7/3 186/7/3
f 190/7/3 189/7/3 188/7/3
f 190/7/3 188/7/3 187/7/3
f 191/7/3 189/7/3 190/7/3
f 196/7/3 190/7/3 186/7/3
f 197/7/3 190/7/3 196/7/3
f 198/7/3 196/7/3 186/7/3
f 200/7/3 199/7/3 198/7/3
f 202/1/3 193/1/3 192/1/3
f 203/1/3 193/1/3 202/1/3
f 204/2/3 195/2/3 194/2/3
f 205/2/3 195/2/3 204/2/3
f 206/7/3 201/7/3 200/7/3
f 206/7/3 200/7/3 198/7/3
f 206/7/3 198/7/3 186/7/3
f 207/7/3 201/7/3 206/7/3
f 214/3/3 209/3/3 208/3/3
f 215/3/3 209/3/3 214/3/3
f 216/7/3 211/7/3 210/7/3
f 217/7/3 211/7/3 216/7/3
f 218/5/3 213/5/3 212/5/3
f 219/5/3 213/5/3 218/5/3
f 224/2/3 221/2/3 220/2/3
f 225/2/3 221/2/3 224/2/3
f 226/5/3 223/5/3 222/5/3
f 227/5/3 223/5/3 226/5/3
f 231/1/3 229/1/3 228/1/3
f 232/7/3 230/7/3 229/7/3
f 232/1/3 229/1/3 231/1/3
f 233/7/3 230/7/3 232/7/3
f 236/3/3 235/3/3 234/3/3
f 237/3/3 235/3/3 236/3/3
f 238/3/4 239/3/4 241/3/4
f 239/6/4 240/6/4 242/6/4
f 241/3/4 239/3/4 242/3/4
f 242/6/4 240/6/4 243/6/4
f 244/3/4 245/3/4 246/3/4
f 246/3/4 245/3/4 247/3/4
f 248/3/4 249/3/4 250/3/4
f 250/3/4 249/3/4 251/3/4
f 252/3/4 253/3/4 254/3/4
f 254/3/4 253/3/4 255/3/4
f 256/1/4 257/1/4 261/1/4
f 257/7/4 258/7/4 262/7/4
f 261/1/4 257/1/4 262/1/4
f 262/7/4 258/7/4 263/7/4
f 259/5/4 260/5/4 264/5/4
f 264/5/4 260/5/4 265/5/4
f 266/5/4 267/5/4 268/5/4
f 268/5/4 267/5/4 269/5/4
f 270/1/4 271/1/4 273/1/4
f 271/7/4 272/7/4 274/7/4
f 273/1/4 271/1/4 274/1/4
f 274/7/4 272/7/4 275/7/4
f 276/3/4 277/3/4 280/3/4
f 280/3/4 277/3/4 281/3/4
f 278/7/4 279/7/4 283/7/4
f 281/7/4 282/7/4 283/7/4
f 280/7/4 281/7/4 283/7/4
f 279/7/4 280/7/4 283/7/4
f 278/7/4 283/7/4 287/7/4
f 283/1/4 284/1/4 287/1/4
f 287/1/4 284/1/4 288/1/4
f 285/2/4 286/2/4 289/2/4
f 289/2/4 286/2/4 290/2/4
f 278/7/4 287/7/4 291/7/4
f 291/7/4 287/7/4 292/7/4
f 293/3/4 294/3/4 295/3/4
f 295/3/4 294/3/4 296/3/4
f 299/2/4 300/2/4 301/2/4
f 301/2/4 300/2/4 302/2/4
f 297/2/4 298/2/4 303/2/4
f 303/2/4 298/2/4 304/2/4
f 309/5/5 306/5/5 305/5/5
f 310/5/5 306/5/5 309/5/5
f 311/5/5 308/5/5 307/5/5
f 312/5/5 308/5/5 311/5/5
f 315/7/5 314/7/5 313/7/5
f 316/7/5 314/7/5 315/7/5
f 317/7/5 314/7/5 316/7/5
f 318/7/5 314/7/5 317/7/5
f 320/8/5 317/8/5 316/8/5
f 321/8/5 317/8/5 320/8/5
f 323/7/5 320/7/5 319/7/5
f 323/7/5 322/7/5 321/7/5
f 323/7/5 321/7/5 320/7/5
f 324/7/5 322/7/5 323/7/5
f 327/3/5 326/3/5 325/3/5
f 328/3/5 327/3/5 325/3/5
f 329/3/5 327/3/5 328/3/5
f 332/3/5 331/3/5 330/3/5
f 333/3/5 331/3/5 332/3/5
f 336/3/5 335/3/5 334/3/5
f 337/3/5 336/3/5 334/3/5
f 338/3/5 336/3/5 337/3/5
f 341/1/5 340/1/5 339/1/5
f 342/1/5 340/1/5 341/1/5
f 345/3/5 344/3/5 343/3/5
f 346/3/5 344/3/5 345/3/5
f 349/3/5 348/3/5 347/3/5
f 350/3/5 348/3/5 349/3/5
f 353/3/5 352/3/5 351/3/5
f 354/3/5 352/3/5 353/3/5
f 357/9/5 356/9/5 355/9/5
f 358/9/5 356/9/5 357/9/5
f 363/9/5 360/9/5 359/9/5
f 364/9/5 360/9/5 363/9/5
f 365/9/5 362/9/5 361/9/5
f 366/9/5 362/9/5 365/9/5
f 369/6/5 368/6/5 367/6/5
f 370/6/5 368/6/5 369/6/5
f 373/2/5 372/2/5 371/2/5
f 374/2/5 372/2/5 373/2/5
f 375/2/5 373/2/5 371/2/5
f 376/2/5 372/2/5 374/2/5
f 377/2/5 375/2/5 371/2/5
f 377/2/5 376/2/5 375/2/5
f 378/2/5 372/2/5 376/2/5
f 378/2/5 376/2/5 377/2/5
f 381/2/5 380/2/5 379/2/5
f 382/2/5 380/2/5 381/2/5
f 383/3/6 384/3/6 385/3/6
f 385/3/6 384/3/6 386/3/6
f 387/3/6 388/3/6 389/3/6
f 389/3/6 388/3/6 390/3/6
f 391/3/6 392/3/6 393/3/6
f 393/3/6 392/3/6 394/3/6
f 395/3/6 396/3/6 397/3/6
f 397/3/6 396/3/6 398/3/6
f 399/3/6 400/3/6 401/3/6
f 401/3/6 400/3/6 402/3/6
f 403/3/6 404/3/6 405/3/6
f 405/3/6 404/3/6 406/3/6
f 407/6/6 408/6/6 409/6/6
f 409/6/6 408/6/6 410/6/6
f 411/7/6 412/7/6 416/7/6
f 413/7/6 414/7/6 417/7/6
f 415/7/6 416/7/6 419/7/6
f 416/7/6 412/7/6 420/7/6
f 419/7/6 416/7/6 420/7/6
f 417/7/6 418/7/6 421/7/6
f 413/7/6 417/7/6 421/7/6
f 421/7/6 418/7/6 422/7/6
f 420/7/6 412/7/6 423/7/6
f 423/7/6 412/7/6 424/7/6
f 413/7/6 421/7/6 425/7/6
f 425/7/6 421/7/6 426/7/6
f 427/9/6 428/9/6 429/9/6
f 429/9/6 428/9/6 430/9/6
f 431/2/6 432/2/6 433/2/6
f 433/2/6 432/2/6 434/2/6
f 431/2/6 433/2/6 435/2/6
f 434/2/6 432/2/6 436/2/6
f 431/2/6 435/2/6 437/2/6
f 435/2/6 436/2/6 437/2/6
f 436/2/6 432/2/6 438/2/6
f 437/2/6 436/2/6 438/2/6
f 439/2/6 440/2/6 441/2/6
f 441/2/6 440/2/6 442/2/6
f 443/2/6 444/2/6 445/2/6
f 445/2/6 444/2/6 446/2/6
