# MagicaVoxel @ ephtracy

# material
mtllib Minotaur.mtl
usemtl palette

# normals
vn -1 0 0
vn 1 0 0
vn 0 0 1
vn 0 0 -1
vn 0 -1 0
vn 0 1 0

# texcoords
vt 0.0917969 0.5
vt 0.123047 0.5
vt 0.169922 0.5
vt 0.189453 0.5
vt 0.197266 0.5

# verts
v -0.625 0.625 -0
v -0.625 0.625 -0.25
v -0.625 0.75 -0
v -0.625 0.75 -0.25
v -0.625 1.375 0.125
v -0.625 1.375 -0
v -0.625 1.625 0.125
v -0.625 1.625 -0.25
v -0.25 0 -0
v -0.25 0 -0.125
v -0.25 0.875 -0
v -0.25 0.875 -0.125
v -0.25 1 0.125
v -0.25 1 -0
v -0.25 1 -0.125
v -0.25 1.125 -0.125
v -0.25 1.125 -0.25
v -0.25 1.375 0.25
v -0.25 1.375 0.125
v -0.25 1.5 0.125
v -0.25 1.5 -0.25
v -0.25 1.625 0.25
v -0.25 1.625 0.125
v -0.25 1.875 0.25
v -0.25 1.875 -0
v -0.25 2 0.125
v -0.25 2 -0
v -0.25 2.25 0.25
v -0.25 2.25 0.125
v -0.125 0.625 0.125
v -0.125 0.625 -0
v -0.125 0.625 -0.125
v -0.125 0.625 -0.25
v -0.125 0.875 -0
v -0.125 0.875 -0.125
v -0.125 1 0.125
v -0.125 1 -0
v -0.125 1 -0.125
v -0.125 1 -0.25
v -0.125 1.125 -0.125
v -0.125 1.125 -0.25
v -0.125 1.625 0.125
v -0.125 1.625 -0.25
v -0.125 1.75 0.125
v -0.125 1.75 -0
v -0.125 1.875 0.125
v -0.125 1.875 -0
v -0.125 2 -0
v -0.125 2 -0.25
v 0 0.875 -0.25
v 0 0.875 -0.5
v 0 1 -0.25
v 0 1 -0.375
v 0 1.25 -0.375
v 0 1.25 -0.5
v 0.25 0 -0
v 0.25 0 -0.125
v 0.25 0.625 -0
v 0.25 0.625 -0.125
v 0.25 1.875 0.25
v 0.25 1.875 0.125
v 0.25 2 0.125
v 0.25 2.25 0.25
v 0.25 2.25 0.125
v 0.5 0.625 -0
v 0.5 0.625 -0.25
v 0.5 0.75 -0
v 0.5 0.75 -0.25
v 0.5 1.375 0.125
v 0.5 1.375 -0
v 0.5 1.5 0.125
v 0.5 1.5 -0.25
v -0.375 0.625 -0
v -0.375 0.625 -0.25
v -0.375 0.75 -0
v -0.375 0.75 -0.25
v -0.375 1.375 0.125
v -0.375 1.375 -0
v -0.375 1.5 0.125
v -0.375 1.5 -0.25
v -0.125 0 -0
v -0.125 0 -0.125
v -0.125 0.625 -0
v -0.125 0.625 -0.125
v -0.125 1.875 0.25
v -0.125 1.875 0.125
v -0.125 2 0.125
v -0.125 2.25 0.25
v -0.125 2.25 0.125
v 0.125 0.875 -0.25
v 0.125 0.875 -0.5
v 0.125 1 -0.25
v 0.125 1 -0.375
v 0.125 1.25 -0.375
v 0.125 1.25 -0.5
v 0.25 0.625 0.125
v 0.25 0.625 -0
v 0.25 0.625 -0.125
v 0.25 0.625 -0.25
v 0.25 0.875 -0
v 0.25 0.875 -0.125
v 0.25 1 0.125
v 0.25 1 -0
v 0.25 1 -0.125
v 0.25 1 -0.25
v 0.25 1.125 -0.125
v 0.25 1.125 -0.25
v 0.25 1.625 0.125
v 0.25 1.625 -0.25
v 0.25 1.75 0.125
v 0.25 1.75 -0
v 0.25 1.875 0.125
v 0.25 1.875 -0
v 0.25 2 -0
v 0.25 2 -0.25
v 0.375 0 -0
v 0.375 0 -0.125
v 0.375 0.875 -0
v 0.375 0.875 -0.125
v 0.375 1 0.125
v 0.375 1 -0
v 0.375 1 -0.125
v 0.375 1.125 -0.125
v 0.375 1.125 -0.25
v 0.375 1.375 0.25
v 0.375 1.375 0.125
v 0.375 1.5 0.125
v 0.375 1.5 -0.25
v 0.375 1.625 0.25
v 0.375 1.625 0.125
v 0.375 1.875 0.25
v 0.375 1.875 -0
v 0.375 2 0.125
v 0.375 2 -0
v 0.375 2.25 0.25
v 0.375 2.25 0.125
v 0.75 0.625 -0
v 0.75 0.625 -0.25
v 0.75 0.75 -0
v 0.75 0.75 -0.25
v 0.75 1.375 0.125
v 0.75 1.375 -0
v 0.75 1.625 0.125
v 0.75 1.625 -0.25
v -0.25 1.375 0.25
v -0.25 1.625 0.25
v -0.25 1.875 0.25
v -0.25 2.25 0.25
v -0.125 1.875 0.25
v -0.125 2.25 0.25
v 0.25 1.875 0.25
v 0.25 2.25 0.25
v 0.375 1.375 0.25
v 0.375 1.625 0.25
v 0.375 1.875 0.25
v 0.375 2.25 0.25
v -0.625 1.375 0.125
v -0.625 1.625 0.125
v -0.375 1.375 0.125
v -0.375 1.5 0.125
v -0.25 1 0.125
v -0.25 1.375 0.125
v -0.25 1.5 0.125
v -0.25 1.625 0.125
v -0.125 0.625 0.125
v -0.125 1 0.125
v -0.125 1.625 0.125
v -0.125 1.75 0.125
v -0.125 1.875 0.125
v -0.125 2 0.125
v 0 1.75 0.125
v 0 1.875 0.125
v 0.125 1.75 0.125
v 0.125 1.875 0.125
v 0.25 0.625 0.125
v 0.25 1 0.125
v 0.25 1.625 0.125
v 0.25 1.75 0.125
v 0.25 1.875 0.125
v 0.25 2 0.125
v 0.375 1 0.125
v 0.375 1.375 0.125
v 0.375 1.5 0.125
v 0.375 1.625 0.125
v 0.5 1.375 0.125
v 0.5 1.5 0.125
v 0.75 1.375 0.125
v 0.75 1.625 0.125
v -0.625 0.625 -0
v -0.625 0.75 -0
v -0.625 1.375 -0
v -0.375 0.625 -0
v -0.375 0.75 -0
v -0.375 1.375 -0
v -0.25 0 -0
v -0.25 0.875 -0
v -0.25 1 -0
v -0.125 0 -0
v -0.125 0.625 -0
v -0.125 0.875 -0
v -0.125 1 -0
v 0.25 0 -0
v 0.25 0.625 -0
v 0.25 0.875 -0
v 0.25 1 -0
v 0.375 0 -0
v 0.375 0.875 -0
v 0.375 1 -0
v 0.5 0.625 -0
v 0.5 0.75 -0
v 0.5 1.375 -0
v 0.75 0.625 -0
v 0.75 0.75 -0
v 0.75 1.375 -0
v 0 1 -0.375
v 0 1.25 -0.375
v 0.125 1 -0.375
v 0.125 1.25 -0.375
v -0.25 2 0.125
v -0.25 2.25 0.125
v -0.125 2 0.125
v -0.125 2.25 0.125
v 0.25 2 0.125
v 0.25 2.25 0.125
v 0.375 2 0.125
v 0.375 2.25 0.125
v -0.25 1.875 -0
v -0.25 2 -0
v -0.125 1.875 -0
v -0.125 2 -0
v 0.25 1.875 -0
v 0.25 2 -0
v 0.375 1.875 -0
v 0.375 2 -0
v -0.25 0 -0.125
v -0.25 0.875 -0.125
v -0.25 1 -0.125
v -0.25 1.125 -0.125
v -0.125 0 -0.125
v -0.125 0.625 -0.125
v -0.125 0.875 -0.125
v -0.125 1 -0.125
v -0.125 1.125 -0.125
v 0.25 0 -0.125
v 0.25 0.625 -0.125
v 0.25 0.875 -0.125
v 0.25 1 -0.125
v 0.25 1.125 -0.125
v 0.375 0 -0.125
v 0.375 0.875 -0.125
v 0.375 1 -0.125
v 0.375 1.125 -0.125
v -0.625 0.625 -0.25
v -0.625 0.75 -0.25
v -0.625 1.625 -0.25
v -0.375 0.625 -0.25
v -0.375 0.75 -0.25
v -0.375 1.5 -0.25
v -0.25 1.125 -0.25
v -0.25 1.5 -0.25
v -0.125 0.625 -0.25
v -0.125 1 -0.25
v -0.125 1.125 -0.25
v -0.125 1.625 -0.25
v -0.125 2 -0.25
v 0 0.875 -0.25
v 0 1 -0.25
v 0.125 0.875 -0.25
v 0.125 1 -0.25
v 0.25 0.625 -0.25
v 0.25 1 -0.25
v 0.25 1.125 -0.25
v 0.25 1.625 -0.25
v 0.25 2 -0.25
v 0.375 1.125 -0.25
v 0.375 1.5 -0.25
v 0.5 0.625 -0.25
v 0.5 0.75 -0.25
v 0.5 1.5 -0.25
v 0.75 0.625 -0.25
v 0.75 0.75 -0.25
v 0.75 1.625 -0.25
v 0 0.875 -0.5
v 0 1.25 -0.5
v 0.125 0.875 -0.5
v 0.125 1.25 -0.5
v -0.25 0 -0
v -0.125 0 -0
v 0.25 0 -0
v 0.375 0 -0
v -0.25 0 -0.125
v -0.125 0 -0.125
v 0.25 0 -0.125
v 0.375 0 -0.125
v -0.125 0.625 0.125
v 0.25 0.625 0.125
v -0.625 0.625 -0
v -0.375 0.625 -0
v -0.125 0.625 -0
v 0.25 0.625 -0
v 0.5 0.625 -0
v 0.75 0.625 -0
v -0.125 0.625 -0.125
v 0.25 0.625 -0.125
v -0.625 0.625 -0.25
v -0.375 0.625 -0.25
v -0.125 0.625 -0.25
v 0.25 0.625 -0.25
v 0.5 0.625 -0.25
v 0.75 0.625 -0.25
v 0 0.875 -0.25
v 0.125 0.875 -0.25
v 0 0.875 -0.5
v 0.125 0.875 -0.5
v -0.25 1 0.125
v -0.125 1 0.125
v 0.25 1 0.125
v 0.375 1 0.125
v -0.25 1 -0
v -0.125 1 -0
v 0.25 1 -0
v 0.375 1 -0
v -0.25 1.125 -0.125
v -0.125 1.125 -0.125
v 0.25 1.125 -0.125
v 0.375 1.125 -0.125
v -0.25 1.125 -0.25
v -0.125 1.125 -0.25
v 0.25 1.125 -0.25
v 0.375 1.125 -0.25
v -0.25 1.375 0.25
v 0.375 1.375 0.25
v -0.625 1.375 0.125
v -0.375 1.375 0.125
v -0.25 1.375 0.125
v 0.375 1.375 0.125
v 0.5 1.375 0.125
v 0.75 1.375 0.125
v -0.625 1.375 -0
v -0.375 1.375 -0
v 0.5 1.375 -0
v 0.75 1.375 -0
v -0.375 1.5 0.125
v -0.25 1.5 0.125
v 0.375 1.5 0.125
v 0.5 1.5 0.125
v -0.375 1.5 -0.25
v -0.25 1.5 -0.25
v 0.375 1.5 -0.25
v 0.5 1.5 -0.25
v -0.25 1.875 0.25
v -0.125 1.875 0.25
v 0.25 1.875 0.25
v 0.375 1.875 0.25
v -0.125 1.875 0.125
v 0.25 1.875 0.125
v -0.25 1.875 -0
v -0.125 1.875 -0
v 0.25 1.875 -0
v 0.375 1.875 -0
v 0 1 -0.25
v 0.125 1 -0.25
v 0 1 -0.375
v 0.125 1 -0.375
v 0 1.25 -0.375
v 0.125 1.25 -0.375
v 0 1.25 -0.5
v 0.125 1.25 -0.5
v -0.25 1.625 0.25
v 0.375 1.625 0.25
v -0.625 1.625 0.125
v -0.25 1.625 0.125
v -0.125 1.625 0.125
v 0.25 1.625 0.125
v 0.375 1.625 0.125
v 0.75 1.625 0.125
v -0.625 1.625 -0.25
v -0.125 1.625 -0.25
v 0.25 1.625 -0.25
v 0.75 1.625 -0.25
v -0.25 2 0.125
v -0.125 2 0.125
v 0.25 2 0.125
v 0.375 2 0.125
v -0.25 2 -0
v -0.125 2 -0
v 0.25 2 -0
v 0.375 2 -0
v -0.125 2 -0.25
v 0.25 2 -0.25
v -0.25 2.25 0.25
v -0.125 2.25 0.25
v 0.25 2.25 0.25
v 0.375 2.25 0.25
v -0.25 2.25 0.125
v -0.125 2.25 0.125
v 0.25 2.25 0.125
v 0.375 2.25 0.125

# faces
f 3/5/1 2/5/1 1/5/1
f 4/5/1 2/5/1 3/5/1
f 6/4/1 4/4/1 3/4/1
f 7/4/1 6/4/1 5/4/1
f 8/4/1 4/4/1 6/4/1
f 8/4/1 6/4/1 7/4/1
f 11/4/1 10/4/1 9/4/1
f 12/4/1 10/4/1 11/4/1
f 14/5/1 12/5/1 11/5/1
f 15/5/1 12/5/1 14/5/1
f 16/4/1 14/4/1 13/4/1
f 16/4/1 15/4/1 14/4/1
f 19/4/1 16/4/1 13/4/1
f 19/4/1 17/4/1 16/4/1
f 20/4/1 17/4/1 19/4/1
f 20/4/1 19/4/1 18/4/1
f 21/4/1 17/4/1 20/4/1
f 22/4/1 20/4/1 18/4/1
f 23/4/1 20/4/1 22/4/1
f 26/3/1 25/3/1 24/3/1
f 27/3/1 25/3/1 26/3/1
f 28/3/1 26/3/1 24/3/1
f 29/3/1 26/3/1 28/3/1
f 34/5/1 31/5/1 30/5/1
f 35/5/1 33/5/1 32/5/1
f 36/5/1 34/5/1 30/5/1
f 37/5/1 34/5/1 36/5/1
f 38/5/1 33/5/1 35/5/1
f 39/5/1 33/5/1 38/5/1
f 40/4/1 39/4/1 38/4/1
f 41/4/1 39/4/1 40/4/1
f 44/4/1 43/4/1 42/4/1
f 45/4/1 43/4/1 44/4/1
f 46/1/1 45/1/1 44/1/1
f 47/4/1 43/4/1 45/4/1
f 47/1/1 45/1/1 46/1/1
f 48/4/1 43/4/1 47/4/1
f 49/4/1 43/4/1 48/4/1
f 52/4/1 51/4/1 50/4/1
f 53/4/1 51/4/1 52/4/1
f 54/4/1 51/4/1 53/4/1
f 55/4/1 51/4/1 54/4/1
f 58/4/1 57/4/1 56/4/1
f 59/4/1 57/4/1 58/4/1
f 62/3/1 61/3/1 60/3/1
f 63/3/1 62/3/1 60/3/1
f 64/3/1 62/3/1 63/3/1
f 67/5/1 66/5/1 65/5/1
f 68/5/1 66/5/1 67/5/1
f 70/4/1 68/4/1 67/4/1
f 71/4/1 70/4/1 69/4/1
f 72/4/1 68/4/1 70/4/1
f 72/4/1 70/4/1 71/4/1
f 73/5/2 74/5/2 75/5/2
f 75/5/2 74/5/2 76/5/2
f 75/4/2 76/4/2 78/4/2
f 77/4/2 78/4/2 79/4/2
f 78/4/2 76/4/2 80/4/2
f 79/4/2 78/4/2 80/4/2
f 81/4/2 82/4/2 83/4/2
f 83/4/2 82/4/2 84/4/2
f 85/3/2 86/3/2 87/3/2
f 85/3/2 87/3/2 88/3/2
f 88/3/2 87/3/2 89/3/2
f 90/4/2 91/4/2 92/4/2
f 92/4/2 91/4/2 93/4/2
f 93/4/2 91/4/2 94/4/2
f 94/4/2 91/4/2 95/4/2
f 96/5/2 97/5/2 100/5/2
f 98/5/2 99/5/2 101/5/2
f 96/5/2 100/5/2 102/5/2
f 102/5/2 100/5/2 103/5/2
f 101/5/2 99/5/2 104/5/2
f 104/5/2 99/5/2 105/5/2
f 104/4/2 105/4/2 106/4/2
f 106/4/2 105/4/2 107/4/2
f 108/4/2 109/4/2 110/4/2
f 110/4/2 109/4/2 111/4/2
f 110/1/2 111/1/2 112/1/2
f 111/4/2 109/4/2 113/4/2
f 112/1/2 111/1/2 113/1/2
f 113/4/2 109/4/2 114/4/2
f 114/4/2 109/4/2 115/4/2
f 116/4/2 117/4/2 118/4/2
f 118/4/2 117/4/2 119/4/2
f 118/5/2 119/5/2 121/5/2
f 121/5/2 119/5/2 122/5/2
f 120/4/2 121/4/2 123/4/2
f 121/4/2 122/4/2 123/4/2
f 120/4/2 123/4/2 126/4/2
f 123/4/2 124/4/2 126/4/2
f 126/4/2 124/4/2 127/4/2
f 125/4/2 126/4/2 127/4/2
f 127/4/2 124/4/2 128/4/2
f 125/4/2 127/4/2 129/4/2
f 129/4/2 127/4/2 130/4/2
f 131/3/2 132/3/2 133/3/2
f 133/3/2 132/3/2 134/3/2
f 131/3/2 133/3/2 135/3/2
f 135/3/2 133/3/2 136/3/2
f 137/5/2 138/5/2 139/5/2
f 139/5/2 138/5/2 140/5/2
f 139/4/2 140/4/2 142/4/2
f 141/4/2 142/4/2 143/4/2
f 142/4/2 140/4/2 144/4/2
f 143/4/2 142/4/2 144/4/2
f 149/3/3 148/3/3 147/3/3
f 150/3/3 148/3/3 149/3/3
f 153/4/3 146/4/3 145/4/3
f 154/4/3 146/4/3 153/4/3
f 155/3/3 152/3/3 151/3/3
f 156/3/3 152/3/3 155/3/3
f 159/4/3 158/4/3 157/4/3
f 160/4/3 158/4/3 159/4/3
f 163/4/3 158/4/3 160/4/3
f 164/4/3 158/4/3 163/4/3
f 166/4/3 162/4/3 161/4/3
f 171/4/3 168/4/3 167/4/3
f 171/1/3 169/1/3 168/1/3
f 172/4/3 170/4/3 169/4/3
f 172/1/3 169/1/3 171/1/3
f 173/4/3 171/4/3 167/4/3
f 173/4/3 172/4/3 171/4/3
f 174/4/3 170/4/3 172/4/3
f 174/4/3 172/4/3 173/4/3
f 175/5/3 166/5/3 165/5/3
f 176/4/3 162/4/3 166/4/3
f 176/5/3 166/5/3 175/5/3
f 177/4/3 173/4/3 167/4/3
f 178/1/3 174/1/3 173/1/3
f 178/4/3 173/4/3 177/4/3
f 179/4/3 170/4/3 174/4/3
f 179/1/3 174/1/3 178/1/3
f 180/4/3 170/4/3 179/4/3
f 181/4/3 162/4/3 176/4/3
f 182/4/3 162/4/3 181/4/3
f 186/4/3 184/4/3 183/4/3
f 187/4/3 186/4/3 185/4/3
f 188/4/3 184/4/3 186/4/3
f 188/4/3 186/4/3 187/4/3
f 192/5/3 190/5/3 189/5/3
f 193/4/3 191/4/3 190/4/3
f 193/5/3 190/5/3 192/5/3
f 194/4/3 191/4/3 193/4/3
f 198/4/3 196/4/3 195/4/3
f 199/4/3 196/4/3 198/4/3
f 200/5/3 197/5/3 196/5/3
f 200/4/3 196/4/3 199/4/3
f 201/5/3 197/5/3 200/5/3
f 206/4/3 203/4/3 202/4/3
f 206/4/3 204/4/3 203/4/3
f 207/5/3 205/5/3 204/5/3
f 207/4/3 204/4/3 206/4/3
f 208/5/3 205/5/3 207/5/3
f 212/5/3 210/5/3 209/5/3
f 213/4/3 211/4/3 210/4/3
f 213/5/3 210/5/3 212/5/3
f 214/4/3 211/4/3 213/4/3
f 217/4/3 216/4/3 215/4/3
f 218/4/3 216/4/3 217/4/3
f 219/3/4 220/3/4 221/3/4
f 221/3/4 220/3/4 222/3/4
f 223/3/4 224/3/4 225/3/4
f 225/3/4 224/3/4 226/3/4
f 227/3/4 228/3/4 229/3/4
f 229/3/4 228/3/4 230/3/4
f 231/3/4 232/3/4 233/3/4
f 233/3/4 232/3/4 234/3/4
f 235/4/4 236/4/4 239/4/4
f 239/4/4 236/4/4 240/4/4
f 236/5/4 237/5/4 241/5/4
f 240/4/4 236/4/4 241/4/4
f 237/4/4 238/4/4 242/4/4
f 241/5/4 237/5/4 242/5/4
f 242/4/4 238/4/4 243/4/4
f 244/4/4 245/4/4 249/4/4
f 245/4/4 246/4/4 249/4/4
f 246/5/4 247/5/4 250/5/4
f 249/4/4 246/4/4 250/4/4
f 247/4/4 248/4/4 251/4/4
f 250/5/4 247/5/4 251/5/4
f 251/4/4 248/4/4 252/4/4
f 253/5/4 254/5/4 256/5/4
f 254/4/4 255/4/4 257/4/4
f 256/5/4 254/5/4 257/5/4
f 257/4/4 255/4/4 258/4/4
f 258/4/4 255/4/4 260/4/4
f 259/4/4 260/4/4 263/4/4
f 260/4/4 255/4/4 264/4/4
f 263/4/4 260/4/4 264/4/4
f 261/5/4 262/5/4 266/5/4
f 262/4/4 263/4/4 267/4/4
f 266/5/4 262/5/4 267/5/4
f 264/4/4 265/4/4 267/4/4
f 263/4/4 264/4/4 267/4/4
f 261/5/4 266/5/4 268/5/4
f 267/4/4 265/4/4 269/4/4
f 261/5/4 268/5/4 270/5/4
f 268/5/4 269/5/4 270/5/4
f 269/4/4 265/4/4 271/4/4
f 270/5/4 269/5/4 271/5/4
f 271/4/4 265/4/4 272/4/4
f 272/4/4 265/4/4 273/4/4
f 273/4/4 265/4/4 274/4/4
f 272/4/4 273/4/4 275/4/4
f 275/4/4 273/4/4 276/4/4
f 276/4/4 273/4/4 279/4/4
f 277/5/4 278/5/4 280/5/4
f 278/4/4 279/4/4 281/4/4
f 280/5/4 278/5/4 281/5/4
f 279/4/4 273/4/4 282/4/4
f 281/4/4 279/4/4 282/4/4
f 283/4/4 284/4/4 285/4/4
f 285/4/4 284/4/4 286/4/4
f 291/4/5 288/4/5 287/4/5
f 292/4/5 288/4/5 291/4/5
f 293/4/5 290/4/5 289/4/5
f 294/4/5 290/4/5 293/4/5
f 299/5/5 296/5/5 295/5/5
f 300/5/5 296/5/5 299/5/5
f 303/5/5 300/5/5 299/5/5
f 304/5/5 300/5/5 303/5/5
f 305/5/5 298/5/5 297/5/5
f 306/5/5 298/5/5 305/5/5
f 307/5/5 304/5/5 303/5/5
f 308/5/5 304/5/5 307/5/5
f 309/5/5 302/5/5 301/5/5
f 310/5/5 302/5/5 309/5/5
f 313/4/5 312/4/5 311/4/5
f 314/4/5 312/4/5 313/4/5
f 319/4/5 316/4/5 315/4/5
f 320/4/5 316/4/5 319/4/5
f 321/4/5 318/4/5 317/4/5
f 322/4/5 318/4/5 321/4/5
f 327/4/5 324/4/5 323/4/5
f 328/4/5 324/4/5 327/4/5
f 329/4/5 326/4/5 325/4/5
f 330/4/5 326/4/5 329/4/5
f 335/4/5 332/4/5 331/4/5
f 336/4/5 332/4/5 335/4/5
f 339/4/5 334/4/5 333/4/5
f 340/4/5 334/4/5 339/4/5
f 341/4/5 338/4/5 337/4/5
f 342/4/5 338/4/5 341/4/5
f 347/4/5 344/4/5 343/4/5
f 348/4/5 344/4/5 347/4/5
f 349/4/5 346/4/5 345/4/5
f 350/4/5 346/4/5 349/4/5
f 355/3/5 352/3/5 351/3/5
f 356/3/5 354/3/5 353/3/5
f 357/3/5 355/3/5 351/3/5
f 358/3/5 355/3/5 357/3/5
f 359/3/5 354/3/5 356/3/5
f 360/3/5 354/3/5 359/3/5
f 361/4/6 362/4/6 363/4/6
f 363/4/6 362/4/6 364/4/6
f 365/4/6 366/4/6 367/4/6
f 367/4/6 366/4/6 368/4/6
f 369/4/6 370/4/6 372/4/6
f 372/4/6 370/4/6 373/4/6
f 373/4/6 370/4/6 374/4/6
f 374/4/6 370/4/6 375/4/6
f 371/4/6 372/4/6 377/4/6
f 372/4/6 373/4/6 377/4/6
f 377/4/6 373/4/6 378/4/6
f 375/4/6 376/4/6 379/4/6
f 374/4/6 375/4/6 379/4/6
f 379/4/6 376/4/6 380/4/6
f 381/3/6 382/3/6 385/3/6
f 382/4/6 383/4/6 386/4/6
f 385/3/6 382/3/6 386/3/6
f 383/3/6 384/3/6 387/3/6
f 386/4/6 383/4/6 387/4/6
f 387/3/6 384/3/6 388/3/6
f 386/4/6 387/4/6 389/4/6
f 389/4/6 387/4/6 390/4/6
f 391/3/6 392/3/6 395/3/6
f 395/3/6 392/3/6 396/3/6
f 393/3/6 394/3/6 397/3/6
f 397/3/6 394/3/6 398/3/6
