# MagicaVoxel @ ephtracy

# material
mtllib Skeleton.mtl
usemtl palette

# normals
vn -1 0 0
vn 1 0 0
vn 0 0 1
vn 0 0 -1
vn 0 -1 0
vn 0 1 0

# texcoords
vt 0.0253906 0.5
vt 0.0605469 0.5
vt 0.201172 0.5
vt 0.947266 0.5
vt 0.970703 0.5

# verts
v -0.375 0.75 -0.125
v -0.375 0.75 -0.25
v -0.375 0.875 0.5
v -0.375 0.875 -0.125
v -0.375 0.875 -0.25
v -0.375 0.875 -0.375
v -0.375 1 0.5
v -0.375 1 -0.125
v -0.375 1.125 -0.125
v -0.375 1.125 -0.25
v -0.375 1.625 -0.25
v -0.375 1.625 -0.375
v -0.25 0 -0.25
v -0.25 0 -0.375
v -0.25 0.75 -0.25
v -0.25 0.875 -0.25
v -0.25 0.875 -0.375
v -0.25 1.25 -0.125
v -0.25 1.25 -0.25
v -0.25 1.25 -0.375
v -0.25 1.25 -0.5
v -0.25 1.375 -0.125
v -0.25 1.375 -0.25
v -0.25 1.375 -0.375
v -0.25 1.375 -0.5
v -0.25 1.5 -0.125
v -0.25 1.5 -0.25
v -0.25 1.625 -0.375
v -0.25 1.625 -0.5
v -0.125 0.75 -0.125
v -0.125 0.75 -0.25
v -0.125 0.75 -0.375
v -0.125 0.75 -0.5
v -0.125 0.875 -0.125
v -0.125 0.875 -0.25
v -0.125 0.875 -0.375
v -0.125 0.875 -0.5
v -0.125 1.125 -0.125
v -0.125 1.125 -0.5
v -0.125 1.25 -0.125
v -0.125 1.25 -0.25
v -0.125 1.25 -0.375
v -0.125 1.25 -0.5
v -0.125 1.625 -0.125
v -0.125 1.625 -0.25
v -0.125 1.625 -0.5
v -0.125 1.75 -0.125
v -0.125 1.75 -0.25
v -0.125 1.875 -0.125
v -0.125 1.875 -0.25
v -0.125 2 -0.125
v -0.125 2 -0.5
v 0.25 0 -0.25
v 0.25 0 -0.375
v 0.25 0.75 -0.25
v 0.25 0.75 -0.375
v 0.375 0.875 -0.25
v 0.375 0.875 -0.375
v 0.375 1.25 -0.25
v 0.375 1.25 -0.375
v -0.25 0.75 -0.125
v -0.25 0.75 -0.25
v -0.25 0.875 0.5
v -0.25 0.875 -0.125
v -0.25 0.875 -0.25
v -0.25 0.875 -0.375
v -0.25 1 0.5
v -0.25 1 -0.125
v -0.25 1.125 -0.125
v -0.25 1.125 -0.25
v -0.25 1.25 -0.25
v -0.25 1.25 -0.375
v -0.125 0 -0.25
v -0.125 0 -0.375
v -0.125 0.75 -0.25
v -0.125 0.75 -0.375
v 0.25 0.75 -0.125
v 0.25 0.75 -0.25
v 0.25 0.75 -0.375
v 0.25 0.75 -0.5
v 0.25 0.875 -0.125
v 0.25 0.875 -0.25
v 0.25 0.875 -0.375
v 0.25 0.875 -0.5
v 0.25 1.125 -0.125
v 0.25 1.125 -0.5
v 0.25 1.25 -0.125
v 0.25 1.25 -0.25
v 0.25 1.25 -0.375
v 0.25 1.25 -0.5
v 0.25 1.625 -0.125
v 0.25 1.625 -0.25
v 0.25 1.625 -0.5
v 0.25 1.75 -0.125
v 0.25 1.75 -0.25
v 0.25 1.875 -0.125
v 0.25 1.875 -0.25
v 0.25 2 -0.125
v 0.25 2 -0.5
v 0.375 0 -0.25
v 0.375 0 -0.375
v 0.375 0.875 -0.25
v 0.375 0.875 -0.375
v 0.375 1.25 -0.125
v 0.375 1.25 -0.25
v 0.375 1.25 -0.375
v 0.375 1.25 -0.5
v 0.375 1.375 -0.125
v 0.375 1.375 -0.25
v 0.375 1.375 -0.375
v 0.375 1.375 -0.5
v 0.375 1.5 -0.125
v 0.375 1.5 -0.25
v 0.375 1.625 -0.375
v 0.375 1.625 -0.5
v 0.5 0.875 -0.25
v 0.5 0.875 -0.375
v 0.5 1.625 -0.25
v 0.5 1.625 -0.375
v -0.375 0.875 0.5
v -0.375 1 0.5
v -0.25 0.875 0.5
v -0.25 1 0.5
v -0.375 0.75 -0.125
v -0.375 0.875 -0.125
v -0.375 1 -0.125
v -0.375 1.125 -0.125
v -0.25 0.75 -0.125
v -0.25 0.875 -0.125
v -0.25 1 -0.125
v -0.25 1.125 -0.125
v -0.25 1.25 -0.125
v -0.25 1.375 -0.125
v -0.25 1.5 -0.125
v -0.125 0.75 -0.125
v -0.125 0.875 -0.125
v -0.125 1.125 -0.125
v -0.125 1.25 -0.125
v -0.125 1.625 -0.125
v -0.125 1.75 -0.125
v -0.125 1.875 -0.125
v -0.125 2 -0.125
v 0 0.75 -0.125
v 0 0.875 -0.125
v 0 1.125 -0.125
v 0 1.375 -0.125
v 0 1.75 -0.125
v 0 1.875 -0.125
v 0.125 0.75 -0.125
v 0.125 0.875 -0.125
v 0.125 1.125 -0.125
v 0.125 1.375 -0.125
v 0.125 1.75 -0.125
v 0.125 1.875 -0.125
v 0.25 0.75 -0.125
v 0.25 0.875 -0.125
v 0.25 1.125 -0.125
v 0.25 1.25 -0.125
v 0.25 1.625 -0.125
v 0.25 1.75 -0.125
v 0.25 1.875 -0.125
v 0.25 2 -0.125
v 0.375 1.25 -0.125
v 0.375 1.375 -0.125
v 0.375 1.5 -0.125
v -0.375 1.125 -0.25
v -0.375 1.625 -0.25
v -0.25 0 -0.25
v -0.25 0.75 -0.25
v -0.25 0.875 -0.25
v -0.25 1.125 -0.25
v -0.25 1.25 -0.25
v -0.25 1.375 -0.25
v -0.25 1.5 -0.25
v -0.125 0 -0.25
v -0.125 0.75 -0.25
v -0.125 0.875 -0.25
v -0.125 1.625 -0.25
v 0.25 0 -0.25
v 0.25 0.75 -0.25
v 0.25 0.875 -0.25
v 0.25 1.625 -0.25
v 0.375 0 -0.25
v 0.375 0.875 -0.25
v 0.375 1.25 -0.25
v 0.375 1.375 -0.25
v 0.375 1.5 -0.25
v 0.5 0.875 -0.25
v 0.5 1.625 -0.25
v -0.375 0.75 -0.25
v -0.375 0.875 -0.25
v -0.25 0.75 -0.25
v -0.25 0.875 -0.25
v -0.375 0.875 -0.375
v -0.375 1.625 -0.375
v -0.25 0 -0.375
v -0.25 0.875 -0.375
v -0.25 1.25 -0.375
v -0.25 1.375 -0.375
v -0.25 1.625 -0.375
v -0.125 0 -0.375
v -0.125 0.75 -0.375
v -0.125 0.875 -0.375
v 0.25 0 -0.375
v 0.25 0.75 -0.375
v 0.25 0.875 -0.375
v 0.375 0 -0.375
v 0.375 0.875 -0.375
v 0.375 1.25 -0.375
v 0.375 1.375 -0.375
v 0.375 1.625 -0.375
v 0.5 0.875 -0.375
v 0.5 1.625 -0.375
v -0.25 1.25 -0.5
v -0.25 1.375 -0.5
v -0.25 1.625 -0.5
v -0.125 0.75 -0.5
v -0.125 0.875 -0.5
v -0.125 1.125 -0.5
v -0.125 1.25 -0.5
v -0.125 1.375 -0.5
v -0.125 1.625 -0.5
v -0.125 2 -0.5
v 0 0.75 -0.5
v 0 0.875 -0.5
v 0 1.125 -0.5
v 0 1.25 -0.5
v 0.125 0.75 -0.5
v 0.125 0.875 -0.5
v 0.125 1.125 -0.5
v 0.125 1.25 -0.5
v 0.25 0.75 -0.5
v 0.25 0.875 -0.5
v 0.25 1.125 -0.5
v 0.25 1.25 -0.5
v 0.25 1.375 -0.5
v 0.25 1.625 -0.5
v 0.25 2 -0.5
v 0.375 1.25 -0.5
v 0.375 1.375 -0.5
v 0.375 1.625 -0.5
v -0.25 0 -0.25
v -0.125 0 -0.25
v 0.25 0 -0.25
v 0.375 0 -0.25
v -0.25 0 -0.375
v -0.125 0 -0.375
v 0.25 0 -0.375
v 0.375 0 -0.375
v -0.375 0.75 -0.125
v -0.25 0.75 -0.125
v -0.125 0.75 -0.125
v 0 0.75 -0.125
v 0.125 0.75 -0.125
v 0.25 0.75 -0.125
v -0.375 0.75 -0.25
v -0.25 0.75 -0.25
v -0.125 0.75 -0.25
v 0 0.75 -0.25
v 0.125 0.75 -0.25
v 0.25 0.75 -0.25
v -0.125 0.75 -0.375
v 0 0.75 -0.375
v 0.125 0.75 -0.375
v 0.25 0.75 -0.375
v -0.125 0.75 -0.5
v 0 0.75 -0.5
v 0.125 0.75 -0.5
v 0.25 0.75 -0.5
v -0.375 0.875 0.5
v -0.25 0.875 0.5
v -0.375 0.875 -0.125
v -0.25 0.875 -0.125
v -0.375 0.875 -0.25
v -0.25 0.875 -0.25
v 0.375 0.875 -0.25
v 0.5 0.875 -0.25
v -0.375 0.875 -0.375
v -0.25 0.875 -0.375
v 0.375 0.875 -0.375
v 0.5 0.875 -0.375
v -0.25 1.25 -0.125
v -0.125 1.25 -0.125
v 0.25 1.25 -0.125
v 0.375 1.25 -0.125
v -0.25 1.25 -0.25
v -0.125 1.25 -0.25
v 0.25 1.25 -0.25
v 0.375 1.25 -0.25
v -0.25 1.25 -0.375
v -0.125 1.25 -0.375
v 0.25 1.25 -0.375
v 0.375 1.25 -0.375
v -0.25 1.25 -0.5
v -0.125 1.25 -0.5
v 0.25 1.25 -0.5
v 0.375 1.25 -0.5
v -0.125 1.625 -0.125
v 0.25 1.625 -0.125
v -0.125 1.625 -0.25
v 0.25 1.625 -0.25
v -0.25 0.875 -0.25
v -0.125 0.875 -0.25
v 0.25 0.875 -0.25
v 0.375 0.875 -0.25
v -0.25 0.875 -0.375
v -0.125 0.875 -0.375
v 0.25 0.875 -0.375
v 0.375 0.875 -0.375
v -0.375 1 0.5
v -0.25 1 0.5
v -0.375 1 -0.125
v -0.25 1 -0.125
v -0.375 1.125 -0.125
v -0.25 1.125 -0.125
v -0.375 1.125 -0.25
v -0.25 1.125 -0.25
v -0.25 1.5 -0.125
v 0.375 1.5 -0.125
v -0.25 1.5 -0.25
v 0.375 1.5 -0.25
v -0.375 1.625 -0.25
v -0.125 1.625 -0.25
v 0.25 1.625 -0.25
v 0.5 1.625 -0.25
v -0.375 1.625 -0.375
v -0.25 1.625 -0.375
v 0.375 1.625 -0.375
v 0.5 1.625 -0.375
v -0.25 1.625 -0.5
v -0.125 1.625 -0.5
v 0.25 1.625 -0.5
v 0.375 1.625 -0.5
v -0.125 2 -0.125
v 0.25 2 -0.125
v -0.125 2 -0.5
v 0.25 2 -0.5

# faces
f 4/3/1 2/3/1 1/3/1
f 5/3/1 2/3/1 4/3/1
f 7/4/1 4/4/1 3/4/1
f 8/3/1 5/3/1 4/3/1
f 8/4/1 4/4/1 7/4/1
f 9/3/1 5/3/1 8/3/1
f 10/1/1 6/1/1 5/1/1
f 10/3/1 5/3/1 9/3/1
f 11/1/1 6/1/1 10/1/1
f 12/1/1 6/1/1 11/1/1
f 15/1/1 14/1/1 13/1/1
f 16/1/1 14/1/1 15/1/1
f 17/1/1 14/1/1 16/1/1
f 22/2/1 19/2/1 18/2/1
f 23/2/1 19/2/1 22/2/1
f 24/2/1 21/2/1 20/2/1
f 25/2/1 21/2/1 24/2/1
f 26/1/1 23/1/1 22/1/1
f 27/1/1 23/1/1 26/1/1
f 28/1/1 25/1/1 24/1/1
f 29/1/1 25/1/1 28/1/1
f 34/2/1 31/2/1 30/2/1
f 35/2/1 31/2/1 34/2/1
f 36/2/1 33/2/1 32/2/1
f 37/2/1 33/2/1 36/2/1
f 38/1/1 35/1/1 34/1/1
f 38/1/1 36/1/1 35/1/1
f 38/1/1 37/1/1 36/1/1
f 39/1/1 37/1/1 38/1/1
f 40/2/1 39/2/1 38/2/1
f 41/2/1 39/2/1 40/2/1
f 42/2/1 39/2/1 41/2/1
f 43/2/1 39/2/1 42/2/1
f 47/1/1 45/1/1 44/1/1
f 47/1/1 46/1/1 45/1/1
f 48/1/1 46/1/1 47/1/1
f 49/5/1 48/5/1 47/5/1
f 50/1/1 46/1/1 48/1/1
f 50/5/1 48/5/1 49/5/1
f 51/1/1 50/1/1 49/1/1
f 52/1/1 46/1/1 50/1/1
f 52/1/1 50/1/1 51/1/1
f 55/1/1 54/1/1 53/1/1
f 56/1/1 54/1/1 55/1/1
f 59/1/1 58/1/1 57/1/1
f 60/1/1 58/1/1 59/1/1
f 61/3/2 62/3/2 64/3/2
f 64/3/2 62/3/2 65/3/2
f 63/4/2 64/4/2 67/4/2
f 64/3/2 65/3/2 68/3/2
f 67/4/2 64/4/2 68/4/2
f 68/3/2 65/3/2 69/3/2
f 65/1/2 66/1/2 70/1/2
f 69/3/2 65/3/2 70/3/2
f 70/1/2 66/1/2 71/1/2
f 71/1/2 66/1/2 72/1/2
f 73/1/2 74/1/2 75/1/2
f 75/1/2 74/1/2 76/1/2
f 77/2/2 78/2/2 81/2/2
f 81/2/2 78/2/2 82/2/2
f 79/2/2 80/2/2 83/2/2
f 83/2/2 80/2/2 84/2/2
f 81/1/2 82/1/2 85/1/2
f 82/1/2 83/1/2 85/1/2
f 83/1/2 84/1/2 85/1/2
f 85/1/2 84/1/2 86/1/2
f 85/2/2 86/2/2 87/2/2
f 87/2/2 86/2/2 88/2/2
f 88/2/2 86/2/2 89/2/2
f 89/2/2 86/2/2 90/2/2
f 91/1/2 92/1/2 94/1/2
f 92/1/2 93/1/2 94/1/2
f 94/1/2 93/1/2 95/1/2
f 94/5/2 95/5/2 96/5/2
f 95/1/2 93/1/2 97/1/2
f 96/5/2 95/5/2 97/5/2
f 96/1/2 97/1/2 98/1/2
f 97/1/2 93/1/2 99/1/2
f 98/1/2 97/1/2 99/1/2
f 100/1/2 101/1/2 102/1/2
f 102/1/2 101/1/2 103/1/2
f 104/2/2 105/2/2 108/2/2
f 108/2/2 105/2/2 109/2/2
f 106/2/2 107/2/2 110/2/2
f 110/2/2 107/2/2 111/2/2
f 108/1/2 109/1/2 112/1/2
f 112/1/2 109/1/2 113/1/2
f 110/1/2 111/1/2 114/1/2
f 114/1/2 111/1/2 115/1/2
f 116/1/2 117/1/2 118/1/2
f 118/1/2 117/1/2 119/1/2
f 122/4/3 121/4/3 120/4/3
f 123/4/3 121/4/3 122/4/3
f 128/3/3 125/3/3 124/3/3
f 129/3/3 125/3/3 128/3/3
f 130/3/3 127/3/3 126/3/3
f 131/3/3 127/3/3 130/3/3
f 138/2/3 133/2/3 132/2/3
f 143/2/3 136/2/3 135/2/3
f 144/1/3 137/1/3 136/1/3
f 144/2/3 136/2/3 143/2/3
f 145/2/3 138/2/3 137/2/3
f 145/1/3 137/1/3 144/1/3
f 146/1/3 134/1/3 133/1/3
f 146/2/3 138/2/3 145/2/3
f 146/2/3 133/2/3 138/2/3
f 147/5/3 141/5/3 140/5/3
f 147/1/3 140/1/3 139/1/3
f 148/1/3 142/1/3 141/1/3
f 148/5/3 141/5/3 147/5/3
f 149/1/3 145/1/3 144/1/3
f 149/1/3 144/1/3 143/1/3
f 149/1/3 146/1/3 145/1/3
f 150/1/3 146/1/3 149/1/3
f 151/1/3 146/1/3 150/1/3
f 152/1/3 134/1/3 146/1/3
f 152/1/3 146/1/3 151/1/3
f 153/1/3 147/1/3 139/1/3
f 153/1/3 148/1/3 147/1/3
f 154/1/3 142/1/3 148/1/3
f 154/1/3 148/1/3 153/1/3
f 155/2/3 150/2/3 149/2/3
f 156/1/3 151/1/3 150/1/3
f 156/2/3 150/2/3 155/2/3
f 157/2/3 152/2/3 151/2/3
f 157/1/3 151/1/3 156/1/3
f 158/2/3 152/2/3 157/2/3
f 159/1/3 153/1/3 139/1/3
f 160/5/3 154/5/3 153/5/3
f 160/1/3 153/1/3 159/1/3
f 161/1/3 142/1/3 154/1/3
f 161/5/3 154/5/3 160/5/3
f 162/1/3 142/1/3 161/1/3
f 163/2/3 152/2/3 158/2/3
f 164/1/3 134/1/3 152/1/3
f 164/2/3 152/2/3 163/2/3
f 165/1/3 134/1/3 164/1/3
f 171/1/3 167/1/3 166/1/3
f 172/1/3 167/1/3 171/1/3
f 173/1/3 167/1/3 172/1/3
f 174/1/3 167/1/3 173/1/3
f 175/1/3 170/1/3 169/1/3
f 175/1/3 169/1/3 168/1/3
f 176/1/3 170/1/3 175/1/3
f 177/1/3 170/1/3 176/1/3
f 178/1/3 167/1/3 174/1/3
f 182/1/3 178/1/3 174/1/3
f 183/1/3 181/1/3 180/1/3
f 183/1/3 180/1/3 179/1/3
f 184/1/3 181/1/3 183/1/3
f 187/1/3 182/1/3 174/1/3
f 188/1/3 186/1/3 185/1/3
f 188/1/3 187/1/3 186/1/3
f 188/1/3 185/1/3 184/1/3
f 189/1/3 182/1/3 187/1/3
f 189/1/3 187/1/3 188/1/3
f 190/3/4 191/3/4 192/3/4
f 192/3/4 191/3/4 193/3/4
f 194/1/4 195/1/4 197/1/4
f 197/1/4 195/1/4 198/1/4
f 198/1/4 195/1/4 199/1/4
f 199/1/4 195/1/4 200/1/4
f 196/1/4 197/1/4 201/1/4
f 201/1/4 197/1/4 202/1/4
f 202/1/4 197/1/4 203/1/4
f 204/1/4 205/1/4 207/1/4
f 205/1/4 206/1/4 207/1/4
f 207/1/4 206/1/4 208/1/4
f 210/1/4 211/1/4 212/1/4
f 209/1/4 210/1/4 212/1/4
f 208/1/4 209/1/4 212/1/4
f 212/1/4 211/1/4 213/1/4
f 214/2/4 215/2/4 220/2/4
f 215/1/4 216/1/4 221/1/4
f 220/2/4 215/2/4 221/2/4
f 221/1/4 216/1/4 222/1/4
f 217/2/4 218/2/4 224/2/4
f 218/1/4 219/1/4 225/1/4
f 224/2/4 218/2/4 225/2/4
f 219/2/4 220/2/4 226/2/4
f 225/1/4 219/1/4 226/1/4
f 222/1/4 223/1/4 227/1/4
f 226/2/4 220/2/4 227/2/4
f 220/1/4 221/1/4 227/1/4
f 221/1/4 222/1/4 227/1/4
f 224/1/4 225/1/4 228/1/4
f 225/1/4 226/1/4 228/1/4
f 226/1/4 227/1/4 228/1/4
f 228/1/4 227/1/4 229/1/4
f 229/1/4 227/1/4 230/1/4
f 227/1/4 223/1/4 231/1/4
f 230/1/4 227/1/4 231/1/4
f 228/2/4 229/2/4 232/2/4
f 229/1/4 230/1/4 233/1/4
f 232/2/4 229/2/4 233/2/4
f 230/2/4 231/2/4 234/2/4
f 233/1/4 230/1/4 234/1/4
f 231/1/4 223/1/4 235/1/4
f 234/2/4 231/2/4 235/2/4
f 235/1/4 223/1/4 236/1/4
f 236/1/4 223/1/4 237/1/4
f 237/1/4 223/1/4 238/1/4
f 235/2/4 236/2/4 239/2/4
f 236/1/4 237/1/4 240/1/4
f 239/2/4 236/2/4 240/2/4
f 240/1/4 237/1/4 241/1/4
f 246/1/5 243/1/5 242/1/5
f 247/1/5 243/1/5 246/1/5
f 248/1/5 245/1/5 244/1/5
f 249/1/5 245/1/5 248/1/5
f 256/3/5 251/3/5 250/3/5
f 257/3/5 251/3/5 256/3/5
f 258/2/5 253/2/5 252/2/5
f 259/1/5 254/1/5 253/1/5
f 259/2/5 253/2/5 258/2/5
f 260/2/5 255/2/5 254/2/5
f 260/1/5 254/1/5 259/1/5
f 261/2/5 255/2/5 260/2/5
f 262/1/5 259/1/5 258/1/5
f 262/1/5 261/1/5 260/1/5
f 262/1/5 260/1/5 259/1/5
f 263/1/5 261/1/5 262/1/5
f 264/1/5 261/1/5 263/1/5
f 265/1/5 261/1/5 264/1/5
f 266/2/5 263/2/5 262/2/5
f 267/1/5 264/1/5 263/1/5
f 267/2/5 263/2/5 266/2/5
f 268/2/5 265/2/5 264/2/5
f 268/1/5 264/1/5 267/1/5
f 269/2/5 265/2/5 268/2/5
f 272/4/5 271/4/5 270/4/5
f 273/4/5 271/4/5 272/4/5
f 278/1/5 275/1/5 274/1/5
f 279/1/5 275/1/5 278/1/5
f 280/1/5 277/1/5 276/1/5
f 281/1/5 277/1/5 280/1/5
f 286/2/5 283/2/5 282/2/5
f 287/2/5 283/2/5 286/2/5
f 288/2/5 285/2/5 284/2/5
f 289/2/5 285/2/5 288/2/5
f 290/1/5 287/1/5 286/1/5
f 291/1/5 287/1/5 290/1/5
f 292/1/5 289/1/5 288/1/5
f 293/1/5 289/1/5 292/1/5
f 294/2/5 291/2/5 290/2/5
f 295/2/5 291/2/5 294/2/5
f 296/2/5 293/2/5 292/2/5
f 297/2/5 293/2/5 296/2/5
f 300/1/5 299/1/5 298/1/5
f 301/1/5 299/1/5 300/1/5
f 302/1/6 303/1/6 306/1/6
f 306/1/6 303/1/6 307/1/6
f 304/1/6 305/1/6 308/1/6
f 308/1/6 305/1/6 309/1/6
f 310/4/6 311/4/6 312/4/6
f 312/4/6 311/4/6 313/4/6
f 314/3/6 315/3/6 316/3/6
f 316/3/6 315/3/6 317/3/6
f 318/1/6 319/1/6 320/1/6
f 320/1/6 319/1/6 321/1/6
f 322/1/6 323/1/6 326/1/6
f 326/1/6 323/1/6 327/1/6
f 324/1/6 325/1/6 328/1/6
f 328/1/6 325/1/6 329/1/6
f 327/1/6 323/1/6 330/1/6
f 330/1/6 323/1/6 331/1/6
f 324/1/6 328/1/6 332/1/6
f 332/1/6 328/1/6 333/1/6
f 334/1/6 335/1/6 336/1/6
f 336/1/6 335/1/6 337/1/6
