# MagicaVoxel @ ephtracy

# material
mtllib Thief.mtl
usemtl palette

# normals
vn -1 0 0
vn 1 0 0
vn 0 0 1
vn 0 0 -1
vn 0 -1 0
vn 0 1 0

# texcoords
vt 0.0605469 0.5
vt 0.115234 0.5
vt 0.126953 0.5
vt 0.146484 0.5
vt 0.189453 0.5
vt 0.193359 0.5
vt 0.197266 0.5
vt 0.201172 0.5
vt 0.568359 0.5

# verts
v -0.375 0.625 -0.125
v -0.375 0.625 -0.25
v -0.375 0.75 0.25
v -0.375 0.75 -0.125
v -0.375 0.75 -0.25
v -0.375 0.75 -0.375
v -0.375 0.875 0.25
v -0.375 0.875 -0.125
v -0.375 0.875 -0.25
v -0.375 0.875 -0.375
v -0.375 1 -0.125
v -0.375 1 -0.25
v -0.375 1.375 -0.25
v -0.375 1.375 -0.375
v -0.375 1.5 -0.25
v -0.375 1.5 -0.375
v -0.25 0 -0.25
v -0.25 0 -0.375
v -0.25 0.125 -0.25
v -0.25 0.125 -0.375
v -0.25 0.5 -0.375
v -0.25 0.5 -0.5
v -0.25 0.625 -0.25
v -0.25 0.625 -0.375
v -0.25 0.75 -0.25
v -0.25 0.75 -0.375
v -0.25 0.875 -0.375
v -0.25 1 -0.125
v -0.25 1 -0.25
v -0.25 1.375 -0.25
v -0.25 1.375 -0.375
v -0.25 1.5 -0.125
v -0.25 1.5 -0.25
v -0.25 1.5 -0.375
v -0.25 1.5 -0.5
v -0.125 1.5 -0.125
v -0.125 1.5 -0.375
v -0.125 1.5 -0.5
v -0.125 1.75 -0.125
v -0.125 1.75 -0.5
v -0.125 1.875 -0.125
v -0.125 1.875 -0.5
v 0.25 0 -0.25
v 0.25 0 -0.375
v 0.25 0.125 -0.25
v 0.25 0.125 -0.375
v 0.25 0.5 -0.375
v 0.25 0.625 -0.25
v 0.25 0.625 -0.375
v -0.25 0.75 0.25
v -0.25 0.75 -0.125
v -0.25 0.875 0.25
v -0.25 0.875 -0.125
v -0.125 0 -0.25
v -0.125 0 -0.375
v -0.125 0.125 -0.25
v -0.125 0.125 -0.375
v -0.125 0.5 -0.375
v -0.125 0.625 -0.25
v -0.125 0.625 -0.375
v 0.25 1.5 -0.125
v 0.25 1.5 -0.375
v 0.25 1.5 -0.5
v 0.25 1.75 -0.125
v 0.25 1.75 -0.5
v 0.25 1.875 -0.125
v 0.25 1.875 -0.5
v 0.375 0 -0.25
v 0.375 0 -0.375
v 0.375 0.125 -0.25
v 0.375 0.125 -0.375
v 0.375 0.5 -0.375
v 0.375 0.5 -0.5
v 0.375 0.625 -0.125
v 0.375 0.625 -0.25
v 0.375 0.625 -0.375
v 0.375 0.75 -0.25
v 0.375 0.75 -0.375
v 0.375 0.875 -0.125
v 0.375 0.875 -0.25
v 0.375 0.875 -0.375
v 0.375 1 -0.125
v 0.375 1 -0.25
v 0.375 1.375 -0.25
v 0.375 1.375 -0.375
v 0.375 1.5 -0.125
v 0.375 1.5 -0.25
v 0.375 1.5 -0.375
v 0.375 1.5 -0.5
v 0.5 0.75 -0.25
v 0.5 0.75 -0.375
v 0.5 0.875 -0.25
v 0.5 0.875 -0.375
v 0.5 1.375 -0.25
v 0.5 1.375 -0.375
v 0.5 1.5 -0.25
v 0.5 1.5 -0.375
v -0.375 0.75 0.25
v -0.375 0.875 0.25
v -0.25 0.75 0.25
v -0.25 0.875 0.25
v -0.375 0.625 -0.125
v -0.375 0.75 -0.125
v -0.375 0.875 -0.125
v -0.375 1 -0.125
v -0.25 0.625 -0.125
v -0.25 0.75 -0.125
v -0.25 0.875 -0.125
v -0.25 1 -0.125
v -0.25 1.5 -0.125
v -0.125 1.5 -0.125
v -0.125 1.75 -0.125
v -0.125 1.875 -0.125
v 0.25 1.5 -0.125
v 0.25 1.75 -0.125
v 0.25 1.875 -0.125
v 0.375 0.625 -0.125
v 0.375 0.875 -0.125
v 0.375 1 -0.125
v 0.375 1.5 -0.125
v -0.375 1 -0.25
v -0.375 1.375 -0.25
v -0.375 1.5 -0.25
v -0.25 0 -0.25
v -0.25 0.125 -0.25
v -0.25 0.625 -0.25
v -0.25 1 -0.25
v -0.25 1.375 -0.25
v -0.25 1.5 -0.25
v -0.125 0 -0.25
v -0.125 0.125 -0.25
v -0.125 0.625 -0.25
v 0.25 0 -0.25
v 0.25 0.125 -0.25
v 0.25 0.625 -0.25
v 0.375 0 -0.25
v 0.375 0.125 -0.25
v 0.375 0.625 -0.25
v 0.375 0.75 -0.25
v 0.375 0.875 -0.25
v 0.375 1 -0.25
v 0.375 1.375 -0.25
v 0.375 1.5 -0.25
v 0.5 0.75 -0.25
v 0.5 0.875 -0.25
v 0.5 1.375 -0.25
v 0.5 1.5 -0.25
v -0.125 0.5 -0.375
v -0.125 0.625 -0.375
v 0.25 0.5 -0.375
v 0.25 0.625 -0.375
v -0.375 0.625 -0.25
v -0.375 0.75 -0.25
v -0.25 0.625 -0.25
v -0.25 0.75 -0.25
v -0.375 0.75 -0.375
v -0.375 0.875 -0.375
v -0.375 1.375 -0.375
v -0.375 1.5 -0.375
v -0.25 0 -0.375
v -0.25 0.125 -0.375
v -0.25 0.5 -0.375
v -0.25 0.75 -0.375
v -0.25 0.875 -0.375
v -0.25 1.375 -0.375
v -0.25 1.5 -0.375
v -0.125 0 -0.375
v -0.125 0.125 -0.375
v -0.125 0.5 -0.375
v 0.25 0 -0.375
v 0.25 0.125 -0.375
v 0.25 0.5 -0.375
v 0.375 0 -0.375
v 0.375 0.125 -0.375
v 0.375 0.5 -0.375
v 0.375 0.75 -0.375
v 0.375 0.875 -0.375
v 0.375 1.375 -0.375
v 0.375 1.5 -0.375
v 0.5 0.75 -0.375
v 0.5 0.875 -0.375
v 0.5 1.375 -0.375
v 0.5 1.5 -0.375
v -0.25 0.5 -0.5
v -0.25 1.5 -0.5
v -0.125 1.5 -0.5
v -0.125 1.75 -0.5
v -0.125 1.875 -0.5
v 0.25 1.5 -0.5
v 0.25 1.75 -0.5
v 0.25 1.875 -0.5
v 0.375 0.5 -0.5
v 0.375 1.5 -0.5
v -0.25 0 -0.25
v -0.125 0 -0.25
v 0.25 0 -0.25
v 0.375 0 -0.25
v -0.25 0 -0.375
v -0.125 0 -0.375
v 0.25 0 -0.375
v 0.375 0 -0.375
v -0.25 0.5 -0.375
v -0.125 0.5 -0.375
v 0.25 0.5 -0.375
v 0.375 0.5 -0.375
v -0.25 0.5 -0.5
v 0.375 0.5 -0.5
v -0.375 0.625 -0.125
v -0.25 0.625 -0.125
v 0.375 0.625 -0.125
v -0.375 0.625 -0.25
v -0.25 0.625 -0.25
v -0.125 0.625 -0.25
v 0.25 0.625 -0.25
v 0.375 0.625 -0.25
v -0.125 0.625 -0.375
v 0.25 0.625 -0.375
v -0.375 0.75 0.25
v -0.25 0.75 0.25
v -0.375 0.75 -0.125
v -0.25 0.75 -0.125
v -0.375 0.75 -0.25
v -0.25 0.75 -0.25
v 0.375 0.75 -0.25
v 0.5 0.75 -0.25
v -0.375 0.75 -0.375
v -0.25 0.75 -0.375
v 0.375 0.75 -0.375
v 0.5 0.75 -0.375
v -0.375 0.875 0.25
v -0.25 0.875 0.25
v -0.375 0.875 -0.125
v -0.25 0.875 -0.125
v -0.375 1 -0.125
v -0.25 1 -0.125
v -0.375 1 -0.25
v -0.25 1 -0.25
v -0.25 1.5 -0.125
v -0.125 1.5 -0.125
v 0.25 1.5 -0.125
v 0.375 1.5 -0.125
v -0.375 1.5 -0.25
v -0.25 1.5 -0.25
v 0.375 1.5 -0.25
v 0.5 1.5 -0.25
v -0.375 1.5 -0.375
v -0.25 1.5 -0.375
v -0.125 1.5 -0.375
v 0.25 1.5 -0.375
v 0.375 1.5 -0.375
v 0.5 1.5 -0.375
v -0.25 1.5 -0.5
v -0.125 1.5 -0.5
v 0.25 1.5 -0.5
v 0.375 1.5 -0.5
v -0.125 1.875 -0.125
v 0.25 1.875 -0.125
v -0.125 1.875 -0.5
v 0.25 1.875 -0.5

# faces
f 4/8/1 2/8/1 1/8/1
f 5/8/1 2/8/1 4/8/1
f 7/1/1 4/1/1 3/1/1
f 8/8/1 5/8/1 4/8/1
f 8/1/1 4/1/1 7/1/1
f 9/4/1 6/4/1 5/4/1
f 9/8/1 5/8/1 8/8/1
f 10/4/1 6/4/1 9/4/1
f 11/8/1 9/8/1 8/8/1
f 12/5/1 10/5/1 9/5/1
f 12/8/1 9/8/1 11/8/1
f 13/5/1 10/5/1 12/5/1
f 14/5/1 10/5/1 13/5/1
f 15/7/1 14/7/1 13/7/1
f 16/7/1 14/7/1 15/7/1
f 19/7/1 18/7/1 17/7/1
f 20/7/1 18/7/1 19/7/1
f 21/5/1 20/5/1 19/5/1
f 23/5/1 21/5/1 19/5/1
f 24/2/1 22/2/1 21/2/1
f 24/5/1 21/5/1 23/5/1
f 25/7/1 24/7/1 23/7/1
f 26/2/1 22/2/1 24/2/1
f 26/7/1 24/7/1 25/7/1
f 27/2/1 22/2/1 26/2/1
f 30/7/1 29/7/1 28/7/1
f 31/2/1 22/2/1 27/2/1
f 32/7/1 30/7/1 28/7/1
f 33/7/1 30/7/1 32/7/1
f 34/2/1 22/2/1 31/2/1
f 35/2/1 22/2/1 34/2/1
f 39/4/1 37/4/1 36/4/1
f 39/4/1 38/4/1 37/4/1
f 40/4/1 38/4/1 39/4/1
f 41/3/1 40/3/1 39/3/1
f 42/3/1 40/3/1 41/3/1
f 45/7/1 44/7/1 43/7/1
f 46/7/1 44/7/1 45/7/1
f 47/5/1 46/5/1 45/5/1
f 48/5/1 47/5/1 45/5/1
f 49/5/1 47/5/1 48/5/1
f 50/1/2 51/1/2 52/1/2
f 52/1/2 51/1/2 53/1/2
f 54/7/2 55/7/2 56/7/2
f 56/7/2 55/7/2 57/7/2
f 56/5/2 57/5/2 58/5/2
f 56/5/2 58/5/2 59/5/2
f 59/5/2 58/5/2 60/5/2
f 61/4/2 62/4/2 64/4/2
f 62/4/2 63/4/2 64/4/2
f 64/4/2 63/4/2 65/4/2
f 64/3/2 65/3/2 66/3/2
f 66/3/2 65/3/2 67/3/2
f 68/7/2 69/7/2 70/7/2
f 70/7/2 69/7/2 71/7/2
f 70/5/2 71/5/2 72/5/2
f 70/5/2 72/5/2 75/5/2
f 72/2/2 73/2/2 76/2/2
f 75/5/2 72/5/2 76/5/2
f 74/7/2 75/7/2 77/7/2
f 75/7/2 76/7/2 77/7/2
f 76/2/2 73/2/2 78/2/2
f 77/7/2 76/7/2 78/7/2
f 74/7/2 77/7/2 79/7/2
f 79/7/2 77/7/2 80/7/2
f 78/2/2 73/2/2 81/2/2
f 79/2/2 80/2/2 82/2/2
f 82/2/2 80/2/2 83/2/2
f 82/7/2 83/7/2 84/7/2
f 81/2/2 73/2/2 85/2/2
f 82/7/2 84/7/2 86/7/2
f 86/7/2 84/7/2 87/7/2
f 85/2/2 73/2/2 88/2/2
f 88/2/2 73/2/2 89/2/2
f 90/4/2 91/4/2 92/4/2
f 92/4/2 91/4/2 93/4/2
f 92/5/2 93/5/2 94/5/2
f 94/5/2 93/5/2 95/5/2
f 94/7/2 95/7/2 96/7/2
f 96/7/2 95/7/2 97/7/2
f 100/1/3 99/1/3 98/1/3
f 101/1/3 99/1/3 100/1/3
f 106/8/3 103/8/3 102/8/3
f 107/8/3 103/8/3 106/8/3
f 108/8/3 105/8/3 104/8/3
f 109/8/3 105/8/3 108/8/3
f 111/7/3 110/7/3 109/7/3
f 114/7/3 111/7/3 109/7/3
f 114/4/3 112/4/3 111/4/3
f 115/3/3 113/3/3 112/3/3
f 115/4/3 112/4/3 114/4/3
f 116/3/3 113/3/3 115/3/3
f 117/7/3 107/7/3 106/7/3
f 117/7/3 108/7/3 107/7/3
f 118/2/3 109/2/3 108/2/3
f 118/7/3 108/7/3 117/7/3
f 119/7/3 114/7/3 109/7/3
f 119/2/3 109/2/3 118/2/3
f 120/7/3 114/7/3 119/7/3
f 127/5/3 122/5/3 121/5/3
f 128/7/3 123/7/3 122/7/3
f 128/5/3 122/5/3 127/5/3
f 129/7/3 123/7/3 128/7/3
f 130/7/3 125/7/3 124/7/3
f 131/5/3 126/5/3 125/5/3
f 131/7/3 125/7/3 130/7/3
f 132/5/3 126/5/3 131/5/3
f 136/7/3 134/7/3 133/7/3
f 137/5/3 135/5/3 134/5/3
f 137/7/3 134/7/3 136/7/3
f 138/5/3 135/5/3 137/5/3
f 144/4/3 140/4/3 139/4/3
f 145/5/3 142/5/3 141/5/3
f 145/4/3 140/4/3 144/4/3
f 145/5/3 141/5/3 140/5/3
f 146/7/3 143/7/3 142/7/3
f 146/5/3 142/5/3 145/5/3
f 147/7/3 143/7/3 146/7/3
f 150/2/3 149/2/3 148/2/3
f 151/2/3 149/2/3 150/2/3
f 152/8/4 153/8/4 154/8/4
f 154/8/4 153/8/4 155/8/4
f 156/4/4 157/4/4 163/4/4
f 157/5/4 158/5/4 164/5/4
f 163/4/4 157/4/4 164/4/4
f 158/7/4 159/7/4 165/7/4
f 164/5/4 158/5/4 165/5/4
f 165/7/4 159/7/4 166/7/4
f 160/7/4 161/7/4 167/7/4
f 161/5/4 162/5/4 168/5/4
f 167/7/4 161/7/4 168/7/4
f 168/5/4 162/5/4 169/5/4
f 170/7/4 171/7/4 173/7/4
f 171/5/4 172/5/4 174/5/4
f 173/7/4 171/7/4 174/7/4
f 174/5/4 172/5/4 175/5/4
f 176/4/4 177/4/4 180/4/4
f 177/5/4 178/5/4 181/5/4
f 180/4/4 177/4/4 181/4/4
f 178/7/4 179/7/4 182/7/4
f 181/5/4 178/5/4 182/5/4
f 182/7/4 179/7/4 183/7/4
f 184/2/4 185/2/4 186/2/4
f 184/2/4 186/2/4 189/2/4
f 186/4/4 187/4/4 189/4/4
f 187/3/4 188/3/4 190/3/4
f 189/4/4 187/4/4 190/4/4
f 190/3/4 188/3/4 191/3/4
f 184/2/4 189/2/4 192/2/4
f 192/2/4 189/2/4 193/2/4
f 198/7/5 195/7/5 194/7/5
f 199/7/5 195/7/5 198/7/5
f 200/7/5 197/7/5 196/7/5
f 201/7/5 197/7/5 200/7/5
f 206/2/5 203/2/5 202/2/5
f 206/2/5 205/2/5 204/2/5
f 206/2/5 204/2/5 203/2/5
f 207/2/5 205/2/5 206/2/5
f 211/8/5 209/8/5 208/8/5
f 212/7/5 210/7/5 209/7/5
f 212/8/5 209/8/5 211/8/5
f 213/7/5 210/7/5 212/7/5
f 214/7/5 210/7/5 213/7/5
f 215/7/5 210/7/5 214/7/5
f 216/6/5 214/6/5 213/6/5
f 217/6/5 214/6/5 216/6/5
f 220/1/5 219/1/5 218/1/5
f 221/1/5 219/1/5 220/1/5
f 226/4/5 223/4/5 222/4/5
f 227/4/5 223/4/5 226/4/5
f 228/4/5 225/4/5 224/4/5
f 229/4/5 225/4/5 228/4/5
f 230/1/6 231/1/6 232/1/6
f 232/1/6 231/1/6 233/1/6
f 234/8/6 235/8/6 236/8/6
f 236/8/6 235/8/6 237/8/6
f 238/7/6 239/7/6 243/7/6
f 240/7/6 241/7/6 244/7/6
f 242/7/6 243/7/6 246/7/6
f 243/7/6 239/7/6 247/7/6
f 246/7/6 243/7/6 247/7/6
f 247/7/6 239/7/6 248/7/6
f 244/7/6 245/7/6 249/7/6
f 240/7/6 244/7/6 249/7/6
f 249/7/6 245/7/6 250/7/6
f 250/7/6 245/7/6 251/7/6
f 247/2/6 248/2/6 252/2/6
f 252/2/6 248/2/6 253/2/6
f 249/2/6 250/2/6 254/2/6
f 254/2/6 250/2/6 255/2/6
f 256/3/6 257/3/6 258/3/6
f 258/3/6 257/3/6 259/3/6
