# MagicaVoxel @ ephtracy

# material
mtllib DoorFrame01.mtl
usemtl palette

# normals
vn -1 0 0
vn 1 0 0
vn 0 0 1
vn 0 0 -1
vn 0 -1 0
vn 0 1 0

# texcoords
vt 0.919922 0.5
vt 0.939453 0.5
vt 0.951172 0.5
vt 0.962891 0.5

# verts
v -2.25 0 0.375
v -2.25 0 0.25
v -2.25 0 -0.25
v -2.25 0 -0.375
v -2.25 0.125 0.375
v -2.25 0.125 0.25
v -2.25 0.125 -0.25
v -2.25 0.125 -0.375
v -2.25 2.75 0.375
v -2.25 2.75 0.25
v -2.25 2.75 -0.25
v -2.25 2.75 -0.375
v -2.25 2.875 0.5
v -2.25 2.875 0.375
v -2.25 2.875 -0.375
v -2.25 2.875 -0.5
v -2.25 3 0.5
v -2.25 3 -0.5
v -2 1.875 -0.25
v -2 1.875 -0.375
v -2 2.125 -0.25
v -2 2.125 -0.375
v -1.875 0.25 0.375
v -1.875 0.25 0.25
v -1.875 0.5 0.375
v -1.875 0.5 0.25
v -1.75 0.875 0.25
v -1.75 0.875 0.125
v -1.75 1.125 0.25
v -1.75 1.125 0.125
v -1.25 1.25 -0.125
v -1.25 1.25 -0.25
v -1.25 1.5 -0.125
v -1.25 1.5 -0.25
v -1 0.125 0.375
v -1 0.125 0.25
v -1 0.125 -0.25
v -1 0.125 -0.375
v -1 2.375 0.375
v -1 2.375 0.25
v -1 2.375 -0.25
v -1 2.375 -0.375
v -0.875 2.375 0.375
v -0.875 2.375 0.25
v -0.875 2.375 -0.25
v -0.875 2.375 -0.375
v -0.875 2.5 0.375
v -0.875 2.5 0.25
v -0.875 2.5 -0.25
v -0.875 2.5 -0.375
v 0.75 0 0.375
v 0.75 0 -0.375
v 0.75 2.25 0.375
v 0.75 2.25 -0.375
v 1.5 0.5 -0.25
v 1.5 0.5 -0.375
v 1.5 0.75 -0.25
v 1.5 0.75 -0.375
v 1.5 1.625 -0.125
v 1.5 1.625 -0.25
v 1.5 1.875 -0.125
v 1.5 1.875 -0.25
v 1.75 1.25 0.25
v 1.75 1.25 0.125
v 1.75 1.5 0.25
v 1.75 1.5 0.125
v 1.75 1.875 0.375
v 1.75 1.875 0.25
v 1.75 2.125 0.375
v 1.75 2.125 0.25
v -2.125 0.875 0.25
v -2.125 0.875 0.125
v -2.125 1.125 0.25
v -2.125 1.125 0.125
v -1.625 1.25 -0.125
v -1.625 1.25 -0.25
v -1.625 1.5 -0.125
v -1.625 1.5 -0.25
v -1.625 1.875 -0.25
v -1.625 1.875 -0.375
v -1.625 2.125 -0.25
v -1.625 2.125 -0.375
v -1.5 0.25 0.375
v -1.5 0.25 0.25
v -1.5 0.5 0.375
v -1.5 0.5 0.25
v -0.75 0 0.375
v -0.75 0 -0.375
v -0.75 2.25 0.375
v -0.75 2.25 -0.375
v 0.875 2.375 0.375
v 0.875 2.375 0.25
v 0.875 2.375 -0.25
v 0.875 2.375 -0.375
v 0.875 2.5 0.375
v 0.875 2.5 0.25
v 0.875 2.5 -0.25
v 0.875 2.5 -0.375
v 1 0.125 0.375
v 1 0.125 0.25
v 1 0.125 -0.25
v 1 0.125 -0.375
v 1 2.375 0.375
v 1 2.375 0.25
v 1 2.375 -0.25
v 1 2.375 -0.375
v 1.125 1.625 -0.125
v 1.125 1.625 -0.25
v 1.125 1.875 -0.125
v 1.125 1.875 -0.25
v 1.375 1.25 0.25
v 1.375 1.25 0.125
v 1.375 1.5 0.25
v 1.375 1.5 0.125
v 1.875 0.5 -0.25
v 1.875 0.5 -0.375
v 1.875 0.75 -0.25
v 1.875 0.75 -0.375
v 2.125 1.875 0.375
v 2.125 1.875 0.25
v 2.125 2.125 0.375
v 2.125 2.125 0.25
v 2.25 0 0.375
v 2.25 0 0.25
v 2.25 0 -0.25
v 2.25 0 -0.375
v 2.25 0.125 0.375
v 2.25 0.125 0.25
v 2.25 0.125 -0.25
v 2.25 0.125 -0.375
v 2.25 2.75 0.375
v 2.25 2.75 0.25
v 2.25 2.75 -0.25
v 2.25 2.75 -0.375
v 2.25 2.875 0.5
v 2.25 2.875 0.375
v 2.25 2.875 -0.375
v 2.25 2.875 -0.5
v 2.25 3 0.5
v 2.25 3 -0.5
v -2.25 2.875 0.5
v -2.25 3 0.5
v 2.25 2.875 0.5
v 2.25 3 0.5
v -2.25 0 0.375
v -2.25 0.125 0.375
v -2.25 2.75 0.375
v -2.25 2.875 0.375
v -1.875 0.25 0.375
v -1.875 0.5 0.375
v -1.5 0.25 0.375
v -1.5 0.5 0.375
v -1 0.125 0.375
v -1 2.375 0.375
v -0.875 2.375 0.375
v -0.875 2.5 0.375
v -0.75 0 0.375
v -0.75 2.25 0.375
v 0.75 0 0.375
v 0.75 2.25 0.375
v 0.875 2.375 0.375
v 0.875 2.5 0.375
v 1 0.125 0.375
v 1 2.375 0.375
v 1.75 1.875 0.375
v 1.75 2.125 0.375
v 2.125 1.875 0.375
v 2.125 2.125 0.375
v 2.25 0 0.375
v 2.25 0.125 0.375
v 2.25 2.75 0.375
v 2.25 2.875 0.375
v -2.25 0.125 0.25
v -2.25 2.75 0.25
v -2.125 0.875 0.25
v -2.125 1.125 0.25
v -1.875 0.25 0.25
v -1.875 0.5 0.25
v -1.75 0.875 0.25
v -1.75 1.125 0.25
v -1.625 1.75 0.25
v -1.625 2 0.25
v -1.5 0.25 0.25
v -1.5 0.5 0.25
v -1.25 1.75 0.25
v -1.25 2 0.25
v -1 0.125 0.25
v -1 2.375 0.25
v -0.875 2.375 0.25
v -0.875 2.5 0.25
v 0.875 2.375 0.25
v 0.875 2.5 0.25
v 1 0.125 0.25
v 1 2.375 0.25
v 1.125 0.5 0.25
v 1.125 0.75 0.25
v 1.375 1.25 0.25
v 1.375 1.5 0.25
v 1.5 0.5 0.25
v 1.5 0.75 0.25
v 1.75 1.25 0.25
v 1.75 1.5 0.25
v 1.75 1.875 0.25
v 1.75 2.125 0.25
v 2.125 1.875 0.25
v 2.125 2.125 0.25
v 2.25 0.125 0.25
v 2.25 2.75 0.25
v -2.125 0.875 0.125
v -2.125 1.125 0.125
v -1.75 0.875 0.125
v -1.75 1.125 0.125
v 1.375 1.25 0.125
v 1.375 1.5 0.125
v 1.75 1.25 0.125
v 1.75 1.5 0.125
v -1.625 1.25 -0.125
v -1.625 1.5 -0.125
v -1.25 1.25 -0.125
v -1.25 1.5 -0.125
v 1.125 1.625 -0.125
v 1.125 1.875 -0.125
v 1.5 1.625 -0.125
v 1.5 1.875 -0.125
v -2.25 0.125 -0.25
v -2.25 2.75 -0.25
v -2 0.375 -0.25
v -2 0.625 -0.25
v -2 1.875 -0.25
v -2 2.125 -0.25
v -1.625 0.375 -0.25
v -1.625 0.625 -0.25
v -1.625 1.25 -0.25
v -1.625 1.5 -0.25
v -1.625 1.875 -0.25
v -1.625 2.125 -0.25
v -1.25 1.25 -0.25
v -1.25 1.5 -0.25
v -1 0.125 -0.25
v -1 2.375 -0.25
v -0.875 2.375 -0.25
v -0.875 2.5 -0.25
v 0.875 2.375 -0.25
v 0.875 2.5 -0.25
v 1 0.125 -0.25
v 1 2.375 -0.25
v 1.125 1.625 -0.25
v 1.125 1.875 -0.25
v 1.5 0.5 -0.25
v 1.5 0.75 -0.25
v 1.5 1.625 -0.25
v 1.5 1.875 -0.25
v 1.625 2.25 -0.25
v 1.625 2.5 -0.25
v 1.875 0.5 -0.25
v 1.875 0.75 -0.25
v 2 2.25 -0.25
v 2 2.5 -0.25
v 2.25 0.125 -0.25
v 2.25 2.75 -0.25
v -2.25 0 -0.375
v -2.25 0.125 -0.375
v -2.25 2.75 -0.375
v -2.25 2.875 -0.375
v -2 1.875 -0.375
v -2 2.125 -0.375
v -1.625 1.875 -0.375
v -1.625 2.125 -0.375
v -1 0.125 -0.375
v -1 2.375 -0.375
v -0.875 2.375 -0.375
v -0.875 2.5 -0.375
v -0.75 0 -0.375
v -0.75 2.25 -0.375
v 0.75 0 -0.375
v 0.75 2.25 -0.375
v 0.875 2.375 -0.375
v 0.875 2.5 -0.375
v 1 0.125 -0.375
v 1 2.375 -0.375
v 1.5 0.5 -0.375
v 1.5 0.75 -0.375
v 1.875 0.5 -0.375
v 1.875 0.75 -0.375
v 2.25 0 -0.375
v 2.25 0.125 -0.375
v 2.25 2.75 -0.375
v 2.25 2.875 -0.375
v -2.25 2.875 -0.5
v -2.25 3 -0.5
v 2.25 2.875 -0.5
v 2.25 3 -0.5
v -2.25 0 0.375
v -0.75 0 0.375
v 0.75 0 0.375
v 2.25 0 0.375
v -2.25 0 0.25
v -1 0 0.25
v 1 0 0.25
v 2.25 0 0.25
v -2.125 0 0.125
v -1 0 0.125
v 1 0 0.125
v 2.125 0 0.125
v -2.125 0 -0.125
v -1 0 -0.125
v 1 0 -0.125
v 2.125 0 -0.125
v -2.25 0 -0.25
v -1 0 -0.25
v 1 0 -0.25
v 2.25 0 -0.25
v -2.25 0 -0.375
v -0.75 0 -0.375
v 0.75 0 -0.375
v 2.25 0 -0.375
v -1.875 0.25 0.375
v -1.5 0.25 0.375
v -1.875 0.25 0.25
v -1.5 0.25 0.25
v 1.5 0.5 -0.25
v 1.875 0.5 -0.25
v 1.5 0.5 -0.375
v 1.875 0.5 -0.375
v -2.125 1.125 0.25
v -1.75 1.125 0.25
v -2.125 1.125 0.125
v -1.75 1.125 0.125
v 1.375 1.5 0.25
v 1.75 1.5 0.25
v 1.375 1.5 0.125
v 1.75 1.5 0.125
v -1.625 1.5 -0.125
v -1.25 1.5 -0.125
v -1.625 1.5 -0.25
v -1.25 1.5 -0.25
v 1.75 1.875 0.375
v 2.125 1.875 0.375
v 1.75 1.875 0.25
v 2.125 1.875 0.25
v 1.125 1.875 -0.125
v 1.5 1.875 -0.125
v -2 1.875 -0.25
v -1.625 1.875 -0.25
v 1.125 1.875 -0.25
v 1.5 1.875 -0.25
v -2 1.875 -0.375
v -1.625 1.875 -0.375
v -0.75 2.25 0.375
v 0.75 2.25 0.375
v -0.75 2.25 -0.375
v 0.75 2.25 -0.375
v -2.25 2.75 0.375
v 2.25 2.75 0.375
v -2.25 2.75 0.25
v 2.25 2.75 0.25
v -2.25 2.75 -0.25
v 2.25 2.75 -0.25
v -2.25 2.75 -0.375
v 2.25 2.75 -0.375
v -2.25 2.875 0.5
v 2.25 2.875 0.5
v -2.25 2.875 0.375
v 2.25 2.875 0.375
v -2.25 2.875 -0.375
v 2.25 2.875 -0.375
v -2.25 2.875 -0.5
v 2.25 2.875 -0.5
v -2.25 0.125 0.375
v -1 0.125 0.375
v 1 0.125 0.375
v 2.25 0.125 0.375
v -2.25 0.125 0.25
v -1 0.125 0.25
v 1 0.125 0.25
v 2.25 0.125 0.25
v -2.25 0.125 -0.25
v -1 0.125 -0.25
v 1 0.125 -0.25
v 2.25 0.125 -0.25
v -2.25 0.125 -0.375
v -1 0.125 -0.375
v 1 0.125 -0.375
v 2.25 0.125 -0.375
v -1.875 0.5 0.375
v -1.5 0.5 0.375
v -1.875 0.5 0.25
v -1.5 0.5 0.25
v 1.5 0.75 -0.25
v 1.875 0.75 -0.25
v 1.5 0.75 -0.375
v 1.875 0.75 -0.375
v -2.125 0.875 0.25
v -1.75 0.875 0.25
v -2.125 0.875 0.125
v -1.75 0.875 0.125
v 1.375 1.25 0.25
v 1.75 1.25 0.25
v 1.375 1.25 0.125
v 1.75 1.25 0.125
v -1.625 1.25 -0.125
v -1.25 1.25 -0.125
v -1.625 1.25 -0.25
v -1.25 1.25 -0.25
v 1.125 1.625 -0.125
v 1.5 1.625 -0.125
v 1.125 1.625 -0.25
v 1.5 1.625 -0.25
v 1.75 2.125 0.375
v 2.125 2.125 0.375
v 1.75 2.125 0.25
v 2.125 2.125 0.25
v -2 2.125 -0.25
v -1.625 2.125 -0.25
v -2 2.125 -0.375
v -1.625 2.125 -0.375
v -1 2.375 0.375
v -0.875 2.375 0.375
v 0.875 2.375 0.375
v 1 2.375 0.375
v -1 2.375 0.25
v -0.875 2.375 0.25
v 0.875 2.375 0.25
v 1 2.375 0.25
v -1 2.375 -0.25
v -0.875 2.375 -0.25
v 0.875 2.375 -0.25
v 1 2.375 -0.25
v -1 2.375 -0.375
v -0.875 2.375 -0.375
v 0.875 2.375 -0.375
v 1 2.375 -0.375
v -0.875 2.5 0.375
v 0.875 2.5 0.375
v -0.875 2.5 0.25
v 0.875 2.5 0.25
v -0.875 2.5 -0.25
v 0.875 2.5 -0.25
v -0.875 2.5 -0.375
v 0.875 2.5 -0.375
v -2.25 3 0.5
v 2.25 3 0.5
v -2.25 3 -0.5
v 2.25 3 -0.5

# faces
f 5/2/1 2/2/1 1/2/1
f 6/3/1 3/3/1 2/3/1
f 6/2/1 2/2/1 5/2/1
f 7/2/1 4/2/1 3/2/1
f 7/3/1 3/3/1 6/3/1
f 8/2/1 4/2/1 7/2/1
f 10/3/1 7/3/1 6/3/1
f 11/3/1 7/3/1 10/3/1
f 14/1/1 10/1/1 9/1/1
f 14/1/1 12/1/1 11/1/1
f 14/1/1 11/1/1 10/1/1
f 15/1/1 12/1/1 14/1/1
f 17/1/1 15/1/1 14/1/1
f 17/1/1 16/1/1 15/1/1
f 17/1/1 14/1/1 13/1/1
f 18/1/1 16/1/1 17/1/1
f 21/2/1 20/2/1 19/2/1
f 22/2/1 20/2/1 21/2/1
f 25/2/1 24/2/1 23/2/1
f 26/2/1 24/2/1 25/2/1
f 29/3/1 28/3/1 27/3/1
f 30/3/1 28/3/1 29/3/1
f 33/3/1 32/3/1 31/3/1
f 34/3/1 32/3/1 33/3/1
f 39/2/1 36/2/1 35/2/1
f 40/2/1 36/2/1 39/2/1
f 41/2/1 38/2/1 37/2/1
f 42/2/1 38/2/1 41/2/1
f 47/2/1 44/2/1 43/2/1
f 48/2/1 44/2/1 47/2/1
f 49/2/1 46/2/1 45/2/1
f 50/2/1 46/2/1 49/2/1
f 53/2/1 52/2/1 51/2/1
f 54/2/1 52/2/1 53/2/1
f 57/2/1 56/2/1 55/2/1
f 58/2/1 56/2/1 57/2/1
f 61/3/1 60/3/1 59/3/1
f 62/3/1 60/3/1 61/3/1
f 65/3/1 64/3/1 63/3/1
f 66/3/1 64/3/1 65/3/1
f 69/2/1 68/2/1 67/2/1
f 70/2/1 68/2/1 69/2/1
f 71/3/2 72/3/2 73/3/2
f 73/3/2 72/3/2 74/3/2
f 75/3/2 76/3/2 77/3/2
f 77/3/2 76/3/2 78/3/2
f 79/2/2 80/2/2 81/2/2
f 81/2/2 80/2/2 82/2/2
f 83/2/2 84/2/2 85/2/2
f 85/2/2 84/2/2 86/2/2
f 87/2/2 88/2/2 89/2/2
f 89/2/2 88/2/2 90/2/2
f 91/2/2 92/2/2 95/2/2
f 95/2/2 92/2/2 96/2/2
f 93/2/2 94/2/2 97/2/2
f 97/2/2 94/2/2 98/2/2
f 99/2/2 100/2/2 103/2/2
f 103/2/2 100/2/2 104/2/2
f 101/2/2 102/2/2 105/2/2
f 105/2/2 102/2/2 106/2/2
f 107/3/2 108/3/2 109/3/2
f 109/3/2 108/3/2 110/3/2
f 111/3/2 112/3/2 113/3/2
f 113/3/2 112/3/2 114/3/2
f 115/2/2 116/2/2 117/2/2
f 117/2/2 116/2/2 118/2/2
f 119/2/2 120/2/2 121/2/2
f 121/2/2 120/2/2 122/2/2
f 123/2/2 124/2/2 127/2/2
f 124/3/2 125/3/2 128/3/2
f 127/2/2 124/2/2 128/2/2
f 125/2/2 126/2/2 129/2/2
f 128/3/2 125/3/2 129/3/2
f 129/2/2 126/2/2 130/2/2
f 128/3/2 129/3/2 132/3/2
f 132/3/2 129/3/2 133/3/2
f 131/1/2 132/1/2 136/1/2
f 133/1/2 134/1/2 136/1/2
f 132/1/2 133/1/2 136/1/2
f 136/1/2 134/1/2 137/1/2
f 136/1/2 137/1/2 139/1/2
f 137/1/2 138/1/2 139/1/2
f 135/1/2 136/1/2 139/1/2
f 139/1/2 138/1/2 140/1/2
f 143/1/3 142/1/3 141/1/3
f 144/1/3 142/1/3 143/1/3
f 151/2/3 150/2/3 149/2/3
f 152/2/3 150/2/3 151/2/3
f 153/2/3 146/2/3 145/2/3
f 155/2/3 154/2/3 153/2/3
f 157/2/3 153/2/3 145/2/3
f 157/2/3 156/2/3 155/2/3
f 157/2/3 155/2/3 153/2/3
f 158/2/3 156/2/3 157/2/3
f 160/2/3 156/2/3 158/2/3
f 161/2/3 156/2/3 160/2/3
f 161/2/3 160/2/3 159/2/3
f 162/2/3 156/2/3 161/2/3
f 163/2/3 161/2/3 159/2/3
f 164/2/3 161/2/3 163/2/3
f 167/2/3 166/2/3 165/2/3
f 168/2/3 166/2/3 167/2/3
f 169/2/3 163/2/3 159/2/3
f 170/2/3 163/2/3 169/2/3
f 171/1/3 148/1/3 147/1/3
f 172/1/3 148/1/3 171/1/3
f 175/3/3 174/3/3 173/3/3
f 176/3/3 174/3/3 175/3/3
f 177/3/3 175/3/3 173/3/3
f 178/3/3 175/3/3 177/3/3
f 179/3/3 175/3/3 178/3/3
f 180/3/3 174/3/3 176/3/3
f 181/3/3 174/3/3 180/3/3
f 181/3/3 180/3/3 179/3/3
f 182/3/3 174/3/3 181/3/3
f 183/3/3 177/3/3 173/3/3
f 184/3/3 179/3/3 178/3/3
f 184/3/3 181/3/3 179/3/3
f 185/4/3 182/4/3 181/4/3
f 185/3/3 184/3/3 183/3/3
f 185/3/3 181/3/3 184/3/3
f 186/3/3 174/3/3 182/3/3
f 186/4/3 182/4/3 185/4/3
f 187/3/3 183/3/3 173/3/3
f 187/3/3 185/3/3 183/3/3
f 187/3/3 186/3/3 185/3/3
f 188/3/3 174/3/3 186/3/3
f 188/3/3 186/3/3 187/3/3
f 189/3/3 174/3/3 188/3/3
f 190/3/3 174/3/3 189/3/3
f 192/3/3 174/3/3 190/3/3
f 194/3/3 192/3/3 191/3/3
f 195/3/3 194/3/3 193/3/3
f 196/3/3 194/3/3 195/3/3
f 197/3/3 194/3/3 196/3/3
f 198/3/3 194/3/3 197/3/3
f 199/3/3 195/3/3 193/3/3
f 199/4/3 196/4/3 195/4/3
f 200/3/3 197/3/3 196/3/3
f 200/4/3 196/4/3 199/4/3
f 201/3/3 200/3/3 199/3/3
f 201/3/3 197/3/3 200/3/3
f 202/3/3 194/3/3 198/3/3
f 203/3/3 194/3/3 202/3/3
f 204/3/3 194/3/3 203/3/3
f 205/3/3 202/3/3 201/3/3
f 205/3/3 203/3/3 202/3/3
f 206/3/3 194/3/3 204/3/3
f 207/3/3 201/3/3 199/3/3
f 207/3/3 206/3/3 205/3/3
f 207/3/3 199/3/3 193/3/3
f 207/3/3 205/3/3 201/3/3
f 208/3/3 174/3/3 192/3/3
f 208/3/3 206/3/3 207/3/3
f 208/3/3 192/3/3 194/3/3
f 208/3/3 194/3/3 206/3/3
f 211/4/3 210/4/3 209/4/3
f 212/4/3 210/4/3 211/4/3
f 215/4/3 214/4/3 213/4/3
f 216/4/3 214/4/3 215/4/3
f 217/4/4 218/4/4 219/4/4
f 219/4/4 218/4/4 220/4/4
f 221/4/4 222/4/4 223/4/4
f 223/4/4 222/4/4 224/4/4
f 225/3/4 226/3/4 227/3/4
f 227/3/4 226/3/4 228/3/4
f 228/3/4 226/3/4 229/3/4
f 229/3/4 226/3/4 230/3/4
f 225/3/4 227/3/4 231/3/4
f 227/4/4 228/4/4 231/4/4
f 228/3/4 229/3/4 232/3/4
f 231/4/4 228/4/4 232/4/4
f 232/3/4 229/3/4 233/3/4
f 233/3/4 229/3/4 234/3/4
f 234/3/4 229/3/4 235/3/4
f 230/3/4 226/3/4 236/3/4
f 231/3/4 232/3/4 237/3/4
f 232/3/4 233/3/4 237/3/4
f 234/3/4 235/3/4 238/3/4
f 235/3/4 236/3/4 238/3/4
f 231/3/4 237/3/4 239/3/4
f 237/3/4 238/3/4 239/3/4
f 225/3/4 231/3/4 239/3/4
f 238/3/4 236/3/4 240/3/4
f 239/3/4 238/3/4 240/3/4
f 236/3/4 226/3/4 240/3/4
f 240/3/4 226/3/4 241/3/4
f 241/3/4 226/3/4 242/3/4
f 242/3/4 226/3/4 244/3/4
f 243/3/4 244/3/4 246/3/4
f 245/3/4 246/3/4 247/3/4
f 247/3/4 246/3/4 248/3/4
f 245/3/4 247/3/4 249/3/4
f 249/3/4 247/3/4 250/3/4
f 250/3/4 247/3/4 251/3/4
f 248/3/4 246/3/4 252/3/4
f 250/3/4 251/3/4 253/3/4
f 251/3/4 252/3/4 253/3/4
f 252/3/4 246/3/4 253/3/4
f 244/3/4 226/3/4 254/3/4
f 253/3/4 246/3/4 254/3/4
f 246/3/4 244/3/4 254/3/4
f 245/3/4 249/3/4 255/3/4
f 250/3/4 253/3/4 256/3/4
f 253/4/4 254/4/4 257/4/4
f 255/3/4 256/3/4 257/3/4
f 256/3/4 253/3/4 257/3/4
f 254/3/4 226/3/4 258/3/4
f 257/4/4 254/4/4 258/4/4
f 245/3/4 255/3/4 259/3/4
f 255/3/4 257/3/4 259/3/4
f 257/3/4 258/3/4 259/3/4
f 258/3/4 226/3/4 260/3/4
f 259/3/4 258/3/4 260/3/4
f 265/2/4 266/2/4 267/2/4
f 267/2/4 266/2/4 268/2/4
f 261/2/4 262/2/4 269/2/4
f 269/2/4 270/2/4 271/2/4
f 261/2/4 269/2/4 273/2/4
f 271/2/4 272/2/4 273/2/4
f 269/2/4 271/2/4 273/2/4
f 273/2/4 272/2/4 274/2/4
f 274/2/4 272/2/4 276/2/4
f 276/2/4 272/2/4 277/2/4
f 275/2/4 276/2/4 277/2/4
f 277/2/4 272/2/4 278/2/4
f 275/2/4 277/2/4 279/2/4
f 279/2/4 277/2/4 280/2/4
f 281/2/4 282/2/4 283/2/4
f 283/2/4 282/2/4 284/2/4
f 275/2/4 279/2/4 285/2/4
f 285/2/4 279/2/4 286/2/4
f 263/1/4 264/1/4 287/1/4
f 287/1/4 264/1/4 288/1/4
f 289/1/4 290/1/4 291/1/4
f 291/1/4 290/1/4 292/1/4
f 297/2/5 294/2/5 293/2/5
f 298/2/5 294/2/5 297/2/5
f 299/2/5 296/2/5 295/2/5
f 300/2/5 296/2/5 299/2/5
f 301/3/5 298/3/5 297/3/5
f 302/2/5 294/2/5 298/2/5
f 302/3/5 298/3/5 301/3/5
f 303/2/5 299/2/5 295/2/5
f 303/3/5 300/3/5 299/3/5
f 304/3/5 300/3/5 303/3/5
f 305/3/5 301/3/5 297/3/5
f 305/2/5 302/2/5 301/2/5
f 306/2/5 294/2/5 302/2/5
f 306/2/5 302/2/5 305/2/5
f 307/2/5 304/2/5 303/2/5
f 307/2/5 303/2/5 295/2/5
f 308/3/5 300/3/5 304/3/5
f 308/2/5 304/2/5 307/2/5
f 309/3/5 305/3/5 297/3/5
f 309/3/5 306/3/5 305/3/5
f 310/2/5 294/2/5 306/2/5
f 310/3/5 306/3/5 309/3/5
f 311/2/5 307/2/5 295/2/5
f 311/3/5 308/3/5 307/3/5
f 312/3/5 300/3/5 308/3/5
f 312/3/5 308/3/5 311/3/5
f 313/2/5 310/2/5 309/2/5
f 314/2/5 294/2/5 310/2/5
f 314/2/5 310/2/5 313/2/5
f 315/2/5 311/2/5 295/2/5
f 315/2/5 312/2/5 311/2/5
f 316/2/5 312/2/5 315/2/5
f 319/2/5 318/2/5 317/2/5
f 320/2/5 318/2/5 319/2/5
f 323/2/5 322/2/5 321/2/5
f 324/2/5 322/2/5 323/2/5
f 327/3/5 326/3/5 325/3/5
f 328/3/5 326/3/5 327/3/5
f 331/3/5 330/3/5 329/3/5
f 332/3/5 330/3/5 331/3/5
f 335/3/5 334/3/5 333/3/5
f 336/3/5 334/3/5 335/3/5
f 339/2/5 338/2/5 337/2/5
f 340/2/5 338/2/5 339/2/5
f 345/3/5 342/3/5 341/3/5
f 346/3/5 342/3/5 345/3/5
f 347/2/5 344/2/5 343/2/5
f 348/2/5 344/2/5 347/2/5
f 351/2/5 350/2/5 349/2/5
f 352/2/5 350/2/5 351/2/5
f 355/1/5 354/1/5 353/1/5
f 356/1/5 354/1/5 355/1/5
f 359/1/5 358/1/5 357/1/5
f 360/1/5 358/1/5 359/1/5
f 363/1/5 362/1/5 361/1/5
f 364/1/5 362/1/5 363/1/5
f 367/1/5 366/1/5 365/1/5
f 368/1/5 366/1/5 367/1/5
f 369/2/6 370/2/6 373/2/6
f 373/2/6 370/2/6 374/2/6
f 371/2/6 372/2/6 375/2/6
f 375/2/6 372/2/6 376/2/6
f 377/2/6 378/2/6 381/2/6
f 381/2/6 378/2/6 382/2/6
f 379/2/6 380/2/6 383/2/6
f 383/2/6 380/2/6 384/2/6
f 385/2/6 386/2/6 387/2/6
f 387/2/6 386/2/6 388/2/6
f 389/2/6 390/2/6 391/2/6
f 391/2/6 390/2/6 392/2/6
f 393/3/6 394/3/6 395/3/6
f 395/3/6 394/3/6 396/3/6
f 397/3/6 398/3/6 399/3/6
f 399/3/6 398/3/6 400/3/6
f 401/3/6 402/3/6 403/3/6
f 403/3/6 402/3/6 404/3/6
f 405/3/6 406/3/6 407/3/6
f 407/3/6 406/3/6 408/3/6
f 409/2/6 410/2/6 411/2/6
f 411/2/6 410/2/6 412/2/6
f 413/2/6 414/2/6 415/2/6
f 415/2/6 414/2/6 416/2/6
f 417/2/6 418/2/6 421/2/6
f 421/2/6 418/2/6 422/2/6
f 419/2/6 420/2/6 423/2/6
f 423/2/6 420/2/6 424/2/6
f 425/2/6 426/2/6 429/2/6
f 429/2/6 426/2/6 430/2/6
f 427/2/6 428/2/6 431/2/6
f 431/2/6 428/2/6 432/2/6
f 433/2/6 434/2/6 435/2/6
f 435/2/6 434/2/6 436/2/6
f 437/2/6 438/2/6 439/2/6
f 439/2/6 438/2/6 440/2/6
f 441/1/6 442/1/6 443/1/6
f 443/1/6 442/1/6 444/1/6
