# MagicaVoxel @ ephtracy

# material
mtllib Door01.mtl
usemtl palette

# normals
vn -1 0 0
vn 1 0 0
vn 0 0 1
vn 0 0 -1
vn 0 -1 0
vn 0 1 0

# texcoords
vt 0.0292969 0.5
vt 0.193359 0.5
vt 0.197266 0.5
vt 0.201172 0.5
vt 0.939453 0.5
vt 0.962891 0.5

# verts
v -0.75 0 0.25
v -0.75 0 -0.125
v -0.75 2.125 0.25
v -0.75 2.125 -0.125
v -0.75 2.25 0.25
v -0.75 2.25 -0.125
v 0.25 1 0.375
v 0.25 1 0.25
v 0.25 1 -0.125
v 0.25 1 -0.25
v 0.25 1.125 0.375
v 0.25 1.125 0.25
v 0.25 1.125 -0.125
v 0.25 1.125 -0.25
v 0.5 1 0.375
v 0.5 1 0.25
v 0.5 1 -0.125
v 0.5 1 -0.25
v 0.5 1.125 0.375
v 0.5 1.125 0.25
v 0.5 1.125 -0.125
v 0.5 1.125 -0.25
v 0.75 0 0.25
v 0.75 0 -0.125
v 0.75 2.125 0.25
v 0.75 2.125 -0.125
v 0.75 2.25 0.25
v 0.75 2.25 -0.125
v 0.25 1 0.375
v 0.25 1.125 0.375
v 0.5 1 0.375
v 0.5 1.125 0.375
v -0.75 0 0.25
v -0.75 2.125 0.25
v -0.75 2.25 0.25
v -0.625 0 0.25
v -0.625 2.125 0.25
v -0.625 2.25 0.25
v -0.5 0 0.25
v -0.5 0.625 0.25
v -0.5 0.75 0.25
v -0.5 1.25 0.25
v -0.5 1.5 0.25
v -0.5 2.125 0.25
v -0.375 0 0.25
v -0.375 0.625 0.25
v -0.375 0.75 0.25
v -0.375 1.25 0.25
v -0.375 1.5 0.25
v -0.375 2.125 0.25
v -0.25 0 0.25
v -0.25 2.125 0.25
v -0.125 0 0.25
v -0.125 0.375 0.25
v -0.125 0.625 0.25
v -0.125 1.5 0.25
v -0.125 1.625 0.25
v -0.125 1.875 0.25
v -0.125 2.125 0.25
v 0 0 0.25
v 0 0.375 0.25
v 0 0.625 0.25
v 0 1.5 0.25
v 0 1.625 0.25
v 0 1.875 0.25
v 0.125 0.75 0.25
v 0.125 0.875 0.25
v 0.125 1.375 0.25
v 0.125 1.75 0.25
v 0.125 1.875 0.25
v 0.125 2 0.25
v 0.25 0 0.25
v 0.25 0.75 0.25
v 0.25 0.875 0.25
v 0.25 1 0.25
v 0.25 1.125 0.25
v 0.25 1.375 0.25
v 0.25 1.75 0.25
v 0.25 1.875 0.25
v 0.25 2 0.25
v 0.25 2.125 0.25
v 0.375 0 0.25
v 0.375 0.25 0.25
v 0.375 0.375 0.25
v 0.375 1 0.25
v 0.375 1.125 0.25
v 0.375 1.75 0.25
v 0.375 1.875 0.25
v 0.375 2.125 0.25
v 0.5 0 0.25
v 0.5 0.25 0.25
v 0.5 0.375 0.25
v 0.5 1 0.25
v 0.5 1.125 0.25
v 0.5 1.75 0.25
v 0.5 1.875 0.25
v 0.5 2.125 0.25
v 0.625 0 0.25
v 0.625 2.125 0.25
v 0.625 2.25 0.25
v 0.75 0 0.25
v 0.75 2.125 0.25
v 0.75 2.25 0.25
v -0.75 0 -0.125
v -0.75 2.125 -0.125
v -0.75 2.25 -0.125
v -0.625 0 -0.125
v -0.625 2.125 -0.125
v -0.625 2.25 -0.125
v -0.5 0 -0.125
v -0.5 2.125 -0.125
v -0.375 0 -0.125
v -0.375 2.125 -0.125
v -0.25 0 -0.125
v -0.25 2.125 -0.125
v -0.125 0 -0.125
v -0.125 0.375 -0.125
v -0.125 0.625 -0.125
v -0.125 1.5 -0.125
v -0.125 1.625 -0.125
v -0.125 1.875 -0.125
v -0.125 2.125 -0.125
v 0 0 -0.125
v 0 0.375 -0.125
v 0 0.625 -0.125
v 0 1.5 -0.125
v 0 1.625 -0.125
v 0 1.875 -0.125
v 0.125 0.75 -0.125
v 0.125 0.875 -0.125
v 0.125 1.375 -0.125
v 0.125 1.75 -0.125
v 0.125 1.875 -0.125
v 0.125 2 -0.125
v 0.25 0 -0.125
v 0.25 0.75 -0.125
v 0.25 0.875 -0.125
v 0.25 1 -0.125
v 0.25 1.125 -0.125
v 0.25 1.375 -0.125
v 0.25 1.75 -0.125
v 0.25 1.875 -0.125
v 0.25 2 -0.125
v 0.25 2.125 -0.125
v 0.375 0 -0.125
v 0.375 1 -0.125
v 0.375 1.125 -0.125
v 0.375 2.125 -0.125
v 0.5 0 -0.125
v 0.5 1 -0.125
v 0.5 1.125 -0.125
v 0.5 2.125 -0.125
v 0.625 0 -0.125
v 0.625 2.125 -0.125
v 0.625 2.25 -0.125
v 0.75 0 -0.125
v 0.75 2.125 -0.125
v 0.75 2.25 -0.125
v 0.25 1 -0.25
v 0.25 1.125 -0.25
v 0.5 1 -0.25
v 0.5 1.125 -0.25
v -0.75 0 0.25
v -0.625 0 0.25
v -0.5 0 0.25
v -0.375 0 0.25
v -0.25 0 0.25
v -0.125 0 0.25
v 0 0 0.25
v 0.25 0 0.25
v 0.375 0 0.25
v 0.5 0 0.25
v 0.625 0 0.25
v 0.75 0 0.25
v -0.75 0 -0.125
v -0.625 0 -0.125
v -0.5 0 -0.125
v -0.375 0 -0.125
v -0.25 0 -0.125
v -0.125 0 -0.125
v 0 0 -0.125
v 0.25 0 -0.125
v 0.375 0 -0.125
v 0.5 0 -0.125
v 0.625 0 -0.125
v 0.75 0 -0.125
v 0.25 1 0.375
v 0.5 1 0.375
v 0.25 1 0.25
v 0.375 1 0.25
v 0.5 1 0.25
v 0.25 1 -0.125
v 0.375 1 -0.125
v 0.5 1 -0.125
v 0.25 1 -0.25
v 0.5 1 -0.25
v 0.25 1.125 0.375
v 0.5 1.125 0.375
v 0.25 1.125 0.25
v 0.375 1.125 0.25
v 0.5 1.125 0.25
v 0.25 1.125 -0.125
v 0.375 1.125 -0.125
v 0.5 1.125 -0.125
v 0.25 1.125 -0.25
v 0.5 1.125 -0.25
v -0.75 2.25 0.25
v -0.625 2.25 0.25
v 0.625 2.25 0.25
v 0.75 2.25 0.25
v -0.625 2.25 0.125
v -0.375 2.25 0.125
v 0.375 2.25 0.125
v 0.625 2.25 0.125
v -0.625 2.25 -0
v -0.375 2.25 -0
v 0.375 2.25 -0
v 0.625 2.25 -0
v -0.75 2.25 -0.125
v -0.625 2.25 -0.125
v 0.625 2.25 -0.125
v 0.75 2.25 -0.125

# faces
f 3/4/1 2/4/1 1/4/1
f 4/4/1 2/4/1 3/4/1
f 5/3/1 4/3/1 3/3/1
f 6/3/1 4/3/1 5/3/1
f 11/1/1 8/1/1 7/1/1
f 12/1/1 8/1/1 11/1/1
f 13/1/1 10/1/1 9/1/1
f 14/1/1 10/1/1 13/1/1
f 15/1/2 16/1/2 19/1/2
f 19/1/2 16/1/2 20/1/2
f 17/1/2 18/1/2 21/1/2
f 21/1/2 18/1/2 22/1/2
f 23/4/2 24/4/2 25/4/2
f 25/4/2 24/4/2 26/4/2
f 25/3/2 26/3/2 27/3/2
f 27/3/2 26/3/2 28/3/2
f 31/1/3 30/1/3 29/1/3
f 32/1/3 30/1/3 31/1/3
f 36/4/3 34/4/3 33/4/3
f 37/3/3 35/3/3 34/3/3
f 37/4/3 34/4/3 36/4/3
f 38/3/3 35/3/3 37/3/3
f 39/3/3 37/3/3 36/3/3
f 40/3/3 37/3/3 39/3/3
f 41/3/3 37/3/3 40/3/3
f 42/3/3 37/3/3 41/3/3
f 43/3/3 37/3/3 42/3/3
f 44/2/3 38/2/3 37/2/3
f 44/3/3 37/3/3 43/3/3
f 45/4/3 40/4/3 39/4/3
f 46/3/3 41/3/3 40/3/3
f 46/4/3 40/4/3 45/4/3
f 47/4/3 42/4/3 41/4/3
f 47/3/3 41/3/3 46/3/3
f 48/3/3 43/3/3 42/3/3
f 48/4/3 42/4/3 47/4/3
f 49/4/3 44/4/3 43/4/3
f 49/3/3 43/3/3 48/3/3
f 50/2/3 38/2/3 44/2/3
f 50/4/3 44/4/3 49/4/3
f 51/3/3 47/3/3 46/3/3
f 51/3/3 49/3/3 48/3/3
f 51/3/3 50/3/3 49/3/3
f 51/3/3 48/3/3 47/3/3
f 51/3/3 46/3/3 45/3/3
f 52/2/3 38/2/3 50/2/3
f 52/3/3 50/3/3 51/3/3
f 53/2/3 52/2/3 51/2/3
f 54/2/3 52/2/3 53/2/3
f 55/2/3 52/2/3 54/2/3
f 56/2/3 52/2/3 55/2/3
f 57/2/3 52/2/3 56/2/3
f 58/2/3 52/2/3 57/2/3
f 59/2/3 38/2/3 52/2/3
f 59/2/3 52/2/3 58/2/3
f 60/4/3 54/4/3 53/4/3
f 61/2/3 55/2/3 54/2/3
f 61/4/3 54/4/3 60/4/3
f 62/3/3 56/3/3 55/3/3
f 62/2/3 55/2/3 61/2/3
f 63/2/3 57/2/3 56/2/3
f 63/3/3 56/3/3 62/3/3
f 64/4/3 58/4/3 57/4/3
f 64/2/3 57/2/3 63/2/3
f 65/3/3 59/3/3 58/3/3
f 65/4/3 58/4/3 64/4/3
f 66/3/3 63/3/3 62/3/3
f 66/3/3 61/3/3 60/3/3
f 66/3/3 65/3/3 64/3/3
f 66/3/3 64/3/3 63/3/3
f 66/3/3 62/3/3 61/3/3
f 67/3/3 65/3/3 66/3/3
f 68/3/3 65/3/3 67/3/3
f 69/3/3 65/3/3 68/3/3
f 70/3/3 59/3/3 65/3/3
f 70/3/3 65/3/3 69/3/3
f 71/3/3 59/3/3 70/3/3
f 72/3/3 66/3/3 60/3/3
f 73/4/3 67/4/3 66/4/3
f 73/3/3 66/3/3 72/3/3
f 74/2/3 68/2/3 67/2/3
f 74/4/3 67/4/3 73/4/3
f 75/2/3 68/2/3 74/2/3
f 76/2/3 68/2/3 75/2/3
f 77/3/3 69/3/3 68/3/3
f 77/2/3 68/2/3 76/2/3
f 78/4/3 70/4/3 69/4/3
f 78/3/3 69/3/3 77/3/3
f 79/2/3 71/2/3 70/2/3
f 79/4/3 70/4/3 78/4/3
f 80/3/3 59/3/3 71/3/3
f 80/2/3 71/2/3 79/2/3
f 81/2/3 38/2/3 59/2/3
f 81/3/3 59/3/3 80/3/3
f 82/2/3 73/2/3 72/2/3
f 82/2/3 74/2/3 73/2/3
f 82/2/3 75/2/3 74/2/3
f 83/2/3 75/2/3 82/2/3
f 84/2/3 75/2/3 83/2/3
f 85/2/3 75/2/3 84/2/3
f 86/2/3 80/2/3 79/2/3
f 86/2/3 79/2/3 78/2/3
f 86/2/3 81/2/3 80/2/3
f 86/2/3 77/2/3 76/2/3
f 86/2/3 78/2/3 77/2/3
f 87/2/3 81/2/3 86/2/3
f 88/2/3 81/2/3 87/2/3
f 89/2/3 38/2/3 81/2/3
f 89/2/3 81/2/3 88/2/3
f 90/4/3 83/4/3 82/4/3
f 91/3/3 84/3/3 83/3/3
f 91/4/3 83/4/3 90/4/3
f 92/4/3 85/4/3 84/4/3
f 92/3/3 84/3/3 91/3/3
f 93/4/3 85/4/3 92/4/3
f 94/4/3 87/4/3 86/4/3
f 95/3/3 88/3/3 87/3/3
f 95/4/3 87/4/3 94/4/3
f 96/4/3 89/4/3 88/4/3
f 96/3/3 88/3/3 95/3/3
f 97/2/3 38/2/3 89/2/3
f 97/4/3 89/4/3 96/4/3
f 98/3/3 94/3/3 93/3/3
f 98/3/3 91/3/3 90/3/3
f 98/3/3 97/3/3 96/3/3
f 98/3/3 96/3/3 95/3/3
f 98/3/3 92/3/3 91/3/3
f 98/3/3 95/3/3 94/3/3
f 98/3/3 93/3/3 92/3/3
f 99/2/3 38/2/3 97/2/3
f 99/3/3 97/3/3 98/3/3
f 100/2/3 38/2/3 99/2/3
f 101/4/3 99/4/3 98/4/3
f 102/3/3 100/3/3 99/3/3
f 102/4/3 99/4/3 101/4/3
f 103/3/3 100/3/3 102/3/3
f 104/4/4 105/4/4 107/4/4
f 105/3/4 106/3/4 108/3/4
f 107/4/4 105/4/4 108/4/4
f 108/3/4 106/3/4 109/3/4
f 107/3/4 108/3/4 110/3/4
f 108/2/4 109/2/4 111/2/4
f 110/3/4 108/3/4 111/3/4
f 110/4/4 111/4/4 112/4/4
f 111/2/4 109/2/4 113/2/4
f 112/4/4 111/4/4 113/4/4
f 112/3/4 113/3/4 114/3/4
f 113/2/4 109/2/4 115/2/4
f 114/3/4 113/3/4 115/3/4
f 114/2/4 115/2/4 116/2/4
f 116/2/4 115/2/4 117/2/4
f 117/2/4 115/2/4 118/2/4
f 118/2/4 115/2/4 119/2/4
f 119/2/4 115/2/4 120/2/4
f 120/2/4 115/2/4 121/2/4
f 115/2/4 109/2/4 122/2/4
f 121/2/4 115/2/4 122/2/4
f 116/4/4 117/4/4 123/4/4
f 117/2/4 118/2/4 124/2/4
f 123/4/4 117/4/4 124/4/4
f 118/3/4 119/3/4 125/3/4
f 124/2/4 118/2/4 125/2/4
f 119/2/4 120/2/4 126/2/4
f 125/3/4 119/3/4 126/3/4
f 120/4/4 121/4/4 127/4/4
f 126/2/4 120/2/4 127/2/4
f 121/3/4 122/3/4 128/3/4
f 127/4/4 121/4/4 128/4/4
f 125/3/4 126/3/4 129/3/4
f 123/3/4 124/3/4 129/3/4
f 127/3/4 128/3/4 129/3/4
f 126/3/4 127/3/4 129/3/4
f 124/3/4 125/3/4 129/3/4
f 129/3/4 128/3/4 130/3/4
f 130/3/4 128/3/4 131/3/4
f 131/3/4 128/3/4 132/3/4
f 128/3/4 122/3/4 133/3/4
f 132/3/4 128/3/4 133/3/4
f 133/3/4 122/3/4 134/3/4
f 123/3/4 129/3/4 135/3/4
f 129/4/4 130/4/4 136/4/4
f 135/3/4 129/3/4 136/3/4
f 130/2/4 131/2/4 137/2/4
f 136/4/4 130/4/4 137/4/4
f 137/2/4 131/2/4 138/2/4
f 138/2/4 131/2/4 139/2/4
f 131/3/4 132/3/4 140/3/4
f 139/2/4 131/2/4 140/2/4
f 132/4/4 133/4/4 141/4/4
f 140/3/4 132/3/4 141/3/4
f 133/2/4 134/2/4 142/2/4
f 141/4/4 133/4/4 142/4/4
f 134/3/4 122/3/4 143/3/4
f 142/2/4 134/2/4 143/2/4
f 122/2/4 109/2/4 144/2/4
f 143/3/4 122/3/4 144/3/4
f 135/2/4 136/2/4 145/2/4
f 136/2/4 137/2/4 145/2/4
f 137/2/4 138/2/4 145/2/4
f 145/2/4 138/2/4 146/2/4
f 142/2/4 143/2/4 147/2/4
f 141/2/4 142/2/4 147/2/4
f 143/2/4 144/2/4 147/2/4
f 140/2/4 141/2/4 147/2/4
f 139/2/4 140/2/4 147/2/4
f 144/2/4 109/2/4 148/2/4
f 147/2/4 144/2/4 148/2/4
f 145/4/4 146/4/4 149/4/4
f 149/4/4 146/4/4 150/4/4
f 147/4/4 148/4/4 151/4/4
f 148/2/4 109/2/4 152/2/4
f 151/4/4 148/4/4 152/4/4
f 150/3/4 151/3/4 153/3/4
f 149/3/4 150/3/4 153/3/4
f 151/3/4 152/3/4 153/3/4
f 152/2/4 109/2/4 154/2/4
f 153/3/4 152/3/4 154/3/4
f 154/2/4 109/2/4 155/2/4
f 153/4/4 154/4/4 156/4/4
f 154/3/4 155/3/4 157/3/4
f 156/4/4 154/4/4 157/4/4
f 157/3/4 155/3/4 158/3/4
f 159/1/4 160/1/4 161/1/4
f 161/1/4 160/1/4 162/1/4
f 175/4/5 164/4/5 163/4/5
f 176/3/5 165/3/5 164/3/5
f 176/4/5 164/4/5 175/4/5
f 177/4/5 166/4/5 165/4/5
f 177/3/5 165/3/5 176/3/5
f 178/3/5 167/3/5 166/3/5
f 178/4/5 166/4/5 177/4/5
f 179/2/5 168/2/5 167/2/5
f 179/3/5 167/3/5 178/3/5
f 180/4/5 169/4/5 168/4/5
f 180/2/5 168/2/5 179/2/5
f 181/3/5 170/3/5 169/3/5
f 181/4/5 169/4/5 180/4/5
f 182/2/5 171/2/5 170/2/5
f 182/3/5 170/3/5 181/3/5
f 183/4/5 172/4/5 171/4/5
f 183/2/5 171/2/5 182/2/5
f 184/3/5 173/3/5 172/3/5
f 184/4/5 172/4/5 183/4/5
f 185/4/5 174/4/5 173/4/5
f 185/3/5 173/3/5 184/3/5
f 186/4/5 174/4/5 185/4/5
f 189/1/5 188/1/5 187/1/5
f 190/1/5 188/1/5 189/1/5
f 191/1/5 188/1/5 190/1/5
f 195/1/5 193/1/5 192/1/5
f 195/1/5 194/1/5 193/1/5
f 196/1/5 194/1/5 195/1/5
f 197/1/6 198/1/6 199/1/6
f 199/1/6 198/1/6 200/1/6
f 200/1/6 198/1/6 201/1/6
f 202/1/6 203/1/6 205/1/6
f 203/1/6 204/1/6 205/1/6
f 205/1/6 204/1/6 206/1/6
f 207/3/6 208/3/6 211/3/6
f 208/2/6 209/2/6 211/2/6
f 211/2/6 209/2/6 212/2/6
f 212/2/6 209/2/6 213/2/6
f 209/3/6 210/3/6 214/3/6
f 213/2/6 209/2/6 214/2/6
f 207/3/6 211/3/6 215/3/6
f 211/3/6 212/3/6 215/3/6
f 212/2/6 213/2/6 216/2/6
f 215/3/6 212/3/6 216/3/6
f 213/3/6 214/3/6 217/3/6
f 216/2/6 213/2/6 217/2/6
f 214/3/6 210/3/6 218/3/6
f 217/3/6 214/3/6 218/3/6
f 207/3/6 215/3/6 219/3/6
f 216/2/6 217/2/6 220/2/6
f 219/3/6 215/3/6 220/3/6
f 215/2/6 216/2/6 220/2/6
f 217/2/6 218/2/6 220/2/6
f 218/3/6 210/3/6 221/3/6
f 220/2/6 218/2/6 221/2/6
f 221/3/6 210/3/6 222/3/6
