# MagicaVoxel @ ephtracy

# material
mtllib GroundRug04.mtl
usemtl palette

# normals
vn -1 0 0
vn 1 0 0
vn 0 0 1
vn 0 0 -1
vn 0 -1 0
vn 0 1 0

# texcoords
vt 0.0878906 0.5
vt 0.169922 0.5
vt 0.939453 0.5
vt 0.966797 0.5

# verts
v -0.75 0 0.75
v -0.75 0 -0.75
v -0.75 0.5 0.75
v -0.75 0.5 -0.75
v -0.75 0.625 0.625
v -0.75 0.625 0.375
v -0.75 0.625 -0.375
v -0.75 0.625 -0.625
v -0.75 0.75 0.75
v -0.75 0.75 0.625
v -0.75 0.75 0.375
v -0.75 0.75 -0.375
v -0.75 0.75 -0.625
v -0.75 0.75 -0.75
v 0.75 0 0.75
v 0.75 0 -0.75
v 0.75 0.5 0.75
v 0.75 0.5 -0.75
v 0.75 0.75 0.75
v 0.75 0.75 -0.75
v -0.75 0 0.75
v -0.75 0.5 0.75
v -0.75 0.75 0.75
v -0.625 0.625 0.75
v -0.625 0.75 0.75
v -0.375 0.625 0.75
v -0.375 0.75 0.75
v 0.375 0.625 0.75
v 0.375 0.75 0.75
v 0.625 0.625 0.75
v 0.625 0.75 0.75
v 0.75 0 0.75
v 0.75 0.5 0.75
v 0.75 0.75 0.75
v -0.75 0 -0.75
v -0.75 0.5 -0.75
v -0.75 0.75 -0.75
v -0.625 0.625 -0.75
v -0.625 0.75 -0.75
v -0.375 0.625 -0.75
v -0.375 0.75 -0.75
v 0.375 0.625 -0.75
v 0.375 0.75 -0.75
v 0.625 0.625 -0.75
v 0.625 0.75 -0.75
v 0.75 0 -0.75
v 0.75 0.5 -0.75
v 0.75 0.75 -0.75
v -0.75 0 0.75
v 0.75 0 0.75
v -0.75 0 -0.75
v 0.75 0 -0.75
v -0.75 0.75 0.75
v -0.625 0.75 0.75
v -0.375 0.75 0.75
v 0.375 0.75 0.75
v 0.625 0.75 0.75
v 0.75 0.75 0.75
v -0.75 0.75 0.625
v -0.625 0.75 0.625
v -0.75 0.75 0.375
v -0.375 0.75 0.375
v -0.75 0.75 -0.375
v -0.375 0.75 -0.375
v -0.75 0.75 -0.625
v -0.625 0.75 -0.625
v -0.75 0.75 -0.75
v -0.625 0.75 -0.75
v -0.375 0.75 -0.75
v 0.375 0.75 -0.75
v 0.625 0.75 -0.75
v 0.75 0.75 -0.75

# faces
f 3/4/1 2/4/1 1/4/1
f 4/4/1 2/4/1 3/4/1
f 5/3/1 4/3/1 3/3/1
f 6/3/1 4/3/1 5/3/1
f 7/3/1 4/3/1 6/3/1
f 8/3/1 4/3/1 7/3/1
f 9/3/1 5/3/1 3/3/1
f 10/2/1 6/2/1 5/2/1
f 10/3/1 5/3/1 9/3/1
f 11/1/1 7/1/1 6/1/1
f 11/2/1 6/2/1 10/2/1
f 12/2/1 8/2/1 7/2/1
f 12/1/1 7/1/1 11/1/1
f 13/3/1 4/3/1 8/3/1
f 13/2/1 8/2/1 12/2/1
f 14/3/1 4/3/1 13/3/1
f 15/4/2 16/4/2 17/4/2
f 17/4/2 16/4/2 18/4/2
f 17/3/2 18/3/2 19/3/2
f 19/3/2 18/3/2 20/3/2
f 24/3/3 23/3/3 22/3/3
f 25/3/3 23/3/3 24/3/3
f 26/3/3 24/3/3 22/3/3
f 26/2/3 25/2/3 24/2/3
f 27/2/3 25/2/3 26/2/3
f 28/3/3 26/3/3 22/3/3
f 28/1/3 27/1/3 26/1/3
f 29/1/3 27/1/3 28/1/3
f 30/3/3 28/3/3 22/3/3
f 30/2/3 29/2/3 28/2/3
f 31/2/3 29/2/3 30/2/3
f 32/4/3 22/4/3 21/4/3
f 33/3/3 30/3/3 22/3/3
f 33/4/3 22/4/3 32/4/3
f 33/3/3 31/3/3 30/3/3
f 34/3/3 31/3/3 33/3/3
f 36/3/4 37/3/4 38/3/4
f 38/3/4 37/3/4 39/3/4
f 36/3/4 38/3/4 40/3/4
f 38/2/4 39/2/4 40/2/4
f 40/2/4 39/2/4 41/2/4
f 36/3/4 40/3/4 42/3/4
f 40/1/4 41/1/4 42/1/4
f 42/1/4 41/1/4 43/1/4
f 36/3/4 42/3/4 44/3/4
f 42/2/4 43/2/4 44/2/4
f 44/2/4 43/2/4 45/2/4
f 35/4/4 36/4/4 46/4/4
f 36/3/4 44/3/4 47/3/4
f 46/4/4 36/4/4 47/4/4
f 44/3/4 45/3/4 47/3/4
f 47/3/4 45/3/4 48/3/4
f 51/4/5 50/4/5 49/4/5
f 52/4/5 50/4/5 51/4/5
f 53/3/6 54/3/6 59/3/6
f 54/2/6 55/2/6 60/2/6
f 59/3/6 54/3/6 60/3/6
f 59/2/6 60/2/6 61/2/6
f 55/1/6 56/1/6 62/1/6
f 61/2/6 60/2/6 62/2/6
f 60/2/6 55/2/6 62/2/6
f 61/1/6 62/1/6 63/1/6
f 62/1/6 56/1/6 64/1/6
f 63/1/6 62/1/6 64/1/6
f 63/2/6 64/2/6 65/2/6
f 65/2/6 64/2/6 66/2/6
f 65/3/6 66/3/6 67/3/6
f 66/2/6 64/2/6 68/2/6
f 67/3/6 66/3/6 68/3/6
f 64/1/6 56/1/6 69/1/6
f 68/2/6 64/2/6 69/2/6
f 56/2/6 57/2/6 70/2/6
f 69/1/6 56/1/6 70/1/6
f 57/3/6 58/3/6 71/3/6
f 70/2/6 57/2/6 71/2/6
f 71/3/6 58/3/6 72/3/6
