# MagicaVoxel @ ephtracy

# material
mtllib GroundRug02.mtl
usemtl palette

# normals
vn -1 0 0
vn 1 0 0
vn 0 0 1
vn 0 0 -1
vn 0 -1 0
vn 0 1 0

# texcoords
vt 0.0878906 0.5
vt 0.166016 0.5
vt 0.939453 0.5
vt 0.966797 0.5

# verts
v -0.75 0 0.75
v -0.75 0 0.375
v -0.75 0 -0.75
v -0.75 0.125 0.75
v -0.75 0.125 0.5
v -0.75 0.125 0.375
v -0.75 0.125 -0
v -0.75 0.25 0.5
v -0.75 0.25 0.25
v -0.75 0.25 -0
v -0.75 0.25 -0.125
v -0.75 0.375 0.25
v -0.75 0.375 -0
v -0.75 0.375 -0.125
v -0.75 0.375 -0.375
v -0.75 0.5 -0
v -0.75 0.5 -0.25
v -0.75 0.5 -0.375
v -0.75 0.5 -0.75
v -0.75 0.625 -0.25
v -0.75 0.625 -0.5
v -0.75 0.75 -0.5
v -0.75 0.75 -0.75
v 0.75 0 0.75
v 0.75 0 0.25
v 0.75 0 -0.75
v 0.75 0.125 0.75
v 0.75 0.125 0.5
v 0.75 0.125 0.25
v 0.75 0.125 -0
v 0.75 0.25 0.5
v 0.75 0.25 0.25
v 0.75 0.25 -0
v 0.75 0.25 -0.25
v 0.75 0.375 0.25
v 0.75 0.375 -0
v 0.75 0.375 -0.25
v 0.75 0.375 -0.5
v 0.75 0.5 -0
v 0.75 0.5 -0.25
v 0.75 0.5 -0.5
v 0.75 0.5 -0.75
v 0.75 0.625 -0.25
v 0.75 0.625 -0.5
v 0.75 0.75 -0.5
v 0.75 0.75 -0.75
v -0.75 0 0.75
v -0.75 0.125 0.75
v -0.625 0 0.75
v -0.625 0.125 0.75
v -0.375 0 0.75
v -0.375 0.125 0.75
v 0.375 0 0.75
v 0.375 0.125 0.75
v 0.625 0 0.75
v 0.625 0.125 0.75
v 0.75 0 0.75
v 0.75 0.125 0.75
v -0.75 0.125 0.5
v -0.75 0.25 0.5
v -0.625 0.125 0.5
v -0.625 0.25 0.5
v -0.375 0.125 0.5
v -0.375 0.25 0.5
v 0.375 0.125 0.5
v 0.375 0.25 0.5
v 0.625 0.125 0.5
v 0.625 0.25 0.5
v 0.75 0.125 0.5
v 0.75 0.25 0.5
v -0.75 0.25 0.25
v -0.75 0.375 0.25
v -0.625 0.25 0.25
v -0.625 0.375 0.25
v -0.375 0.25 0.25
v -0.375 0.375 0.25
v 0.375 0.25 0.25
v 0.375 0.375 0.25
v 0.625 0.25 0.25
v 0.625 0.375 0.25
v 0.75 0.25 0.25
v 0.75 0.375 0.25
v -0.75 0.375 -0
v -0.75 0.5 -0
v -0.625 0.375 -0
v -0.625 0.5 -0
v -0.375 0.375 -0
v -0.375 0.5 -0
v 0.375 0.375 -0
v 0.375 0.5 -0
v 0.625 0.375 -0
v 0.625 0.5 -0
v 0.75 0.375 -0
v 0.75 0.5 -0
v -0.75 0.5 -0.25
v -0.75 0.625 -0.25
v -0.625 0.5 -0.25
v -0.625 0.625 -0.25
v -0.375 0.5 -0.25
v -0.375 0.625 -0.25
v 0.375 0.5 -0.25
v 0.375 0.625 -0.25
v 0.625 0.5 -0.25
v 0.625 0.625 -0.25
v 0.75 0.5 -0.25
v 0.75 0.625 -0.25
v -0.75 0.625 -0.5
v -0.75 0.75 -0.5
v -0.625 0.625 -0.5
v -0.625 0.75 -0.5
v -0.375 0.625 -0.5
v -0.375 0.75 -0.5
v 0.375 0.625 -0.5
v 0.375 0.75 -0.5
v 0.625 0.625 -0.5
v 0.625 0.75 -0.5
v 0.75 0.625 -0.5
v 0.75 0.75 -0.5
v -0.75 0 -0.75
v -0.75 0.5 -0.75
v -0.75 0.75 -0.75
v -0.625 0 -0.75
v -0.625 0.5 -0.75
v -0.625 0.75 -0.75
v -0.375 0 -0.75
v -0.375 0.75 -0.75
v 0.375 0 -0.75
v 0.375 0.75 -0.75
v 0.625 0 -0.75
v 0.625 0.5 -0.75
v 0.625 0.75 -0.75
v 0.75 0 -0.75
v 0.75 0.5 -0.75
v 0.75 0.75 -0.75
v -0.75 0 0.75
v -0.625 0 0.75
v -0.375 0 0.75
v 0.375 0 0.75
v 0.625 0 0.75
v 0.75 0 0.75
v -0.75 0 0.375
v -0.625 0 0.375
v 0.625 0 0.25
v 0.75 0 0.25
v -0.75 0 -0.75
v -0.625 0 -0.75
v -0.375 0 -0.75
v 0.375 0 -0.75
v 0.625 0 -0.75
v 0.75 0 -0.75
v -0.75 0.125 0.75
v -0.625 0.125 0.75
v -0.375 0.125 0.75
v 0.375 0.125 0.75
v 0.625 0.125 0.75
v 0.75 0.125 0.75
v -0.75 0.125 0.5
v -0.625 0.125 0.5
v -0.375 0.125 0.5
v 0.375 0.125 0.5
v 0.625 0.125 0.5
v 0.75 0.125 0.5
v -0.75 0.25 0.5
v -0.625 0.25 0.5
v -0.375 0.25 0.5
v 0.375 0.25 0.5
v 0.625 0.25 0.5
v 0.75 0.25 0.5
v -0.75 0.25 0.25
v -0.625 0.25 0.25
v -0.375 0.25 0.25
v 0.375 0.25 0.25
v 0.625 0.25 0.25
v 0.75 0.25 0.25
v -0.75 0.375 0.25
v -0.625 0.375 0.25
v -0.375 0.375 0.25
v 0.375 0.375 0.25
v 0.625 0.375 0.25
v 0.75 0.375 0.25
v -0.75 0.375 -0
v -0.625 0.375 -0
v -0.375 0.375 -0
v 0.375 0.375 -0
v 0.625 0.375 -0
v 0.75 0.375 -0
v -0.75 0.5 -0
v -0.625 0.5 -0
v -0.375 0.5 -0
v 0.375 0.5 -0
v 0.625 0.5 -0
v 0.75 0.5 -0
v -0.75 0.5 -0.25
v -0.625 0.5 -0.25
v -0.375 0.5 -0.25
v 0.375 0.5 -0.25
v 0.625 0.5 -0.25
v 0.75 0.5 -0.25
v -0.75 0.625 -0.25
v -0.625 0.625 -0.25
v -0.375 0.625 -0.25
v 0.375 0.625 -0.25
v 0.625 0.625 -0.25
v 0.75 0.625 -0.25
v -0.75 0.625 -0.5
v -0.625 0.625 -0.5
v -0.375 0.625 -0.5
v 0.375 0.625 -0.5
v 0.625 0.625 -0.5
v 0.75 0.625 -0.5
v -0.75 0.75 -0.5
v -0.625 0.75 -0.5
v -0.375 0.75 -0.5
v 0.375 0.75 -0.5
v 0.625 0.75 -0.5
v 0.75 0.75 -0.5
v -0.75 0.75 -0.75
v -0.625 0.75 -0.75
v -0.375 0.75 -0.75
v 0.375 0.75 -0.75
v 0.625 0.75 -0.75
v 0.75 0.75 -0.75

# faces
f 4/3/1 2/3/1 1/3/1
f 5/3/1 2/3/1 4/3/1
f 6/4/1 3/4/1 2/4/1
f 6/3/1 2/3/1 5/3/1
f 7/4/1 3/4/1 6/4/1
f 8/3/1 6/3/1 5/3/1
f 8/3/1 7/3/1 6/3/1
f 9/3/1 7/3/1 8/3/1
f 10/4/1 3/4/1 7/4/1
f 10/3/1 7/3/1 9/3/1
f 11/4/1 3/4/1 10/4/1
f 12/3/1 10/3/1 9/3/1
f 12/3/1 11/3/1 10/3/1
f 13/3/1 11/3/1 12/3/1
f 14/4/1 3/4/1 11/4/1
f 14/3/1 11/3/1 13/3/1
f 15/4/1 3/4/1 14/4/1
f 16/3/1 14/3/1 13/3/1
f 16/3/1 15/3/1 14/3/1
f 17/3/1 15/3/1 16/3/1
f 18/4/1 3/4/1 15/4/1
f 18/3/1 15/3/1 17/3/1
f 19/4/1 3/4/1 18/4/1
f 20/3/1 18/3/1 17/3/1
f 20/3/1 19/3/1 18/3/1
f 21/3/1 19/3/1 20/3/1
f 22/3/1 19/3/1 21/3/1
f 23/3/1 19/3/1 22/3/1
f 24/3/2 25/3/2 27/3/2
f 27/3/2 25/3/2 28/3/2
f 25/4/2 26/4/2 29/4/2
f 28/3/2 25/3/2 29/3/2
f 29/4/2 26/4/2 30/4/2
f 28/3/2 29/3/2 31/3/2
f 29/3/2 30/3/2 31/3/2
f 31/3/2 30/3/2 32/3/2
f 30/4/2 26/4/2 33/4/2
f 32/3/2 30/3/2 33/3/2
f 33/4/2 26/4/2 34/4/2
f 32/3/2 33/3/2 35/3/2
f 33/3/2 34/3/2 35/3/2
f 35/3/2 34/3/2 36/3/2
f 34/4/2 26/4/2 37/4/2
f 36/3/2 34/3/2 37/3/2
f 37/4/2 26/4/2 38/4/2
f 36/3/2 37/3/2 39/3/2
f 37/3/2 38/3/2 39/3/2
f 39/3/2 38/3/2 40/3/2
f 38/4/2 26/4/2 41/4/2
f 40/3/2 38/3/2 41/3/2
f 41/4/2 26/4/2 42/4/2
f 40/3/2 41/3/2 43/3/2
f 41/3/2 42/3/2 43/3/2
f 43/3/2 42/3/2 44/3/2
f 44/3/2 42/3/2 45/3/2
f 45/3/2 42/3/2 46/3/2
f 49/3/3 48/3/3 47/3/3
f 50/3/3 48/3/3 49/3/3
f 51/2/3 50/2/3 49/2/3
f 52/2/3 50/2/3 51/2/3
f 53/1/3 52/1/3 51/1/3
f 54/1/3 52/1/3 53/1/3
f 55/2/3 54/2/3 53/2/3
f 56/2/3 54/2/3 55/2/3
f 57/3/3 56/3/3 55/3/3
f 58/3/3 56/3/3 57/3/3
f 61/3/3 60/3/3 59/3/3
f 62/3/3 60/3/3 61/3/3
f 63/2/3 62/2/3 61/2/3
f 64/2/3 62/2/3 63/2/3
f 65/1/3 64/1/3 63/1/3
f 66/1/3 64/1/3 65/1/3
f 67/2/3 66/2/3 65/2/3
f 68/2/3 66/2/3 67/2/3
f 69/3/3 68/3/3 67/3/3
f 70/3/3 68/3/3 69/3/3
f 73/3/3 72/3/3 71/3/3
f 74/3/3 72/3/3 73/3/3
f 75/2/3 74/2/3 73/2/3
f 76/2/3 74/2/3 75/2/3
f 77/1/3 76/1/3 75/1/3
f 78/1/3 76/1/3 77/1/3
f 79/2/3 78/2/3 77/2/3
f 80/2/3 78/2/3 79/2/3
f 81/3/3 80/3/3 79/3/3
f 82/3/3 80/3/3 81/3/3
f 85/3/3 84/3/3 83/3/3
f 86/3/3 84/3/3 85/3/3
f 87/2/3 86/2/3 85/2/3
f 88/2/3 86/2/3 87/2/3
f 89/1/3 88/1/3 87/1/3
f 90/1/3 88/1/3 89/1/3
f 91/2/3 90/2/3 89/2/3
f 92/2/3 90/2/3 91/2/3
f 93/3/3 92/3/3 91/3/3
f 94/3/3 92/3/3 93/3/3
f 97/3/3 96/3/3 95/3/3
f 98/3/3 96/3/3 97/3/3
f 99/2/3 98/2/3 97/2/3
f 100/2/3 98/2/3 99/2/3
f 101/1/3 100/1/3 99/1/3
f 102/1/3 100/1/3 101/1/3
f 103/2/3 102/2/3 101/2/3
f 104/2/3 102/2/3 103/2/3
f 105/3/3 104/3/3 103/3/3
f 106/3/3 104/3/3 105/3/3
f 109/3/3 108/3/3 107/3/3
f 110/3/3 108/3/3 109/3/3
f 111/2/3 110/2/3 109/2/3
f 112/2/3 110/2/3 111/2/3
f 113/1/3 112/1/3 111/1/3
f 114/1/3 112/1/3 113/1/3
f 115/2/3 114/2/3 113/2/3
f 116/2/3 114/2/3 115/2/3
f 117/3/3 116/3/3 115/3/3
f 118/3/3 116/3/3 117/3/3
f 119/4/4 120/4/4 122/4/4
f 120/3/4 121/3/4 123/3/4
f 122/4/4 120/4/4 123/4/4
f 123/3/4 121/3/4 124/3/4
f 122/2/4 123/2/4 125/2/4
f 123/2/4 124/2/4 125/2/4
f 125/2/4 124/2/4 126/2/4
f 125/1/4 126/1/4 127/1/4
f 127/1/4 126/1/4 128/1/4
f 127/2/4 128/2/4 129/2/4
f 129/2/4 128/2/4 130/2/4
f 130/2/4 128/2/4 131/2/4
f 129/4/4 130/4/4 132/4/4
f 130/3/4 131/3/4 133/3/4
f 132/4/4 130/4/4 133/4/4
f 133/3/4 131/3/4 134/3/4
f 141/3/5 136/3/5 135/3/5
f 142/2/5 137/2/5 136/2/5
f 142/3/5 136/3/5 141/3/5
f 143/3/5 140/3/5 139/3/5
f 143/2/5 139/2/5 138/2/5
f 144/3/5 140/3/5 143/3/5
f 145/4/5 142/4/5 141/4/5
f 146/2/5 137/2/5 142/2/5
f 146/4/5 142/4/5 145/4/5
f 147/1/5 138/1/5 137/1/5
f 147/2/5 137/2/5 146/2/5
f 148/2/5 143/2/5 138/2/5
f 148/1/5 138/1/5 147/1/5
f 149/4/5 144/4/5 143/4/5
f 149/2/5 143/2/5 148/2/5
f 150/4/5 144/4/5 149/4/5
f 151/3/6 152/3/6 157/3/6
f 152/2/6 153/2/6 158/2/6
f 157/3/6 152/3/6 158/3/6
f 153/1/6 154/1/6 159/1/6
f 158/2/6 153/2/6 159/2/6
f 154/2/6 155/2/6 160/2/6
f 159/1/6 154/1/6 160/1/6
f 155/3/6 156/3/6 161/3/6
f 160/2/6 155/2/6 161/2/6
f 161/3/6 156/3/6 162/3/6
f 163/3/6 164/3/6 169/3/6
f 164/2/6 165/2/6 170/2/6
f 169/3/6 164/3/6 170/3/6
f 165/1/6 166/1/6 171/1/6
f 170/2/6 165/2/6 171/2/6
f 166/2/6 167/2/6 172/2/6
f 171/1/6 166/1/6 172/1/6
f 167/3/6 168/3/6 173/3/6
f 172/2/6 167/2/6 173/2/6
f 173/3/6 168/3/6 174/3/6
f 175/3/6 176/3/6 181/3/6
f 176/2/6 177/2/6 182/2/6
f 181/3/6 176/3/6 182/3/6
f 177/1/6 178/1/6 183/1/6
f 182/2/6 177/2/6 183/2/6
f 178/2/6 179/2/6 184/2/6
f 183/1/6 178/1/6 184/1/6
f 179/3/6 180/3/6 185/3/6
f 184/2/6 179/2/6 185/2/6
f 185/3/6 180/3/6 186/3/6
f 187/3/6 188/3/6 193/3/6
f 188/2/6 189/2/6 194/2/6
f 193/3/6 188/3/6 194/3/6
f 189/1/6 190/1/6 195/1/6
f 194/2/6 189/2/6 195/2/6
f 190/2/6 191/2/6 196/2/6
f 195/1/6 190/1/6 196/1/6
f 191/3/6 192/3/6 197/3/6
f 196/2/6 191/2/6 197/2/6
f 197/3/6 192/3/6 198/3/6
f 199/3/6 200/3/6 205/3/6
f 200/2/6 201/2/6 206/2/6
f 205/3/6 200/3/6 206/3/6
f 201/1/6 202/1/6 207/1/6
f 206/2/6 201/2/6 207/2/6
f 202/2/6 203/2/6 208/2/6
f 207/1/6 202/1/6 208/1/6
f 203/3/6 204/3/6 209/3/6
f 208/2/6 203/2/6 209/2/6
f 209/3/6 204/3/6 210/3/6
f 211/3/6 212/3/6 217/3/6
f 212/2/6 213/2/6 218/2/6
f 217/3/6 212/3/6 218/3/6
f 213/1/6 214/1/6 219/1/6
f 218/2/6 213/2/6 219/2/6
f 214/2/6 215/2/6 220/2/6
f 219/1/6 214/1/6 220/1/6
f 215/3/6 216/3/6 221/3/6
f 220/2/6 215/2/6 221/2/6
f 221/3/6 216/3/6 222/3/6
