# MagicaVoxel @ ephtracy

# material
mtllib GroundStone06.mtl
usemtl palette

# normals
vn -1 0 0
vn 1 0 0
vn 0 0 1
vn 0 0 -1
vn 0 -1 0
vn 0 1 0

# texcoords
vt 0.939453 0.5
vt 0.947266 0.5
vt 0.966797 0.5

# verts
v -0.75 0 0.75
v -0.75 0 -0.75
v -0.75 0.5 0.75
v -0.75 0.5 -0.75
v -0.75 0.75 0.75
v -0.75 0.75 -0.75
v 0.125 0.625 0.25
v 0.125 0.625 -0
v 0.125 0.625 -0.125
v 0.125 0.75 0.25
v 0.125 0.75 -0
v 0.125 0.75 -0.125
v 0.375 0.625 0.5
v 0.375 0.625 0.25
v 0.375 0.75 0.5
v 0.375 0.75 0.25
v 0.5 0.5 0.5
v 0.5 0.5 -0
v 0.5 0.625 0.5
v 0.5 0.625 -0
v 0.5 0.625 -0.125
v 0.5 0.625 -0.25
v 0.5 0.75 -0.125
v 0.5 0.75 -0.25
v 0.75 0 0.75
v 0.75 0 -0.75
v 0.75 0.5 0.75
v 0.75 0.5 0.5
v 0.75 0.5 -0
v 0.75 0.5 -0.75
v 0.75 0.625 -0
v 0.75 0.625 -0.25
v 0.75 0.75 0.75
v 0.75 0.75 0.5
v 0.75 0.75 -0.25
v 0.75 0.75 -0.75
v -0.75 0 0.75
v -0.75 0.5 0.75
v -0.75 0.75 0.75
v 0.75 0 0.75
v 0.75 0.5 0.75
v 0.75 0.75 0.75
v 0.5 0.5 -0
v 0.5 0.625 -0
v 0.75 0.5 -0
v 0.75 0.625 -0
v 0.125 0.625 -0.125
v 0.125 0.75 -0.125
v 0.25 0.625 -0.125
v 0.25 0.75 -0.125
v 0.5 0.625 -0.125
v 0.5 0.75 -0.125
v 0.5 0.625 -0.25
v 0.5 0.75 -0.25
v 0.75 0.625 -0.25
v 0.75 0.75 -0.25
v 0.375 0.625 0.5
v 0.375 0.75 0.5
v 0.5 0.5 0.5
v 0.5 0.625 0.5
v 0.75 0.5 0.5
v 0.75 0.75 0.5
v 0.125 0.625 0.25
v 0.125 0.75 0.25
v 0.375 0.625 0.25
v 0.375 0.75 0.25
v -0.75 0 -0.75
v -0.75 0.5 -0.75
v -0.75 0.75 -0.75
v 0.75 0 -0.75
v 0.75 0.5 -0.75
v 0.75 0.75 -0.75
v -0.75 0 0.75
v 0.75 0 0.75
v -0.75 0 -0.75
v 0.75 0 -0.75
v 0.5 0.5 0.5
v 0.75 0.5 0.5
v 0.5 0.5 -0
v 0.75 0.5 -0
v 0.375 0.625 0.5
v 0.5 0.625 0.5
v 0.125 0.625 0.25
v 0.375 0.625 0.25
v 0.125 0.625 -0
v 0.5 0.625 -0
v 0.75 0.625 -0
v 0.125 0.625 -0.125
v 0.25 0.625 -0.125
v 0.5 0.625 -0.125
v 0.5 0.625 -0.25
v 0.75 0.625 -0.25
v -0.75 0.75 0.75
v 0.75 0.75 0.75
v -0.625 0.75 0.5
v -0.25 0.75 0.5
v 0.375 0.75 0.5
v 0.75 0.75 0.5
v -0.5 0.75 0.375
v -0.25 0.75 0.375
v -0.625 0.75 0.25
v -0.5 0.75 0.25
v 0.125 0.75 0.25
v 0.375 0.75 0.25
v -0.125 0.75 -0
v 0.125 0.75 -0
v 0.125 0.75 -0.125
v 0.25 0.75 -0.125
v 0.5 0.75 -0.125
v -0.125 0.75 -0.25
v 0.125 0.75 -0.25
v 0.5 0.75 -0.25
v 0.75 0.75 -0.25
v 0.375 0.75 -0.375
v 0.5 0.75 -0.375
v 0.25 0.75 -0.5
v 0.375 0.75 -0.5
v -0.75 0.75 -0.75
v 0.75 0.75 -0.75

# faces
f 3/3/1 2/3/1 1/3/1
f 4/3/1 2/3/1 3/3/1
f 5/1/1 4/1/1 3/1/1
f 6/1/1 4/1/1 5/1/1
f 7/1/2 8/1/2 10/1/2
f 8/2/2 9/2/2 11/2/2
f 10/1/2 8/1/2 11/1/2
f 11/2/2 9/2/2 12/2/2
f 13/1/2 14/1/2 15/1/2
f 15/1/2 14/1/2 16/1/2
f 17/1/2 18/1/2 19/1/2
f 19/1/2 18/1/2 20/1/2
f 21/2/2 22/2/2 23/2/2
f 23/2/2 22/2/2 24/2/2
f 25/3/2 26/3/2 27/3/2
f 27/3/2 26/3/2 28/3/2
f 28/3/2 26/3/2 29/3/2
f 29/3/2 26/3/2 30/3/2
f 29/1/2 30/1/2 31/1/2
f 31/1/2 30/1/2 32/1/2
f 27/1/2 28/1/2 33/1/2
f 33/1/2 28/1/2 34/1/2
f 32/1/2 30/1/2 35/1/2
f 35/1/2 30/1/2 36/1/2
f 40/3/3 38/3/3 37/3/3
f 41/1/3 39/1/3 38/1/3
f 41/3/3 38/3/3 40/3/3
f 42/1/3 39/1/3 41/1/3
f 45/1/3 44/1/3 43/1/3
f 46/1/3 44/1/3 45/1/3
f 49/1/3 48/1/3 47/1/3
f 50/1/3 48/1/3 49/1/3
f 51/2/3 50/2/3 49/2/3
f 52/2/3 50/2/3 51/2/3
f 55/1/3 54/1/3 53/1/3
f 56/1/3 54/1/3 55/1/3
f 57/1/4 58/1/4 60/1/4
f 59/1/4 60/1/4 61/1/4
f 60/1/4 58/1/4 62/1/4
f 61/1/4 60/1/4 62/1/4
f 63/1/4 64/1/4 65/1/4
f 65/1/4 64/1/4 66/1/4
f 67/3/4 68/3/4 70/3/4
f 68/1/4 69/1/4 71/1/4
f 70/3/4 68/3/4 71/3/4
f 71/1/4 69/1/4 72/1/4
f 75/3/5 74/3/5 73/3/5
f 76/3/5 74/3/5 75/3/5
f 77/3/6 78/3/6 79/3/6
f 79/3/6 78/3/6 80/3/6
f 81/1/6 82/1/6 84/1/6
f 83/1/6 84/1/6 85/1/6
f 84/1/6 82/1/6 86/1/6
f 85/1/6 84/1/6 86/1/6
f 85/1/6 86/1/6 88/1/6
f 86/1/6 87/1/6 88/1/6
f 88/1/6 87/1/6 89/1/6
f 89/1/6 87/1/6 90/1/6
f 90/1/6 87/1/6 91/1/6
f 91/1/6 87/1/6 92/1/6
f 93/1/6 94/1/6 95/1/6
f 95/1/6 94/1/6 96/1/6
f 96/1/6 94/1/6 97/1/6
f 97/1/6 94/1/6 98/1/6
f 95/2/6 96/2/6 99/2/6
f 96/1/6 97/1/6 100/1/6
f 99/2/6 96/2/6 100/2/6
f 93/1/6 95/1/6 101/1/6
f 95/2/6 99/2/6 101/2/6
f 99/1/6 100/1/6 102/1/6
f 101/2/6 99/2/6 102/2/6
f 100/1/6 97/1/6 103/1/6
f 102/1/6 100/1/6 103/1/6
f 103/1/6 97/1/6 104/1/6
f 101/1/6 102/1/6 105/1/6
f 102/1/6 103/1/6 105/1/6
f 105/1/6 103/1/6 106/1/6
f 105/2/6 106/2/6 107/2/6
f 101/1/6 105/1/6 110/1/6
f 105/2/6 107/2/6 110/2/6
f 107/1/6 108/1/6 111/1/6
f 110/2/6 107/2/6 111/2/6
f 108/2/6 109/2/6 112/2/6
f 108/2/6 112/2/6 114/2/6
f 112/1/6 113/1/6 115/1/6
f 114/2/6 112/2/6 115/2/6
f 111/1/6 108/1/6 116/1/6
f 110/1/6 111/1/6 116/1/6
f 108/2/6 114/2/6 116/2/6
f 114/1/6 115/1/6 117/1/6
f 116/2/6 114/2/6 117/2/6
f 101/1/6 110/1/6 118/1/6
f 93/1/6 101/1/6 118/1/6
f 116/1/6 117/1/6 118/1/6
f 110/1/6 116/1/6 118/1/6
f 117/1/6 115/1/6 119/1/6
f 118/1/6 117/1/6 119/1/6
f 115/1/6 113/1/6 119/1/6
