# MagicaVoxel @ ephtracy

# material
mtllib GroundRug01.mtl
usemtl palette

# normals
vn -1 0 0
vn 1 0 0
vn 0 0 1
vn 0 0 -1
vn 0 -1 0
vn 0 1 0

# texcoords
vt 0.0878906 0.5
vt 0.169922 0.5
vt 0.939453 0.5
vt 0.966797 0.5

# verts
v -0.75 0 0.75
v -0.75 0 -0.75
v -0.75 0.5 0.75
v -0.75 0.5 -0.75
v -0.75 0.75 0.75
v -0.75 0.75 -0.75
v 0.75 0 0.75
v 0.75 0 -0.75
v 0.75 0.5 0.75
v 0.75 0.5 -0.75
v 0.75 0.75 0.75
v 0.75 0.75 -0.75
v -0.75 0 0.75
v -0.75 0.5 0.75
v -0.75 0.75 0.75
v -0.625 0.625 0.75
v -0.625 0.75 0.75
v -0.375 0.625 0.75
v -0.375 0.75 0.75
v 0.375 0.625 0.75
v 0.375 0.75 0.75
v 0.625 0.625 0.75
v 0.625 0.75 0.75
v 0.75 0 0.75
v 0.75 0.5 0.75
v 0.75 0.75 0.75
v -0.75 0 -0.75
v -0.75 0.5 -0.75
v -0.75 0.75 -0.75
v -0.625 0.625 -0.75
v -0.625 0.75 -0.75
v -0.375 0.625 -0.75
v -0.375 0.75 -0.75
v 0.375 0.625 -0.75
v 0.375 0.75 -0.75
v 0.625 0.625 -0.75
v 0.625 0.75 -0.75
v 0.75 0 -0.75
v 0.75 0.5 -0.75
v 0.75 0.75 -0.75
v -0.75 0 0.75
v 0.75 0 0.75
v -0.75 0 -0.75
v 0.75 0 -0.75
v -0.75 0.75 0.75
v -0.625 0.75 0.75
v -0.375 0.75 0.75
v 0.375 0.75 0.75
v 0.625 0.75 0.75
v 0.75 0.75 0.75
v -0.75 0.75 -0.75
v -0.625 0.75 -0.75
v -0.375 0.75 -0.75
v 0.375 0.75 -0.75
v 0.625 0.75 -0.75
v 0.75 0.75 -0.75

# faces
f 3/4/1 2/4/1 1/4/1
f 4/4/1 2/4/1 3/4/1
f 5/3/1 4/3/1 3/3/1
f 6/3/1 4/3/1 5/3/1
f 7/4/2 8/4/2 9/4/2
f 9/4/2 8/4/2 10/4/2
f 9/3/2 10/3/2 11/3/2
f 11/3/2 10/3/2 12/3/2
f 16/3/3 15/3/3 14/3/3
f 17/3/3 15/3/3 16/3/3
f 18/3/3 16/3/3 14/3/3
f 18/2/3 17/2/3 16/2/3
f 19/2/3 17/2/3 18/2/3
f 20/3/3 18/3/3 14/3/3
f 20/1/3 19/1/3 18/1/3
f 21/1/3 19/1/3 20/1/3
f 22/3/3 20/3/3 14/3/3
f 22/2/3 21/2/3 20/2/3
f 23/2/3 21/2/3 22/2/3
f 24/4/3 14/4/3 13/4/3
f 25/3/3 22/3/3 14/3/3
f 25/4/3 14/4/3 24/4/3
f 25/3/3 23/3/3 22/3/3
f 26/3/3 23/3/3 25/3/3
f 28/3/4 29/3/4 30/3/4
f 30/3/4 29/3/4 31/3/4
f 28/3/4 30/3/4 32/3/4
f 30/2/4 31/2/4 32/2/4
f 32/2/4 31/2/4 33/2/4
f 28/3/4 32/3/4 34/3/4
f 32/1/4 33/1/4 34/1/4
f 34/1/4 33/1/4 35/1/4
f 28/3/4 34/3/4 36/3/4
f 34/2/4 35/2/4 36/2/4
f 36/2/4 35/2/4 37/2/4
f 27/4/4 28/4/4 38/4/4
f 28/3/4 36/3/4 39/3/4
f 38/4/4 28/4/4 39/4/4
f 36/3/4 37/3/4 39/3/4
f 39/3/4 37/3/4 40/3/4
f 43/4/5 42/4/5 41/4/5
f 44/4/5 42/4/5 43/4/5
f 45/3/6 46/3/6 51/3/6
f 46/2/6 47/2/6 52/2/6
f 51/3/6 46/3/6 52/3/6
f 47/1/6 48/1/6 53/1/6
f 52/2/6 47/2/6 53/2/6
f 48/2/6 49/2/6 54/2/6
f 53/1/6 48/1/6 54/1/6
f 49/3/6 50/3/6 55/3/6
f 54/2/6 49/2/6 55/2/6
f 55/3/6 50/3/6 56/3/6
