# MagicaVoxel @ ephtracy

# material
mtllib GroundTrapSpikes01.mtl
usemtl palette

# normals
vn -1 0 0
vn 1 0 0
vn 0 0 1
vn 0 0 -1
vn 0 -1 0
vn 0 1 0

# texcoords
vt 0.939453 0.5
vt 0.966797 0.5
vt 0.994141 0.5

# verts
v -0.75 0 0.75
v -0.75 0 -0.75
v -0.75 0.5 0.75
v -0.75 0.5 -0.75
v -0.75 0.75 0.75
v -0.75 0.75 -0.75
v 0.75 0 0.75
v 0.75 0 -0.75
v 0.75 0.5 0.75
v 0.75 0.5 -0.75
v 0.75 0.75 0.75
v 0.75 0.75 -0.75
v -0.75 0 0.75
v -0.75 0.5 0.75
v -0.75 0.75 0.75
v 0.75 0 0.75
v 0.75 0.5 0.75
v 0.75 0.75 0.75
v -0.75 0 -0.75
v -0.75 0.5 -0.75
v -0.75 0.75 -0.75
v 0.75 0 -0.75
v 0.75 0.5 -0.75
v 0.75 0.75 -0.75
v -0.75 0 0.75
v 0.75 0 0.75
v -0.75 0 -0.75
v 0.75 0 -0.75
v -0.75 0.75 0.75
v 0.75 0.75 0.75
v -0.625 0.75 0.625
v -0.5 0.75 0.625
v -0.25 0.75 0.625
v -0.125 0.75 0.625
v 0.125 0.75 0.625
v 0.25 0.75 0.625
v 0.5 0.75 0.625
v 0.625 0.75 0.625
v -0.625 0.75 0.5
v -0.5 0.75 0.5
v -0.25 0.75 0.5
v -0.125 0.75 0.5
v 0.125 0.75 0.5
v 0.25 0.75 0.5
v 0.5 0.75 0.5
v 0.625 0.75 0.5
v -0.625 0.75 0.25
v -0.5 0.75 0.25
v -0.25 0.75 0.25
v -0.125 0.75 0.25
v 0.125 0.75 0.25
v 0.25 0.75 0.25
v 0.5 0.75 0.25
v 0.625 0.75 0.25
v -0.625 0.75 0.125
v -0.5 0.75 0.125
v -0.25 0.75 0.125
v -0.125 0.75 0.125
v 0.125 0.75 0.125
v 0.25 0.75 0.125
v 0.5 0.75 0.125
v 0.625 0.75 0.125
v -0.625 0.75 -0.125
v -0.5 0.75 -0.125
v -0.25 0.75 -0.125
v -0.125 0.75 -0.125
v 0.125 0.75 -0.125
v 0.25 0.75 -0.125
v 0.5 0.75 -0.125
v 0.625 0.75 -0.125
v -0.625 0.75 -0.25
v -0.5 0.75 -0.25
v -0.25 0.75 -0.25
v -0.125 0.75 -0.25
v 0.125 0.75 -0.25
v 0.25 0.75 -0.25
v 0.5 0.75 -0.25
v 0.625 0.75 -0.25
v -0.625 0.75 -0.5
v -0.5 0.75 -0.5
v -0.25 0.75 -0.5
v -0.125 0.75 -0.5
v 0.125 0.75 -0.5
v 0.25 0.75 -0.5
v 0.5 0.75 -0.5
v 0.625 0.75 -0.5
v -0.625 0.75 -0.625
v -0.5 0.75 -0.625
v -0.25 0.75 -0.625
v -0.125 0.75 -0.625
v 0.125 0.75 -0.625
v 0.25 0.75 -0.625
v 0.5 0.75 -0.625
v 0.625 0.75 -0.625
v -0.75 0.75 -0.75
v 0.75 0.75 -0.75

# faces
f 3/2/1 2/2/1 1/2/1
f 4/2/1 2/2/1 3/2/1
f 5/1/1 4/1/1 3/1/1
f 6/1/1 4/1/1 5/1/1
f 7/2/2 8/2/2 9/2/2
f 9/2/2 8/2/2 10/2/2
f 9/1/2 10/1/2 11/1/2
f 11/1/2 10/1/2 12/1/2
f 16/2/3 14/2/3 13/2/3
f 17/1/3 15/1/3 14/1/3
f 17/2/3 14/2/3 16/2/3
f 18/1/3 15/1/3 17/1/3
f 19/2/4 20/2/4 22/2/4
f 20/1/4 21/1/4 23/1/4
f 22/2/4 20/2/4 23/2/4
f 23/1/4 21/1/4 24/1/4
f 27/2/5 26/2/5 25/2/5
f 28/2/5 26/2/5 27/2/5
f 29/1/6 30/1/6 31/1/6
f 31/1/6 30/1/6 32/1/6
f 32/1/6 30/1/6 33/1/6
f 33/1/6 30/1/6 34/1/6
f 34/1/6 30/1/6 35/1/6
f 35/1/6 30/1/6 36/1/6
f 36/1/6 30/1/6 37/1/6
f 37/1/6 30/1/6 38/1/6
f 29/1/6 31/1/6 39/1/6
f 31/3/6 32/3/6 39/3/6
f 32/1/6 33/1/6 40/1/6
f 39/3/6 32/3/6 40/3/6
f 33/3/6 34/3/6 41/3/6
f 40/1/6 33/1/6 41/1/6
f 34/1/6 35/1/6 42/1/6
f 41/3/6 34/3/6 42/3/6
f 35/3/6 36/3/6 43/3/6
f 42/1/6 35/1/6 43/1/6
f 36/1/6 37/1/6 44/1/6
f 43/3/6 36/3/6 44/3/6
f 37/3/6 38/3/6 45/3/6
f 44/1/6 37/1/6 45/1/6
f 38/1/6 30/1/6 46/1/6
f 45/3/6 38/3/6 46/3/6
f 44/1/6 45/1/6 47/1/6
f 43/1/6 44/1/6 47/1/6
f 45/1/6 46/1/6 47/1/6
f 42/1/6 43/1/6 47/1/6
f 41/1/6 42/1/6 47/1/6
f 40/1/6 41/1/6 47/1/6
f 39/1/6 40/1/6 47/1/6
f 29/1/6 39/1/6 47/1/6
f 47/1/6 46/1/6 48/1/6
f 48/1/6 46/1/6 49/1/6
f 49/1/6 46/1/6 50/1/6
f 50/1/6 46/1/6 51/1/6
f 51/1/6 46/1/6 52/1/6
f 52/1/6 46/1/6 53/1/6
f 46/1/6 30/1/6 54/1/6
f 53/1/6 46/1/6 54/1/6
f 29/1/6 47/1/6 55/1/6
f 47/3/6 48/3/6 55/3/6
f 48/1/6 49/1/6 56/1/6
f 55/3/6 48/3/6 56/3/6
f 49/3/6 50/3/6 57/3/6
f 56/1/6 49/1/6 57/1/6
f 50/1/6 51/1/6 58/1/6
f 57/3/6 50/3/6 58/3/6
f 51/3/6 52/3/6 59/3/6
f 58/1/6 51/1/6 59/1/6
f 52/1/6 53/1/6 60/1/6
f 59/3/6 52/3/6 60/3/6
f 53/3/6 54/3/6 61/3/6
f 60/1/6 53/1/6 61/1/6
f 54/1/6 30/1/6 62/1/6
f 61/3/6 54/3/6 62/3/6
f 58/1/6 59/1/6 63/1/6
f 60/1/6 61/1/6 63/1/6
f 61/1/6 62/1/6 63/1/6
f 57/1/6 58/1/6 63/1/6
f 56/1/6 57/1/6 63/1/6
f 55/1/6 56/1/6 63/1/6
f 29/1/6 55/1/6 63/1/6
f 59/1/6 60/1/6 63/1/6
f 63/1/6 62/1/6 64/1/6
f 64/1/6 62/1/6 65/1/6
f 65/1/6 62/1/6 66/1/6
f 66/1/6 62/1/6 67/1/6
f 67/1/6 62/1/6 68/1/6
f 68/1/6 62/1/6 69/1/6
f 62/1/6 30/1/6 70/1/6
f 69/1/6 62/1/6 70/1/6
f 29/1/6 63/1/6 71/1/6
f 63/3/6 64/3/6 71/3/6
f 64/1/6 65/1/6 72/1/6
f 71/3/6 64/3/6 72/3/6
f 65/3/6 66/3/6 73/3/6
f 72/1/6 65/1/6 73/1/6
f 66/1/6 67/1/6 74/1/6
f 73/3/6 66/3/6 74/3/6
f 67/3/6 68/3/6 75/3/6
f 74/1/6 67/1/6 75/1/6
f 68/1/6 69/1/6 76/1/6
f 75/3/6 68/3/6 76/3/6
f 69/3/6 70/3/6 77/3/6
f 76/1/6 69/1/6 77/1/6
f 70/1/6 30/1/6 78/1/6
f 77/3/6 70/3/6 78/3/6
f 74/1/6 75/1/6 79/1/6
f 76/1/6 77/1/6 79/1/6
f 77/1/6 78/1/6 79/1/6
f 73/1/6 74/1/6 79/1/6
f 72/1/6 73/1/6 79/1/6
f 71/1/6 72/1/6 79/1/6
f 29/1/6 71/1/6 79/1/6
f 75/1/6 76/1/6 79/1/6
f 79/1/6 78/1/6 80/1/6
f 80/1/6 78/1/6 81/1/6
f 81/1/6 78/1/6 82/1/6
f 82/1/6 78/1/6 83/1/6
f 83/1/6 78/1/6 84/1/6
f 84/1/6 78/1/6 85/1/6
f 78/1/6 30/1/6 86/1/6
f 85/1/6 78/1/6 86/1/6
f 29/1/6 79/1/6 87/1/6
f 79/3/6 80/3/6 87/3/6
f 80/1/6 81/1/6 88/1/6
f 87/3/6 80/3/6 88/3/6
f 81/3/6 82/3/6 89/3/6
f 88/1/6 81/1/6 89/1/6
f 82/1/6 83/1/6 90/1/6
f 89/3/6 82/3/6 90/3/6
f 83/3/6 84/3/6 91/3/6
f 90/1/6 83/1/6 91/1/6
f 84/1/6 85/1/6 92/1/6
f 91/3/6 84/3/6 92/3/6
f 85/3/6 86/3/6 93/3/6
f 92/1/6 85/1/6 93/1/6
f 86/1/6 30/1/6 94/1/6
f 93/3/6 86/3/6 94/3/6
f 90/1/6 91/1/6 95/1/6
f 92/1/6 93/1/6 95/1/6
f 93/1/6 94/1/6 95/1/6
f 89/1/6 90/1/6 95/1/6
f 88/1/6 89/1/6 95/1/6
f 87/1/6 88/1/6 95/1/6
f 29/1/6 87/1/6 95/1/6
f 91/1/6 92/1/6 95/1/6
f 94/1/6 30/1/6 96/1/6
f 95/1/6 94/1/6 96/1/6
