# MagicaVoxel @ ephtracy

# material
mtllib StairsStone01.mtl
usemtl palette

# normals
vn -1 0 0
vn 1 0 0
vn 0 0 1
vn 0 0 -1
vn 0 -1 0
vn 0 1 0

# texcoords
vt 0.939453 0.5
vt 0.966797 0.5

# verts
v -0.75 0 0.75
v -0.75 0 0.375
v -0.75 0 -0.75
v -0.75 0.125 0.75
v -0.75 0.125 0.5
v -0.75 0.125 0.375
v -0.75 0.125 -0
v -0.75 0.25 0.5
v -0.75 0.25 0.25
v -0.75 0.25 -0
v -0.75 0.25 -0.125
v -0.75 0.375 0.25
v -0.75 0.375 -0
v -0.75 0.375 -0.125
v -0.75 0.375 -0.375
v -0.75 0.5 -0
v -0.75 0.5 -0.25
v -0.75 0.5 -0.375
v -0.75 0.5 -0.75
v -0.75 0.625 -0.25
v -0.75 0.625 -0.5
v -0.75 0.75 -0.5
v -0.75 0.75 -0.75
v 0.75 0 0.75
v 0.75 0 0.25
v 0.75 0 -0.75
v 0.75 0.125 0.75
v 0.75 0.125 0.5
v 0.75 0.125 0.25
v 0.75 0.125 -0
v 0.75 0.25 0.5
v 0.75 0.25 0.25
v 0.75 0.25 -0
v 0.75 0.25 -0.25
v 0.75 0.375 0.25
v 0.75 0.375 -0
v 0.75 0.375 -0.25
v 0.75 0.375 -0.5
v 0.75 0.5 -0
v 0.75 0.5 -0.25
v 0.75 0.5 -0.5
v 0.75 0.5 -0.75
v 0.75 0.625 -0.25
v 0.75 0.625 -0.5
v 0.75 0.75 -0.5
v 0.75 0.75 -0.75
v -0.75 0 0.75
v -0.75 0.125 0.75
v 0.75 0 0.75
v 0.75 0.125 0.75
v -0.75 0.125 0.5
v -0.75 0.25 0.5
v 0.75 0.125 0.5
v 0.75 0.25 0.5
v -0.75 0.25 0.25
v -0.75 0.375 0.25
v 0.75 0.25 0.25
v 0.75 0.375 0.25
v -0.75 0.375 -0
v -0.75 0.5 -0
v 0.75 0.375 -0
v 0.75 0.5 -0
v -0.75 0.5 -0.25
v -0.75 0.625 -0.25
v 0.75 0.5 -0.25
v 0.75 0.625 -0.25
v -0.75 0.625 -0.5
v -0.75 0.75 -0.5
v 0.75 0.625 -0.5
v 0.75 0.75 -0.5
v -0.75 0 -0.75
v -0.75 0.5 -0.75
v -0.75 0.75 -0.75
v 0.75 0 -0.75
v 0.75 0.5 -0.75
v 0.75 0.75 -0.75
v -0.75 0 0.75
v 0.75 0 0.75
v -0.75 0 0.375
v -0.625 0 0.375
v -0.625 0 0.25
v 0.75 0 0.25
v -0.75 0 -0.75
v 0.75 0 -0.75
v -0.75 0.125 0.75
v 0.75 0.125 0.75
v -0.75 0.125 0.5
v 0.75 0.125 0.5
v -0.75 0.25 0.5
v 0.75 0.25 0.5
v -0.75 0.25 0.25
v 0.75 0.25 0.25
v -0.75 0.375 0.25
v 0.75 0.375 0.25
v -0.75 0.375 -0
v 0.75 0.375 -0
v -0.75 0.5 -0
v 0.75 0.5 -0
v -0.75 0.5 -0.25
v 0.75 0.5 -0.25
v -0.75 0.625 -0.25
v 0.75 0.625 -0.25
v -0.75 0.625 -0.5
v 0.75 0.625 -0.5
v -0.75 0.75 -0.5
v 0.75 0.75 -0.5
v -0.75 0.75 -0.75
v 0.75 0.75 -0.75

# faces
f 4/1/1 2/1/1 1/1/1
f 5/1/1 2/1/1 4/1/1
f 6/2/1 3/2/1 2/2/1
f 6/1/1 2/1/1 5/1/1
f 7/2/1 3/2/1 6/2/1
f 8/1/1 6/1/1 5/1/1
f 8/1/1 7/1/1 6/1/1
f 9/1/1 7/1/1 8/1/1
f 10/2/1 3/2/1 7/2/1
f 10/1/1 7/1/1 9/1/1
f 11/2/1 3/2/1 10/2/1
f 12/1/1 10/1/1 9/1/1
f 12/1/1 11/1/1 10/1/1
f 13/1/1 11/1/1 12/1/1
f 14/2/1 3/2/1 11/2/1
f 14/1/1 11/1/1 13/1/1
f 15/2/1 3/2/1 14/2/1
f 16/1/1 14/1/1 13/1/1
f 16/1/1 15/1/1 14/1/1
f 17/1/1 15/1/1 16/1/1
f 18/2/1 3/2/1 15/2/1
f 18/1/1 15/1/1 17/1/1
f 19/2/1 3/2/1 18/2/1
f 20/1/1 18/1/1 17/1/1
f 20/1/1 19/1/1 18/1/1
f 21/1/1 19/1/1 20/1/1
f 22/1/1 19/1/1 21/1/1
f 23/1/1 19/1/1 22/1/1
f 24/1/2 25/1/2 27/1/2
f 27/1/2 25/1/2 28/1/2
f 25/2/2 26/2/2 29/2/2
f 28/1/2 25/1/2 29/1/2
f 29/2/2 26/2/2 30/2/2
f 28/1/2 29/1/2 31/1/2
f 29/1/2 30/1/2 31/1/2
f 31/1/2 30/1/2 32/1/2
f 30/2/2 26/2/2 33/2/2
f 32/1/2 30/1/2 33/1/2
f 33/2/2 26/2/2 34/2/2
f 32/1/2 33/1/2 35/1/2
f 33/1/2 34/1/2 35/1/2
f 35/1/2 34/1/2 36/1/2
f 34/2/2 26/2/2 37/2/2
f 36/1/2 34/1/2 37/1/2
f 37/2/2 26/2/2 38/2/2
f 36/1/2 37/1/2 39/1/2
f 37/1/2 38/1/2 39/1/2
f 39/1/2 38/1/2 40/1/2
f 38/2/2 26/2/2 41/2/2
f 40/1/2 38/1/2 41/1/2
f 41/2/2 26/2/2 42/2/2
f 40/1/2 41/1/2 43/1/2
f 41/1/2 42/1/2 43/1/2
f 43/1/2 42/1/2 44/1/2
f 44/1/2 42/1/2 45/1/2
f 45/1/2 42/1/2 46/1/2
f 49/1/3 48/1/3 47/1/3
f 50/1/3 48/1/3 49/1/3
f 53/1/3 52/1/3 51/1/3
f 54/1/3 52/1/3 53/1/3
f 57/1/3 56/1/3 55/1/3
f 58/1/3 56/1/3 57/1/3
f 61/1/3 60/1/3 59/1/3
f 62/1/3 60/1/3 61/1/3
f 65/1/3 64/1/3 63/1/3
f 66/1/3 64/1/3 65/1/3
f 69/1/3 68/1/3 67/1/3
f 70/1/3 68/1/3 69/1/3
f 71/2/4 72/2/4 74/2/4
f 72/1/4 73/1/4 75/1/4
f 74/2/4 72/2/4 75/2/4
f 75/1/4 73/1/4 76/1/4
f 79/1/5 78/1/5 77/1/5
f 80/1/5 78/1/5 79/1/5
f 81/2/5 80/2/5 79/2/5
f 81/1/5 78/1/5 80/1/5
f 82/1/5 78/1/5 81/1/5
f 83/2/5 81/2/5 79/2/5
f 83/2/5 82/2/5 81/2/5
f 84/2/5 82/2/5 83/2/5
f 85/1/6 86/1/6 87/1/6
f 87/1/6 86/1/6 88/1/6
f 89/1/6 90/1/6 91/1/6
f 91/1/6 90/1/6 92/1/6
f 93/1/6 94/1/6 95/1/6
f 95/1/6 94/1/6 96/1/6
f 97/1/6 98/1/6 99/1/6
f 99/1/6 98/1/6 100/1/6
f 101/1/6 102/1/6 103/1/6
f 103/1/6 102/1/6 104/1/6
f 105/1/6 106/1/6 107/1/6
f 107/1/6 106/1/6 108/1/6
