# MagicaVoxel @ ephtracy

# material
mtllib StairsStone02.mtl
usemtl palette

# normals
vn -1 0 0
vn 1 0 0
vn 0 0 1
vn 0 0 -1
vn 0 -1 0
vn 0 1 0

# texcoords
vt 0.939453 0.5
vt 0.966797 0.5

# verts
v -6 0 12
v -6 0 8
v -6 0 -12
v -6 1 12
v -6 1 10
v -6 1 8
v -6 1 7
v -6 2 10
v -6 2 8
v -6 2 7
v -6 2 5
v -6 2 -0
v -6 2 -2
v -6 3 8
v -6 3 6
v -6 3 5
v -6 3 3
v -6 3 -0
v -6 3 -2
v -6 4 6
v -6 4 4
v -6 4 3
v -6 4 1
v -6 4 -7
v -6 4 -9
v -6 5 4
v -6 5 2
v -6 5 1
v -6 5 -1
v -6 5 -7
v -6 5 -8
v -6 5 -9
v -6 5 -10
v -6 6 2
v -6 6 -0
v -6 6 -1
v -6 6 -4
v -6 6 -8
v -6 6 -10
v -6 7 -0
v -6 7 -2
v -6 7 -4
v -6 7 -5
v -6 8 -2
v -6 8 -4
v -6 8 -5
v -6 8 -7
v -6 9 -4
v -6 9 -6
v -6 9 -7
v -6 9 -9
v -6 10 -6
v -6 10 -8
v -6 10 -9
v -6 10 -11
v -6 11 -8
v -6 11 -10
v -6 11 -11
v -6 11 -12
v -6 12 -10
v -6 12 -12
v -5 2 -0
v -5 2 -2
v -5 3 -0
v -5 3 -2
v -5 4 -7
v -5 4 -9
v -5 5 -7
v -5 5 -8
v -5 5 -9
v -5 5 -10
v -5 6 -8
v -5 6 -10
v 5 4 -3
v 5 4 -5
v 5 5 -3
v 5 5 -5
v 6 0 12
v 6 0 9
v 6 0 -12
v 6 1 12
v 6 1 10
v 6 1 9
v 6 1 7
v 6 2 10
v 6 2 8
v 6 2 7
v 6 2 5
v 6 3 8
v 6 3 6
v 6 3 5
v 6 3 3
v 6 4 6
v 6 4 4
v 6 4 3
v 6 4 1
v 6 4 -3
v 6 4 -5
v 6 5 4
v 6 5 2
v 6 5 1
v 6 5 -1
v 6 5 -3
v 6 5 -5
v 6 6 2
v 6 6 -0
v 6 6 -1
v 6 6 -3
v 6 7 -0
v 6 7 -2
v 6 7 -3
v 6 7 -5
v 6 8 -2
v 6 8 -4
v 6 8 -5
v 6 8 -7
v 6 9 -4
v 6 9 -6
v 6 9 -7
v 6 9 -9
v 6 10 -6
v 6 10 -8
v 6 10 -9
v 6 10 -11
v 6 11 -8
v 6 11 -10
v 6 11 -11
v 6 11 -12
v 6 12 -10
v 6 12 -12
v -6 0 12
v -6 1 12
v 6 0 12
v 6 1 12
v -6 1 10
v -6 2 10
v 6 1 10
v 6 2 10
v -6 2 8
v -6 3 8
v 6 2 8
v 6 3 8
v -6 3 6
v -6 4 6
v 6 3 6
v 6 4 6
v -6 4 4
v -6 5 4
v 6 4 4
v 6 5 4
v -6 5 2
v -6 6 2
v 6 5 2
v 6 6 2
v -6 6 -0
v -6 7 -0
v 6 6 -0
v 6 7 -0
v -6 2 -2
v -6 3 -2
v -6 7 -2
v -6 8 -2
v -5 2 -2
v -5 3 -2
v 6 7 -2
v 6 8 -2
v -6 8 -4
v -6 9 -4
v 6 8 -4
v 6 9 -4
v 5 4 -5
v 5 5 -5
v 6 4 -5
v 6 5 -5
v -6 9 -6
v -6 10 -6
v 6 9 -6
v 6 10 -6
v -6 10 -8
v -6 11 -8
v 6 10 -8
v 6 11 -8
v -6 4 -9
v -6 5 -9
v -5 4 -9
v -5 5 -9
v -6 5 -10
v -6 6 -10
v -6 11 -10
v -6 12 -10
v -5 5 -10
v -5 6 -10
v 6 11 -10
v 6 12 -10
v -6 2 -0
v -6 3 -0
v -5 2 -0
v -5 3 -0
v 5 4 -3
v 5 5 -3
v 6 4 -3
v 6 5 -3
v -6 4 -7
v -6 5 -7
v -5 4 -7
v -5 5 -7
v -6 5 -8
v -6 6 -8
v -5 5 -8
v -5 6 -8
v -6 0 -12
v -6 11 -12
v -6 12 -12
v -5 0 -12
v -5 11 -12
v 5 0 -12
v 5 11 -12
v 6 0 -12
v 6 11 -12
v 6 12 -12
v -6 0 12
v 6 0 12
v 5 0 9
v 6 0 9
v -6 0 8
v -5 0 8
v -6 0 -12
v -5 0 -12
v 5 0 -12
v 6 0 -12
v -6 3 -0
v -5 3 -0
v -6 3 -2
v -5 3 -2
v 5 5 -3
v 6 5 -3
v 5 5 -5
v 6 5 -5
v -6 5 -7
v -5 5 -7
v -6 5 -8
v -5 5 -8
v -6 6 -8
v -5 6 -8
v -6 6 -10
v -5 6 -10
v -6 1 12
v 6 1 12
v -6 1 10
v 6 1 10
v -6 2 10
v 6 2 10
v -6 2 8
v 6 2 8
v -6 2 -0
v -5 2 -0
v -6 2 -2
v -5 2 -2
v -6 3 8
v 6 3 8
v -6 3 6
v 6 3 6
v -6 4 6
v 6 4 6
v -6 4 4
v 6 4 4
v 5 4 -3
v 6 4 -3
v 5 4 -5
v 6 4 -5
v -6 4 -7
v -5 4 -7
v -6 4 -9
v -5 4 -9
v -6 5 4
v 6 5 4
v -6 5 2
v 6 5 2
v -6 5 -9
v -5 5 -9
v -6 5 -10
v -5 5 -10
v -6 6 2
v 6 6 2
v -6 6 -0
v 6 6 -0
v -6 7 -0
v 6 7 -0
v -6 7 -2
v 6 7 -2
v -6 8 -2
v 6 8 -2
v -6 8 -4
v 6 8 -4
v -6 9 -4
v 6 9 -4
v -6 9 -6
v 6 9 -6
v -6 10 -6
v 6 10 -6
v -6 10 -8
v 6 10 -8
v -6 11 -8
v 6 11 -8
v -6 11 -10
v 6 11 -10
v -6 12 -10
v 6 12 -10
v -6 12 -12
v 6 12 -12

# faces
f 4/1/1 2/1/1 1/1/1
f 5/1/1 2/1/1 4/1/1
f 6/2/1 3/2/1 2/2/1
f 6/1/1 2/1/1 5/1/1
f 7/2/1 3/2/1 6/2/1
f 8/1/1 6/1/1 5/1/1
f 8/1/1 7/1/1 6/1/1
f 9/1/1 7/1/1 8/1/1
f 10/2/1 3/2/1 7/2/1
f 10/1/1 7/1/1 9/1/1
f 11/2/1 3/2/1 10/2/1
f 12/2/1 3/2/1 11/2/1
f 13/2/1 3/2/1 12/2/1
f 14/1/1 10/1/1 9/1/1
f 14/1/1 11/1/1 10/1/1
f 15/1/1 11/1/1 14/1/1
f 16/2/1 12/2/1 11/2/1
f 16/1/1 11/1/1 15/1/1
f 17/2/1 12/2/1 16/2/1
f 18/2/1 12/2/1 17/2/1
f 19/2/1 3/2/1 13/2/1
f 20/1/1 16/1/1 15/1/1
f 20/1/1 17/1/1 16/1/1
f 21/1/1 17/1/1 20/1/1
f 22/2/1 18/2/1 17/2/1
f 22/1/1 17/1/1 21/1/1
f 22/2/1 19/2/1 18/2/1
f 23/2/1 19/2/1 22/2/1
f 24/2/1 3/2/1 19/2/1
f 24/2/1 19/2/1 23/2/1
f 25/2/1 3/2/1 24/2/1
f 26/1/1 23/1/1 22/1/1
f 26/1/1 22/1/1 21/1/1
f 27/1/1 23/1/1 26/1/1
f 28/2/1 24/2/1 23/2/1
f 28/1/1 23/1/1 27/1/1
f 29/2/1 24/2/1 28/2/1
f 30/2/1 24/2/1 29/2/1
f 32/2/1 3/2/1 25/2/1
f 33/2/1 3/2/1 32/2/1
f 34/1/1 28/1/1 27/1/1
f 34/1/1 29/1/1 28/1/1
f 35/1/1 29/1/1 34/1/1
f 36/2/1 31/2/1 30/2/1
f 36/1/1 29/1/1 35/1/1
f 36/2/1 30/2/1 29/2/1
f 37/2/1 31/2/1 36/2/1
f 38/2/1 31/2/1 37/2/1
f 39/2/1 3/2/1 33/2/1
f 40/1/1 36/1/1 35/1/1
f 40/1/1 37/1/1 36/1/1
f 41/1/1 37/1/1 40/1/1
f 42/2/1 39/2/1 38/2/1
f 42/1/1 37/1/1 41/1/1
f 42/2/1 38/2/1 37/2/1
f 43/2/1 39/2/1 42/2/1
f 44/1/1 42/1/1 41/1/1
f 44/1/1 43/1/1 42/1/1
f 45/1/1 43/1/1 44/1/1
f 46/2/1 39/2/1 43/2/1
f 46/1/1 43/1/1 45/1/1
f 47/2/1 39/2/1 46/2/1
f 48/1/1 46/1/1 45/1/1
f 48/1/1 47/1/1 46/1/1
f 49/1/1 47/1/1 48/1/1
f 50/2/1 39/2/1 47/2/1
f 50/1/1 47/1/1 49/1/1
f 51/2/1 39/2/1 50/2/1
f 52/1/1 50/1/1 49/1/1
f 52/1/1 51/1/1 50/1/1
f 53/1/1 51/1/1 52/1/1
f 54/2/1 39/2/1 51/2/1
f 54/1/1 51/1/1 53/1/1
f 55/2/1 3/2/1 39/2/1
f 55/2/1 39/2/1 54/2/1
f 56/1/1 54/1/1 53/1/1
f 56/1/1 55/1/1 54/1/1
f 57/1/1 55/1/1 56/1/1
f 58/2/1 3/2/1 55/2/1
f 58/1/1 55/1/1 57/1/1
f 59/2/1 3/2/1 58/2/1
f 60/1/1 58/1/1 57/1/1
f 60/1/1 59/1/1 58/1/1
f 61/1/1 59/1/1 60/1/1
f 64/2/1 63/2/1 62/2/1
f 65/2/1 63/2/1 64/2/1
f 68/2/1 67/2/1 66/2/1
f 69/2/1 67/2/1 68/2/1
f 70/2/1 67/2/1 69/2/1
f 72/2/1 71/2/1 70/2/1
f 72/2/1 70/2/1 69/2/1
f 73/2/1 71/2/1 72/2/1
f 74/2/2 75/2/2 76/2/2
f 76/2/2 75/2/2 77/2/2
f 78/1/2 79/1/2 81/1/2
f 81/1/2 79/1/2 82/1/2
f 79/2/2 80/2/2 83/2/2
f 82/1/2 79/1/2 83/1/2
f 83/2/2 80/2/2 84/2/2
f 82/1/2 83/1/2 85/1/2
f 83/1/2 84/1/2 85/1/2
f 85/1/2 84/1/2 86/1/2
f 84/2/2 80/2/2 87/2/2
f 86/1/2 84/1/2 87/1/2
f 87/2/2 80/2/2 88/2/2
f 86/1/2 87/1/2 89/1/2
f 87/1/2 88/1/2 89/1/2
f 89/1/2 88/1/2 90/1/2
f 88/2/2 80/2/2 91/2/2
f 90/1/2 88/1/2 91/1/2
f 91/2/2 80/2/2 92/2/2
f 90/1/2 91/1/2 93/1/2
f 91/1/2 92/1/2 93/1/2
f 93/1/2 92/1/2 94/1/2
f 92/2/2 80/2/2 95/2/2
f 94/1/2 92/1/2 95/1/2
f 95/2/2 80/2/2 96/2/2
f 96/2/2 80/2/2 97/2/2
f 97/2/2 80/2/2 98/2/2
f 94/1/2 95/1/2 99/1/2
f 95/1/2 96/1/2 99/1/2
f 99/1/2 96/1/2 100/1/2
f 96/2/2 97/2/2 101/2/2
f 100/1/2 96/1/2 101/1/2
f 101/2/2 97/2/2 102/2/2
f 102/2/2 97/2/2 103/2/2
f 98/2/2 80/2/2 104/2/2
f 100/1/2 101/1/2 105/1/2
f 101/1/2 102/1/2 105/1/2
f 105/1/2 102/1/2 106/1/2
f 102/2/2 103/2/2 107/2/2
f 106/1/2 102/1/2 107/1/2
f 103/2/2 104/2/2 107/2/2
f 107/2/2 104/2/2 108/2/2
f 106/1/2 107/1/2 109/1/2
f 107/1/2 108/1/2 109/1/2
f 109/1/2 108/1/2 110/1/2
f 108/2/2 104/2/2 111/2/2
f 110/1/2 108/1/2 111/1/2
f 104/2/2 80/2/2 112/2/2
f 111/2/2 104/2/2 112/2/2
f 110/1/2 111/1/2 113/1/2
f 111/1/2 112/1/2 113/1/2
f 113/1/2 112/1/2 114/1/2
f 112/2/2 80/2/2 115/2/2
f 114/1/2 112/1/2 115/1/2
f 115/2/2 80/2/2 116/2/2
f 114/1/2 115/1/2 117/1/2
f 115/1/2 116/1/2 117/1/2
f 117/1/2 116/1/2 118/1/2
f 116/2/2 80/2/2 119/2/2
f 118/1/2 116/1/2 119/1/2
f 119/2/2 80/2/2 120/2/2
f 118/1/2 119/1/2 121/1/2
f 119/1/2 120/1/2 121/1/2
f 121/1/2 120/1/2 122/1/2
f 120/2/2 80/2/2 123/2/2
f 122/1/2 120/1/2 123/1/2
f 123/2/2 80/2/2 124/2/2
f 122/1/2 123/1/2 125/1/2
f 123/1/2 124/1/2 125/1/2
f 125/1/2 124/1/2 126/1/2
f 124/2/2 80/2/2 127/2/2
f 126/1/2 124/1/2 127/1/2
f 127/2/2 80/2/2 128/2/2
f 126/1/2 127/1/2 129/1/2
f 127/1/2 128/1/2 129/1/2
f 129/1/2 128/1/2 130/1/2
f 133/1/3 132/1/3 131/1/3
f 134/1/3 132/1/3 133/1/3
f 137/1/3 136/1/3 135/1/3
f 138/1/3 136/1/3 137/1/3
f 141/1/3 140/1/3 139/1/3
f 142/1/3 140/1/3 141/1/3
f 145/1/3 144/1/3 143/1/3
f 146/1/3 144/1/3 145/1/3
f 149/1/3 148/1/3 147/1/3
f 150/1/3 148/1/3 149/1/3
f 153/1/3 152/1/3 151/1/3
f 154/1/3 152/1/3 153/1/3
f 157/1/3 156/1/3 155/1/3
f 158/1/3 156/1/3 157/1/3
f 163/2/3 160/2/3 159/2/3
f 164/2/3 160/2/3 163/2/3
f 165/1/3 162/1/3 161/1/3
f 166/1/3 162/1/3 165/1/3
f 169/1/3 168/1/3 167/1/3
f 170/1/3 168/1/3 169/1/3
f 173/2/3 172/2/3 171/2/3
f 174/2/3 172/2/3 173/2/3
f 177/1/3 176/1/3 175/1/3
f 178/1/3 176/1/3 177/1/3
f 181/1/3 180/1/3 179/1/3
f 182/1/3 180/1/3 181/1/3
f 185/2/3 184/2/3 183/2/3
f 186/2/3 184/2/3 185/2/3
f 191/2/3 188/2/3 187/2/3
f 192/2/3 188/2/3 191/2/3
f 193/1/3 190/1/3 189/1/3
f 194/1/3 190/1/3 193/1/3
f 195/2/4 196/2/4 197/2/4
f 197/2/4 196/2/4 198/2/4
f 199/2/4 200/2/4 201/2/4
f 201/2/4 200/2/4 202/2/4
f 203/2/4 204/2/4 205/2/4
f 205/2/4 204/2/4 206/2/4
f 207/2/4 208/2/4 209/2/4
f 209/2/4 208/2/4 210/2/4
f 211/2/4 212/2/4 214/2/4
f 212/1/4 213/1/4 215/1/4
f 214/2/4 212/2/4 215/2/4
f 214/1/4 215/1/4 216/1/4
f 215/1/4 213/1/4 217/1/4
f 216/1/4 215/1/4 217/1/4
f 216/2/4 217/2/4 218/2/4
f 217/1/4 213/1/4 219/1/4
f 218/2/4 217/2/4 219/2/4
f 219/1/4 213/1/4 220/1/4
f 223/1/5 222/1/5 221/1/5
f 224/1/5 222/1/5 223/1/5
f 225/1/5 223/1/5 221/1/5
f 226/1/5 223/1/5 225/1/5
f 227/2/5 226/2/5 225/2/5
f 228/1/5 223/1/5 226/1/5
f 228/2/5 226/2/5 227/2/5
f 229/2/5 224/2/5 223/2/5
f 229/1/5 223/1/5 228/1/5
f 230/2/5 224/2/5 229/2/5
f 233/2/5 232/2/5 231/2/5
f 234/2/5 232/2/5 233/2/5
f 237/2/5 236/2/5 235/2/5
f 238/2/5 236/2/5 237/2/5
f 241/2/5 240/2/5 239/2/5
f 242/2/5 240/2/5 241/2/5
f 245/2/5 244/2/5 243/2/5
f 246/2/5 244/2/5 245/2/5
f 247/1/6 248/1/6 249/1/6
f 249/1/6 248/1/6 250/1/6
f 251/1/6 252/1/6 253/1/6
f 253/1/6 252/1/6 254/1/6
f 255/2/6 256/2/6 257/2/6
f 257/2/6 256/2/6 258/2/6
f 259/1/6 260/1/6 261/1/6
f 261/1/6 260/1/6 262/1/6
f 263/1/6 264/1/6 265/1/6
f 265/1/6 264/1/6 266/1/6
f 267/2/6 268/2/6 269/2/6
f 269/2/6 268/2/6 270/2/6
f 271/2/6 272/2/6 273/2/6
f 273/2/6 272/2/6 274/2/6
f 275/1/6 276/1/6 277/1/6
f 277/1/6 276/1/6 278/1/6
f 279/2/6 280/2/6 281/2/6
f 281/2/6 280/2/6 282/2/6
f 283/1/6 284/1/6 285/1/6
f 285/1/6 284/1/6 286/1/6
f 287/1/6 288/1/6 289/1/6
f 289/1/6 288/1/6 290/1/6
f 291/1/6 292/1/6 293/1/6
f 293/1/6 292/1/6 294/1/6
f 295/1/6 296/1/6 297/1/6
f 297/1/6 296/1/6 298/1/6
f 299/1/6 300/1/6 301/1/6
f 301/1/6 300/1/6 302/1/6
f 303/1/6 304/1/6 305/1/6
f 305/1/6 304/1/6 306/1/6
f 307/1/6 308/1/6 309/1/6
f 309/1/6 308/1/6 310/1/6
