# MagicaVoxel @ ephtracy

# material
mtllib StairsRailingStone01.mtl
usemtl palette

# normals
vn -1 0 0
vn 1 0 0
vn 0 0 1
vn 0 0 -1
vn 0 -1 0
vn 0 1 0

# texcoords
vt 0.912109 0.5
vt 0.939453 0.5
vt 0.966797 0.5

# verts
v -0.75 0 0.75
v -0.75 0 0.375
v -0.75 0 -0.75
v -0.75 0.125 0.75
v -0.75 0.125 0.5
v -0.75 0.125 0.375
v -0.75 0.125 -0
v -0.75 0.25 0.5
v -0.75 0.25 0.25
v -0.75 0.25 -0
v -0.75 0.25 -0.125
v -0.75 0.375 0.25
v -0.75 0.375 -0
v -0.75 0.375 -0.125
v -0.75 0.375 -0.75
v -0.75 0.5 -0
v -0.75 0.5 -0.25
v -0.75 0.625 -0.25
v -0.75 0.625 -0.5
v -0.75 0.75 -0.5
v -0.75 0.75 -0.75
v -0.375 0.25 0.5
v -0.375 0.25 0.25
v -0.375 0.375 0.25
v -0.375 0.625 0.75
v -0.375 0.625 0.5
v -0.375 0.625 -0.25
v -0.375 0.625 -0.5
v -0.375 0.75 0.25
v -0.375 0.75 0.125
v -0.375 0.75 -0.5
v -0.375 0.875 0.75
v -0.375 0.875 0.5
v -0.375 0.875 0.125
v -0.375 0.875 -0.125
v -0.375 1 0.5
v -0.375 1 0.25
v -0.375 1 -0.125
v -0.375 1 -0.25
v -0.375 1.125 0.25
v -0.375 1.125 -0
v -0.375 1.125 -0.5
v -0.375 1.125 -0.625
v -0.375 1.25 -0
v -0.375 1.25 -0.25
v -0.375 1.25 -0.625
v -0.375 1.25 -0.75
v -0.375 1.375 -0.25
v -0.375 1.375 -0.5
v -0.375 1.5 -0.5
v -0.375 1.5 -0.75
v 0.375 0.25 0.5
v 0.375 0.25 0.25
v 0.375 0.375 0.25
v 0.375 0.625 0.75
v 0.375 0.625 0.5
v 0.375 0.625 -0.25
v 0.375 0.625 -0.5
v 0.375 0.75 0.25
v 0.375 0.75 0.125
v 0.375 0.75 -0.5
v 0.375 0.875 0.75
v 0.375 0.875 0.5
v 0.375 0.875 0.125
v 0.375 0.875 -0.125
v 0.375 1 0.5
v 0.375 1 0.25
v 0.375 1 -0.125
v 0.375 1 -0.25
v 0.375 1.125 0.25
v 0.375 1.125 -0
v 0.375 1.125 -0.5
v 0.375 1.125 -0.625
v 0.375 1.25 -0
v 0.375 1.25 -0.25
v 0.375 1.25 -0.625
v 0.375 1.25 -0.75
v 0.375 1.375 -0.25
v 0.375 1.375 -0.5
v 0.375 1.5 -0.5
v 0.375 1.5 -0.75
v 0.75 0 0.75
v 0.75 0 0.25
v 0.75 0 -0.75
v 0.75 0.125 0.75
v 0.75 0.125 0.5
v 0.75 0.125 0.25
v 0.75 0.125 -0
v 0.75 0.25 0.5
v 0.75 0.25 0.25
v 0.75 0.25 -0
v 0.75 0.25 -0.25
v 0.75 0.375 0.25
v 0.75 0.375 -0
v 0.75 0.375 -0.25
v 0.75 0.375 -0.5
v 0.75 0.5 -0
v 0.75 0.5 -0.25
v 0.75 0.5 -0.5
v 0.75 0.5 -0.75
v 0.75 0.625 -0.25
v 0.75 0.625 -0.5
v 0.75 0.75 -0.5
v 0.75 0.75 -0.75
v -0.75 0 0.75
v -0.75 0.125 0.75
v -0.375 0.625 0.75
v -0.375 0.875 0.75
v 0.375 0.625 0.75
v 0.375 0.875 0.75
v 0.75 0 0.75
v 0.75 0.125 0.75
v -0.75 0.125 0.5
v -0.75 0.25 0.5
v -0.375 0.25 0.5
v -0.375 0.625 0.5
v -0.375 0.875 0.5
v -0.375 1 0.5
v 0.375 0.25 0.5
v 0.375 0.625 0.5
v 0.375 0.875 0.5
v 0.375 1 0.5
v 0.75 0.125 0.5
v 0.75 0.25 0.5
v -0.75 0.25 0.25
v -0.75 0.375 0.25
v -0.375 0.25 0.25
v -0.375 0.375 0.25
v -0.375 1 0.25
v -0.375 1.125 0.25
v 0.375 0.25 0.25
v 0.375 0.375 0.25
v 0.375 1 0.25
v 0.375 1.125 0.25
v 0.75 0.25 0.25
v 0.75 0.375 0.25
v -0.75 0.375 -0
v -0.75 0.5 -0
v -0.375 1.125 -0
v -0.375 1.25 -0
v 0.375 1.125 -0
v 0.375 1.25 -0
v 0.75 0.375 -0
v 0.75 0.5 -0
v -0.75 0.5 -0.25
v -0.75 0.625 -0.25
v -0.375 0.625 -0.25
v -0.375 1 -0.25
v -0.375 1.25 -0.25
v -0.375 1.375 -0.25
v 0.375 0.625 -0.25
v 0.375 1 -0.25
v 0.375 1.25 -0.25
v 0.375 1.375 -0.25
v 0.75 0.5 -0.25
v 0.75 0.625 -0.25
v -0.75 0.625 -0.5
v -0.75 0.75 -0.5
v -0.375 0.625 -0.5
v -0.375 0.75 -0.5
v -0.375 1.375 -0.5
v -0.375 1.5 -0.5
v 0.375 0.625 -0.5
v 0.375 0.75 -0.5
v 0.375 1.375 -0.5
v 0.375 1.5 -0.5
v 0.75 0.625 -0.5
v 0.75 0.75 -0.5
v -0.375 0.375 0.25
v -0.375 0.75 0.25
v 0.375 0.375 0.25
v 0.375 0.75 0.25
v -0.375 0.75 0.125
v -0.375 0.875 0.125
v 0.375 0.75 0.125
v 0.375 0.875 0.125
v -0.375 0.875 -0.125
v -0.375 1 -0.125
v 0.375 0.875 -0.125
v 0.375 1 -0.125
v -0.375 0.75 -0.5
v -0.375 1.125 -0.5
v 0.375 0.75 -0.5
v 0.375 1.125 -0.5
v -0.375 1.125 -0.625
v -0.375 1.25 -0.625
v 0.375 1.125 -0.625
v 0.375 1.25 -0.625
v -0.75 0 -0.75
v -0.75 0.375 -0.75
v -0.75 0.75 -0.75
v -0.375 1.25 -0.75
v -0.375 1.5 -0.75
v -0.25 0.375 -0.75
v -0.25 0.5 -0.75
v 0.375 1.25 -0.75
v 0.375 1.5 -0.75
v 0.75 0 -0.75
v 0.75 0.5 -0.75
v 0.75 0.75 -0.75
v -0.75 0 0.75
v 0.75 0 0.75
v -0.75 0 0.375
v -0.625 0 0.375
v -0.625 0 0.25
v 0.75 0 0.25
v -0.75 0 -0.75
v 0.75 0 -0.75
v -0.375 0.625 0.75
v 0.375 0.625 0.75
v -0.375 0.625 0.5
v 0.375 0.625 0.5
v -0.375 0.75 0.25
v 0.375 0.75 0.25
v -0.375 0.75 0.125
v 0.375 0.75 0.125
v -0.375 0.875 0.125
v 0.375 0.875 0.125
v -0.375 0.875 -0.125
v 0.375 0.875 -0.125
v -0.375 1 -0.125
v 0.375 1 -0.125
v -0.375 1 -0.25
v 0.375 1 -0.25
v -0.375 1.125 -0.5
v 0.375 1.125 -0.5
v -0.375 1.125 -0.625
v 0.375 1.125 -0.625
v -0.375 1.25 -0.625
v 0.375 1.25 -0.625
v -0.375 1.25 -0.75
v 0.375 1.25 -0.75
v -0.75 0.125 0.75
v 0.75 0.125 0.75
v -0.75 0.125 0.5
v 0.75 0.125 0.5
v -0.75 0.25 0.5
v -0.375 0.25 0.5
v 0.375 0.25 0.5
v 0.75 0.25 0.5
v -0.75 0.25 0.25
v -0.375 0.25 0.25
v 0.375 0.25 0.25
v 0.75 0.25 0.25
v -0.75 0.375 0.25
v -0.375 0.375 0.25
v 0.375 0.375 0.25
v 0.75 0.375 0.25
v -0.75 0.375 -0
v 0.75 0.375 -0
v -0.75 0.5 -0
v 0.75 0.5 -0
v -0.75 0.5 -0.25
v 0.75 0.5 -0.25
v -0.75 0.625 -0.25
v -0.375 0.625 -0.25
v 0.375 0.625 -0.25
v 0.75 0.625 -0.25
v -0.75 0.625 -0.5
v -0.375 0.625 -0.5
v 0.375 0.625 -0.5
v 0.75 0.625 -0.5
v -0.75 0.75 -0.5
v -0.375 0.75 -0.5
v 0.375 0.75 -0.5
v 0.75 0.75 -0.5
v -0.75 0.75 -0.75
v 0.75 0.75 -0.75
v -0.375 0.875 0.75
v 0.375 0.875 0.75
v -0.375 0.875 0.5
v 0.375 0.875 0.5
v -0.375 1 0.5
v 0.375 1 0.5
v -0.375 1 0.25
v 0.375 1 0.25
v -0.375 1.125 0.25
v 0.375 1.125 0.25
v -0.375 1.125 -0
v 0.375 1.125 -0
v -0.375 1.25 -0
v 0.375 1.25 -0
v -0.375 1.25 -0.25
v 0.375 1.25 -0.25
v -0.375 1.375 -0.25
v 0.375 1.375 -0.25
v -0.375 1.375 -0.5
v 0.375 1.375 -0.5
v -0.375 1.5 -0.5
v 0.375 1.5 -0.5
v -0.375 1.5 -0.75
v 0.375 1.5 -0.75

# faces
f 4/2/1 2/2/1 1/2/1
f 5/2/1 2/2/1 4/2/1
f 6/3/1 3/3/1 2/3/1
f 6/2/1 2/2/1 5/2/1
f 7/3/1 3/3/1 6/3/1
f 8/2/1 6/2/1 5/2/1
f 8/2/1 7/2/1 6/2/1
f 9/2/1 7/2/1 8/2/1
f 10/3/1 3/3/1 7/3/1
f 10/2/1 7/2/1 9/2/1
f 11/3/1 3/3/1 10/3/1
f 12/2/1 10/2/1 9/2/1
f 12/2/1 11/2/1 10/2/1
f 13/2/1 11/2/1 12/2/1
f 14/3/1 3/3/1 11/3/1
f 14/2/1 11/2/1 13/2/1
f 15/3/1 3/3/1 14/3/1
f 16/2/1 14/2/1 13/2/1
f 16/2/1 15/2/1 14/2/1
f 17/2/1 15/2/1 16/2/1
f 18/2/1 15/2/1 17/2/1
f 19/2/1 15/2/1 18/2/1
f 20/2/1 15/2/1 19/2/1
f 21/2/1 15/2/1 20/2/1
f 24/1/1 23/1/1 22/1/1
f 26/1/1 24/1/1 22/1/1
f 29/1/1 26/1/1 25/1/1
f 29/1/1 24/1/1 26/1/1
f 31/1/1 28/1/1 27/1/1
f 32/1/1 30/1/1 29/1/1
f 32/1/1 29/1/1 25/1/1
f 33/1/1 30/1/1 32/1/1
f 34/1/1 30/1/1 33/1/1
f 36/1/1 35/1/1 34/1/1
f 36/1/1 34/1/1 33/1/1
f 37/1/1 35/1/1 36/1/1
f 38/1/1 35/1/1 37/1/1
f 39/1/1 31/1/1 27/1/1
f 40/1/1 38/1/1 37/1/1
f 40/1/1 39/1/1 38/1/1
f 41/1/1 39/1/1 40/1/1
f 42/1/1 31/1/1 39/1/1
f 42/1/1 39/1/1 41/1/1
f 44/1/1 42/1/1 41/1/1
f 44/1/1 43/1/1 42/1/1
f 45/1/1 43/1/1 44/1/1
f 46/1/1 43/1/1 45/1/1
f 48/1/1 47/1/1 46/1/1
f 48/1/1 46/1/1 45/1/1
f 49/1/1 47/1/1 48/1/1
f 50/1/1 47/1/1 49/1/1
f 51/1/1 47/1/1 50/1/1
f 52/1/2 53/1/2 54/1/2
f 52/1/2 54/1/2 56/1/2
f 55/1/2 56/1/2 59/1/2
f 56/1/2 54/1/2 59/1/2
f 57/1/2 58/1/2 61/1/2
f 59/1/2 60/1/2 62/1/2
f 55/1/2 59/1/2 62/1/2
f 62/1/2 60/1/2 63/1/2
f 63/1/2 60/1/2 64/1/2
f 64/1/2 65/1/2 66/1/2
f 63/1/2 64/1/2 66/1/2
f 66/1/2 65/1/2 67/1/2
f 67/1/2 65/1/2 68/1/2
f 57/1/2 61/1/2 69/1/2
f 67/1/2 68/1/2 70/1/2
f 68/1/2 69/1/2 70/1/2
f 70/1/2 69/1/2 71/1/2
f 69/1/2 61/1/2 72/1/2
f 71/1/2 69/1/2 72/1/2
f 71/1/2 72/1/2 74/1/2
f 72/1/2 73/1/2 74/1/2
f 74/1/2 73/1/2 75/1/2
f 75/1/2 73/1/2 76/1/2
f 76/1/2 77/1/2 78/1/2
f 75/1/2 76/1/2 78/1/2
f 78/1/2 77/1/2 79/1/2
f 79/1/2 77/1/2 80/1/2
f 80/1/2 77/1/2 81/1/2
f 82/2/2 83/2/2 85/2/2
f 85/2/2 83/2/2 86/2/2
f 83/3/2 84/3/2 87/3/2
f 86/2/2 83/2/2 87/2/2
f 87/3/2 84/3/2 88/3/2
f 86/2/2 87/2/2 89/2/2
f 87/2/2 88/2/2 89/2/2
f 89/2/2 88/2/2 90/2/2
f 88/3/2 84/3/2 91/3/2
f 90/2/2 88/2/2 91/2/2
f 91/3/2 84/3/2 92/3/2
f 90/2/2 91/2/2 93/2/2
f 91/2/2 92/2/2 93/2/2
f 93/2/2 92/2/2 94/2/2
f 92/3/2 84/3/2 95/3/2
f 94/2/2 92/2/2 95/2/2
f 95/3/2 84/3/2 96/3/2
f 94/2/2 95/2/2 97/2/2
f 95/2/2 96/2/2 97/2/2
f 97/2/2 96/2/2 98/2/2
f 96/3/2 84/3/2 99/3/2
f 98/2/2 96/2/2 99/2/2
f 99/3/2 84/3/2 100/3/2
f 98/2/2 99/2/2 101/2/2
f 99/2/2 100/2/2 101/2/2
f 101/2/2 100/2/2 102/2/2
f 102/2/2 100/2/2 103/2/2
f 103/2/2 100/2/2 104/2/2
f 109/1/3 108/1/3 107/1/3
f 110/1/3 108/1/3 109/1/3
f 111/2/3 106/2/3 105/2/3
f 112/2/3 106/2/3 111/2/3
f 115/2/3 114/2/3 113/2/3
f 119/2/3 115/2/3 113/2/3
f 119/1/3 116/1/3 115/1/3
f 120/1/3 116/1/3 119/1/3
f 121/1/3 118/1/3 117/1/3
f 122/1/3 118/1/3 121/1/3
f 123/2/3 119/2/3 113/2/3
f 124/2/3 119/2/3 123/2/3
f 127/2/3 126/2/3 125/2/3
f 128/2/3 126/2/3 127/2/3
f 133/1/3 130/1/3 129/1/3
f 134/1/3 130/1/3 133/1/3
f 135/2/3 132/2/3 131/2/3
f 136/2/3 132/2/3 135/2/3
f 141/1/3 140/1/3 139/1/3
f 142/1/3 140/1/3 141/1/3
f 143/2/3 138/2/3 137/2/3
f 144/2/3 138/2/3 143/2/3
f 147/2/3 146/2/3 145/2/3
f 151/2/3 147/2/3 145/2/3
f 151/1/3 148/1/3 147/1/3
f 152/1/3 148/1/3 151/1/3
f 153/1/3 150/1/3 149/1/3
f 154/1/3 150/1/3 153/1/3
f 155/2/3 151/2/3 145/2/3
f 156/2/3 151/2/3 155/2/3
f 159/2/3 158/2/3 157/2/3
f 160/2/3 158/2/3 159/2/3
f 165/1/3 162/1/3 161/1/3
f 166/1/3 162/1/3 165/1/3
f 167/2/3 164/2/3 163/2/3
f 168/2/3 164/2/3 167/2/3
f 169/1/4 170/1/4 171/1/4
f 171/1/4 170/1/4 172/1/4
f 173/1/4 174/1/4 175/1/4
f 175/1/4 174/1/4 176/1/4
f 177/1/4 178/1/4 179/1/4
f 179/1/4 178/1/4 180/1/4
f 181/1/4 182/1/4 183/1/4
f 183/1/4 182/1/4 184/1/4
f 185/1/4 186/1/4 187/1/4
f 187/1/4 186/1/4 188/1/4
f 189/3/4 190/3/4 194/3/4
f 190/2/4 191/2/4 194/2/4
f 194/2/4 191/2/4 195/2/4
f 192/1/4 193/1/4 196/1/4
f 196/1/4 193/1/4 197/1/4
f 189/3/4 194/3/4 198/3/4
f 194/3/4 195/3/4 198/3/4
f 195/2/4 191/2/4 199/2/4
f 198/3/4 195/3/4 199/3/4
f 199/2/4 191/2/4 200/2/4
f 203/2/5 202/2/5 201/2/5
f 204/2/5 202/2/5 203/2/5
f 205/3/5 204/3/5 203/3/5
f 205/2/5 202/2/5 204/2/5
f 206/2/5 202/2/5 205/2/5
f 207/3/5 205/3/5 203/3/5
f 207/3/5 206/3/5 205/3/5
f 208/3/5 206/3/5 207/3/5
f 211/1/5 210/1/5 209/1/5
f 212/1/5 210/1/5 211/1/5
f 215/1/5 214/1/5 213/1/5
f 216/1/5 214/1/5 215/1/5
f 219/1/5 218/1/5 217/1/5
f 220/1/5 218/1/5 219/1/5
f 223/1/5 222/1/5 221/1/5
f 224/1/5 222/1/5 223/1/5
f 227/1/5 226/1/5 225/1/5
f 228/1/5 226/1/5 227/1/5
f 231/1/5 230/1/5 229/1/5
f 232/1/5 230/1/5 231/1/5
f 233/2/6 234/2/6 235/2/6
f 235/2/6 234/2/6 236/2/6
f 237/2/6 238/2/6 241/2/6
f 241/2/6 238/2/6 242/2/6
f 239/2/6 240/2/6 243/2/6
f 243/2/6 240/2/6 244/2/6
f 245/2/6 246/2/6 249/2/6
f 247/2/6 248/2/6 249/2/6
f 246/2/6 247/2/6 249/2/6
f 249/2/6 248/2/6 250/2/6
f 251/2/6 252/2/6 253/2/6
f 253/2/6 252/2/6 254/2/6
f 255/2/6 256/2/6 259/2/6
f 259/2/6 256/2/6 260/2/6
f 257/2/6 258/2/6 261/2/6
f 261/2/6 258/2/6 262/2/6
f 263/2/6 264/2/6 267/2/6
f 265/2/6 266/2/6 267/2/6
f 264/2/6 265/2/6 267/2/6
f 267/2/6 266/2/6 268/2/6
f 269/1/6 270/1/6 271/1/6
f 271/1/6 270/1/6 272/1/6
f 273/1/6 274/1/6 275/1/6
f 275/1/6 274/1/6 276/1/6
f 277/1/6 278/1/6 279/1/6
f 279/1/6 278/1/6 280/1/6
f 281/1/6 282/1/6 283/1/6
f 283/1/6 282/1/6 284/1/6
f 285/1/6 286/1/6 287/1/6
f 287/1/6 286/1/6 288/1/6
f 289/1/6 290/1/6 291/1/6
f 291/1/6 290/1/6 292/1/6
