# MagicaVoxel @ ephtracy

# material
mtllib WallCornerStone01.mtl
usemtl palette

# normals
vn -1 0 0
vn 1 0 0
vn 0 0 1
vn 0 0 -1
vn 0 -1 0
vn 0 1 0

# texcoords
vt 0.919922 0.5
vt 0.939453 0.5
vt 0.951172 0.5
vt 0.962891 0.5

# verts
v -0.5 2.875 0.75
v -0.5 2.875 -0.5
v -0.5 3 0.75
v -0.5 3 -0.5
v -0.375 0 0.75
v -0.375 0 -0.375
v -0.375 0.125 0.75
v -0.375 0.125 -0.375
v -0.375 2.75 0.75
v -0.375 2.75 -0.375
v -0.375 2.875 0.75
v -0.375 2.875 -0.375
v -0.25 0.125 0.75
v -0.25 0.125 -0.25
v -0.25 0.375 0.125
v -0.25 0.375 -0.25
v -0.25 0.625 0.125
v -0.25 0.625 -0.25
v -0.25 1.75 0.5
v -0.25 1.75 -0
v -0.25 2 0.5
v -0.25 2 -0
v -0.25 2.75 0.75
v -0.25 2.75 -0.25
v -0.125 1.75 0.5
v -0.125 1.75 -0
v -0.125 2 0.5
v -0.125 2 -0
v 0 0.75 -0.25
v 0 0.75 -0.375
v 0 1 -0.25
v 0 1 -0.375
v 0.25 0.125 0.75
v 0.25 0.125 0.25
v 0.25 0.75 0.375
v 0.25 0.75 0.25
v 0.25 1 0.375
v 0.25 1 0.25
v 0.25 1.875 0.5
v 0.25 1.875 0.25
v 0.25 2.125 0.5
v 0.25 2.125 0.25
v 0.25 2.75 0.75
v 0.25 2.75 0.25
v 0.375 0 0.75
v 0.375 0 0.375
v 0.375 0.125 0.75
v 0.375 0.125 0.375
v 0.375 2.75 0.75
v 0.375 2.75 0.375
v 0.375 2.875 0.75
v 0.375 2.875 0.375
v 0.5 0.75 -0.25
v 0.5 0.75 -0.375
v 0.5 1 -0.25
v 0.5 1 -0.375
v 0.5 2.875 0.75
v 0.5 2.875 0.5
v 0.5 3 0.75
v 0.5 3 0.5
v 0.75 0 0.375
v 0.75 0 0.25
v 0.75 0 -0.25
v 0.75 0 -0.375
v 0.75 0.125 0.375
v 0.75 0.125 0.25
v 0.75 0.125 -0.25
v 0.75 0.125 -0.375
v 0.75 1.25 0.25
v 0.75 1.25 -0
v 0.75 1.5 0.25
v 0.75 1.5 -0
v 0.75 2 -0
v 0.75 2 -0.25
v 0.75 2.25 -0
v 0.75 2.25 -0.25
v 0.75 2.75 0.375
v 0.75 2.75 0.25
v 0.75 2.75 -0.25
v 0.75 2.75 -0.375
v 0.75 2.875 0.5
v 0.75 2.875 0.375
v 0.75 2.875 -0.375
v 0.75 2.875 -0.5
v 0.75 3 0.5
v 0.75 3 -0.5
v -0.5 2.875 0.75
v -0.5 3 0.75
v -0.375 0 0.75
v -0.375 0.125 0.75
v -0.375 2.75 0.75
v -0.375 2.875 0.75
v -0.25 0 0.75
v -0.25 0.125 0.75
v -0.25 2.75 0.75
v 0.25 0 0.75
v 0.25 0.125 0.75
v 0.25 2.75 0.75
v 0.375 0 0.75
v 0.375 0.125 0.75
v 0.375 2.75 0.75
v 0.375 2.875 0.75
v 0.5 2.875 0.75
v 0.5 3 0.75
v 0.5 2.875 0.5
v 0.5 3 0.5
v 0.75 2.875 0.5
v 0.75 3 0.5
v 0.375 0 0.375
v 0.375 0.125 0.375
v 0.375 2.75 0.375
v 0.375 2.875 0.375
v 0.75 0 0.375
v 0.75 0.125 0.375
v 0.75 2.75 0.375
v 0.75 2.875 0.375
v 0.25 0.125 0.25
v 0.25 0.75 0.25
v 0.25 1 0.25
v 0.25 1.875 0.25
v 0.25 2.125 0.25
v 0.25 2.75 0.25
v 0.375 1.875 0.25
v 0.375 2.125 0.25
v 0.5 0.75 0.25
v 0.5 1 0.25
v 0.5 1.25 0.25
v 0.5 1.5 0.25
v 0.75 0.125 0.25
v 0.75 1.25 0.25
v 0.75 1.5 0.25
v 0.75 2.75 0.25
v -0.25 1.75 -0
v -0.25 2 -0
v -0.125 1.75 -0
v -0.125 2 -0
v -0.25 1.75 0.5
v -0.25 2 0.5
v -0.125 1.75 0.5
v -0.125 2 0.5
v -0.25 0.125 -0.25
v -0.25 0.375 -0.25
v -0.25 0.625 -0.25
v -0.25 2.75 -0.25
v -0.125 0.375 -0.25
v -0.125 0.625 -0.25
v 0 0.75 -0.25
v 0 1 -0.25
v 0.25 2 -0.25
v 0.25 2.25 -0.25
v 0.5 0.75 -0.25
v 0.5 1 -0.25
v 0.75 0.125 -0.25
v 0.75 2 -0.25
v 0.75 2.25 -0.25
v 0.75 2.75 -0.25
v -0.375 0 -0.375
v -0.375 0.125 -0.375
v -0.375 2.75 -0.375
v -0.375 2.875 -0.375
v 0 0.75 -0.375
v 0 1 -0.375
v 0.5 0.75 -0.375
v 0.5 1 -0.375
v 0.75 0 -0.375
v 0.75 0.125 -0.375
v 0.75 2.75 -0.375
v 0.75 2.875 -0.375
v -0.5 2.875 -0.5
v -0.5 3 -0.5
v 0.75 2.875 -0.5
v 0.75 3 -0.5
v -0.375 0 0.75
v -0.25 0 0.75
v 0.25 0 0.75
v 0.375 0 0.75
v 0.375 0 0.375
v 0.75 0 0.375
v 0.25 0 0.25
v 0.75 0 0.25
v -0.25 0 -0.25
v 0.75 0 -0.25
v -0.375 0 -0.375
v 0.75 0 -0.375
v 0 0.75 -0.25
v 0.5 0.75 -0.25
v 0 0.75 -0.375
v 0.5 0.75 -0.375
v -0.25 2 0.5
v -0.125 2 0.5
v -0.25 2 -0
v -0.125 2 -0
v -0.375 2.75 0.75
v -0.25 2.75 0.75
v 0.25 2.75 0.75
v 0.375 2.75 0.75
v 0.375 2.75 0.375
v 0.75 2.75 0.375
v 0.25 2.75 0.25
v 0.75 2.75 0.25
v -0.25 2.75 -0.25
v 0.75 2.75 -0.25
v -0.375 2.75 -0.375
v 0.75 2.75 -0.375
v -0.5 2.875 0.75
v -0.375 2.875 0.75
v 0.375 2.875 0.75
v 0.5 2.875 0.75
v 0.5 2.875 0.5
v 0.75 2.875 0.5
v 0.375 2.875 0.375
v 0.75 2.875 0.375
v -0.375 2.875 -0.375
v 0.75 2.875 -0.375
v -0.5 2.875 -0.5
v 0.75 2.875 -0.5
v -0.375 0.125 0.75
v -0.25 0.125 0.75
v 0.25 0.125 0.75
v 0.375 0.125 0.75
v 0.375 0.125 0.375
v 0.75 0.125 0.375
v 0.25 0.125 0.25
v 0.75 0.125 0.25
v -0.25 0.125 -0.25
v 0.75 0.125 -0.25
v -0.375 0.125 -0.375
v 0.75 0.125 -0.375
v 0 1 -0.25
v 0.5 1 -0.25
v 0 1 -0.375
v 0.5 1 -0.375
v -0.25 1.75 0.5
v -0.125 1.75 0.5
v -0.25 1.75 -0
v -0.125 1.75 -0
v -0.5 3 0.75
v 0.5 3 0.75
v 0.5 3 0.5
v 0.75 3 0.5
v -0.5 3 -0.5
v 0.75 3 -0.5

# faces
f 3/1/1 2/1/1 1/1/1
f 4/1/1 2/1/1 3/1/1
f 7/2/1 6/2/1 5/2/1
f 8/2/1 6/2/1 7/2/1
f 11/1/1 10/1/1 9/1/1
f 12/1/1 10/1/1 11/1/1
f 15/3/1 14/3/1 13/3/1
f 16/3/1 14/3/1 15/3/1
f 17/3/1 15/3/1 13/3/1
f 17/4/1 16/4/1 15/4/1
f 18/4/1 16/4/1 17/4/1
f 19/3/1 17/3/1 13/3/1
f 19/3/1 18/3/1 17/3/1
f 20/3/1 18/3/1 19/3/1
f 21/3/1 19/3/1 13/3/1
f 22/3/1 18/3/1 20/3/1
f 23/3/1 21/3/1 13/3/1
f 23/3/1 22/3/1 21/3/1
f 24/3/1 18/3/1 22/3/1
f 24/3/1 22/3/1 23/3/1
f 27/4/1 26/4/1 25/4/1
f 28/4/1 26/4/1 27/4/1
f 31/3/1 30/3/1 29/3/1
f 32/3/1 30/3/1 31/3/1
f 33/3/2 34/3/2 35/3/2
f 35/3/2 34/3/2 36/3/2
f 33/3/2 35/3/2 37/3/2
f 35/4/2 36/4/2 37/4/2
f 37/4/2 36/4/2 38/4/2
f 33/3/2 37/3/2 39/3/2
f 37/3/2 38/3/2 39/3/2
f 39/3/2 38/3/2 40/3/2
f 33/3/2 39/3/2 41/3/2
f 39/4/2 40/4/2 41/4/2
f 41/4/2 40/4/2 42/4/2
f 33/3/2 41/3/2 43/3/2
f 41/3/2 42/3/2 43/3/2
f 43/3/2 42/3/2 44/3/2
f 45/2/2 46/2/2 47/2/2
f 47/2/2 46/2/2 48/2/2
f 49/1/2 50/1/2 51/1/2
f 51/1/2 50/1/2 52/1/2
f 53/3/2 54/3/2 55/3/2
f 55/3/2 54/3/2 56/3/2
f 57/1/2 58/1/2 59/1/2
f 59/1/2 58/1/2 60/1/2
f 61/2/2 62/2/2 65/2/2
f 62/3/2 63/3/2 66/3/2
f 65/2/2 62/2/2 66/2/2
f 63/2/2 64/2/2 67/2/2
f 66/3/2 63/3/2 67/3/2
f 67/2/2 64/2/2 68/2/2
f 66/3/2 67/3/2 69/3/2
f 69/3/2 67/3/2 70/3/2
f 69/4/2 70/4/2 71/4/2
f 70/3/2 67/3/2 72/3/2
f 71/4/2 70/4/2 72/4/2
f 71/3/2 72/3/2 73/3/2
f 72/3/2 67/3/2 73/3/2
f 73/3/2 67/3/2 74/3/2
f 71/3/2 73/3/2 75/3/2
f 73/4/2 74/4/2 75/4/2
f 75/4/2 74/4/2 76/4/2
f 71/3/2 75/3/2 78/3/2
f 75/3/2 76/3/2 78/3/2
f 78/3/2 76/3/2 79/3/2
f 78/1/2 79/1/2 82/1/2
f 79/1/2 80/1/2 82/1/2
f 77/1/2 78/1/2 82/1/2
f 82/1/2 80/1/2 83/1/2
f 82/1/2 83/1/2 85/1/2
f 83/1/2 84/1/2 85/1/2
f 81/1/2 82/1/2 85/1/2
f 85/1/2 84/1/2 86/1/2
f 92/1/3 88/1/3 87/1/3
f 93/2/3 90/2/3 89/2/3
f 94/2/3 90/2/3 93/2/3
f 95/1/3 92/1/3 91/1/3
f 96/3/3 94/3/3 93/3/3
f 96/3/3 95/3/3 94/3/3
f 97/3/3 95/3/3 96/3/3
f 98/1/3 92/1/3 95/1/3
f 98/3/3 95/3/3 97/3/3
f 99/2/3 97/2/3 96/2/3
f 100/2/3 97/2/3 99/2/3
f 101/1/3 92/1/3 98/1/3
f 102/1/3 88/1/3 92/1/3
f 102/1/3 92/1/3 101/1/3
f 103/1/3 88/1/3 102/1/3
f 104/1/3 88/1/3 103/1/3
f 107/1/3 106/1/3 105/1/3
f 108/1/3 106/1/3 107/1/3
f 113/2/3 110/2/3 109/2/3
f 114/2/3 110/2/3 113/2/3
f 115/1/3 112/1/3 111/1/3
f 116/1/3 112/1/3 115/1/3
f 123/3/3 120/3/3 119/3/3
f 123/4/3 121/4/3 120/4/3
f 124/3/3 122/3/3 121/3/3
f 124/4/3 121/4/3 123/4/3
f 125/3/3 118/3/3 117/3/3
f 125/4/3 119/4/3 118/4/3
f 126/3/3 124/3/3 123/3/3
f 126/4/3 119/4/3 125/4/3
f 126/3/3 123/3/3 119/3/3
f 127/3/3 124/3/3 126/3/3
f 128/3/3 124/3/3 127/3/3
f 129/3/3 125/3/3 117/3/3
f 129/3/3 126/3/3 125/3/3
f 129/3/3 127/3/3 126/3/3
f 130/4/3 128/4/3 127/4/3
f 130/3/3 127/3/3 129/3/3
f 131/3/3 124/3/3 128/3/3
f 131/4/3 128/4/3 130/4/3
f 132/3/3 122/3/3 124/3/3
f 132/3/3 124/3/3 131/3/3
f 135/3/3 134/3/3 133/3/3
f 136/3/3 134/3/3 135/3/3
f 137/3/4 138/3/4 139/3/4
f 139/3/4 138/3/4 140/3/4
f 141/3/4 142/3/4 145/3/4
f 142/4/4 143/4/4 145/4/4
f 143/3/4 144/3/4 146/3/4
f 145/4/4 143/4/4 146/4/4
f 145/3/4 146/3/4 147/3/4
f 146/3/4 144/3/4 147/3/4
f 147/3/4 144/3/4 148/3/4
f 148/3/4 144/3/4 149/3/4
f 149/3/4 144/3/4 150/3/4
f 145/3/4 147/3/4 151/3/4
f 148/3/4 149/3/4 152/3/4
f 141/3/4 145/3/4 153/3/4
f 151/3/4 152/3/4 153/3/4
f 145/3/4 151/3/4 153/3/4
f 152/3/4 149/3/4 154/3/4
f 153/3/4 152/3/4 154/3/4
f 149/4/4 150/4/4 154/4/4
f 150/3/4 144/3/4 155/3/4
f 154/4/4 150/4/4 155/4/4
f 155/3/4 144/3/4 156/3/4
f 161/3/4 162/3/4 163/3/4
f 163/3/4 162/3/4 164/3/4
f 157/2/4 158/2/4 165/2/4
f 165/2/4 158/2/4 166/2/4
f 159/1/4 160/1/4 167/1/4
f 167/1/4 160/1/4 168/1/4
f 169/1/4 170/1/4 171/1/4
f 171/1/4 170/1/4 172/1/4
f 177/2/5 176/2/5 175/2/5
f 179/3/5 175/3/5 174/3/5
f 179/2/5 178/2/5 177/2/5
f 179/2/5 177/2/5 175/2/5
f 180/2/5 178/2/5 179/2/5
f 181/2/5 174/2/5 173/2/5
f 181/3/5 179/3/5 174/3/5
f 181/3/5 180/3/5 179/3/5
f 182/3/5 180/3/5 181/3/5
f 183/2/5 181/2/5 173/2/5
f 183/2/5 182/2/5 181/2/5
f 184/2/5 182/2/5 183/2/5
f 187/3/5 186/3/5 185/3/5
f 188/3/5 186/3/5 187/3/5
f 191/3/5 190/3/5 189/3/5
f 192/3/5 190/3/5 191/3/5
f 197/1/5 196/1/5 195/1/5
f 199/1/5 197/1/5 195/1/5
f 199/1/5 198/1/5 197/1/5
f 200/1/5 198/1/5 199/1/5
f 201/1/5 194/1/5 193/1/5
f 203/1/5 201/1/5 193/1/5
f 203/1/5 202/1/5 201/1/5
f 204/1/5 202/1/5 203/1/5
f 209/1/5 208/1/5 207/1/5
f 211/1/5 209/1/5 207/1/5
f 211/1/5 210/1/5 209/1/5
f 212/1/5 210/1/5 211/1/5
f 213/1/5 206/1/5 205/1/5
f 215/1/5 213/1/5 205/1/5
f 215/1/5 214/1/5 213/1/5
f 216/1/5 214/1/5 215/1/5
f 219/2/6 220/2/6 221/2/6
f 219/2/6 221/2/6 223/2/6
f 221/2/6 222/2/6 223/2/6
f 223/2/6 222/2/6 224/2/6
f 217/2/6 218/2/6 225/2/6
f 217/2/6 225/2/6 227/2/6
f 225/2/6 226/2/6 227/2/6
f 227/2/6 226/2/6 228/2/6
f 229/3/6 230/3/6 231/3/6
f 231/3/6 230/3/6 232/3/6
f 233/3/6 234/3/6 235/3/6
f 235/3/6 234/3/6 236/3/6
f 237/1/6 238/1/6 239/1/6
f 237/1/6 239/1/6 241/1/6
f 239/1/6 240/1/6 241/1/6
f 241/1/6 240/1/6 242/1/6
