# MagicaVoxel @ ephtracy

# material
mtllib WallStone02.mtl
usemtl palette

# normals
vn -1 0 0
vn 1 0 0
vn 0 0 1
vn 0 0 -1
vn 0 -1 0
vn 0 1 0

# texcoords
vt 0.919922 0.5
vt 0.939453 0.5
vt 0.943359 0.5
vt 0.951172 0.5
vt 0.962891 0.5

# verts
v -0.75 0 0.375
v -0.75 0 0.25
v -0.75 0 -0.25
v -0.75 0 -0.375
v -0.75 0.125 0.375
v -0.75 0.125 0.25
v -0.75 0.125 -0.25
v -0.75 0.125 -0.375
v -0.75 0.25 0.25
v -0.75 0.25 -0
v -0.75 0.5 0.25
v -0.75 0.5 -0
v -0.75 2.75 0.375
v -0.75 2.75 0.25
v -0.75 2.75 -0.25
v -0.75 2.75 -0.375
v -0.75 2.875 0.5
v -0.75 2.875 0.375
v -0.75 2.875 -0.375
v -0.75 2.875 -0.5
v -0.75 3 0.5
v -0.75 3 -0.5
v -0.5 0.25 -0.25
v -0.5 0.25 -0.375
v -0.5 0.5 -0.25
v -0.5 0.5 -0.375
v -0.25 1.75 0.375
v -0.25 1.75 0.25
v -0.25 2 0.375
v -0.25 2 0.25
v 0 0.75 0.25
v 0 0.75 0.125
v 0 1 0.25
v 0 1 0.125
v -0.5 0.75 0.25
v -0.5 0.75 0.125
v -0.5 1 0.25
v -0.5 1 0.125
v 0 0.25 -0.25
v 0 0.25 -0.375
v 0 0.5 -0.25
v 0 0.5 -0.375
v 0.25 1.75 0.375
v 0.25 1.75 0.25
v 0.25 2 0.375
v 0.25 2 0.25
v 0.75 0 0.375
v 0.75 0 0.25
v 0.75 0 -0.25
v 0.75 0 -0.375
v 0.75 0.125 0.375
v 0.75 0.125 0.25
v 0.75 0.125 -0.25
v 0.75 0.125 -0.375
v 0.75 1.25 0.25
v 0.75 1.25 -0
v 0.75 1.5 0.25
v 0.75 1.5 -0
v 0.75 2 -0
v 0.75 2 -0.25
v 0.75 2.25 -0
v 0.75 2.25 -0.25
v 0.75 2.75 0.375
v 0.75 2.75 0.25
v 0.75 2.75 -0.25
v 0.75 2.75 -0.375
v 0.75 2.875 0.5
v 0.75 2.875 0.375
v 0.75 2.875 -0.375
v 0.75 2.875 -0.5
v 0.75 3 0.5
v 0.75 3 -0.5
v -0.75 2.875 0.5
v -0.75 3 0.5
v 0.75 2.875 0.5
v 0.75 3 0.5
v -0.75 0 0.375
v -0.75 0.125 0.375
v -0.75 2.75 0.375
v -0.75 2.875 0.375
v -0.25 1.75 0.375
v -0.25 2 0.375
v 0.25 1.75 0.375
v 0.25 2 0.375
v 0.75 0 0.375
v 0.75 0.125 0.375
v 0.75 2.75 0.375
v 0.75 2.875 0.375
v -0.75 0.125 0.25
v -0.75 0.25 0.25
v -0.75 0.5 0.25
v -0.75 2.75 0.25
v -0.5 0.25 0.25
v -0.5 0.5 0.25
v -0.5 0.75 0.25
v -0.5 1 0.25
v -0.25 1.75 0.25
v -0.25 2 0.25
v 0 0.75 0.25
v 0 1 0.25
v 0.25 1.25 0.25
v 0.25 1.5 0.25
v 0.25 1.75 0.25
v 0.25 2 0.25
v 0.75 0.125 0.25
v 0.75 1.25 0.25
v 0.75 1.5 0.25
v 0.75 2.75 0.25
v -0.5 0.75 0.125
v -0.5 1 0.125
v 0 0.75 0.125
v 0 1 0.125
v -0.75 0.125 -0.25
v -0.75 2.75 -0.25
v -0.5 0.25 -0.25
v -0.5 0.5 -0.25
v 0 0.25 -0.25
v 0 0.5 -0.25
v 0 0.75 -0.25
v 0 1 -0.25
v 0.25 2 -0.25
v 0.25 2.25 -0.25
v 0.5 0.75 -0.25
v 0.5 1 -0.25
v 0.75 0.125 -0.25
v 0.75 2 -0.25
v 0.75 2.25 -0.25
v 0.75 2.75 -0.25
v -0.75 0 -0.375
v -0.75 0.125 -0.375
v -0.75 2.75 -0.375
v -0.75 2.875 -0.375
v -0.5 0.25 -0.375
v -0.5 0.5 -0.375
v 0 0.25 -0.375
v 0 0.5 -0.375
v 0.75 0 -0.375
v 0.75 0.125 -0.375
v 0.75 2.75 -0.375
v 0.75 2.875 -0.375
v -0.75 2.875 -0.5
v -0.75 3 -0.5
v 0.75 2.875 -0.5
v 0.75 3 -0.5
v -0.75 0 0.375
v 0.75 0 0.375
v -0.75 0 0.25
v 0.75 0 0.25
v -0.75 0 -0.25
v 0.75 0 -0.25
v -0.75 0 -0.375
v 0.75 0 -0.375
v -0.5 0.25 -0.25
v 0 0.25 -0.25
v -0.5 0.25 -0.375
v 0 0.25 -0.375
v -0.5 1 0.25
v 0 1 0.25
v -0.5 1 0.125
v 0 1 0.125
v -0.25 1.75 0.375
v 0.25 1.75 0.375
v -0.25 1.75 0.25
v 0.25 1.75 0.25
v -0.75 2.75 0.375
v 0.75 2.75 0.375
v -0.75 2.75 0.25
v 0.75 2.75 0.25
v -0.75 2.75 -0.25
v 0.75 2.75 -0.25
v -0.75 2.75 -0.375
v 0.75 2.75 -0.375
v -0.75 2.875 0.5
v 0.75 2.875 0.5
v -0.75 2.875 0.375
v 0.75 2.875 0.375
v -0.75 2.875 -0.375
v 0.75 2.875 -0.375
v -0.75 2.875 -0.5
v 0.75 2.875 -0.5
v -0.75 0.125 0.375
v 0.75 0.125 0.375
v -0.75 0.125 0.25
v 0.75 0.125 0.25
v -0.75 0.125 -0.25
v 0.75 0.125 -0.25
v -0.75 0.125 -0.375
v 0.75 0.125 -0.375
v -0.5 0.5 -0.25
v 0 0.5 -0.25
v -0.5 0.5 -0.375
v 0 0.5 -0.375
v -0.5 0.75 0.25
v 0 0.75 0.25
v -0.5 0.75 0.125
v 0 0.75 0.125
v -0.25 2 0.375
v 0.25 2 0.375
v -0.25 2 0.25
v 0.25 2 0.25
v -0.75 3 0.5
v 0.75 3 0.5
v -0.75 3 -0.5
v 0.75 3 -0.5

# faces
f 5/2/1 2/2/1 1/2/1
f 6/4/1 3/4/1 2/4/1
f 6/2/1 2/2/1 5/2/1
f 7/2/1 4/2/1 3/2/1
f 7/4/1 3/4/1 6/4/1
f 8/2/1 4/2/1 7/2/1
f 9/4/1 7/4/1 6/4/1
f 10/4/1 7/4/1 9/4/1
f 11/5/1 10/5/1 9/5/1
f 12/4/1 7/4/1 10/4/1
f 12/5/1 10/5/1 11/5/1
f 14/4/1 12/4/1 11/4/1
f 15/4/1 7/4/1 12/4/1
f 15/4/1 12/4/1 14/4/1
f 18/1/1 14/1/1 13/1/1
f 18/1/1 16/1/1 15/1/1
f 18/1/1 15/1/1 14/1/1
f 19/1/1 16/1/1 18/1/1
f 21/1/1 19/1/1 18/1/1
f 21/1/1 20/1/1 19/1/1
f 21/1/1 18/1/1 17/1/1
f 22/1/1 20/1/1 21/1/1
f 25/3/1 24/3/1 23/3/1
f 26/3/1 24/3/1 25/3/1
f 29/3/1 28/3/1 27/3/1
f 30/3/1 28/3/1 29/3/1
f 33/4/1 32/4/1 31/4/1
f 34/4/1 32/4/1 33/4/1
f 35/4/2 36/4/2 37/4/2
f 37/4/2 36/4/2 38/4/2
f 39/3/2 40/3/2 41/3/2
f 41/3/2 40/3/2 42/3/2
f 43/3/2 44/3/2 45/3/2
f 45/3/2 44/3/2 46/3/2
f 47/2/2 48/2/2 51/2/2
f 48/4/2 49/4/2 52/4/2
f 51/2/2 48/2/2 52/2/2
f 49/2/2 50/2/2 53/2/2
f 52/4/2 49/4/2 53/4/2
f 53/2/2 50/2/2 54/2/2
f 52/4/2 53/4/2 55/4/2
f 55/4/2 53/4/2 56/4/2
f 55/5/2 56/5/2 57/5/2
f 56/4/2 53/4/2 58/4/2
f 57/5/2 56/5/2 58/5/2
f 57/4/2 58/4/2 59/4/2
f 58/4/2 53/4/2 59/4/2
f 59/4/2 53/4/2 60/4/2
f 57/4/2 59/4/2 61/4/2
f 59/5/2 60/5/2 61/5/2
f 61/5/2 60/5/2 62/5/2
f 57/4/2 61/4/2 64/4/2
f 61/4/2 62/4/2 64/4/2
f 64/4/2 62/4/2 65/4/2
f 64/1/2 65/1/2 68/1/2
f 65/1/2 66/1/2 68/1/2
f 63/1/2 64/1/2 68/1/2
f 68/1/2 66/1/2 69/1/2
f 68/1/2 69/1/2 71/1/2
f 69/1/2 70/1/2 71/1/2
f 67/1/2 68/1/2 71/1/2
f 71/1/2 70/1/2 72/1/2
f 75/1/3 74/1/3 73/1/3
f 76/1/3 74/1/3 75/1/3
f 83/3/3 82/3/3 81/3/3
f 84/3/3 82/3/3 83/3/3
f 85/2/3 78/2/3 77/2/3
f 86/2/3 78/2/3 85/2/3
f 87/1/3 80/1/3 79/1/3
f 88/1/3 80/1/3 87/1/3
f 93/4/3 90/4/3 89/4/3
f 93/5/3 91/5/3 90/5/3
f 94/4/3 92/4/3 91/4/3
f 94/5/3 91/5/3 93/5/3
f 95/4/3 92/4/3 94/4/3
f 96/4/3 92/4/3 95/4/3
f 97/4/3 92/4/3 96/4/3
f 98/4/3 92/4/3 97/4/3
f 99/4/3 94/4/3 93/4/3
f 99/4/3 95/4/3 94/4/3
f 100/4/3 97/4/3 96/4/3
f 101/4/3 97/4/3 100/4/3
f 101/4/3 100/4/3 99/4/3
f 102/4/3 97/4/3 101/4/3
f 103/4/3 97/4/3 102/4/3
f 104/4/3 92/4/3 98/4/3
f 105/4/3 93/4/3 89/4/3
f 105/4/3 99/4/3 93/4/3
f 105/4/3 101/4/3 99/4/3
f 106/5/3 102/5/3 101/5/3
f 106/4/3 101/4/3 105/4/3
f 107/4/3 104/4/3 103/4/3
f 107/5/3 102/5/3 106/5/3
f 107/4/3 103/4/3 102/4/3
f 108/4/3 92/4/3 104/4/3
f 108/4/3 104/4/3 107/4/3
f 111/4/3 110/4/3 109/4/3
f 112/4/3 110/4/3 111/4/3
f 113/4/4 114/4/4 115/4/4
f 115/4/4 114/4/4 116/4/4
f 113/4/4 115/4/4 117/4/4
f 116/4/4 114/4/4 118/4/4
f 118/4/4 114/4/4 119/4/4
f 119/4/4 114/4/4 120/4/4
f 120/4/4 114/4/4 121/4/4
f 121/4/4 114/4/4 122/4/4
f 117/4/4 118/4/4 123/4/4
f 118/4/4 119/4/4 123/4/4
f 119/5/4 120/5/4 123/5/4
f 120/4/4 121/4/4 124/4/4
f 123/5/4 120/5/4 124/5/4
f 113/4/4 117/4/4 125/4/4
f 117/4/4 123/4/4 125/4/4
f 123/4/4 124/4/4 125/4/4
f 124/4/4 121/4/4 126/4/4
f 125/4/4 124/4/4 126/4/4
f 121/5/4 122/5/4 126/5/4
f 122/4/4 114/4/4 127/4/4
f 126/5/4 122/5/4 127/5/4
f 127/4/4 114/4/4 128/4/4
f 133/3/4 134/3/4 135/3/4
f 135/3/4 134/3/4 136/3/4
f 129/2/4 130/2/4 137/2/4
f 137/2/4 130/2/4 138/2/4
f 131/1/4 132/1/4 139/1/4
f 139/1/4 132/1/4 140/1/4
f 141/1/4 142/1/4 143/1/4
f 143/1/4 142/1/4 144/1/4
f 147/2/5 146/2/5 145/2/5
f 148/2/5 146/2/5 147/2/5
f 149/4/5 148/4/5 147/4/5
f 150/4/5 148/4/5 149/4/5
f 151/2/5 150/2/5 149/2/5
f 152/2/5 150/2/5 151/2/5
f 155/3/5 154/3/5 153/3/5
f 156/3/5 154/3/5 155/3/5
f 159/4/5 158/4/5 157/4/5
f 160/4/5 158/4/5 159/4/5
f 163/3/5 162/3/5 161/3/5
f 164/3/5 162/3/5 163/3/5
f 167/1/5 166/1/5 165/1/5
f 168/1/5 166/1/5 167/1/5
f 171/1/5 170/1/5 169/1/5
f 172/1/5 170/1/5 171/1/5
f 175/1/5 174/1/5 173/1/5
f 176/1/5 174/1/5 175/1/5
f 179/1/5 178/1/5 177/1/5
f 180/1/5 178/1/5 179/1/5
f 181/2/6 182/2/6 183/2/6
f 183/2/6 182/2/6 184/2/6
f 185/2/6 186/2/6 187/2/6
f 187/2/6 186/2/6 188/2/6
f 189/3/6 190/3/6 191/3/6
f 191/3/6 190/3/6 192/3/6
f 193/4/6 194/4/6 195/4/6
f 195/4/6 194/4/6 196/4/6
f 197/3/6 198/3/6 199/3/6
f 199/3/6 198/3/6 200/3/6
f 201/1/6 202/1/6 203/1/6
f 203/1/6 202/1/6 204/1/6
