# MagicaVoxel @ ephtracy

# material
mtllib WallCornerStone02.mtl
usemtl palette

# normals
vn -1 0 0
vn 1 0 0
vn 0 0 1
vn 0 0 -1
vn 0 -1 0
vn 0 1 0

# texcoords
vt 0.919922 0.5
vt 0.939453 0.5
vt 0.951172 0.5
vt 0.962891 0.5

# verts
v -0.5 2.875 0.75
v -0.5 2.875 -0.75
v -0.5 3 0.75
v -0.5 3 -0.75
v -0.375 0 0.75
v -0.375 0 -0.75
v -0.375 0.125 0.75
v -0.375 0.125 -0.75
v -0.375 2.75 0.75
v -0.375 2.75 -0.75
v -0.375 2.875 0.75
v -0.375 2.875 -0.75
v -0.25 0.125 0.75
v -0.25 0.125 -0.75
v -0.25 0.375 -0.25
v -0.25 0.375 -0.625
v -0.25 0.625 -0.25
v -0.25 0.625 -0.625
v -0.25 1.125 0.25
v -0.25 1.125 -0.25
v -0.25 1.375 0.25
v -0.25 1.375 -0.25
v -0.25 2.25 -0.25
v -0.25 2.25 -0.75
v -0.25 2.5 -0.25
v -0.25 2.5 -0.75
v -0.25 2.75 0.75
v -0.25 2.75 -0.75
v -0.125 1.125 0.25
v -0.125 1.125 -0.25
v -0.125 1.375 0.25
v -0.125 1.375 -0.25
v 0.25 2.75 -0.375
v 0.25 2.75 -0.5
v 0.25 2.875 -0.375
v 0.25 2.875 -0.5
v -0.25 2.75 -0.375
v -0.25 2.75 -0.5
v -0.25 2.875 -0.375
v -0.25 2.875 -0.5
v 0.25 0.125 0.75
v 0.25 0.125 0.25
v 0.25 0.125 -0.25
v 0.25 0.125 -0.75
v 0.25 1.375 -0.5
v 0.25 1.375 -0.75
v 0.25 1.625 -0.5
v 0.25 1.625 -0.75
v 0.25 1.875 0.5
v 0.25 1.875 0.25
v 0.25 2.125 0.5
v 0.25 2.125 0.25
v 0.25 2.75 0.75
v 0.25 2.75 0.25
v 0.25 2.75 -0.25
v 0.25 2.75 -0.75
v 0.375 0 0.75
v 0.375 0 0.375
v 0.375 0 -0.375
v 0.375 0 -0.75
v 0.375 0.125 0.75
v 0.375 0.125 0.375
v 0.375 0.125 -0.375
v 0.375 0.125 -0.75
v 0.375 2.75 0.75
v 0.375 2.75 0.375
v 0.375 2.75 -0.375
v 0.375 2.75 -0.75
v 0.375 2.875 0.75
v 0.375 2.875 0.375
v 0.375 2.875 -0.375
v 0.375 2.875 -0.75
v 0.5 2.875 0.75
v 0.5 2.875 0.5
v 0.5 2.875 -0.5
v 0.5 2.875 -0.75
v 0.5 3 0.75
v 0.5 3 0.5
v 0.5 3 -0.5
v 0.5 3 -0.75
v 0.75 0 0.375
v 0.75 0 0.25
v 0.75 0 -0.25
v 0.75 0 -0.375
v 0.75 0.125 0.375
v 0.75 0.125 0.25
v 0.75 0.125 -0.25
v 0.75 0.125 -0.375
v 0.75 1.25 0.25
v 0.75 1.25 -0
v 0.75 1.5 0.25
v 0.75 1.5 -0
v 0.75 2 -0
v 0.75 2 -0.25
v 0.75 2.25 -0
v 0.75 2.25 -0.25
v 0.75 2.75 0.375
v 0.75 2.75 0.25
v 0.75 2.75 -0.25
v 0.75 2.75 -0.375
v 0.75 2.875 0.5
v 0.75 2.875 0.375
v 0.75 2.875 -0.375
v 0.75 2.875 -0.5
v 0.75 3 0.5
v 0.75 3 -0.5
v -0.5 2.875 0.75
v -0.5 3 0.75
v -0.375 0 0.75
v -0.375 0.125 0.75
v -0.375 2.75 0.75
v -0.375 2.875 0.75
v -0.25 0 0.75
v -0.25 0.125 0.75
v -0.25 2.75 0.75
v 0.25 0 0.75
v 0.25 0.125 0.75
v 0.25 2.75 0.75
v 0.375 0 0.75
v 0.375 0.125 0.75
v 0.375 2.75 0.75
v 0.375 2.875 0.75
v 0.5 2.875 0.75
v 0.5 3 0.75
v 0.5 2.875 0.5
v 0.5 3 0.5
v 0.75 2.875 0.5
v 0.75 3 0.5
v 0.375 0 0.375
v 0.375 0.125 0.375
v 0.375 2.75 0.375
v 0.375 2.875 0.375
v 0.75 0 0.375
v 0.75 0.125 0.375
v 0.75 2.75 0.375
v 0.75 2.875 0.375
v 0.25 0.125 0.25
v 0.25 1.875 0.25
v 0.25 2.125 0.25
v 0.25 2.75 0.25
v 0.375 1.875 0.25
v 0.375 2.125 0.25
v 0.5 1.25 0.25
v 0.5 1.5 0.25
v 0.75 0.125 0.25
v 0.75 1.25 0.25
v 0.75 1.5 0.25
v 0.75 2.75 0.25
v -0.25 1.125 -0.25
v -0.25 1.375 -0.25
v -0.125 1.125 -0.25
v -0.125 1.375 -0.25
v -0.25 2.75 -0.5
v -0.25 2.875 -0.5
v 0.25 2.75 -0.5
v 0.25 2.875 -0.5
v -0.25 1.125 0.25
v -0.25 1.375 0.25
v -0.125 1.125 0.25
v -0.125 1.375 0.25
v 0.25 0.125 -0.25
v 0.25 2.75 -0.25
v 0.375 2 -0.25
v 0.375 2.25 -0.25
v 0.75 0.125 -0.25
v 0.75 2 -0.25
v 0.75 2.25 -0.25
v 0.75 2.75 -0.25
v -0.25 2.75 -0.375
v -0.25 2.875 -0.375
v 0.25 2.75 -0.375
v 0.25 2.875 -0.375
v 0.375 0 -0.375
v 0.375 0.125 -0.375
v 0.375 2.75 -0.375
v 0.375 2.875 -0.375
v 0.75 0 -0.375
v 0.75 0.125 -0.375
v 0.75 2.75 -0.375
v 0.75 2.875 -0.375
v 0.5 2.875 -0.5
v 0.5 3 -0.5
v 0.75 2.875 -0.5
v 0.75 3 -0.5
v -0.5 2.875 -0.75
v -0.5 3 -0.75
v -0.375 0 -0.75
v -0.375 0.125 -0.75
v -0.375 2.75 -0.75
v -0.375 2.875 -0.75
v -0.25 0 -0.75
v -0.25 0.125 -0.75
v -0.25 2.25 -0.75
v -0.25 2.5 -0.75
v -0.25 2.75 -0.75
v -0.125 2.25 -0.75
v -0.125 2.5 -0.75
v 0.125 1.375 -0.75
v 0.125 1.625 -0.75
v 0.25 0 -0.75
v 0.25 0.125 -0.75
v 0.25 1.375 -0.75
v 0.25 1.625 -0.75
v 0.25 2.75 -0.75
v 0.375 0 -0.75
v 0.375 0.125 -0.75
v 0.375 2.75 -0.75
v 0.375 2.875 -0.75
v 0.5 2.875 -0.75
v 0.5 3 -0.75
v -0.375 0 0.75
v -0.25 0 0.75
v 0.25 0 0.75
v 0.375 0 0.75
v 0.375 0 0.375
v 0.75 0 0.375
v 0.25 0 0.25
v 0.75 0 0.25
v -0.25 0 -0.25
v 0.75 0 -0.25
v -0.25 0 -0.375
v 0.25 0 -0.375
v 0.375 0 -0.375
v 0.75 0 -0.375
v -0.375 0 -0.75
v -0.25 0 -0.75
v 0.25 0 -0.75
v 0.375 0 -0.75
v -0.25 1.375 0.25
v -0.125 1.375 0.25
v -0.25 1.375 -0.25
v -0.125 1.375 -0.25
v -0.375 2.75 0.75
v -0.25 2.75 0.75
v 0.25 2.75 0.75
v 0.375 2.75 0.75
v 0.375 2.75 0.375
v 0.75 2.75 0.375
v 0.25 2.75 0.25
v 0.75 2.75 0.25
v 0.25 2.75 -0.25
v 0.75 2.75 -0.25
v 0.375 2.75 -0.375
v 0.75 2.75 -0.375
v -0.375 2.75 -0.75
v -0.25 2.75 -0.75
v 0.25 2.75 -0.75
v 0.375 2.75 -0.75
v -0.5 2.875 0.75
v -0.375 2.875 0.75
v 0.375 2.875 0.75
v 0.5 2.875 0.75
v 0.5 2.875 0.5
v 0.75 2.875 0.5
v 0.375 2.875 0.375
v 0.75 2.875 0.375
v -0.25 2.875 -0.375
v 0.25 2.875 -0.375
v 0.375 2.875 -0.375
v 0.75 2.875 -0.375
v -0.25 2.875 -0.5
v 0.25 2.875 -0.5
v 0.5 2.875 -0.5
v 0.75 2.875 -0.5
v -0.5 2.875 -0.75
v -0.375 2.875 -0.75
v 0.375 2.875 -0.75
v 0.5 2.875 -0.75
v -0.375 0.125 0.75
v -0.25 0.125 0.75
v 0.25 0.125 0.75
v 0.375 0.125 0.75
v 0.375 0.125 0.375
v 0.75 0.125 0.375
v 0.25 0.125 0.25
v 0.75 0.125 0.25
v 0.25 0.125 -0.25
v 0.75 0.125 -0.25
v 0.375 0.125 -0.375
v 0.75 0.125 -0.375
v -0.375 0.125 -0.75
v -0.25 0.125 -0.75
v 0.25 0.125 -0.75
v 0.375 0.125 -0.75
v -0.25 1.125 0.25
v -0.125 1.125 0.25
v -0.25 1.125 -0.25
v -0.125 1.125 -0.25
v -0.25 2.75 -0.375
v 0.25 2.75 -0.375
v -0.25 2.75 -0.5
v 0.25 2.75 -0.5
v -0.5 3 0.75
v 0.5 3 0.75
v 0.5 3 0.5
v 0.75 3 0.5
v 0.5 3 -0.5
v 0.75 3 -0.5
v -0.5 3 -0.75
v 0.5 3 -0.75

# faces
f 3/1/1 2/1/1 1/1/1
f 4/1/1 2/1/1 3/1/1
f 7/2/1 6/2/1 5/2/1
f 8/2/1 6/2/1 7/2/1
f 11/1/1 10/1/1 9/1/1
f 12/1/1 10/1/1 11/1/1
f 15/3/1 14/3/1 13/3/1
f 16/3/1 14/3/1 15/3/1
f 17/3/1 15/3/1 13/3/1
f 17/4/1 16/4/1 15/4/1
f 18/3/1 14/3/1 16/3/1
f 18/4/1 16/4/1 17/4/1
f 19/3/1 17/3/1 13/3/1
f 19/3/1 18/3/1 17/3/1
f 20/3/1 18/3/1 19/3/1
f 21/3/1 19/3/1 13/3/1
f 22/3/1 18/3/1 20/3/1
f 23/3/1 18/3/1 22/3/1
f 23/3/1 22/3/1 21/3/1
f 24/3/1 14/3/1 18/3/1
f 24/3/1 18/3/1 23/3/1
f 25/3/1 23/3/1 21/3/1
f 25/4/1 24/4/1 23/4/1
f 26/4/1 24/4/1 25/4/1
f 27/3/1 21/3/1 13/3/1
f 27/3/1 25/3/1 21/3/1
f 27/3/1 26/3/1 25/3/1
f 28/3/1 26/3/1 27/3/1
f 31/4/1 30/4/1 29/4/1
f 32/4/1 30/4/1 31/4/1
f 35/1/1 34/1/1 33/1/1
f 36/1/1 34/1/1 35/1/1
f 37/1/2 38/1/2 39/1/2
f 39/1/2 38/1/2 40/1/2
f 43/3/2 44/3/2 45/3/2
f 45/3/2 44/3/2 46/3/2
f 43/3/2 45/3/2 47/3/2
f 45/4/2 46/4/2 47/4/2
f 47/4/2 46/4/2 48/4/2
f 41/3/2 42/3/2 49/3/2
f 49/3/2 42/3/2 50/3/2
f 41/3/2 49/3/2 51/3/2
f 49/4/2 50/4/2 51/4/2
f 51/4/2 50/4/2 52/4/2
f 41/3/2 51/3/2 53/3/2
f 51/3/2 52/3/2 53/3/2
f 53/3/2 52/3/2 54/3/2
f 43/3/2 47/3/2 55/3/2
f 47/3/2 48/3/2 55/3/2
f 55/3/2 48/3/2 56/3/2
f 57/2/2 58/2/2 61/2/2
f 61/2/2 58/2/2 62/2/2
f 59/2/2 60/2/2 63/2/2
f 63/2/2 60/2/2 64/2/2
f 65/1/2 66/1/2 69/1/2
f 69/1/2 66/1/2 70/1/2
f 67/1/2 68/1/2 71/1/2
f 71/1/2 68/1/2 72/1/2
f 73/1/2 74/1/2 77/1/2
f 77/1/2 74/1/2 78/1/2
f 75/1/2 76/1/2 79/1/2
f 79/1/2 76/1/2 80/1/2
f 81/2/2 82/2/2 85/2/2
f 82/3/2 83/3/2 86/3/2
f 85/2/2 82/2/2 86/2/2
f 83/2/2 84/2/2 87/2/2
f 86/3/2 83/3/2 87/3/2
f 87/2/2 84/2/2 88/2/2
f 86/3/2 87/3/2 89/3/2
f 89/3/2 87/3/2 90/3/2
f 89/4/2 90/4/2 91/4/2
f 90/3/2 87/3/2 92/3/2
f 91/4/2 90/4/2 92/4/2
f 91/3/2 92/3/2 93/3/2
f 92/3/2 87/3/2 93/3/2
f 93/3/2 87/3/2 94/3/2
f 91/3/2 93/3/2 95/3/2
f 93/4/2 94/4/2 95/4/2
f 95/4/2 94/4/2 96/4/2
f 91/3/2 95/3/2 98/3/2
f 95/3/2 96/3/2 98/3/2
f 98/3/2 96/3/2 99/3/2
f 98/1/2 99/1/2 102/1/2
f 99/1/2 100/1/2 102/1/2
f 97/1/2 98/1/2 102/1/2
f 102/1/2 100/1/2 103/1/2
f 102/1/2 103/1/2 105/1/2
f 103/1/2 104/1/2 105/1/2
f 101/1/2 102/1/2 105/1/2
f 105/1/2 104/1/2 106/1/2
f 112/1/3 108/1/3 107/1/3
f 113/2/3 110/2/3 109/2/3
f 114/2/3 110/2/3 113/2/3
f 115/1/3 112/1/3 111/1/3
f 116/3/3 114/3/3 113/3/3
f 116/3/3 115/3/3 114/3/3
f 117/3/3 115/3/3 116/3/3
f 118/1/3 112/1/3 115/1/3
f 118/3/3 115/3/3 117/3/3
f 119/2/3 117/2/3 116/2/3
f 120/2/3 117/2/3 119/2/3
f 121/1/3 112/1/3 118/1/3
f 122/1/3 108/1/3 112/1/3
f 122/1/3 112/1/3 121/1/3
f 123/1/3 108/1/3 122/1/3
f 124/1/3 108/1/3 123/1/3
f 127/1/3 126/1/3 125/1/3
f 128/1/3 126/1/3 127/1/3
f 133/2/3 130/2/3 129/2/3
f 134/2/3 130/2/3 133/2/3
f 135/1/3 132/1/3 131/1/3
f 136/1/3 132/1/3 135/1/3
f 141/3/3 138/3/3 137/3/3
f 141/4/3 139/4/3 138/4/3
f 142/3/3 140/3/3 139/3/3
f 142/4/3 139/4/3 141/4/3
f 143/3/3 141/3/3 137/3/3
f 143/3/3 142/3/3 141/3/3
f 144/3/3 142/3/3 143/3/3
f 145/3/3 143/3/3 137/3/3
f 146/4/3 144/4/3 143/4/3
f 146/3/3 143/3/3 145/3/3
f 147/3/3 142/3/3 144/3/3
f 147/4/3 144/4/3 146/4/3
f 148/3/3 140/3/3 142/3/3
f 148/3/3 142/3/3 147/3/3
f 151/3/3 150/3/3 149/3/3
f 152/3/3 150/3/3 151/3/3
f 155/3/3 154/3/3 153/3/3
f 156/3/3 154/3/3 155/3/3
f 157/3/4 158/3/4 159/3/4
f 159/3/4 158/3/4 160/3/4
f 161/3/4 162/3/4 163/3/4
f 163/3/4 162/3/4 164/3/4
f 161/3/4 163/3/4 165/3/4
f 163/4/4 164/4/4 166/4/4
f 165/3/4 163/3/4 166/3/4
f 164/3/4 162/3/4 167/3/4
f 166/4/4 164/4/4 167/4/4
f 167/3/4 162/3/4 168/3/4
f 169/1/4 170/1/4 171/1/4
f 171/1/4 170/1/4 172/1/4
f 173/2/4 174/2/4 177/2/4
f 177/2/4 174/2/4 178/2/4
f 175/1/4 176/1/4 179/1/4
f 179/1/4 176/1/4 180/1/4
f 181/1/4 182/1/4 183/1/4
f 183/1/4 182/1/4 184/1/4
f 185/1/4 186/1/4 190/1/4
f 187/2/4 188/2/4 191/2/4
f 191/2/4 188/2/4 192/2/4
f 189/1/4 190/1/4 195/1/4
f 193/4/4 194/4/4 196/4/4
f 191/3/4 192/3/4 196/3/4
f 192/3/4 193/3/4 196/3/4
f 194/3/4 195/3/4 197/3/4
f 196/4/4 194/4/4 197/4/4
f 191/3/4 196/3/4 198/3/4
f 196/3/4 197/3/4 198/3/4
f 198/3/4 197/3/4 199/3/4
f 191/3/4 198/3/4 200/3/4
f 200/3/4 198/3/4 201/3/4
f 198/4/4 199/4/4 202/4/4
f 201/3/4 198/3/4 202/3/4
f 199/3/4 197/3/4 203/3/4
f 202/4/4 199/4/4 203/4/4
f 197/3/4 195/3/4 204/3/4
f 203/3/4 197/3/4 204/3/4
f 195/1/4 190/1/4 204/1/4
f 200/2/4 201/2/4 205/2/4
f 205/2/4 201/2/4 206/2/4
f 204/1/4 190/1/4 207/1/4
f 190/1/4 186/1/4 208/1/4
f 207/1/4 190/1/4 208/1/4
f 208/1/4 186/1/4 209/1/4
f 209/1/4 186/1/4 210/1/4
f 215/2/5 214/2/5 213/2/5
f 217/3/5 213/3/5 212/3/5
f 217/2/5 216/2/5 215/2/5
f 217/2/5 215/2/5 213/2/5
f 218/2/5 216/2/5 217/2/5
f 219/2/5 212/2/5 211/2/5
f 219/3/5 217/3/5 212/3/5
f 219/3/5 218/3/5 217/3/5
f 220/3/5 218/3/5 219/3/5
f 221/2/5 219/2/5 211/2/5
f 221/2/5 220/2/5 219/2/5
f 222/2/5 220/2/5 221/2/5
f 223/2/5 220/2/5 222/2/5
f 224/2/5 220/2/5 223/2/5
f 225/2/5 221/2/5 211/2/5
f 226/3/5 222/3/5 221/3/5
f 226/2/5 221/2/5 225/2/5
f 227/2/5 223/2/5 222/2/5
f 227/3/5 222/3/5 226/3/5
f 228/2/5 223/2/5 227/2/5
f 231/3/5 230/3/5 229/3/5
f 232/3/5 230/3/5 231/3/5
f 237/1/5 236/1/5 235/1/5
f 239/1/5 237/1/5 235/1/5
f 239/1/5 238/1/5 237/1/5
f 240/1/5 238/1/5 239/1/5
f 243/1/5 242/1/5 241/1/5
f 244/1/5 242/1/5 243/1/5
f 245/1/5 234/1/5 233/1/5
f 246/1/5 234/1/5 245/1/5
f 247/1/5 243/1/5 241/1/5
f 248/1/5 243/1/5 247/1/5
f 253/1/5 252/1/5 251/1/5
f 255/1/5 253/1/5 251/1/5
f 255/1/5 254/1/5 253/1/5
f 256/1/5 254/1/5 255/1/5
f 261/1/5 258/1/5 257/1/5
f 262/1/5 258/1/5 261/1/5
f 263/1/5 260/1/5 259/1/5
f 264/1/5 260/1/5 263/1/5
f 265/1/5 250/1/5 249/1/5
f 266/1/5 250/1/5 265/1/5
f 267/1/5 263/1/5 259/1/5
f 268/1/5 263/1/5 267/1/5
f 271/2/6 272/2/6 273/2/6
f 271/2/6 273/2/6 275/2/6
f 273/2/6 274/2/6 275/2/6
f 275/2/6 274/2/6 276/2/6
f 277/2/6 278/2/6 279/2/6
f 279/2/6 278/2/6 280/2/6
f 269/2/6 270/2/6 281/2/6
f 281/2/6 270/2/6 282/2/6
f 277/2/6 279/2/6 283/2/6
f 283/2/6 279/2/6 284/2/6
f 285/3/6 286/3/6 287/3/6
f 287/3/6 286/3/6 288/3/6
f 289/3/6 290/3/6 291/3/6
f 291/3/6 290/3/6 292/3/6
f 293/1/6 294/1/6 295/1/6
f 293/1/6 295/1/6 297/1/6
f 295/1/6 296/1/6 297/1/6
f 297/1/6 296/1/6 298/1/6
f 293/1/6 297/1/6 299/1/6
f 299/1/6 297/1/6 300/1/6
