# MagicaVoxel @ ephtracy

# material
mtllib Canvas02.mtl
usemtl palette

# normals
vn -1 0 0
vn 1 0 0
vn 0 0 1
vn 0 0 -1
vn 0 -1 0
vn 0 1 0

# texcoords
vt 0.189453 0.5
vt 0.193359 0.5
vt 0.400391 0.5
vt 0.404297 0.5
vt 0.771484 0.5
vt 0.779297 0.5
vt 0.806641 0.5
vt 0.978516 0.5
vt 0.994141 0.5

# verts
v -0.75 0.875 -0.125
v -0.75 0.875 -0.375
v -0.75 1 -0.125
v -0.75 1 -0.375
v -0.75 1.875 -0.125
v -0.75 1.875 -0.375
v -0.75 2.25 -0.125
v -0.75 2.25 -0.375
v -0.75 2.5 -0.125
v -0.75 2.5 -0.375
v -0.75 2.625 -0.125
v -0.75 2.625 -0.375
v 0.625 1 -0.125
v 0.625 1 -0.25
v 0.625 1.125 -0.125
v 0.625 1.125 -0.25
v 0.625 1.25 -0.25
v 0.625 1.5 -0.125
v 0.625 1.5 -0.25
v 0.625 1.75 -0.125
v 0.625 1.75 -0.25
v 0.625 2.5 -0.125
v 0.625 2.5 -0.25
v -0.625 1 -0.125
v -0.625 1 -0.25
v -0.625 1.875 -0.125
v -0.625 1.875 -0.25
v -0.625 2.25 -0.125
v -0.625 2.25 -0.25
v -0.625 2.5 -0.125
v -0.625 2.5 -0.25
v 0.75 0.875 -0.125
v 0.75 0.875 -0.375
v 0.75 1.125 -0.125
v 0.75 1.125 -0.375
v 0.75 1.5 -0.125
v 0.75 1.5 -0.375
v 0.75 1.75 -0.125
v 0.75 1.75 -0.375
v 0.75 2.5 -0.125
v 0.75 2.5 -0.375
v 0.75 2.625 -0.125
v 0.75 2.625 -0.375
v -0.75 0.875 -0.125
v -0.75 1 -0.125
v -0.75 1.875 -0.125
v -0.75 2.25 -0.125
v -0.75 2.5 -0.125
v -0.75 2.625 -0.125
v -0.625 0.875 -0.125
v -0.625 1 -0.125
v -0.625 1.875 -0.125
v -0.625 2.25 -0.125
v -0.625 2.5 -0.125
v -0.625 2.625 -0.125
v -0.125 0.875 -0.125
v -0.125 1 -0.125
v -0.125 2.5 -0.125
v -0.125 2.625 -0.125
v 0 0.875 -0.125
v 0 1 -0.125
v 0.25 2.5 -0.125
v 0.25 2.625 -0.125
v 0.5 0.875 -0.125
v 0.5 1 -0.125
v 0.625 1 -0.125
v 0.625 1.125 -0.125
v 0.625 1.5 -0.125
v 0.625 1.75 -0.125
v 0.625 2.5 -0.125
v 0.625 2.625 -0.125
v 0.75 0.875 -0.125
v 0.75 1.125 -0.125
v 0.75 1.5 -0.125
v 0.75 1.75 -0.125
v 0.75 2.5 -0.125
v 0.75 2.625 -0.125
v -0.625 1 -0.25
v -0.625 1.875 -0.25
v -0.625 2.25 -0.25
v -0.625 2.5 -0.25
v -0.5 1 -0.25
v -0.5 1.75 -0.25
v -0.5 2.125 -0.25
v -0.5 2.25 -0.25
v -0.375 1 -0.25
v -0.375 1.75 -0.25
v -0.375 2 -0.25
v -0.375 2.125 -0.25
v -0.375 2.25 -0.25
v -0.25 1 -0.25
v -0.25 1.125 -0.25
v -0.25 1.5 -0.25
v -0.25 1.75 -0.25
v -0.25 2 -0.25
v -0.25 2.125 -0.25
v -0.25 2.25 -0.25
v -0.25 2.5 -0.25
v -0.125 1 -0.25
v -0.125 1.125 -0.25
v -0.125 1.25 -0.25
v -0.125 1.625 -0.25
v -0.125 1.875 -0.25
v -0.125 2 -0.25
v -0.125 2.125 -0.25
v -0.125 2.25 -0.25
v -0.125 2.5 -0.25
v 0 1 -0.25
v 0 1.625 -0.25
v 0 1.875 -0.25
v 0 2 -0.25
v 0 2.125 -0.25
v 0.125 1 -0.25
v 0.125 1.125 -0.25
v 0.125 1.25 -0.25
v 0.125 1.5 -0.25
v 0.125 2 -0.25
v 0.125 2.125 -0.25
v 0.125 2.25 -0.25
v 0.125 2.5 -0.25
v 0.25 1 -0.25
v 0.25 1.125 -0.25
v 0.25 1.875 -0.25
v 0.25 2.125 -0.25
v 0.25 2.25 -0.25
v 0.25 2.375 -0.25
v 0.25 2.5 -0.25
v 0.375 1.5 -0.25
v 0.375 1.875 -0.25
v 0.375 2.25 -0.25
v 0.375 2.375 -0.25
v 0.5 1 -0.25
v 0.5 1.25 -0.25
v 0.5 1.5 -0.25
v 0.5 1.875 -0.25
v 0.625 1 -0.25
v 0.625 1.125 -0.25
v 0.625 1.25 -0.25
v 0.625 1.5 -0.25
v 0.625 1.75 -0.25
v 0.625 2.5 -0.25
v -0.75 0.875 -0.375
v -0.75 1 -0.375
v -0.75 1.875 -0.375
v -0.75 2.25 -0.375
v -0.75 2.5 -0.375
v -0.75 2.625 -0.375
v -0.625 0.875 -0.375
v -0.625 1 -0.375
v -0.625 1.875 -0.375
v -0.625 2.25 -0.375
v -0.625 2.5 -0.375
v -0.625 2.625 -0.375
v -0.5 1 -0.375
v -0.5 1.75 -0.375
v -0.5 2.125 -0.375
v -0.5 2.25 -0.375
v -0.375 1 -0.375
v -0.375 1.75 -0.375
v -0.375 2 -0.375
v -0.375 2.125 -0.375
v -0.375 2.25 -0.375
v -0.25 1 -0.375
v -0.25 1.125 -0.375
v -0.25 1.5 -0.375
v -0.25 1.75 -0.375
v -0.25 2 -0.375
v -0.25 2.125 -0.375
v -0.25 2.25 -0.375
v -0.25 2.5 -0.375
v -0.125 0.875 -0.375
v -0.125 1 -0.375
v -0.125 1.125 -0.375
v -0.125 1.25 -0.375
v -0.125 1.625 -0.375
v -0.125 1.875 -0.375
v -0.125 2 -0.375
v -0.125 2.125 -0.375
v -0.125 2.25 -0.375
v -0.125 2.5 -0.375
v -0.125 2.625 -0.375
v 0 0.875 -0.375
v 0 1 -0.375
v 0 1.625 -0.375
v 0 1.875 -0.375
v 0 2 -0.375
v 0 2.125 -0.375
v 0.125 1 -0.375
v 0.125 1.125 -0.375
v 0.125 1.25 -0.375
v 0.125 1.5 -0.375
v 0.125 2 -0.375
v 0.125 2.125 -0.375
v 0.125 2.25 -0.375
v 0.125 2.5 -0.375
v 0.25 1 -0.375
v 0.25 1.125 -0.375
v 0.25 1.875 -0.375
v 0.25 2.125 -0.375
v 0.25 2.25 -0.375
v 0.25 2.375 -0.375
v 0.25 2.5 -0.375
v 0.25 2.625 -0.375
v 0.375 1.5 -0.375
v 0.375 1.875 -0.375
v 0.375 2.25 -0.375
v 0.375 2.375 -0.375
v 0.5 0.875 -0.375
v 0.5 1 -0.375
v 0.5 1.25 -0.375
v 0.5 1.5 -0.375
v 0.5 1.875 -0.375
v 0.625 1 -0.375
v 0.625 1.125 -0.375
v 0.625 1.25 -0.375
v 0.625 1.5 -0.375
v 0.625 1.75 -0.375
v 0.625 2.5 -0.375
v 0.625 2.625 -0.375
v 0.75 0.875 -0.375
v 0.75 1.125 -0.375
v 0.75 1.5 -0.375
v 0.75 1.75 -0.375
v 0.75 2.5 -0.375
v 0.75 2.625 -0.375
v -0.75 0.875 -0.125
v -0.625 0.875 -0.125
v -0.125 0.875 -0.125
v 0 0.875 -0.125
v 0.5 0.875 -0.125
v 0.75 0.875 -0.125
v -0.75 0.875 -0.375
v -0.625 0.875 -0.375
v -0.125 0.875 -0.375
v 0 0.875 -0.375
v 0.5 0.875 -0.375
v 0.75 0.875 -0.375
v -0.625 2.5 -0.125
v -0.125 2.5 -0.125
v 0.25 2.5 -0.125
v 0.625 2.5 -0.125
v -0.625 2.5 -0.25
v -0.25 2.5 -0.25
v -0.125 2.5 -0.25
v 0.125 2.5 -0.25
v 0.25 2.5 -0.25
v 0.625 2.5 -0.25
v -0.625 1 -0.125
v -0.125 1 -0.125
v 0 1 -0.125
v 0.5 1 -0.125
v 0.625 1 -0.125
v -0.625 1 -0.25
v -0.5 1 -0.25
v -0.375 1 -0.25
v -0.25 1 -0.25
v -0.125 1 -0.25
v 0 1 -0.25
v 0.125 1 -0.25
v 0.25 1 -0.25
v 0.5 1 -0.25
v 0.625 1 -0.25
v -0.75 2.625 -0.125
v -0.625 2.625 -0.125
v -0.125 2.625 -0.125
v 0.25 2.625 -0.125
v 0.625 2.625 -0.125
v 0.75 2.625 -0.125
v -0.75 2.625 -0.375
v -0.625 2.625 -0.375
v -0.125 2.625 -0.375
v 0.25 2.625 -0.375
v 0.625 2.625 -0.375
v 0.75 2.625 -0.375

# faces
f 3/1/1 2/1/1 1/1/1
f 4/1/1 2/1/1 3/1/1
f 5/2/1 4/2/1 3/2/1
f 6/2/1 4/2/1 5/2/1
f 7/1/1 6/1/1 5/1/1
f 8/1/1 6/1/1 7/1/1
f 9/2/1 8/2/1 7/2/1
f 10/2/1 8/2/1 9/2/1
f 11/1/1 10/1/1 9/1/1
f 12/1/1 10/1/1 11/1/1
f 15/1/1 14/1/1 13/1/1
f 16/1/1 14/1/1 15/1/1
f 17/2/1 16/2/1 15/2/1
f 18/2/1 17/2/1 15/2/1
f 19/2/1 17/2/1 18/2/1
f 20/1/1 19/1/1 18/1/1
f 21/1/1 19/1/1 20/1/1
f 22/2/1 21/2/1 20/2/1
f 23/2/1 21/2/1 22/2/1
f 24/2/2 25/2/2 26/2/2
f 26/2/2 25/2/2 27/2/2
f 26/1/2 27/1/2 28/1/2
f 28/1/2 27/1/2 29/1/2
f 28/2/2 29/2/2 30/2/2
f 30/2/2 29/2/2 31/2/2
f 32/1/2 33/1/2 34/1/2
f 34/1/2 33/1/2 35/1/2
f 34/2/2 35/2/2 36/2/2
f 36/2/2 35/2/2 37/2/2
f 36/1/2 37/1/2 38/1/2
f 38/1/2 37/1/2 39/1/2
f 38/2/2 39/2/2 40/2/2
f 40/2/2 39/2/2 41/2/2
f 40/1/2 41/1/2 42/1/2
f 42/1/2 41/1/2 43/1/2
f 50/1/3 45/1/3 44/1/3
f 51/2/3 46/2/3 45/2/3
f 51/1/3 45/1/3 50/1/3
f 52/1/3 47/1/3 46/1/3
f 52/2/3 46/2/3 51/2/3
f 53/2/3 48/2/3 47/2/3
f 53/1/3 47/1/3 52/1/3
f 54/1/3 49/1/3 48/1/3
f 54/2/3 48/2/3 53/2/3
f 55/1/3 49/1/3 54/1/3
f 56/2/3 51/2/3 50/2/3
f 57/2/3 51/2/3 56/2/3
f 58/2/3 55/2/3 54/2/3
f 59/2/3 55/2/3 58/2/3
f 60/1/3 57/1/3 56/1/3
f 61/1/3 57/1/3 60/1/3
f 62/1/3 59/1/3 58/1/3
f 63/1/3 59/1/3 62/1/3
f 64/2/3 61/2/3 60/2/3
f 65/2/3 61/2/3 64/2/3
f 66/1/3 65/1/3 64/1/3
f 70/2/3 63/2/3 62/2/3
f 71/2/3 63/2/3 70/2/3
f 72/1/3 66/1/3 64/1/3
f 72/1/3 67/1/3 66/1/3
f 73/2/3 68/2/3 67/2/3
f 73/1/3 67/1/3 72/1/3
f 74/1/3 69/1/3 68/1/3
f 74/2/3 68/2/3 73/2/3
f 75/2/3 70/2/3 69/2/3
f 75/1/3 69/1/3 74/1/3
f 76/1/3 71/1/3 70/1/3
f 76/2/3 70/2/3 75/2/3
f 77/1/3 71/1/3 76/1/3
f 82/8/3 79/8/3 78/8/3
f 82/8/3 81/8/3 80/8/3
f 82/8/3 80/8/3 79/8/3
f 83/8/3 81/8/3 82/8/3
f 84/8/3 81/8/3 83/8/3
f 85/8/3 81/8/3 84/8/3
f 86/7/3 83/7/3 82/7/3
f 87/8/3 84/8/3 83/8/3
f 87/7/3 83/7/3 86/7/3
f 88/8/3 84/8/3 87/8/3
f 89/9/3 85/9/3 84/9/3
f 89/8/3 84/8/3 88/8/3
f 90/8/3 81/8/3 85/8/3
f 90/9/3 85/9/3 89/9/3
f 91/6/3 87/6/3 86/6/3
f 92/6/3 87/6/3 91/6/3
f 93/6/3 87/6/3 92/6/3
f 94/7/3 88/7/3 87/7/3
f 94/6/3 87/6/3 93/6/3
f 95/9/3 89/9/3 88/9/3
f 95/7/3 88/7/3 94/7/3
f 96/7/3 90/7/3 89/7/3
f 96/9/3 89/9/3 95/9/3
f 97/8/3 81/8/3 90/8/3
f 97/7/3 90/7/3 96/7/3
f 98/8/3 81/8/3 97/8/3
f 99/3/3 92/3/3 91/3/3
f 100/6/3 93/6/3 92/6/3
f 100/3/3 92/3/3 99/3/3
f 101/6/3 93/6/3 100/6/3
f 102/3/3 94/3/3 93/3/3
f 102/3/3 95/3/3 94/3/3
f 103/3/3 95/3/3 102/3/3
f 104/9/3 96/9/3 95/9/3
f 104/3/3 95/3/3 103/3/3
f 105/6/3 97/6/3 96/6/3
f 105/9/3 96/9/3 104/9/3
f 106/7/3 98/7/3 97/7/3
f 106/6/3 97/6/3 105/6/3
f 107/7/3 98/7/3 106/7/3
f 108/4/3 100/4/3 99/4/3
f 109/4/3 103/4/3 102/4/3
f 109/3/3 102/3/3 93/3/3
f 110/9/3 104/9/3 103/9/3
f 110/4/3 103/4/3 109/4/3
f 111/6/3 105/6/3 104/6/3
f 111/9/3 104/9/3 110/9/3
f 111/6/3 106/6/3 105/6/3
f 111/6/3 107/6/3 106/6/3
f 112/6/3 107/6/3 111/6/3
f 113/4/3 100/4/3 108/4/3
f 114/3/3 101/3/3 100/3/3
f 114/4/3 100/4/3 113/4/3
f 115/6/3 93/6/3 101/6/3
f 115/3/3 101/3/3 114/3/3
f 116/3/3 109/3/3 93/3/3
f 116/6/3 93/6/3 115/6/3
f 116/3/3 110/3/3 109/3/3
f 116/3/3 111/3/3 110/3/3
f 117/9/3 112/9/3 111/9/3
f 117/3/3 111/3/3 116/3/3
f 118/6/3 107/6/3 112/6/3
f 118/9/3 112/9/3 117/9/3
f 119/6/3 107/6/3 118/6/3
f 120/6/3 107/6/3 119/6/3
f 121/3/3 114/3/3 113/3/3
f 122/6/3 117/6/3 116/6/3
f 122/3/3 114/3/3 121/3/3
f 122/6/3 115/6/3 114/6/3
f 122/6/3 116/6/3 115/6/3
f 122/6/3 118/6/3 117/6/3
f 123/6/3 118/6/3 122/6/3
f 124/9/3 119/9/3 118/9/3
f 124/6/3 118/6/3 123/6/3
f 125/5/3 120/5/3 119/5/3
f 125/9/3 119/9/3 124/9/3
f 126/5/3 120/5/3 125/5/3
f 127/5/3 120/5/3 126/5/3
f 128/6/3 123/6/3 122/6/3
f 128/6/3 122/6/3 121/6/3
f 129/5/3 124/5/3 123/5/3
f 129/6/3 123/6/3 128/6/3
f 129/5/3 125/5/3 124/5/3
f 130/9/3 126/9/3 125/9/3
f 130/5/3 125/5/3 129/5/3
f 131/8/3 127/8/3 126/8/3
f 131/9/3 126/9/3 130/9/3
f 132/6/3 128/6/3 121/6/3
f 133/6/3 128/6/3 132/6/3
f 134/5/3 129/5/3 128/5/3
f 134/6/3 128/6/3 133/6/3
f 135/8/3 130/8/3 129/8/3
f 135/5/3 129/5/3 134/5/3
f 135/8/3 131/8/3 130/8/3
f 136/6/3 133/6/3 132/6/3
f 137/6/3 133/6/3 136/6/3
f 138/5/3 134/5/3 133/5/3
f 138/6/3 133/6/3 137/6/3
f 139/8/3 135/8/3 134/8/3
f 139/5/3 134/5/3 138/5/3
f 140/8/3 135/8/3 139/8/3
f 141/8/3 127/8/3 131/8/3
f 141/8/3 135/8/3 140/8/3
f 141/8/3 131/8/3 135/8/3
f 142/1/4 143/1/4 148/1/4
f 143/2/4 144/2/4 149/2/4
f 148/1/4 143/1/4 149/1/4
f 144/1/4 145/1/4 150/1/4
f 149/2/4 144/2/4 150/2/4
f 145/2/4 146/2/4 151/2/4
f 150/1/4 145/1/4 151/1/4
f 146/1/4 147/1/4 152/1/4
f 151/2/4 146/2/4 152/2/4
f 152/1/4 147/1/4 153/1/4
f 150/8/4 151/8/4 154/8/4
f 148/2/4 149/2/4 154/2/4
f 149/8/4 150/8/4 154/8/4
f 151/8/4 152/8/4 154/8/4
f 154/8/4 152/8/4 155/8/4
f 155/8/4 152/8/4 156/8/4
f 156/8/4 152/8/4 157/8/4
f 148/2/4 154/2/4 158/2/4
f 154/7/4 155/7/4 158/7/4
f 155/8/4 156/8/4 159/8/4
f 158/7/4 155/7/4 159/7/4
f 159/8/4 156/8/4 160/8/4
f 156/9/4 157/9/4 161/9/4
f 160/8/4 156/8/4 161/8/4
f 157/8/4 152/8/4 162/8/4
f 161/9/4 157/9/4 162/9/4
f 148/2/4 158/2/4 163/2/4
f 158/6/4 159/6/4 163/6/4
f 163/6/4 159/6/4 164/6/4
f 164/6/4 159/6/4 165/6/4
f 159/7/4 160/7/4 166/7/4
f 165/6/4 159/6/4 166/6/4
f 160/9/4 161/9/4 167/9/4
f 166/7/4 160/7/4 167/7/4
f 161/7/4 162/7/4 168/7/4
f 167/9/4 161/9/4 168/9/4
f 162/8/4 152/8/4 169/8/4
f 168/7/4 162/7/4 169/7/4
f 152/2/4 153/2/4 170/2/4
f 169/8/4 152/8/4 170/8/4
f 148/2/4 163/2/4 171/2/4
f 163/3/4 164/3/4 172/3/4
f 171/2/4 163/2/4 172/2/4
f 164/6/4 165/6/4 173/6/4
f 172/3/4 164/3/4 173/3/4
f 173/6/4 165/6/4 174/6/4
f 165/3/4 166/3/4 175/3/4
f 166/3/4 167/3/4 175/3/4
f 175/3/4 167/3/4 176/3/4
f 167/9/4 168/9/4 177/9/4
f 176/3/4 167/3/4 177/3/4
f 168/6/4 169/6/4 178/6/4
f 177/9/4 168/9/4 178/9/4
f 169/7/4 170/7/4 179/7/4
f 178/6/4 169/6/4 179/6/4
f 170/2/4 153/2/4 180/2/4
f 179/7/4 170/7/4 180/7/4
f 180/2/4 153/2/4 181/2/4
f 171/1/4 172/1/4 182/1/4
f 172/4/4 173/4/4 183/4/4
f 182/1/4 172/1/4 183/1/4
f 175/4/4 176/4/4 184/4/4
f 165/3/4 175/3/4 184/3/4
f 176/9/4 177/9/4 185/9/4
f 184/4/4 176/4/4 185/4/4
f 178/6/4 179/6/4 186/6/4
f 185/9/4 177/9/4 186/9/4
f 177/6/4 178/6/4 186/6/4
f 179/6/4 180/6/4 186/6/4
f 186/6/4 180/6/4 187/6/4
f 183/4/4 173/4/4 188/4/4
f 182/2/4 183/2/4 188/2/4
f 173/3/4 174/3/4 189/3/4
f 188/4/4 173/4/4 189/4/4
f 174/6/4 165/6/4 190/6/4
f 189/3/4 174/3/4 190/3/4
f 165/3/4 184/3/4 191/3/4
f 190/6/4 165/6/4 191/6/4
f 184/3/4 185/3/4 191/3/4
f 185/3/4 186/3/4 191/3/4
f 186/9/4 187/9/4 192/9/4
f 191/3/4 186/3/4 192/3/4
f 187/6/4 180/6/4 193/6/4
f 192/9/4 187/9/4 193/9/4
f 193/6/4 180/6/4 194/6/4
f 180/1/4 181/1/4 195/1/4
f 194/6/4 180/6/4 195/6/4
f 188/3/4 189/3/4 196/3/4
f 182/2/4 188/2/4 196/2/4
f 189/6/4 190/6/4 197/6/4
f 196/3/4 189/3/4 197/3/4
f 191/6/4 192/6/4 197/6/4
f 192/6/4 193/6/4 197/6/4
f 190/6/4 191/6/4 197/6/4
f 197/6/4 193/6/4 198/6/4
f 193/9/4 194/9/4 199/9/4
f 198/6/4 193/6/4 199/6/4
f 194/5/4 195/5/4 200/5/4
f 199/9/4 194/9/4 200/9/4
f 200/5/4 195/5/4 201/5/4
f 195/1/4 181/1/4 202/1/4
f 201/5/4 195/5/4 202/5/4
f 202/1/4 181/1/4 203/1/4
f 197/6/4 198/6/4 204/6/4
f 196/6/4 197/6/4 204/6/4
f 198/5/4 199/5/4 205/5/4
f 204/6/4 198/6/4 205/6/4
f 199/5/4 200/5/4 205/5/4
f 200/9/4 201/9/4 206/9/4
f 205/5/4 200/5/4 206/5/4
f 201/8/4 202/8/4 207/8/4
f 206/9/4 201/9/4 207/9/4
f 182/2/4 196/2/4 208/2/4
f 196/6/4 204/6/4 209/6/4
f 208/2/4 196/2/4 209/2/4
f 209/6/4 204/6/4 210/6/4
f 204/5/4 205/5/4 211/5/4
f 210/6/4 204/6/4 211/6/4
f 205/8/4 206/8/4 212/8/4
f 211/5/4 205/5/4 212/5/4
f 206/8/4 207/8/4 212/8/4
f 209/6/4 210/6/4 213/6/4
f 208/1/4 209/1/4 213/1/4
f 213/6/4 210/6/4 214/6/4
f 210/5/4 211/5/4 215/5/4
f 214/6/4 210/6/4 215/6/4
f 211/8/4 212/8/4 216/8/4
f 215/5/4 211/5/4 216/5/4
f 216/8/4 212/8/4 217/8/4
f 207/8/4 202/8/4 218/8/4
f 217/8/4 212/8/4 218/8/4
f 212/8/4 207/8/4 218/8/4
f 202/2/4 203/2/4 218/2/4
f 218/2/4 203/2/4 219/2/4
f 208/1/4 213/1/4 220/1/4
f 213/1/4 214/1/4 220/1/4
f 215/2/4 216/2/4 221/2/4
f 220/1/4 214/1/4 221/1/4
f 214/2/4 215/2/4 221/2/4
f 216/1/4 217/1/4 222/1/4
f 221/2/4 216/2/4 222/2/4
f 217/2/4 218/2/4 223/2/4
f 222/1/4 217/1/4 223/1/4
f 218/1/4 219/1/4 224/1/4
f 223/2/4 218/2/4 224/2/4
f 224/1/4 219/1/4 225/1/4
f 232/1/5 227/1/5 226/1/5
f 233/2/5 228/2/5 227/2/5
f 233/1/5 227/1/5 232/1/5
f 234/1/5 229/1/5 228/1/5
f 234/2/5 228/2/5 233/2/5
f 235/2/5 230/2/5 229/2/5
f 235/1/5 229/1/5 234/1/5
f 236/1/5 231/1/5 230/1/5
f 236/2/5 230/2/5 235/2/5
f 237/1/5 231/1/5 236/1/5
f 242/2/5 239/2/5 238/2/5
f 243/2/5 239/2/5 242/2/5
f 244/1/5 240/1/5 239/1/5
f 244/2/5 239/2/5 243/2/5
f 245/1/5 240/1/5 244/1/5
f 246/2/5 241/2/5 240/2/5
f 246/1/5 240/1/5 245/1/5
f 247/2/5 241/2/5 246/2/5
f 248/2/6 249/2/6 253/2/6
f 253/2/6 249/2/6 254/2/6
f 254/2/6 249/2/6 255/2/6
f 255/2/6 249/2/6 256/2/6
f 249/1/6 250/1/6 257/1/6
f 256/2/6 249/2/6 257/2/6
f 250/2/6 251/2/6 258/2/6
f 257/1/6 250/1/6 258/1/6
f 258/2/6 251/2/6 259/2/6
f 259/2/6 251/2/6 260/2/6
f 251/1/6 252/1/6 261/1/6
f 260/2/6 251/2/6 261/2/6
f 261/1/6 252/1/6 262/1/6
f 263/1/6 264/1/6 269/1/6
f 264/2/6 265/2/6 270/2/6
f 269/1/6 264/1/6 270/1/6
f 265/1/6 266/1/6 271/1/6
f 270/2/6 265/2/6 271/2/6
f 266/2/6 267/2/6 272/2/6
f 271/1/6 266/1/6 272/1/6
f 267/1/6 268/1/6 273/1/6
f 272/2/6 267/2/6 273/2/6
f 273/1/6 268/1/6 274/1/6
