# MagicaVoxel @ ephtracy

# material
mtllib Canvas01.mtl
usemtl palette

# normals
vn -1 0 0
vn 1 0 0
vn 0 0 1
vn 0 0 -1
vn 0 -1 0
vn 0 1 0

# texcoords
vt 0.189453 0.5
vt 0.193359 0.5
vt 0.248047 0.5
vt 0.291016 0.5
vt 0.294922 0.5
vt 0.298828 0.5
vt 0.314453 0.5
vt 0.568359 0.5

# verts
v -0.75 0.875 -0.125
v -0.75 0.875 -0.375
v -0.75 1 -0.125
v -0.75 1 -0.375
v -0.75 1.875 -0.125
v -0.75 1.875 -0.375
v -0.75 2.25 -0.125
v -0.75 2.25 -0.375
v -0.75 2.5 -0.125
v -0.75 2.5 -0.375
v -0.75 2.625 -0.125
v -0.75 2.625 -0.375
v 0.625 1 -0.125
v 0.625 1 -0.25
v 0.625 1.125 -0.125
v 0.625 1.125 -0.25
v 0.625 1.375 -0.25
v 0.625 1.5 -0.125
v 0.625 1.5 -0.25
v 0.625 1.625 -0.25
v 0.625 1.75 -0.125
v 0.625 1.75 -0.25
v 0.625 2.5 -0.125
v 0.625 2.5 -0.25
v -0.625 1 -0.125
v -0.625 1 -0.25
v -0.625 1.375 -0.25
v -0.625 1.5 -0.25
v -0.625 1.625 -0.25
v -0.625 1.75 -0.25
v -0.625 1.875 -0.125
v -0.625 1.875 -0.25
v -0.625 2.25 -0.125
v -0.625 2.25 -0.25
v -0.625 2.5 -0.125
v -0.625 2.5 -0.25
v 0.75 0.875 -0.125
v 0.75 0.875 -0.375
v 0.75 1.125 -0.125
v 0.75 1.125 -0.375
v 0.75 1.5 -0.125
v 0.75 1.5 -0.375
v 0.75 1.75 -0.125
v 0.75 1.75 -0.375
v 0.75 2.5 -0.125
v 0.75 2.5 -0.375
v 0.75 2.625 -0.125
v 0.75 2.625 -0.375
v -0.75 0.875 -0.125
v -0.75 1 -0.125
v -0.75 1.875 -0.125
v -0.75 2.25 -0.125
v -0.75 2.5 -0.125
v -0.75 2.625 -0.125
v -0.625 0.875 -0.125
v -0.625 1 -0.125
v -0.625 1.875 -0.125
v -0.625 2.25 -0.125
v -0.625 2.5 -0.125
v -0.625 2.625 -0.125
v -0.125 0.875 -0.125
v -0.125 1 -0.125
v -0.125 2.5 -0.125
v -0.125 2.625 -0.125
v 0 0.875 -0.125
v 0 1 -0.125
v 0.25 2.5 -0.125
v 0.25 2.625 -0.125
v 0.5 0.875 -0.125
v 0.5 1 -0.125
v 0.625 1 -0.125
v 0.625 1.125 -0.125
v 0.625 1.5 -0.125
v 0.625 1.75 -0.125
v 0.625 2.5 -0.125
v 0.625 2.625 -0.125
v 0.75 0.875 -0.125
v 0.75 1.125 -0.125
v 0.75 1.5 -0.125
v 0.75 1.75 -0.125
v 0.75 2.5 -0.125
v 0.75 2.625 -0.125
v -0.625 1 -0.25
v -0.625 1.375 -0.25
v -0.625 1.5 -0.25
v -0.625 1.625 -0.25
v -0.625 1.75 -0.25
v -0.625 1.875 -0.25
v -0.625 2.25 -0.25
v -0.625 2.5 -0.25
v -0.125 1 -0.25
v -0.125 1.625 -0.25
v -0.125 1.75 -0.25
v -0.125 2.5 -0.25
v 0 1 -0.25
v 0 1.5 -0.25
v 0 1.625 -0.25
v 0 1.875 -0.25
v 0 2.25 -0.25
v 0.125 1.25 -0.25
v 0.125 1.375 -0.25
v 0.125 1.5 -0.25
v 0.25 1.25 -0.25
v 0.25 1.375 -0.25
v 0.25 2.5 -0.25
v 0.375 1.5 -0.25
v 0.375 1.625 -0.25
v 0.375 1.875 -0.25
v 0.375 2.25 -0.25
v 0.5 1 -0.25
v 0.625 1 -0.25
v 0.625 1.125 -0.25
v 0.625 1.375 -0.25
v 0.625 1.5 -0.25
v 0.625 1.625 -0.25
v 0.625 1.75 -0.25
v 0.625 2.5 -0.25
v -0.75 0.875 -0.375
v -0.75 1 -0.375
v -0.75 1.875 -0.375
v -0.75 2.25 -0.375
v -0.75 2.5 -0.375
v -0.75 2.625 -0.375
v -0.625 0.875 -0.375
v -0.625 1 -0.375
v -0.625 1.375 -0.375
v -0.625 1.5 -0.375
v -0.625 1.625 -0.375
v -0.625 1.75 -0.375
v -0.625 1.875 -0.375
v -0.625 2.25 -0.375
v -0.625 2.5 -0.375
v -0.625 2.625 -0.375
v -0.125 0.875 -0.375
v -0.125 1 -0.375
v -0.125 1.625 -0.375
v -0.125 1.75 -0.375
v -0.125 2.5 -0.375
v -0.125 2.625 -0.375
v 0 0.875 -0.375
v 0 1 -0.375
v 0 1.5 -0.375
v 0 1.625 -0.375
v 0 1.875 -0.375
v 0 2.25 -0.375
v 0.125 1.25 -0.375
v 0.125 1.375 -0.375
v 0.125 1.5 -0.375
v 0.25 1.25 -0.375
v 0.25 1.375 -0.375
v 0.25 2.5 -0.375
v 0.25 2.625 -0.375
v 0.375 1.5 -0.375
v 0.375 1.625 -0.375
v 0.375 1.875 -0.375
v 0.375 2.25 -0.375
v 0.5 0.875 -0.375
v 0.5 1 -0.375
v 0.625 1 -0.375
v 0.625 1.125 -0.375
v 0.625 1.375 -0.375
v 0.625 1.5 -0.375
v 0.625 1.625 -0.375
v 0.625 1.75 -0.375
v 0.625 2.5 -0.375
v 0.625 2.625 -0.375
v 0.75 0.875 -0.375
v 0.75 1.125 -0.375
v 0.75 1.5 -0.375
v 0.75 1.75 -0.375
v 0.75 2.5 -0.375
v 0.75 2.625 -0.375
v -0.75 0.875 -0.125
v -0.625 0.875 -0.125
v -0.125 0.875 -0.125
v 0 0.875 -0.125
v 0.5 0.875 -0.125
v 0.75 0.875 -0.125
v -0.75 0.875 -0.375
v -0.625 0.875 -0.375
v -0.125 0.875 -0.375
v 0 0.875 -0.375
v 0.5 0.875 -0.375
v 0.75 0.875 -0.375
v -0.625 2.5 -0.125
v -0.125 2.5 -0.125
v 0.25 2.5 -0.125
v 0.625 2.5 -0.125
v -0.625 2.5 -0.25
v -0.125 2.5 -0.25
v 0.25 2.5 -0.25
v 0.625 2.5 -0.25
v -0.625 1 -0.125
v -0.125 1 -0.125
v 0 1 -0.125
v 0.5 1 -0.125
v 0.625 1 -0.125
v -0.625 1 -0.25
v -0.125 1 -0.25
v 0 1 -0.25
v 0.5 1 -0.25
v 0.625 1 -0.25
v -0.75 2.625 -0.125
v -0.625 2.625 -0.125
v -0.125 2.625 -0.125
v 0.25 2.625 -0.125
v 0.625 2.625 -0.125
v 0.75 2.625 -0.125
v -0.75 2.625 -0.375
v -0.625 2.625 -0.375
v -0.125 2.625 -0.375
v 0.25 2.625 -0.375
v 0.625 2.625 -0.375
v 0.75 2.625 -0.375

# faces
f 3/1/1 2/1/1 1/1/1
f 4/1/1 2/1/1 3/1/1
f 5/2/1 4/2/1 3/2/1
f 6/2/1 4/2/1 5/2/1
f 7/1/1 6/1/1 5/1/1
f 8/1/1 6/1/1 7/1/1
f 9/2/1 8/2/1 7/2/1
f 10/2/1 8/2/1 9/2/1
f 11/1/1 10/1/1 9/1/1
f 12/1/1 10/1/1 11/1/1
f 15/1/1 14/1/1 13/1/1
f 16/1/1 14/1/1 15/1/1
f 17/2/1 16/2/1 15/2/1
f 18/2/1 17/2/1 15/2/1
f 19/2/1 17/2/1 18/2/1
f 20/1/1 19/1/1 18/1/1
f 21/1/1 20/1/1 18/1/1
f 22/1/1 20/1/1 21/1/1
f 23/2/1 22/2/1 21/2/1
f 24/2/1 22/2/1 23/2/1
f 25/2/2 26/2/2 27/2/2
f 25/2/2 27/2/2 28/2/2
f 25/2/2 28/2/2 29/2/2
f 25/2/2 29/2/2 30/2/2
f 25/2/2 30/2/2 31/2/2
f 31/2/2 30/2/2 32/2/2
f 31/1/2 32/1/2 33/1/2
f 33/1/2 32/1/2 34/1/2
f 33/2/2 34/2/2 35/2/2
f 35/2/2 34/2/2 36/2/2
f 37/1/2 38/1/2 39/1/2
f 39/1/2 38/1/2 40/1/2
f 39/2/2 40/2/2 41/2/2
f 41/2/2 40/2/2 42/2/2
f 41/1/2 42/1/2 43/1/2
f 43/1/2 42/1/2 44/1/2
f 43/2/2 44/2/2 45/2/2
f 45/2/2 44/2/2 46/2/2
f 45/1/2 46/1/2 47/1/2
f 47/1/2 46/1/2 48/1/2
f 55/1/3 50/1/3 49/1/3
f 56/2/3 51/2/3 50/2/3
f 56/1/3 50/1/3 55/1/3
f 57/1/3 52/1/3 51/1/3
f 57/2/3 51/2/3 56/2/3
f 58/2/3 53/2/3 52/2/3
f 58/1/3 52/1/3 57/1/3
f 59/1/3 54/1/3 53/1/3
f 59/2/3 53/2/3 58/2/3
f 60/1/3 54/1/3 59/1/3
f 61/2/3 56/2/3 55/2/3
f 62/2/3 56/2/3 61/2/3
f 63/2/3 60/2/3 59/2/3
f 64/2/3 60/2/3 63/2/3
f 65/1/3 62/1/3 61/1/3
f 66/1/3 62/1/3 65/1/3
f 67/1/3 64/1/3 63/1/3
f 68/1/3 64/1/3 67/1/3
f 69/2/3 66/2/3 65/2/3
f 70/2/3 66/2/3 69/2/3
f 71/1/3 70/1/3 69/1/3
f 75/2/3 68/2/3 67/2/3
f 76/2/3 68/2/3 75/2/3
f 77/1/3 71/1/3 69/1/3
f 77/1/3 72/1/3 71/1/3
f 78/2/3 73/2/3 72/2/3
f 78/1/3 72/1/3 77/1/3
f 79/1/3 74/1/3 73/1/3
f 79/2/3 73/2/3 78/2/3
f 80/2/3 75/2/3 74/2/3
f 80/1/3 74/1/3 79/1/3
f 81/1/3 76/1/3 75/1/3
f 81/2/3 75/2/3 80/2/3
f 82/1/3 76/1/3 81/1/3
f 91/4/3 84/4/3 83/4/3
f 92/5/3 86/5/3 85/5/3
f 92/6/3 87/6/3 86/6/3
f 93/8/3 90/8/3 89/8/3
f 93/6/3 87/6/3 92/6/3
f 93/8/3 88/8/3 87/8/3
f 93/8/3 89/8/3 88/8/3
f 94/8/3 90/8/3 93/8/3
f 95/4/3 84/4/3 91/4/3
f 96/5/3 92/5/3 85/5/3
f 96/7/3 85/7/3 84/7/3
f 97/8/3 93/8/3 92/8/3
f 97/5/3 92/5/3 96/5/3
f 97/8/3 94/8/3 93/8/3
f 98/8/3 94/8/3 97/8/3
f 99/8/3 94/8/3 98/8/3
f 100/4/3 84/4/3 95/4/3
f 101/7/3 96/7/3 84/7/3
f 101/4/3 84/4/3 100/4/3
f 102/8/3 97/8/3 96/8/3
f 102/7/3 96/7/3 101/7/3
f 102/8/3 98/8/3 97/8/3
f 103/4/3 100/4/3 95/4/3
f 103/7/3 101/7/3 100/7/3
f 104/5/3 102/5/3 101/5/3
f 104/7/3 101/7/3 103/7/3
f 105/8/3 94/8/3 99/8/3
f 106/5/3 102/5/3 104/5/3
f 106/8/3 98/8/3 102/8/3
f 107/8/3 98/8/3 106/8/3
f 108/3/3 99/3/3 98/3/3
f 108/8/3 98/8/3 107/8/3
f 109/8/3 105/8/3 99/8/3
f 109/3/3 99/3/3 108/3/3
f 110/4/3 103/4/3 95/4/3
f 110/4/3 104/4/3 103/4/3
f 111/4/3 104/4/3 110/4/3
f 112/4/3 104/4/3 111/4/3
f 113/5/3 107/5/3 106/5/3
f 113/4/3 104/4/3 112/4/3
f 113/5/3 106/5/3 104/5/3
f 114/5/3 107/5/3 113/5/3
f 115/8/3 108/8/3 107/8/3
f 115/5/3 107/5/3 114/5/3
f 115/8/3 109/8/3 108/8/3
f 116/8/3 109/8/3 115/8/3
f 117/8/3 105/8/3 109/8/3
f 117/8/3 109/8/3 116/8/3
f 118/1/4 119/1/4 124/1/4
f 119/2/4 120/2/4 125/2/4
f 124/1/4 119/1/4 125/1/4
f 125/2/4 120/2/4 126/2/4
f 126/2/4 120/2/4 127/2/4
f 127/2/4 120/2/4 128/2/4
f 128/2/4 120/2/4 129/2/4
f 120/1/4 121/1/4 130/1/4
f 129/2/4 120/2/4 130/2/4
f 121/2/4 122/2/4 131/2/4
f 130/1/4 121/1/4 131/1/4
f 122/1/4 123/1/4 132/1/4
f 131/2/4 122/2/4 132/2/4
f 132/1/4 123/1/4 133/1/4
f 124/2/4 125/2/4 134/2/4
f 125/4/4 126/4/4 135/4/4
f 134/2/4 125/2/4 135/2/4
f 128/6/4 129/6/4 136/6/4
f 127/5/4 128/5/4 136/5/4
f 130/8/4 131/8/4 137/8/4
f 136/6/4 129/6/4 137/6/4
f 129/8/4 130/8/4 137/8/4
f 131/8/4 132/8/4 137/8/4
f 132/2/4 133/2/4 138/2/4
f 137/8/4 132/8/4 138/8/4
f 138/2/4 133/2/4 139/2/4
f 134/1/4 135/1/4 140/1/4
f 135/4/4 126/4/4 141/4/4
f 140/1/4 135/1/4 141/1/4
f 127/5/4 136/5/4 142/5/4
f 126/7/4 127/7/4 142/7/4
f 136/8/4 137/8/4 143/8/4
f 142/5/4 136/5/4 143/5/4
f 137/8/4 138/8/4 143/8/4
f 143/8/4 138/8/4 144/8/4
f 144/8/4 138/8/4 145/8/4
f 141/4/4 126/4/4 146/4/4
f 126/7/4 142/7/4 147/7/4
f 146/4/4 126/4/4 147/4/4
f 142/8/4 143/8/4 148/8/4
f 147/7/4 142/7/4 148/7/4
f 143/8/4 144/8/4 148/8/4
f 141/4/4 146/4/4 149/4/4
f 146/7/4 147/7/4 149/7/4
f 147/5/4 148/5/4 150/5/4
f 149/7/4 147/7/4 150/7/4
f 145/8/4 138/8/4 151/8/4
f 138/1/4 139/1/4 151/1/4
f 151/1/4 139/1/4 152/1/4
f 150/5/4 148/5/4 153/5/4
f 148/8/4 144/8/4 153/8/4
f 153/8/4 144/8/4 154/8/4
f 144/3/4 145/3/4 155/3/4
f 154/8/4 144/8/4 155/8/4
f 145/8/4 151/8/4 156/8/4
f 155/3/4 145/3/4 156/3/4
f 140/2/4 141/2/4 157/2/4
f 149/4/4 150/4/4 158/4/4
f 157/2/4 141/2/4 158/2/4
f 141/4/4 149/4/4 158/4/4
f 157/1/4 158/1/4 159/1/4
f 158/4/4 150/4/4 159/4/4
f 159/4/4 150/4/4 160/4/4
f 153/5/4 154/5/4 161/5/4
f 160/4/4 150/4/4 161/4/4
f 150/5/4 153/5/4 161/5/4
f 161/5/4 154/5/4 162/5/4
f 155/8/4 156/8/4 163/8/4
f 162/5/4 154/5/4 163/5/4
f 154/8/4 155/8/4 163/8/4
f 163/8/4 156/8/4 164/8/4
f 151/2/4 152/2/4 165/2/4
f 164/8/4 156/8/4 165/8/4
f 156/8/4 151/8/4 165/8/4
f 165/2/4 152/2/4 166/2/4
f 159/1/4 160/1/4 167/1/4
f 157/1/4 159/1/4 167/1/4
f 161/2/4 162/2/4 168/2/4
f 167/1/4 160/1/4 168/1/4
f 160/2/4 161/2/4 168/2/4
f 163/1/4 164/1/4 169/1/4
f 168/2/4 162/2/4 169/2/4
f 162/1/4 163/1/4 169/1/4
f 164/2/4 165/2/4 170/2/4
f 169/1/4 164/1/4 170/1/4
f 165/1/4 166/1/4 171/1/4
f 170/2/4 165/2/4 171/2/4
f 171/1/4 166/1/4 172/1/4
f 179/1/5 174/1/5 173/1/5
f 180/2/5 175/2/5 174/2/5
f 180/1/5 174/1/5 179/1/5
f 181/1/5 176/1/5 175/1/5
f 181/2/5 175/2/5 180/2/5
f 182/2/5 177/2/5 176/2/5
f 182/1/5 176/1/5 181/1/5
f 183/1/5 178/1/5 177/1/5
f 183/2/5 177/2/5 182/2/5
f 184/1/5 178/1/5 183/1/5
f 189/2/5 186/2/5 185/2/5
f 190/1/5 187/1/5 186/1/5
f 190/2/5 186/2/5 189/2/5
f 191/2/5 188/2/5 187/2/5
f 191/1/5 187/1/5 190/1/5
f 192/2/5 188/2/5 191/2/5
f 193/2/6 194/2/6 198/2/6
f 194/1/6 195/1/6 199/1/6
f 198/2/6 194/2/6 199/2/6
f 195/2/6 196/2/6 200/2/6
f 199/1/6 195/1/6 200/1/6
f 196/1/6 197/1/6 201/1/6
f 200/2/6 196/2/6 201/2/6
f 201/1/6 197/1/6 202/1/6
f 203/1/6 204/1/6 209/1/6
f 204/2/6 205/2/6 210/2/6
f 209/1/6 204/1/6 210/1/6
f 205/1/6 206/1/6 211/1/6
f 210/2/6 205/2/6 211/2/6
f 206/2/6 207/2/6 212/2/6
f 211/1/6 206/1/6 212/1/6
f 207/1/6 208/1/6 213/1/6
f 212/2/6 207/2/6 213/2/6
f 213/1/6 208/1/6 214/1/6
