# MagicaVoxel @ ephtracy

# material
mtllib Chest01.mtl
usemtl palette

# normals
vn -1 0 0
vn 1 0 0
vn 0 0 1
vn 0 0 -1
vn 0 -1 0
vn 0 1 0

# texcoords
vt 0.158203 0.5
vt 0.162109 0.5
vt 0.166016 0.5
vt 0.189453 0.5
vt 0.193359 0.5
vt 0.197266 0.5
vt 0.970703 0.5
vt 0.986328 0.5
vt 0.990234 0.5
vt 0.994141 0.5

# verts
v -0.625 0 0.375
v -0.625 0 0.25
v -0.625 0 0.125
v -0.625 0 -0.25
v -0.625 0 -0.375
v -0.625 0 -0.5
v -0.625 0.125 0.25
v -0.625 0.125 0.125
v -0.625 0.125 -0.25
v -0.625 0.125 -0.375
v -0.625 0.375 0.375
v -0.625 0.375 0.25
v -0.625 0.375 0.125
v -0.625 0.375 -0.25
v -0.625 0.375 -0.375
v -0.625 0.375 -0.5
v -0.625 0.5 0.375
v -0.625 0.5 0.25
v -0.625 0.5 0.125
v -0.625 0.5 -0.25
v -0.625 0.5 -0.375
v -0.625 0.5 -0.5
v -0.625 0.625 0.375
v -0.625 0.625 0.25
v -0.625 0.625 -0.375
v -0.625 0.625 -0.5
v -0.625 0.75 0.25
v -0.625 0.75 -0.375
v -0.625 0.875 0.375
v -0.625 0.875 0.25
v -0.625 0.875 0.125
v -0.625 0.875 -0.25
v -0.625 0.875 -0.375
v -0.625 0.875 -0.5
v -0.625 1 0.25
v -0.625 1 0.125
v -0.625 1 -0.25
v -0.625 1 -0.375
v -0.625 1.125 0.125
v -0.625 1.125 -0.25
v 0.625 0 0.375
v 0.625 0 0.25
v 0.625 0 0.125
v 0.625 0 -0.25
v 0.625 0 -0.375
v 0.625 0 -0.5
v 0.625 0.125 0.25
v 0.625 0.125 0.125
v 0.625 0.125 -0.25
v 0.625 0.125 -0.375
v 0.625 0.375 0.375
v 0.625 0.375 0.25
v 0.625 0.375 0.125
v 0.625 0.375 -0.25
v 0.625 0.375 -0.375
v 0.625 0.375 -0.5
v 0.625 0.5 0.375
v 0.625 0.5 0.25
v 0.625 0.5 0.125
v 0.625 0.5 -0.25
v 0.625 0.5 -0.375
v 0.625 0.5 -0.5
v 0.625 0.625 0.375
v 0.625 0.625 0.25
v 0.625 0.625 -0.375
v 0.625 0.625 -0.5
v 0.625 0.75 0.25
v 0.625 0.75 -0.375
v 0.625 0.875 0.375
v 0.625 0.875 0.25
v 0.625 0.875 0.125
v 0.625 0.875 -0.25
v 0.625 0.875 -0.375
v 0.625 0.875 -0.5
v 0.625 1 0.25
v 0.625 1 0.125
v 0.625 1 -0.25
v 0.625 1 -0.375
v 0.625 1.125 0.125
v 0.625 1.125 -0.25
v -0.625 0 0.375
v -0.625 0.375 0.375
v -0.625 0.5 0.375
v -0.625 0.625 0.375
v -0.625 0.875 0.375
v -0.5 0 0.375
v -0.5 0.375 0.375
v -0.5 0.5 0.375
v -0.5 0.625 0.375
v -0.5 0.75 0.375
v -0.5 0.875 0.375
v -0.375 0 0.375
v -0.375 0.125 0.375
v -0.375 0.5 0.375
v -0.375 0.75 0.375
v -0.375 0.875 0.375
v -0.25 0 0.375
v -0.25 0.125 0.375
v -0.25 0.5 0.375
v -0.25 0.625 0.375
v -0.125 0 0.375
v -0.125 0.25 0.375
v -0.125 0.375 0.375
v -0.125 0.5 0.375
v 0 0 0.375
v 0 0.125 0.375
v 0 0.375 0.375
v 0 0.5 0.375
v 0.125 0.125 0.375
v 0.125 0.25 0.375
v 0.125 0.375 0.375
v 0.125 0.5 0.375
v 0.25 0 0.375
v 0.25 0.125 0.375
v 0.25 0.25 0.375
v 0.25 0.375 0.375
v 0.25 0.5 0.375
v 0.25 0.625 0.375
v 0.375 0 0.375
v 0.375 0.125 0.375
v 0.375 0.5 0.375
v 0.375 0.75 0.375
v 0.375 0.875 0.375
v 0.5 0 0.375
v 0.5 0.375 0.375
v 0.5 0.5 0.375
v 0.5 0.625 0.375
v 0.5 0.75 0.375
v 0.5 0.875 0.375
v 0.625 0 0.375
v 0.625 0.375 0.375
v 0.625 0.5 0.375
v 0.625 0.625 0.375
v 0.625 0.875 0.375
v -0.625 0.875 0.25
v -0.625 1 0.25
v -0.5 0.875 0.25
v -0.5 1 0.25
v -0.375 0.875 0.25
v -0.375 1 0.25
v -0.25 0.875 0.25
v -0.25 1 0.25
v 0.25 0.875 0.25
v 0.25 1 0.25
v 0.375 0.875 0.25
v 0.375 1 0.25
v 0.5 0.875 0.25
v 0.5 1 0.25
v 0.625 0.875 0.25
v 0.625 1 0.25
v -0.625 1 0.125
v -0.625 1.125 0.125
v -0.5 1 0.125
v -0.5 1.125 0.125
v -0.375 1 0.125
v -0.375 1.125 0.125
v -0.25 1 0.125
v -0.125 1 0.125
v -0.125 1.125 0.125
v 0.125 1 0.125
v 0.125 1.125 0.125
v 0.25 1 0.125
v 0.375 1 0.125
v 0.375 1.125 0.125
v 0.5 1 0.125
v 0.5 1.125 0.125
v 0.625 1 0.125
v 0.625 1.125 0.125
v -0.625 1 -0.25
v -0.625 1.125 -0.25
v -0.5 1 -0.25
v -0.5 1.125 -0.25
v -0.375 1 -0.25
v -0.375 1.125 -0.25
v -0.25 1 -0.25
v -0.125 1 -0.25
v -0.125 1.125 -0.25
v 0.125 1 -0.25
v 0.125 1.125 -0.25
v 0.25 1 -0.25
v 0.375 1 -0.25
v 0.375 1.125 -0.25
v 0.5 1 -0.25
v 0.5 1.125 -0.25
v 0.625 1 -0.25
v 0.625 1.125 -0.25
v -0.625 0.875 -0.375
v -0.625 1 -0.375
v -0.5 0.875 -0.375
v -0.5 1 -0.375
v -0.375 0.875 -0.375
v -0.375 1 -0.375
v -0.25 0.875 -0.375
v -0.25 1 -0.375
v 0.25 0.875 -0.375
v 0.25 1 -0.375
v 0.375 0.875 -0.375
v 0.375 1 -0.375
v 0.5 0.875 -0.375
v 0.5 1 -0.375
v 0.625 0.875 -0.375
v 0.625 1 -0.375
v -0.625 0 -0.5
v -0.625 0.375 -0.5
v -0.625 0.5 -0.5
v -0.625 0.625 -0.5
v -0.625 0.875 -0.5
v -0.5 0 -0.5
v -0.5 0.375 -0.5
v -0.5 0.5 -0.5
v -0.5 0.625 -0.5
v -0.5 0.75 -0.5
v -0.5 0.875 -0.5
v -0.375 0 -0.5
v -0.375 0.5 -0.5
v -0.375 0.75 -0.5
v -0.375 0.875 -0.5
v -0.25 0 -0.5
v -0.25 0.25 -0.5
v -0.125 0 -0.5
v -0.125 0.25 -0.5
v -0.125 0.5 -0.5
v -0.125 0.625 -0.5
v 0.125 0.375 -0.5
v 0.125 0.625 -0.5
v 0.25 0 -0.5
v 0.25 0.125 -0.5
v 0.25 0.375 -0.5
v 0.25 0.5 -0.5
v 0.375 0 -0.5
v 0.375 0.125 -0.5
v 0.375 0.5 -0.5
v 0.375 0.75 -0.5
v 0.375 0.875 -0.5
v 0.5 0 -0.5
v 0.5 0.375 -0.5
v 0.5 0.5 -0.5
v 0.5 0.625 -0.5
v 0.5 0.75 -0.5
v 0.5 0.875 -0.5
v 0.625 0 -0.5
v 0.625 0.375 -0.5
v 0.625 0.5 -0.5
v 0.625 0.625 -0.5
v 0.625 0.875 -0.5
v -0.625 0 0.375
v -0.5 0 0.375
v -0.375 0 0.375
v -0.25 0 0.375
v -0.125 0 0.375
v 0 0 0.375
v 0.25 0 0.375
v 0.375 0 0.375
v 0.5 0 0.375
v 0.625 0 0.375
v -0.625 0 0.25
v -0.5 0 0.25
v -0.375 0 0.25
v -0.25 0 0.25
v -0.125 0 0.25
v 0 0 0.25
v 0.25 0 0.25
v 0.375 0 0.25
v 0.5 0 0.25
v 0.625 0 0.25
v -0.625 0 0.125
v -0.5 0 0.125
v 0.5 0 0.125
v 0.625 0 0.125
v -0.625 0 -0.25
v -0.5 0 -0.25
v 0.5 0 -0.25
v 0.625 0 -0.25
v -0.625 0 -0.375
v -0.5 0 -0.375
v -0.25 0 -0.375
v -0.125 0 -0.375
v 0.25 0 -0.375
v 0.375 0 -0.375
v 0.5 0 -0.375
v 0.625 0 -0.375
v -0.625 0 -0.5
v -0.5 0 -0.5
v -0.375 0 -0.5
v -0.25 0 -0.5
v -0.125 0 -0.5
v 0.25 0 -0.5
v 0.375 0 -0.5
v 0.5 0 -0.5
v 0.625 0 -0.5
v -0.625 0.875 0.375
v -0.5 0.875 0.375
v -0.375 0.875 0.375
v 0.375 0.875 0.375
v 0.5 0.875 0.375
v 0.625 0.875 0.375
v -0.625 0.875 0.25
v -0.5 0.875 0.25
v -0.375 0.875 0.25
v -0.25 0.875 0.25
v 0.25 0.875 0.25
v 0.375 0.875 0.25
v 0.5 0.875 0.25
v 0.625 0.875 0.25
v -0.625 0.875 -0.375
v -0.5 0.875 -0.375
v -0.375 0.875 -0.375
v -0.25 0.875 -0.375
v 0.25 0.875 -0.375
v 0.375 0.875 -0.375
v 0.5 0.875 -0.375
v 0.625 0.875 -0.375
v -0.625 0.875 -0.5
v -0.5 0.875 -0.5
v -0.375 0.875 -0.5
v 0.375 0.875 -0.5
v 0.5 0.875 -0.5
v 0.625 0.875 -0.5
v -0.625 1 0.25
v -0.5 1 0.25
v -0.375 1 0.25
v -0.25 1 0.25
v 0.25 1 0.25
v 0.375 1 0.25
v 0.5 1 0.25
v 0.625 1 0.25
v -0.625 1 0.125
v -0.5 1 0.125
v -0.375 1 0.125
v -0.25 1 0.125
v -0.125 1 0.125
v 0.125 1 0.125
v 0.25 1 0.125
v 0.375 1 0.125
v 0.5 1 0.125
v 0.625 1 0.125
v -0.625 1 -0.25
v -0.5 1 -0.25
v -0.375 1 -0.25
v -0.25 1 -0.25
v -0.125 1 -0.25
v 0.125 1 -0.25
v 0.25 1 -0.25
v 0.375 1 -0.25
v 0.5 1 -0.25
v 0.625 1 -0.25
v -0.625 1 -0.375
v -0.5 1 -0.375
v -0.375 1 -0.375
v -0.25 1 -0.375
v 0.25 1 -0.375
v 0.375 1 -0.375
v 0.5 1 -0.375
v 0.625 1 -0.375
v -0.625 1.125 0.125
v -0.5 1.125 0.125
v -0.375 1.125 0.125
v -0.125 1.125 0.125
v 0.125 1.125 0.125
v 0.375 1.125 0.125
v 0.5 1.125 0.125
v 0.625 1.125 0.125
v -0.625 1.125 -0.25
v -0.5 1.125 -0.25
v -0.375 1.125 -0.25
v -0.125 1.125 -0.25
v 0.125 1.125 -0.25
v 0.375 1.125 -0.25
v 0.5 1.125 -0.25
v 0.625 1.125 -0.25

# faces
f 7/3/1 2/3/1 1/3/1
f 7/6/1 3/6/1 2/6/1
f 8/5/1 4/5/1 3/5/1
f 8/6/1 3/6/1 7/6/1
f 9/6/1 5/6/1 4/6/1
f 9/5/1 4/5/1 8/5/1
f 10/3/1 6/3/1 5/3/1
f 10/6/1 5/6/1 9/6/1
f 11/3/1 7/3/1 1/3/1
f 12/5/1 9/5/1 8/5/1
f 12/3/1 7/3/1 11/3/1
f 12/5/1 8/5/1 7/5/1
f 12/5/1 10/5/1 9/5/1
f 13/5/1 10/5/1 12/5/1
f 14/5/1 10/5/1 13/5/1
f 15/3/1 6/3/1 10/3/1
f 15/5/1 10/5/1 14/5/1
f 16/3/1 6/3/1 15/3/1
f 17/2/1 12/2/1 11/2/1
f 18/6/1 13/6/1 12/6/1
f 18/2/1 12/2/1 17/2/1
f 19/5/1 14/5/1 13/5/1
f 19/6/1 13/6/1 18/6/1
f 20/6/1 15/6/1 14/6/1
f 20/5/1 14/5/1 19/5/1
f 21/2/1 16/2/1 15/2/1
f 21/6/1 15/6/1 20/6/1
f 22/2/1 16/2/1 21/2/1
f 23/1/1 18/1/1 17/1/1
f 24/4/1 19/4/1 18/4/1
f 24/1/1 18/1/1 23/1/1
f 24/4/1 20/4/1 19/4/1
f 24/4/1 21/4/1 20/4/1
f 25/1/1 22/1/1 21/1/1
f 25/4/1 21/4/1 24/4/1
f 26/1/1 22/1/1 25/1/1
f 27/3/1 24/3/1 23/3/1
f 27/3/1 25/3/1 24/3/1
f 27/3/1 26/3/1 25/3/1
f 28/3/1 26/3/1 27/3/1
f 29/3/1 27/3/1 23/3/1
f 30/6/1 28/6/1 27/6/1
f 30/3/1 27/3/1 29/3/1
f 31/6/1 28/6/1 30/6/1
f 32/6/1 28/6/1 31/6/1
f 33/3/1 26/3/1 28/3/1
f 33/6/1 28/6/1 32/6/1
f 34/3/1 26/3/1 33/3/1
f 35/3/1 31/3/1 30/3/1
f 36/6/1 32/6/1 31/6/1
f 36/3/1 31/3/1 35/3/1
f 37/3/1 33/3/1 32/3/1
f 37/6/1 32/6/1 36/6/1
f 38/3/1 33/3/1 37/3/1
f 39/3/1 37/3/1 36/3/1
f 40/3/1 37/3/1 39/3/1
f 41/3/2 42/3/2 47/3/2
f 42/6/2 43/6/2 47/6/2
f 43/5/2 44/5/2 48/5/2
f 47/6/2 43/6/2 48/6/2
f 44/6/2 45/6/2 49/6/2
f 48/5/2 44/5/2 49/5/2
f 45/3/2 46/3/2 50/3/2
f 49/6/2 45/6/2 50/6/2
f 41/3/2 47/3/2 51/3/2
f 48/5/2 49/5/2 52/5/2
f 51/3/2 47/3/2 52/3/2
f 47/5/2 48/5/2 52/5/2
f 49/5/2 50/5/2 52/5/2
f 52/5/2 50/5/2 53/5/2
f 53/5/2 50/5/2 54/5/2
f 50/3/2 46/3/2 55/3/2
f 54/5/2 50/5/2 55/5/2
f 55/3/2 46/3/2 56/3/2
f 51/2/2 52/2/2 57/2/2
f 52/6/2 53/6/2 58/6/2
f 57/2/2 52/2/2 58/2/2
f 53/5/2 54/5/2 59/5/2
f 58/6/2 53/6/2 59/6/2
f 54/6/2 55/6/2 60/6/2
f 59/5/2 54/5/2 60/5/2
f 55/2/2 56/2/2 61/2/2
f 60/6/2 55/6/2 61/6/2
f 61/2/2 56/2/2 62/2/2
f 57/1/2 58/1/2 63/1/2
f 58/4/2 59/4/2 64/4/2
f 63/1/2 58/1/2 64/1/2
f 59/4/2 60/4/2 64/4/2
f 60/4/2 61/4/2 64/4/2
f 61/1/2 62/1/2 65/1/2
f 64/4/2 61/4/2 65/4/2
f 65/1/2 62/1/2 66/1/2
f 63/3/2 64/3/2 67/3/2
f 64/3/2 65/3/2 67/3/2
f 65/3/2 66/3/2 67/3/2
f 67/3/2 66/3/2 68/3/2
f 63/3/2 67/3/2 69/3/2
f 67/6/2 68/6/2 70/6/2
f 69/3/2 67/3/2 70/3/2
f 70/6/2 68/6/2 71/6/2
f 71/6/2 68/6/2 72/6/2
f 68/3/2 66/3/2 73/3/2
f 72/6/2 68/6/2 73/6/2
f 73/3/2 66/3/2 74/3/2
f 70/3/2 71/3/2 75/3/2
f 71/6/2 72/6/2 76/6/2
f 75/3/2 71/3/2 76/3/2
f 72/3/2 73/3/2 77/3/2
f 76/6/2 72/6/2 77/6/2
f 77/3/2 73/3/2 78/3/2
f 76/3/2 77/3/2 79/3/2
f 79/3/2 77/3/2 80/3/2
f 86/3/3 82/3/3 81/3/3
f 87/2/3 83/2/3 82/2/3
f 87/3/3 82/3/3 86/3/3
f 88/1/3 84/1/3 83/1/3
f 88/2/3 83/2/3 87/2/3
f 89/3/3 85/3/3 84/3/3
f 89/1/3 84/1/3 88/1/3
f 90/3/3 85/3/3 89/3/3
f 91/3/3 85/3/3 90/3/3
f 92/1/3 88/1/3 87/1/3
f 92/1/3 87/1/3 86/1/3
f 93/1/3 88/1/3 92/1/3
f 94/4/3 89/4/3 88/4/3
f 94/1/3 88/1/3 93/1/3
f 95/4/3 91/4/3 90/4/3
f 95/3/3 90/3/3 89/3/3
f 96/4/3 91/4/3 95/4/3
f 97/6/3 93/6/3 92/6/3
f 98/5/3 94/5/3 93/5/3
f 98/6/3 93/6/3 97/6/3
f 99/4/3 89/4/3 94/4/3
f 99/5/3 94/5/3 98/5/3
f 100/3/3 95/3/3 89/3/3
f 100/4/3 89/4/3 99/4/3
f 101/5/3 98/5/3 97/5/3
f 101/5/3 99/5/3 98/5/3
f 101/5/3 100/5/3 99/5/3
f 102/5/3 100/5/3 101/5/3
f 103/5/3 100/5/3 102/5/3
f 104/5/3 100/5/3 103/5/3
f 105/6/3 102/6/3 101/6/3
f 106/6/3 102/6/3 105/6/3
f 107/5/3 103/5/3 102/5/3
f 107/10/3 104/10/3 103/10/3
f 108/5/3 100/5/3 104/5/3
f 108/10/3 104/10/3 107/10/3
f 109/6/3 102/6/3 106/6/3
f 109/5/3 106/5/3 105/5/3
f 110/5/3 107/5/3 102/5/3
f 110/6/3 102/6/3 109/6/3
f 111/9/3 108/9/3 107/9/3
f 111/5/3 107/5/3 110/5/3
f 112/5/3 100/5/3 108/5/3
f 112/9/3 108/9/3 111/9/3
f 113/5/3 109/5/3 105/5/3
f 113/5/3 110/5/3 109/5/3
f 114/5/3 110/5/3 113/5/3
f 115/6/3 111/6/3 110/6/3
f 115/5/3 110/5/3 114/5/3
f 116/5/3 112/5/3 111/5/3
f 116/6/3 111/6/3 115/6/3
f 117/5/3 100/5/3 112/5/3
f 117/5/3 112/5/3 116/5/3
f 118/3/3 95/3/3 100/3/3
f 118/5/3 100/5/3 117/5/3
f 119/6/3 114/6/3 113/6/3
f 120/5/3 117/5/3 116/5/3
f 120/6/3 114/6/3 119/6/3
f 120/5/3 116/5/3 115/5/3
f 120/5/3 115/5/3 114/5/3
f 121/4/3 118/4/3 117/4/3
f 121/5/3 117/5/3 120/5/3
f 122/6/3 96/6/3 95/6/3
f 122/3/3 95/3/3 118/3/3
f 123/6/3 96/6/3 122/6/3
f 124/1/3 120/1/3 119/1/3
f 124/1/3 121/1/3 120/1/3
f 125/1/3 121/1/3 124/1/3
f 126/4/3 118/4/3 121/4/3
f 126/1/3 121/1/3 125/1/3
f 127/3/3 122/3/3 118/3/3
f 127/4/3 118/4/3 126/4/3
f 128/4/3 123/4/3 122/4/3
f 128/3/3 122/3/3 127/3/3
f 129/4/3 123/4/3 128/4/3
f 130/3/3 125/3/3 124/3/3
f 131/2/3 126/2/3 125/2/3
f 131/3/3 125/3/3 130/3/3
f 132/1/3 127/1/3 126/1/3
f 132/2/3 126/2/3 131/2/3
f 133/3/3 128/3/3 127/3/3
f 133/1/3 127/1/3 132/1/3
f 133/3/3 129/3/3 128/3/3
f 134/3/3 129/3/3 133/3/3
f 137/3/3 136/3/3 135/3/3
f 138/3/3 136/3/3 137/3/3
f 139/4/3 138/4/3 137/4/3
f 140/4/3 138/4/3 139/4/3
f 141/5/3 140/5/3 139/5/3
f 142/5/3 140/5/3 141/5/3
f 143/6/3 142/6/3 141/6/3
f 144/6/3 142/6/3 143/6/3
f 145/5/3 144/5/3 143/5/3
f 146/5/3 144/5/3 145/5/3
f 147/4/3 146/4/3 145/4/3
f 148/4/3 146/4/3 147/4/3
f 149/3/3 148/3/3 147/3/3
f 150/3/3 148/3/3 149/3/3
f 153/3/3 152/3/3 151/3/3
f 154/3/3 152/3/3 153/3/3
f 155/4/3 154/4/3 153/4/3
f 156/4/3 154/4/3 155/4/3
f 157/5/3 156/5/3 155/5/3
f 158/5/3 156/5/3 157/5/3
f 159/5/3 156/5/3 158/5/3
f 160/6/3 159/6/3 158/6/3
f 161/6/3 159/6/3 160/6/3
f 162/5/3 161/5/3 160/5/3
f 163/5/3 161/5/3 162/5/3
f 164/5/3 161/5/3 163/5/3
f 165/4/3 164/4/3 163/4/3
f 166/4/3 164/4/3 165/4/3
f 167/3/3 166/3/3 165/3/3
f 168/3/3 166/3/3 167/3/3
f 169/3/4 170/3/4 171/3/4
f 171/3/4 170/3/4 172/3/4
f 171/4/4 172/4/4 173/4/4
f 173/4/4 172/4/4 174/4/4
f 173/5/4 174/5/4 175/5/4
f 175/5/4 174/5/4 176/5/4
f 176/5/4 174/5/4 177/5/4
f 176/6/4 177/6/4 178/6/4
f 178/6/4 177/6/4 179/6/4
f 178/5/4 179/5/4 180/5/4
f 180/5/4 179/5/4 181/5/4
f 181/5/4 179/5/4 182/5/4
f 181/4/4 182/4/4 183/4/4
f 183/4/4 182/4/4 184/4/4
f 183/3/4 184/3/4 185/3/4
f 185/3/4 184/3/4 186/3/4
f 187/3/4 188/3/4 189/3/4
f 189/3/4 188/3/4 190/3/4
f 189/4/4 190/4/4 191/4/4
f 191/4/4 190/4/4 192/4/4
f 191/5/4 192/5/4 193/5/4
f 193/5/4 192/5/4 194/5/4
f 193/6/4 194/6/4 195/6/4
f 195/6/4 194/6/4 196/6/4
f 195/5/4 196/5/4 197/5/4
f 197/5/4 196/5/4 198/5/4
f 197/4/4 198/4/4 199/4/4
f 199/4/4 198/4/4 200/4/4
f 199/3/4 200/3/4 201/3/4
f 201/3/4 200/3/4 202/3/4
f 203/3/4 204/3/4 208/3/4
f 204/2/4 205/2/4 209/2/4
f 208/3/4 204/3/4 209/3/4
f 205/1/4 206/1/4 210/1/4
f 209/2/4 205/2/4 210/2/4
f 206/3/4 207/3/4 211/3/4
f 210/1/4 206/1/4 211/1/4
f 211/3/4 207/3/4 212/3/4
f 212/3/4 207/3/4 213/3/4
f 209/1/4 210/1/4 214/1/4
f 208/1/4 209/1/4 214/1/4
f 210/6/4 211/6/4 215/6/4
f 214/1/4 210/1/4 215/1/4
f 212/4/4 213/4/4 216/4/4
f 211/3/4 212/3/4 216/3/4
f 216/4/4 213/4/4 217/4/4
f 214/5/4 215/5/4 218/5/4
f 218/5/4 215/5/4 219/5/4
f 218/6/4 219/6/4 220/6/4
f 219/5/4 215/5/4 221/5/4
f 220/6/4 219/6/4 221/6/4
f 215/6/4 211/6/4 222/6/4
f 221/5/4 215/5/4 222/5/4
f 211/3/4 216/3/4 223/3/4
f 222/6/4 211/6/4 223/6/4
f 220/5/4 221/5/4 224/5/4
f 221/5/4 222/5/4 224/5/4
f 222/5/4 223/5/4 224/5/4
f 223/3/4 216/3/4 225/3/4
f 224/5/4 223/5/4 225/5/4
f 220/5/4 224/5/4 226/5/4
f 226/5/4 224/5/4 227/5/4
f 224/6/4 225/6/4 228/6/4
f 227/5/4 224/5/4 228/5/4
f 228/6/4 225/6/4 229/6/4
f 226/6/4 227/6/4 230/6/4
f 227/5/4 228/5/4 231/5/4
f 230/6/4 227/6/4 231/6/4
f 228/5/4 229/5/4 231/5/4
f 229/6/4 225/6/4 232/6/4
f 231/5/4 229/5/4 232/5/4
f 225/3/4 216/3/4 233/3/4
f 216/6/4 217/6/4 233/6/4
f 233/6/4 217/6/4 234/6/4
f 231/1/4 232/1/4 235/1/4
f 230/1/4 231/1/4 235/1/4
f 235/1/4 232/1/4 236/1/4
f 232/6/4 225/6/4 237/6/4
f 236/1/4 232/1/4 237/1/4
f 225/3/4 233/3/4 238/3/4
f 237/6/4 225/6/4 238/6/4
f 233/4/4 234/4/4 239/4/4
f 238/3/4 233/3/4 239/3/4
f 239/4/4 234/4/4 240/4/4
f 235/3/4 236/3/4 241/3/4
f 236/2/4 237/2/4 242/2/4
f 241/3/4 236/3/4 242/3/4
f 237/1/4 238/1/4 243/1/4
f 242/2/4 237/2/4 243/2/4
f 238/3/4 239/3/4 244/3/4
f 243/1/4 238/1/4 244/1/4
f 239/3/4 240/3/4 244/3/4
f 244/3/4 240/3/4 245/3/4
f 256/3/5 247/3/5 246/3/5
f 257/1/5 248/1/5 247/1/5
f 257/3/5 247/3/5 256/3/5
f 258/6/5 249/6/5 248/6/5
f 258/1/5 248/1/5 257/1/5
f 259/5/5 250/5/5 249/5/5
f 259/6/5 249/6/5 258/6/5
f 260/6/5 251/6/5 250/6/5
f 260/5/5 250/5/5 259/5/5
f 261/5/5 252/5/5 251/5/5
f 261/6/5 251/6/5 260/6/5
f 262/6/5 253/6/5 252/6/5
f 262/5/5 252/5/5 261/5/5
f 263/1/5 254/1/5 253/1/5
f 263/6/5 253/6/5 262/6/5
f 264/3/5 255/3/5 254/3/5
f 264/1/5 254/1/5 263/1/5
f 265/3/5 255/3/5 264/3/5
f 266/6/5 257/6/5 256/6/5
f 267/1/5 258/1/5 257/1/5
f 267/6/5 257/6/5 266/6/5
f 268/1/5 264/1/5 263/1/5
f 268/6/5 265/6/5 264/6/5
f 269/6/5 265/6/5 268/6/5
f 270/5/5 267/5/5 266/5/5
f 271/1/5 258/1/5 267/1/5
f 271/5/5 267/5/5 270/5/5
f 272/1/5 268/1/5 263/1/5
f 272/5/5 269/5/5 268/5/5
f 273/5/5 269/5/5 272/5/5
f 274/6/5 271/6/5 270/6/5
f 275/1/5 258/1/5 271/1/5
f 275/6/5 271/6/5 274/6/5
f 276/5/5 263/5/5 262/5/5
f 276/5/5 259/5/5 258/5/5
f 276/5/5 260/5/5 259/5/5
f 276/5/5 261/5/5 260/5/5
f 276/5/5 262/5/5 261/5/5
f 277/5/5 263/5/5 276/5/5
f 278/5/5 263/5/5 277/5/5
f 279/1/5 272/1/5 263/1/5
f 279/5/5 263/5/5 278/5/5
f 280/6/5 273/6/5 272/6/5
f 280/1/5 272/1/5 279/1/5
f 281/6/5 273/6/5 280/6/5
f 282/3/5 275/3/5 274/3/5
f 283/1/5 258/1/5 275/1/5
f 283/3/5 275/3/5 282/3/5
f 284/5/5 276/5/5 258/5/5
f 284/1/5 258/1/5 283/1/5
f 285/6/5 277/6/5 276/6/5
f 285/5/5 276/5/5 284/5/5
f 286/5/5 278/5/5 277/5/5
f 286/6/5 277/6/5 285/6/5
f 287/6/5 279/6/5 278/6/5
f 287/5/5 278/5/5 286/5/5
f 288/1/5 280/1/5 279/1/5
f 288/6/5 279/6/5 287/6/5
f 289/3/5 281/3/5 280/3/5
f 289/1/5 280/1/5 288/1/5
f 290/3/5 281/3/5 289/3/5
f 291/3/6 292/3/6 297/3/6
f 292/4/6 293/4/6 298/4/6
f 297/3/6 292/3/6 298/3/6
f 293/6/6 294/6/6 299/6/6
f 298/4/6 293/4/6 299/4/6
f 299/6/6 294/6/6 300/6/6
f 300/6/6 294/6/6 301/6/6
f 294/4/6 295/4/6 302/4/6
f 301/6/6 294/6/6 302/6/6
f 295/3/6 296/3/6 303/3/6
f 302/4/6 295/4/6 303/4/6
f 303/3/6 296/3/6 304/3/6
f 305/3/6 306/3/6 313/3/6
f 306/4/6 307/4/6 314/4/6
f 313/3/6 306/3/6 314/3/6
f 307/6/6 308/6/6 315/6/6
f 314/4/6 307/4/6 315/4/6
f 308/6/6 309/6/6 315/6/6
f 309/6/6 310/6/6 315/6/6
f 310/4/6 311/4/6 316/4/6
f 315/6/6 310/6/6 316/6/6
f 311/3/6 312/3/6 317/3/6
f 316/4/6 311/4/6 317/4/6
f 317/3/6 312/3/6 318/3/6
f 319/3/6 320/3/6 327/3/6
f 320/4/6 321/4/6 328/4/6
f 327/3/6 320/3/6 328/3/6
f 321/5/6 322/5/6 329/5/6
f 328/4/6 321/4/6 329/4/6
f 322/6/6 323/6/6 330/6/6
f 329/5/6 322/5/6 330/5/6
f 330/6/6 323/6/6 331/6/6
f 331/6/6 323/6/6 332/6/6
f 323/5/6 324/5/6 333/5/6
f 332/6/6 323/6/6 333/6/6
f 324/4/6 325/4/6 334/4/6
f 333/5/6 324/5/6 334/5/6
f 325/3/6 326/3/6 335/3/6
f 334/4/6 325/4/6 335/4/6
f 335/3/6 326/3/6 336/3/6
f 337/3/6 338/3/6 347/3/6
f 338/4/6 339/4/6 348/4/6
f 347/3/6 338/3/6 348/3/6
f 339/5/6 340/5/6 349/5/6
f 348/4/6 339/4/6 349/4/6
f 340/6/6 341/6/6 350/6/6
f 349/5/6 340/5/6 350/5/6
f 341/6/6 342/6/6 350/6/6
f 342/6/6 343/6/6 350/6/6
f 343/5/6 344/5/6 351/5/6
f 350/6/6 343/6/6 351/6/6
f 344/4/6 345/4/6 352/4/6
f 351/5/6 344/5/6 352/5/6
f 345/3/6 346/3/6 353/3/6
f 352/4/6 345/4/6 353/4/6
f 353/3/6 346/3/6 354/3/6
f 355/3/6 356/3/6 363/3/6
f 356/4/6 357/4/6 364/4/6
f 363/3/6 356/3/6 364/3/6
f 357/5/6 358/5/6 365/5/6
f 364/4/6 357/4/6 365/4/6
f 358/6/6 359/6/6 366/6/6
f 365/5/6 358/5/6 366/5/6
f 359/5/6 360/5/6 367/5/6
f 366/6/6 359/6/6 367/6/6
f 360/4/6 361/4/6 368/4/6
f 367/5/6 360/5/6 368/5/6
f 361/3/6 362/3/6 369/3/6
f 368/4/6 361/4/6 369/4/6
f 369/3/6 362/3/6 370/3/6
