# MagicaVoxel @ ephtracy

# material
mtllib Chest02.mtl
usemtl palette

# normals
vn -1 0 0
vn 1 0 0
vn 0 0 1
vn 0 0 -1
vn 0 -1 0
vn 0 1 0

# texcoords
vt 0.158203 0.5
vt 0.162109 0.5
vt 0.166016 0.5
vt 0.189453 0.5
vt 0.193359 0.5
vt 0.197266 0.5
vt 0.201172 0.5
vt 0.970703 0.5
vt 0.986328 0.5
vt 0.990234 0.5
vt 0.994141 0.5

# verts
v -0.625 0 0.75
v -0.625 0 0.625
v -0.625 0 0.5
v -0.625 0 0.125
v -0.625 0 -0
v -0.625 0 -0.125
v -0.625 0.125 0.75
v -0.625 0.125 0.625
v -0.625 0.125 0.5
v -0.625 0.125 0.125
v -0.625 0.125 -0
v -0.625 0.125 -0.125
v -0.625 0.375 0.75
v -0.625 0.375 0.625
v -0.625 0.375 0.5
v -0.625 0.375 0.125
v -0.625 0.375 -0
v -0.625 0.375 -0.125
v -0.625 0.5 0.75
v -0.625 0.5 0.625
v -0.625 0.5 0.5
v -0.625 0.5 0.125
v -0.625 0.5 -0
v -0.625 0.5 -0.125
v -0.625 0.625 0.75
v -0.625 0.625 0.625
v -0.625 0.625 -0
v -0.625 0.625 -0.125
v -0.625 0.625 -0.25
v -0.625 0.75 -0.125
v -0.625 0.75 -0.25
v -0.625 0.75 -0.375
v -0.625 0.875 -0.25
v -0.625 0.875 -0.375
v -0.625 0.875 -0.5
v -0.625 1.25 -0.25
v -0.625 1.25 -0.375
v -0.625 1.25 -0.5
v -0.625 1.375 -0.125
v -0.625 1.375 -0.25
v -0.625 1.375 -0.375
v -0.625 1.5 -0
v -0.625 1.5 -0.25
v 0.625 0 0.75
v 0.625 0 0.625
v 0.625 0 0.5
v 0.625 0 0.125
v 0.625 0 -0
v 0.625 0 -0.125
v 0.625 0.125 0.75
v 0.625 0.125 0.625
v 0.625 0.125 0.5
v 0.625 0.125 0.125
v 0.625 0.125 -0
v 0.625 0.375 0.75
v 0.625 0.375 0.625
v 0.625 0.375 0.5
v 0.625 0.375 0.125
v 0.625 0.375 -0
v 0.625 0.375 -0.125
v 0.625 0.5 0.75
v 0.625 0.5 0.625
v 0.625 0.5 0.5
v 0.625 0.5 0.125
v 0.625 0.5 -0
v 0.625 0.5 -0.125
v 0.625 0.625 0.75
v 0.625 0.625 0.625
v 0.625 0.625 -0
v 0.625 0.625 -0.125
v 0.625 0.625 -0.25
v 0.625 0.75 -0.125
v 0.625 0.75 -0.25
v 0.625 0.75 -0.375
v 0.625 0.875 -0.25
v 0.625 0.875 -0.375
v 0.625 0.875 -0.5
v 0.625 1.25 -0.25
v 0.625 1.25 -0.375
v 0.625 1.25 -0.5
v 0.625 1.375 -0.125
v 0.625 1.375 -0.25
v 0.625 1.375 -0.375
v 0.625 1.5 -0
v 0.625 1.5 -0.25
v -0.625 0 0.75
v -0.625 0.125 0.75
v -0.625 0.375 0.75
v -0.625 0.5 0.75
v -0.625 0.625 0.75
v -0.5 0 0.75
v -0.5 0.125 0.75
v -0.5 0.375 0.75
v -0.5 0.5 0.75
v -0.5 0.625 0.75
v -0.375 0.125 0.75
v -0.375 0.5 0.75
v -0.25 0 0.75
v -0.25 0.125 0.75
v -0.25 0.5 0.75
v -0.25 0.625 0.75
v -0.125 0 0.75
v -0.125 0.25 0.75
v -0.125 0.375 0.75
v -0.125 0.5 0.75
v 0 0 0.75
v 0 0.125 0.75
v 0 0.375 0.75
v 0 0.5 0.75
v 0.125 0.125 0.75
v 0.125 0.25 0.75
v 0.125 0.375 0.75
v 0.125 0.5 0.75
v 0.25 0 0.75
v 0.25 0.125 0.75
v 0.25 0.25 0.75
v 0.25 0.375 0.75
v 0.25 0.5 0.75
v 0.25 0.625 0.75
v 0.375 0.125 0.75
v 0.375 0.5 0.75
v 0.5 0 0.75
v 0.5 0.125 0.75
v 0.5 0.375 0.75
v 0.5 0.5 0.75
v 0.5 0.625 0.75
v 0.625 0 0.75
v 0.625 0.125 0.75
v 0.625 0.375 0.75
v 0.625 0.5 0.75
v 0.625 0.625 0.75
v -0.625 0.625 -0
v -0.625 1.5 -0
v -0.5 0.625 -0
v -0.5 1.375 -0
v -0.375 0.625 -0
v -0.375 1.25 -0
v 0.375 0.625 -0
v 0.375 1.25 -0
v 0.5 0.625 -0
v 0.5 1.375 -0
v 0.625 0.625 -0
v 0.625 1.5 -0
v -0.625 0 -0.125
v -0.625 0.125 -0.125
v -0.625 0.375 -0.125
v -0.625 0.5 -0.125
v -0.625 0.625 -0.125
v -0.5 0 -0.125
v -0.5 0.125 -0.125
v -0.5 0.375 -0.125
v -0.5 0.5 -0.125
v -0.5 0.625 -0.125
v -0.375 0 -0.125
v -0.375 0.5 -0.125
v -0.375 0.625 -0.125
v -0.25 0 -0.125
v -0.25 0.25 -0.125
v -0.25 0.625 -0.125
v -0.125 0 -0.125
v -0.125 0.25 -0.125
v 0.125 0.375 -0.125
v 0.125 0.5 -0.125
v 0.25 0 -0.125
v 0.25 0.125 -0.125
v 0.25 0.375 -0.125
v 0.25 0.5 -0.125
v 0.25 0.625 -0.125
v 0.375 0 -0.125
v 0.375 0.125 -0.125
v 0.375 0.5 -0.125
v 0.375 0.625 -0.125
v 0.5 0 -0.125
v 0.5 0.375 -0.125
v 0.5 0.5 -0.125
v 0.5 0.625 -0.125
v 0.625 0 -0.125
v 0.625 0.375 -0.125
v 0.625 0.5 -0.125
v 0.625 0.625 -0.125
v -0.625 0.625 -0.25
v -0.625 0.75 -0.25
v -0.625 1.375 -0.25
v -0.625 1.5 -0.25
v -0.5 0.625 -0.25
v -0.5 0.75 -0.25
v -0.5 1.375 -0.25
v -0.5 1.5 -0.25
v -0.25 0.625 -0.25
v -0.25 0.75 -0.25
v -0.25 1.375 -0.25
v -0.25 1.5 -0.25
v 0.25 0.625 -0.25
v 0.25 0.75 -0.25
v 0.25 1.375 -0.25
v 0.25 1.5 -0.25
v 0.5 0.625 -0.25
v 0.5 0.75 -0.25
v 0.5 1.375 -0.25
v 0.5 1.5 -0.25
v 0.625 0.625 -0.25
v 0.625 0.75 -0.25
v 0.625 1.375 -0.25
v 0.625 1.5 -0.25
v -0.625 0.75 -0.375
v -0.625 0.875 -0.375
v -0.625 1.25 -0.375
v -0.625 1.375 -0.375
v -0.5 0.75 -0.375
v -0.5 0.875 -0.375
v -0.5 1.25 -0.375
v -0.5 1.375 -0.375
v -0.25 0.75 -0.375
v -0.25 0.875 -0.375
v -0.25 1.25 -0.375
v -0.25 1.375 -0.375
v 0.25 0.75 -0.375
v 0.25 0.875 -0.375
v 0.25 1.25 -0.375
v 0.25 1.375 -0.375
v 0.5 0.75 -0.375
v 0.5 0.875 -0.375
v 0.5 1.25 -0.375
v 0.5 1.375 -0.375
v 0.625 0.75 -0.375
v 0.625 0.875 -0.375
v 0.625 1.25 -0.375
v 0.625 1.375 -0.375
v -0.625 0.875 -0.5
v -0.625 1.25 -0.5
v -0.5 0.875 -0.5
v -0.5 1.25 -0.5
v -0.25 0.875 -0.5
v -0.25 1.25 -0.5
v 0.25 0.875 -0.5
v 0.25 1.25 -0.5
v 0.5 0.875 -0.5
v 0.5 1.25 -0.5
v 0.625 0.875 -0.5
v 0.625 1.25 -0.5
v -0.625 0 0.75
v -0.5 0 0.75
v -0.25 0 0.75
v -0.125 0 0.75
v 0 0 0.75
v 0.25 0 0.75
v 0.5 0 0.75
v 0.625 0 0.75
v -0.625 0 0.625
v -0.5 0 0.625
v -0.375 0 0.625
v -0.25 0 0.625
v -0.125 0 0.625
v 0 0 0.625
v 0.25 0 0.625
v 0.375 0 0.625
v 0.5 0 0.625
v 0.625 0 0.625
v -0.625 0 0.5
v -0.5 0 0.5
v 0.5 0 0.5
v 0.625 0 0.5
v -0.625 0 0.125
v -0.5 0 0.125
v 0.5 0 0.125
v 0.625 0 0.125
v -0.625 0 -0
v -0.5 0 -0
v -0.25 0 -0
v -0.125 0 -0
v 0.25 0 -0
v 0.375 0 -0
v 0.5 0 -0
v 0.625 0 -0
v -0.625 0 -0.125
v -0.5 0 -0.125
v -0.375 0 -0.125
v -0.25 0 -0.125
v -0.125 0 -0.125
v 0.25 0 -0.125
v 0.375 0 -0.125
v 0.5 0 -0.125
v 0.625 0 -0.125
v -0.625 0.625 -0.125
v -0.5 0.625 -0.125
v -0.375 0.625 -0.125
v -0.25 0.625 -0.125
v 0.25 0.625 -0.125
v 0.375 0.625 -0.125
v 0.5 0.625 -0.125
v 0.625 0.625 -0.125
v -0.625 0.625 -0.25
v -0.5 0.625 -0.25
v -0.25 0.625 -0.25
v 0.25 0.625 -0.25
v 0.5 0.625 -0.25
v 0.625 0.625 -0.25
v -0.625 0.75 -0.25
v -0.5 0.75 -0.25
v -0.25 0.75 -0.25
v 0.25 0.75 -0.25
v 0.5 0.75 -0.25
v 0.625 0.75 -0.25
v -0.625 0.75 -0.375
v -0.5 0.75 -0.375
v -0.25 0.75 -0.375
v 0.25 0.75 -0.375
v 0.5 0.75 -0.375
v 0.625 0.75 -0.375
v -0.625 0.875 -0.375
v -0.5 0.875 -0.375
v -0.25 0.875 -0.375
v 0.25 0.875 -0.375
v 0.5 0.875 -0.375
v 0.625 0.875 -0.375
v -0.625 0.875 -0.5
v -0.5 0.875 -0.5
v -0.25 0.875 -0.5
v 0.25 0.875 -0.5
v 0.5 0.875 -0.5
v 0.625 0.875 -0.5
v -0.625 0.625 0.75
v -0.5 0.625 0.75
v -0.25 0.625 0.75
v 0.25 0.625 0.75
v 0.5 0.625 0.75
v 0.625 0.625 0.75
v -0.625 0.625 0.625
v -0.5 0.625 0.625
v -0.25 0.625 0.625
v 0.25 0.625 0.625
v 0.5 0.625 0.625
v 0.625 0.625 0.625
v -0.375 0.625 0.5
v 0.375 0.625 0.5
v -0.625 0.625 -0
v -0.5 0.625 -0
v -0.375 0.625 -0
v 0.375 0.625 -0
v 0.5 0.625 -0
v 0.625 0.625 -0
v -0.625 1.25 -0.375
v -0.5 1.25 -0.375
v -0.25 1.25 -0.375
v 0.25 1.25 -0.375
v 0.5 1.25 -0.375
v 0.625 1.25 -0.375
v -0.625 1.25 -0.5
v -0.5 1.25 -0.5
v -0.25 1.25 -0.5
v 0.25 1.25 -0.5
v 0.5 1.25 -0.5
v 0.625 1.25 -0.5
v -0.625 1.375 -0.25
v -0.5 1.375 -0.25
v -0.25 1.375 -0.25
v 0.25 1.375 -0.25
v 0.5 1.375 -0.25
v 0.625 1.375 -0.25
v -0.625 1.375 -0.375
v -0.5 1.375 -0.375
v -0.25 1.375 -0.375
v 0.25 1.375 -0.375
v 0.5 1.375 -0.375
v 0.625 1.375 -0.375
v -0.625 1.5 -0
v 0.625 1.5 -0
v -0.5 1.5 -0.125
v -0.25 1.5 -0.125
v 0.25 1.5 -0.125
v 0.5 1.5 -0.125
v -0.625 1.5 -0.25
v -0.5 1.5 -0.25
v -0.25 1.5 -0.25
v 0.25 1.5 -0.25
v 0.5 1.5 -0.25
v 0.625 1.5 -0.25

# faces
f 7/2/1 2/2/1 1/2/1
f 8/6/1 3/6/1 2/6/1
f 8/2/1 2/2/1 7/2/1
f 9/5/1 4/5/1 3/5/1
f 9/6/1 3/6/1 8/6/1
f 10/6/1 5/6/1 4/6/1
f 10/5/1 4/5/1 9/5/1
f 11/2/1 6/2/1 5/2/1
f 11/6/1 5/6/1 10/6/1
f 12/2/1 6/2/1 11/2/1
f 13/3/1 8/3/1 7/3/1
f 14/5/1 10/5/1 9/5/1
f 14/3/1 8/3/1 13/3/1
f 14/5/1 9/5/1 8/5/1
f 14/5/1 11/5/1 10/5/1
f 15/5/1 11/5/1 14/5/1
f 16/5/1 11/5/1 15/5/1
f 17/3/1 12/3/1 11/3/1
f 17/5/1 11/5/1 16/5/1
f 18/3/1 12/3/1 17/3/1
f 19/2/1 14/2/1 13/2/1
f 20/6/1 15/6/1 14/6/1
f 20/2/1 14/2/1 19/2/1
f 21/5/1 16/5/1 15/5/1
f 21/6/1 15/6/1 20/6/1
f 22/6/1 17/6/1 16/6/1
f 22/5/1 16/5/1 21/5/1
f 23/2/1 18/2/1 17/2/1
f 23/6/1 17/6/1 22/6/1
f 24/2/1 18/2/1 23/2/1
f 25/3/1 20/3/1 19/3/1
f 26/1/1 21/1/1 20/1/1
f 26/3/1 20/3/1 25/3/1
f 26/1/1 22/1/1 21/1/1
f 26/1/1 24/1/1 23/1/1
f 26/1/1 23/1/1 22/1/1
f 27/1/1 24/1/1 26/1/1
f 28/1/1 24/1/1 27/1/1
f 30/3/1 28/3/1 27/3/1
f 30/3/1 29/3/1 28/3/1
f 31/3/1 29/3/1 30/3/1
f 33/6/1 31/6/1 30/6/1
f 33/3/1 32/3/1 31/3/1
f 34/3/1 32/3/1 33/3/1
f 36/6/1 33/6/1 30/6/1
f 36/6/1 34/6/1 33/6/1
f 37/3/1 35/3/1 34/3/1
f 37/6/1 34/6/1 36/6/1
f 38/3/1 35/3/1 37/3/1
f 39/3/1 30/3/1 27/3/1
f 39/6/1 36/6/1 30/6/1
f 40/3/1 37/3/1 36/3/1
f 40/6/1 36/6/1 39/6/1
f 41/3/1 37/3/1 40/3/1
f 42/3/1 39/3/1 27/3/1
f 42/3/1 40/3/1 39/3/1
f 43/3/1 40/3/1 42/3/1
f 44/2/2 45/2/2 50/2/2
f 45/6/2 46/6/2 51/6/2
f 50/2/2 45/2/2 51/2/2
f 46/5/2 47/5/2 52/5/2
f 51/6/2 46/6/2 52/6/2
f 47/6/2 48/6/2 53/6/2
f 52/5/2 47/5/2 53/5/2
f 48/3/2 49/3/2 54/3/2
f 53/6/2 48/6/2 54/6/2
f 50/3/2 51/3/2 55/3/2
f 52/5/2 53/5/2 56/5/2
f 55/3/2 51/3/2 56/3/2
f 51/5/2 52/5/2 56/5/2
f 53/5/2 54/5/2 56/5/2
f 56/5/2 54/5/2 57/5/2
f 57/5/2 54/5/2 58/5/2
f 54/3/2 49/3/2 59/3/2
f 58/5/2 54/5/2 59/5/2
f 59/3/2 49/3/2 60/3/2
f 55/2/2 56/2/2 61/2/2
f 56/6/2 57/6/2 62/6/2
f 61/2/2 56/2/2 62/2/2
f 57/5/2 58/5/2 63/5/2
f 62/6/2 57/6/2 63/6/2
f 58/6/2 59/6/2 64/6/2
f 63/5/2 58/5/2 64/5/2
f 59/2/2 60/2/2 65/2/2
f 64/6/2 59/6/2 65/6/2
f 65/2/2 60/2/2 66/2/2
f 61/3/2 62/3/2 67/3/2
f 62/1/2 63/1/2 68/1/2
f 67/3/2 62/3/2 68/3/2
f 63/1/2 64/1/2 68/1/2
f 65/1/2 66/1/2 68/1/2
f 64/1/2 65/1/2 68/1/2
f 68/1/2 66/1/2 69/1/2
f 69/1/2 66/1/2 70/1/2
f 69/3/2 70/3/2 72/3/2
f 70/3/2 71/3/2 72/3/2
f 72/3/2 71/3/2 73/3/2
f 72/6/2 73/6/2 75/6/2
f 73/3/2 74/3/2 75/3/2
f 75/3/2 74/3/2 76/3/2
f 72/6/2 75/6/2 78/6/2
f 75/6/2 76/6/2 78/6/2
f 76/3/2 77/3/2 79/3/2
f 78/6/2 76/6/2 79/6/2
f 79/3/2 77/3/2 80/3/2
f 69/3/2 72/3/2 81/3/2
f 72/6/2 78/6/2 81/6/2
f 78/3/2 79/3/2 82/3/2
f 81/6/2 78/6/2 82/6/2
f 82/3/2 79/3/2 83/3/2
f 69/3/2 81/3/2 84/3/2
f 81/3/2 82/3/2 84/3/2
f 84/3/2 82/3/2 85/3/2
f 91/2/3 87/2/3 86/2/3
f 92/3/3 88/3/3 87/3/3
f 92/2/3 87/2/3 91/2/3
f 93/2/3 89/2/3 88/2/3
f 93/3/3 88/3/3 92/3/3
f 94/3/3 90/3/3 89/3/3
f 94/2/3 89/2/3 93/2/3
f 95/3/3 90/3/3 94/3/3
f 96/1/3 93/1/3 92/1/3
f 96/6/3 92/6/3 91/6/3
f 96/1/3 94/1/3 93/1/3
f 97/4/3 95/4/3 94/4/3
f 97/1/3 94/1/3 96/1/3
f 98/6/3 96/6/3 91/6/3
f 99/5/3 97/5/3 96/5/3
f 99/6/3 96/6/3 98/6/3
f 100/4/3 95/4/3 97/4/3
f 100/5/3 97/5/3 99/5/3
f 101/4/3 95/4/3 100/4/3
f 102/5/3 99/5/3 98/5/3
f 102/5/3 100/5/3 99/5/3
f 102/5/3 101/5/3 100/5/3
f 103/5/3 101/5/3 102/5/3
f 104/5/3 101/5/3 103/5/3
f 105/5/3 101/5/3 104/5/3
f 106/6/3 103/6/3 102/6/3
f 107/6/3 103/6/3 106/6/3
f 108/5/3 104/5/3 103/5/3
f 108/11/3 105/11/3 104/11/3
f 109/5/3 101/5/3 105/5/3
f 109/11/3 105/11/3 108/11/3
f 110/6/3 103/6/3 107/6/3
f 110/5/3 107/5/3 106/5/3
f 111/5/3 108/5/3 103/5/3
f 111/6/3 103/6/3 110/6/3
f 112/10/3 109/10/3 108/10/3
f 112/5/3 108/5/3 111/5/3
f 113/5/3 101/5/3 109/5/3
f 113/10/3 109/10/3 112/10/3
f 114/5/3 110/5/3 106/5/3
f 114/5/3 111/5/3 110/5/3
f 115/5/3 111/5/3 114/5/3
f 116/6/3 112/6/3 111/6/3
f 116/5/3 111/5/3 115/5/3
f 117/5/3 113/5/3 112/5/3
f 117/6/3 112/6/3 116/6/3
f 118/5/3 101/5/3 113/5/3
f 118/5/3 113/5/3 117/5/3
f 119/5/3 101/5/3 118/5/3
f 120/5/3 117/5/3 116/5/3
f 120/6/3 115/6/3 114/6/3
f 120/5/3 116/5/3 115/5/3
f 120/5/3 118/5/3 117/5/3
f 121/4/3 119/4/3 118/4/3
f 121/5/3 118/5/3 120/5/3
f 122/6/3 120/6/3 114/6/3
f 123/1/3 121/1/3 120/1/3
f 123/6/3 120/6/3 122/6/3
f 124/1/3 121/1/3 123/1/3
f 125/4/3 119/4/3 121/4/3
f 125/1/3 121/1/3 124/1/3
f 126/4/3 119/4/3 125/4/3
f 127/2/3 123/2/3 122/2/3
f 128/3/3 124/3/3 123/3/3
f 128/2/3 123/2/3 127/2/3
f 129/2/3 125/2/3 124/2/3
f 129/3/3 124/3/3 128/3/3
f 130/3/3 126/3/3 125/3/3
f 130/2/3 125/2/3 129/2/3
f 131/3/3 126/3/3 130/3/3
f 134/3/3 133/3/3 132/3/3
f 135/3/3 133/3/3 134/3/3
f 136/7/3 135/7/3 134/7/3
f 137/7/3 135/7/3 136/7/3
f 138/10/3 137/10/3 136/10/3
f 139/7/3 135/7/3 137/7/3
f 139/10/3 137/10/3 138/10/3
f 140/7/3 139/7/3 138/7/3
f 141/3/3 133/3/3 135/3/3
f 141/7/3 139/7/3 140/7/3
f 141/7/3 135/7/3 139/7/3
f 142/3/3 141/3/3 140/3/3
f 143/3/3 133/3/3 141/3/3
f 143/3/3 141/3/3 142/3/3
f 144/2/4 145/2/4 149/2/4
f 145/3/4 146/3/4 150/3/4
f 149/2/4 145/2/4 150/2/4
f 146/2/4 147/2/4 151/2/4
f 150/3/4 146/3/4 151/3/4
f 147/1/4 148/1/4 152/1/4
f 151/2/4 147/2/4 152/2/4
f 152/1/4 148/1/4 153/1/4
f 150/1/4 151/1/4 154/1/4
f 149/1/4 150/1/4 154/1/4
f 151/1/4 152/1/4 154/1/4
f 152/6/4 153/6/4 155/6/4
f 154/1/4 152/1/4 155/1/4
f 155/6/4 153/6/4 156/6/4
f 154/5/4 155/5/4 157/5/4
f 157/5/4 155/5/4 158/5/4
f 155/10/4 156/10/4 159/10/4
f 157/6/4 158/6/4 160/6/4
f 158/5/4 155/5/4 161/5/4
f 160/6/4 158/6/4 161/6/4
f 160/5/4 161/5/4 162/5/4
f 161/5/4 155/5/4 162/5/4
f 155/10/4 159/10/4 163/10/4
f 162/5/4 155/5/4 163/5/4
f 160/5/4 162/5/4 164/5/4
f 164/5/4 162/5/4 165/5/4
f 162/6/4 163/6/4 166/6/4
f 165/5/4 162/5/4 166/5/4
f 163/10/4 159/10/4 167/10/4
f 166/6/4 163/6/4 167/6/4
f 167/10/4 159/10/4 168/10/4
f 164/6/4 165/6/4 169/6/4
f 165/5/4 166/5/4 170/5/4
f 169/6/4 165/6/4 170/6/4
f 166/5/4 167/5/4 170/5/4
f 167/10/4 168/10/4 171/10/4
f 170/5/4 167/5/4 171/5/4
f 171/10/4 168/10/4 172/10/4
f 169/1/4 170/1/4 173/1/4
f 170/1/4 171/1/4 173/1/4
f 173/1/4 171/1/4 174/1/4
f 171/6/4 172/6/4 175/6/4
f 174/1/4 171/1/4 175/1/4
f 175/6/4 172/6/4 176/6/4
f 173/3/4 174/3/4 177/3/4
f 174/2/4 175/2/4 178/2/4
f 177/3/4 174/3/4 178/3/4
f 175/1/4 176/1/4 179/1/4
f 178/2/4 175/2/4 179/2/4
f 179/1/4 176/1/4 180/1/4
f 181/3/4 182/3/4 185/3/4
f 185/3/4 182/3/4 186/3/4
f 183/3/4 184/3/4 187/3/4
f 187/3/4 184/3/4 188/3/4
f 185/5/4 186/5/4 189/5/4
f 189/5/4 186/5/4 190/5/4
f 187/5/4 188/5/4 191/5/4
f 191/5/4 188/5/4 192/5/4
f 189/6/4 190/6/4 193/6/4
f 193/6/4 190/6/4 194/6/4
f 191/6/4 192/6/4 195/6/4
f 195/6/4 192/6/4 196/6/4
f 193/5/4 194/5/4 197/5/4
f 197/5/4 194/5/4 198/5/4
f 195/5/4 196/5/4 199/5/4
f 199/5/4 196/5/4 200/5/4
f 197/3/4 198/3/4 201/3/4
f 201/3/4 198/3/4 202/3/4
f 199/3/4 200/3/4 203/3/4
f 203/3/4 200/3/4 204/3/4
f 205/3/4 206/3/4 209/3/4
f 209/3/4 206/3/4 210/3/4
f 207/3/4 208/3/4 211/3/4
f 211/3/4 208/3/4 212/3/4
f 209/5/4 210/5/4 213/5/4
f 213/5/4 210/5/4 214/5/4
f 211/5/4 212/5/4 215/5/4
f 215/5/4 212/5/4 216/5/4
f 213/6/4 214/6/4 217/6/4
f 217/6/4 214/6/4 218/6/4
f 215/6/4 216/6/4 219/6/4
f 219/6/4 216/6/4 220/6/4
f 217/5/4 218/5/4 221/5/4
f 221/5/4 218/5/4 222/5/4
f 219/5/4 220/5/4 223/5/4
f 223/5/4 220/5/4 224/5/4
f 221/3/4 222/3/4 225/3/4
f 225/3/4 222/3/4 226/3/4
f 223/3/4 224/3/4 227/3/4
f 227/3/4 224/3/4 228/3/4
f 229/3/4 230/3/4 231/3/4
f 231/3/4 230/3/4 232/3/4
f 231/5/4 232/5/4 233/5/4
f 233/5/4 232/5/4 234/5/4
f 233/6/4 234/6/4 235/6/4
f 235/6/4 234/6/4 236/6/4
f 235/5/4 236/5/4 237/5/4
f 237/5/4 236/5/4 238/5/4
f 237/3/4 238/3/4 239/3/4
f 239/3/4 238/3/4 240/3/4
f 249/2/5 242/2/5 241/2/5
f 250/6/5 243/6/5 242/6/5
f 250/2/5 242/2/5 249/2/5
f 251/6/5 243/6/5 250/6/5
f 252/5/5 244/5/5 243/5/5
f 252/6/5 243/6/5 251/6/5
f 253/6/5 245/6/5 244/6/5
f 253/5/5 244/5/5 252/5/5
f 254/5/5 246/5/5 245/5/5
f 254/6/5 245/6/5 253/6/5
f 255/6/5 247/6/5 246/6/5
f 255/5/5 246/5/5 254/5/5
f 256/6/5 247/6/5 255/6/5
f 257/2/5 248/2/5 247/2/5
f 257/6/5 247/6/5 256/6/5
f 258/2/5 248/2/5 257/2/5
f 259/6/5 250/6/5 249/6/5
f 260/1/5 251/1/5 250/1/5
f 260/6/5 250/6/5 259/6/5
f 261/1/5 257/1/5 256/1/5
f 261/6/5 258/6/5 257/6/5
f 262/6/5 258/6/5 261/6/5
f 263/5/5 260/5/5 259/5/5
f 264/1/5 251/1/5 260/1/5
f 264/5/5 260/5/5 263/5/5
f 265/1/5 261/1/5 256/1/5
f 265/5/5 262/5/5 261/5/5
f 266/5/5 262/5/5 265/5/5
f 267/6/5 264/6/5 263/6/5
f 268/1/5 251/1/5 264/1/5
f 268/6/5 264/6/5 267/6/5
f 269/5/5 256/5/5 255/5/5
f 269/5/5 252/5/5 251/5/5
f 269/5/5 253/5/5 252/5/5
f 269/5/5 254/5/5 253/5/5
f 269/5/5 255/5/5 254/5/5
f 270/5/5 256/5/5 269/5/5
f 271/5/5 256/5/5 270/5/5
f 272/1/5 265/1/5 256/1/5
f 272/5/5 256/5/5 271/5/5
f 273/6/5 266/6/5 265/6/5
f 273/1/5 265/1/5 272/1/5
f 274/6/5 266/6/5 273/6/5
f 275/2/5 268/2/5 267/2/5
f 276/1/5 251/1/5 268/1/5
f 276/2/5 268/2/5 275/2/5
f 277/5/5 269/5/5 251/5/5
f 277/1/5 251/1/5 276/1/5
f 278/6/5 270/6/5 269/6/5
f 278/5/5 269/5/5 277/5/5
f 279/5/5 271/5/5 270/5/5
f 279/6/5 270/6/5 278/6/5
f 280/6/5 272/6/5 271/6/5
f 280/5/5 271/5/5 279/5/5
f 281/1/5 273/1/5 272/1/5
f 281/6/5 272/6/5 280/6/5
f 282/3/5 274/3/5 273/3/5
f 282/1/5 273/1/5 281/1/5
f 283/3/5 274/3/5 282/3/5
f 292/3/5 285/3/5 284/3/5
f 293/5/5 286/5/5 285/5/5
f 293/3/5 285/3/5 292/3/5
f 293/5/5 287/5/5 286/5/5
f 294/6/5 288/6/5 287/6/5
f 294/5/5 287/5/5 293/5/5
f 295/5/5 290/5/5 289/5/5
f 295/6/5 288/6/5 294/6/5
f 295/5/5 289/5/5 288/5/5
f 296/3/5 291/3/5 290/3/5
f 296/5/5 290/5/5 295/5/5
f 297/3/5 291/3/5 296/3/5
f 304/3/5 299/3/5 298/3/5
f 305/5/5 300/5/5 299/5/5
f 305/3/5 299/3/5 304/3/5
f 306/6/5 301/6/5 300/6/5
f 306/5/5 300/5/5 305/5/5
f 307/5/5 302/5/5 301/5/5
f 307/6/5 301/6/5 306/6/5
f 308/3/5 303/3/5 302/3/5
f 308/5/5 302/5/5 307/5/5
f 309/3/5 303/3/5 308/3/5
f 316/3/5 311/3/5 310/3/5
f 317/5/5 312/5/5 311/5/5
f 317/3/5 311/3/5 316/3/5
f 318/6/5 313/6/5 312/6/5
f 318/5/5 312/5/5 317/5/5
f 319/5/5 314/5/5 313/5/5
f 319/6/5 313/6/5 318/6/5
f 320/3/5 315/3/5 314/3/5
f 320/5/5 314/5/5 319/5/5
f 321/3/5 315/3/5 320/3/5
f 322/3/6 323/3/6 328/3/6
f 323/4/6 324/4/6 329/4/6
f 328/3/6 323/3/6 329/3/6
f 324/5/6 325/5/6 330/5/6
f 329/4/6 324/4/6 330/4/6
f 325/4/6 326/4/6 331/4/6
f 330/5/6 325/5/6 331/5/6
f 326/3/6 327/3/6 332/3/6
f 331/4/6 326/4/6 332/4/6
f 332/3/6 327/3/6 333/3/6
f 330/7/6 331/7/6 334/7/6
f 329/7/6 330/7/6 334/7/6
f 331/7/6 332/7/6 334/7/6
f 334/7/6 332/7/6 335/7/6
f 328/1/6 329/1/6 336/1/6
f 329/7/6 334/7/6 337/7/6
f 336/1/6 329/1/6 337/1/6
f 334/10/6 335/10/6 338/10/6
f 337/7/6 334/7/6 338/7/6
f 335/7/6 332/7/6 339/7/6
f 338/10/6 335/10/6 339/10/6
f 332/1/6 333/1/6 340/1/6
f 339/7/6 332/7/6 340/7/6
f 340/1/6 333/1/6 341/1/6
f 342/3/6 343/3/6 348/3/6
f 343/5/6 344/5/6 349/5/6
f 348/3/6 343/3/6 349/3/6
f 344/6/6 345/6/6 350/6/6
f 349/5/6 344/5/6 350/5/6
f 345/5/6 346/5/6 351/5/6
f 350/6/6 345/6/6 351/6/6
f 346/3/6 347/3/6 352/3/6
f 351/5/6 346/5/6 352/5/6
f 352/3/6 347/3/6 353/3/6
f 354/3/6 355/3/6 360/3/6
f 355/5/6 356/5/6 361/5/6
f 360/3/6 355/3/6 361/3/6
f 356/6/6 357/6/6 362/6/6
f 361/5/6 356/5/6 362/5/6
f 357/5/6 358/5/6 363/5/6
f 362/6/6 357/6/6 363/6/6
f 358/3/6 359/3/6 364/3/6
f 363/5/6 358/5/6 364/5/6
f 364/3/6 359/3/6 365/3/6
f 366/3/6 367/3/6 368/3/6
f 368/3/6 367/3/6 369/3/6
f 369/3/6 367/3/6 370/3/6
f 370/3/6 367/3/6 371/3/6
f 366/3/6 368/3/6 372/3/6
f 368/5/6 369/5/6 373/5/6
f 372/3/6 368/3/6 373/3/6
f 369/6/6 370/6/6 374/6/6
f 373/5/6 369/5/6 374/5/6
f 370/5/6 371/5/6 375/5/6
f 374/6/6 370/6/6 375/6/6
f 371/3/6 367/3/6 376/3/6
f 375/5/6 371/5/6 376/5/6
f 376/3/6 367/3/6 377/3/6
