# MagicaVoxel @ ephtracy

# material
mtllib Library.mtl
usemtl palette

# normals
vn -1 0 0
vn 1 0 0
vn 0 0 1
vn 0 0 -1
vn 0 -1 0
vn 0 1 0

# texcoords
vt 0.193359 0.5
vt 0.197266 0.5
vt 0.201172 0.5
vt 0.216797 0.5
vt 0.392578 0.5
vt 0.486328 0.5
vt 0.490234 0.5
vt 0.662109 0.5
vt 0.853516 0.5

# verts
v -0.75 0 0.375
v -0.75 0 -0.375
v -0.75 0.125 0.375
v -0.75 0.125 0.25
v -0.75 0.125 -0.375
v -0.75 1 0.375
v -0.75 1 0.25
v -0.75 1 -0.375
v -0.75 1.125 0.375
v -0.75 1.125 0.25
v -0.75 1.125 -0.375
v -0.75 1.25 0.25
v -0.75 1.25 -0.375
v -0.75 2.5 0.25
v -0.75 2.5 0.125
v -0.75 2.625 0.125
v -0.75 2.625 -0.375
v -0.75 2.75 0.25
v -0.75 2.75 -0.375
v -0.375 2.25 0.25
v -0.375 2.25 0.125
v -0.375 2.25 -0
v -0.375 2.375 0.25
v -0.375 2.375 -0
v 0.125 1.125 0.25
v 0.125 1.125 0.125
v 0.125 1.125 -0
v 0.125 1.5 0.25
v 0.125 1.5 -0
v 0.25 2.25 0.25
v 0.25 2.25 0.125
v 0.25 2.25 -0
v 0.25 2.625 0.25
v 0.25 2.625 -0
v 0.375 1.125 0.25
v 0.375 1.125 0.125
v 0.375 1.125 -0
v 0.375 1.5 0.25
v 0.375 1.5 -0
v 0.625 1.125 0.25
v 0.625 1.125 0.125
v 0.625 1.125 -0
v 0.625 1.25 0.25
v 0.625 1.25 -0
v 0.625 1.625 0.25
v 0.625 1.625 -0
v 0.625 1.75 0.25
v 0.625 1.75 -0
v 0.625 2.125 0.25
v 0.625 2.125 0.125
v 0.625 2.125 -0
v 0.625 2.25 0.25
v 0.625 2.25 0.125
v 0.625 2.25 -0
v 0.625 2.5 0.25
v 0.625 2.5 0.125
v 0.625 2.625 0.25
v 0.625 2.625 0.125
v 0.625 2.625 -0
v -0.625 1.5 0.25
v -0.625 1.5 -0
v -0.625 1.625 0.25
v -0.625 1.625 -0
v -0.625 2.25 0.25
v -0.625 2.25 0.125
v -0.625 2.25 -0
v -0.625 2.5 0.25
v -0.625 2.5 0.125
v -0.625 2.625 0.25
v -0.625 2.625 0.125
v -0.625 2.625 -0
v -0.25 1.125 0.25
v -0.25 1.125 0.125
v -0.25 1.125 -0
v -0.25 1.5 0.25
v -0.25 1.5 -0
v -0.25 1.75 0.25
v -0.25 1.75 -0
v -0.25 2.125 0.25
v -0.25 2.125 0.125
v -0.25 2.125 -0
v 0 2.25 0.25
v 0 2.25 0.125
v 0 2.25 -0
v 0 2.375 0.25
v 0 2.375 -0
v 0.25 1.125 0.25
v 0.25 1.125 0.125
v 0.25 1.125 -0
v 0.25 1.5 0.25
v 0.25 1.5 -0
v 0.5 1.125 0.25
v 0.5 1.125 0.125
v 0.5 1.125 -0
v 0.5 1.5 0.25
v 0.5 1.5 -0
v 0.5 2.25 0.25
v 0.5 2.25 0.125
v 0.5 2.25 -0
v 0.5 2.625 0.25
v 0.5 2.625 0.125
v 0.5 2.625 -0
v 0.75 0 0.375
v 0.75 0 0.25
v 0.75 0 -0.25
v 0.75 0 -0.375
v 0.75 0.125 0.375
v 0.75 0.125 0.25
v 0.75 0.125 -0.25
v 0.75 0.125 -0.375
v 0.75 1 0.375
v 0.75 1 0.25
v 0.75 1 -0.375
v 0.75 1.125 0.375
v 0.75 1.125 0.25
v 0.75 1.125 -0.375
v 0.75 1.25 0.25
v 0.75 1.25 -0.375
v 0.75 2.5 0.25
v 0.75 2.5 0.125
v 0.75 2.625 0.125
v 0.75 2.625 -0.375
v 0.75 2.75 0.25
v 0.75 2.75 -0.375
v -0.75 0 0.375
v -0.75 0.125 0.375
v -0.75 1 0.375
v -0.75 1.125 0.375
v 0.75 0 0.375
v 0.75 0.125 0.375
v 0.75 1 0.375
v 0.75 1.125 0.375
v -0.75 0.125 0.25
v -0.75 1 0.25
v -0.75 1.125 0.25
v -0.75 1.25 0.25
v -0.75 2.5 0.25
v -0.75 2.75 0.25
v -0.625 1.125 0.25
v -0.625 1.25 0.25
v -0.625 1.5 0.25
v -0.625 1.625 0.25
v -0.625 1.75 0.25
v -0.625 2.125 0.25
v -0.625 2.25 0.25
v -0.625 2.5 0.25
v -0.625 2.625 0.25
v -0.5 1.125 0.25
v -0.5 1.5 0.25
v -0.5 1.75 0.25
v -0.5 2.125 0.25
v -0.5 2.625 0.25
v -0.5 2.75 0.25
v -0.375 0.5 0.25
v -0.375 0.625 0.25
v -0.375 1.125 0.25
v -0.375 1.5 0.25
v -0.375 1.75 0.25
v -0.375 2.125 0.25
v -0.375 2.25 0.25
v -0.375 2.375 0.25
v -0.25 0.5 0.25
v -0.25 0.625 0.25
v -0.25 1.125 0.25
v -0.25 1.5 0.25
v -0.25 1.75 0.25
v -0.25 2.125 0.25
v 0 2.25 0.25
v 0 2.375 0.25
v 0.125 1.125 0.25
v 0.125 1.5 0.25
v 0.25 0.5 0.25
v 0.25 0.625 0.25
v 0.25 1.125 0.25
v 0.25 1.5 0.25
v 0.25 2.25 0.25
v 0.25 2.625 0.25
v 0.375 0.5 0.25
v 0.375 0.625 0.25
v 0.375 1.125 0.25
v 0.375 1.5 0.25
v 0.375 2.25 0.25
v 0.375 2.625 0.25
v 0.5 1.125 0.25
v 0.5 1.5 0.25
v 0.5 2.25 0.25
v 0.5 2.625 0.25
v 0.5 2.75 0.25
v 0.625 1.125 0.25
v 0.625 1.25 0.25
v 0.625 1.625 0.25
v 0.625 1.75 0.25
v 0.625 2.125 0.25
v 0.625 2.25 0.25
v 0.625 2.5 0.25
v 0.625 2.625 0.25
v 0.75 0.125 0.25
v 0.75 1 0.25
v 0.75 1.125 0.25
v 0.75 1.25 0.25
v 0.75 2.5 0.25
v 0.75 2.75 0.25
v -0.625 1.5 -0
v -0.625 1.625 -0
v -0.625 2.25 -0
v -0.625 2.625 -0
v -0.5 1.5 -0
v -0.375 1.5 -0
v -0.375 2.25 -0
v -0.375 2.375 -0
v -0.25 1.125 -0
v -0.25 1.5 -0
v -0.25 1.75 -0
v -0.25 2.125 -0
v 0 2.25 -0
v 0 2.375 -0
v 0.125 1.125 -0
v 0.125 1.5 -0
v 0.25 1.125 -0
v 0.25 1.5 -0
v 0.25 2.25 -0
v 0.25 2.625 -0
v 0.375 1.125 -0
v 0.375 1.5 -0
v 0.5 1.125 -0
v 0.5 1.5 -0
v 0.5 2.25 -0
v 0.5 2.625 -0
v 0.625 1.125 -0
v 0.625 1.25 -0
v 0.625 1.625 -0
v 0.625 1.75 -0
v 0.625 2.125 -0
v 0.625 2.25 -0
v 0.625 2.625 -0
v -0.75 0 -0.375
v -0.75 0.125 -0.375
v -0.75 1 -0.375
v -0.75 1.125 -0.375
v -0.75 1.25 -0.375
v -0.75 2.625 -0.375
v -0.75 2.75 -0.375
v -0.625 1.125 -0.375
v -0.625 1.25 -0.375
v -0.625 2.625 -0.375
v -0.625 2.75 -0.375
v 0.625 1.125 -0.375
v 0.625 1.25 -0.375
v 0.625 2.625 -0.375
v 0.625 2.75 -0.375
v 0.75 0 -0.375
v 0.75 0.125 -0.375
v 0.75 1 -0.375
v 0.75 1.125 -0.375
v 0.75 1.25 -0.375
v 0.75 2.625 -0.375
v 0.75 2.75 -0.375
v -0.75 0 0.375
v 0.75 0 0.375
v -0.625 0 0.25
v 0.75 0 0.25
v -0.625 0 -0.25
v 0.75 0 -0.25
v -0.75 0 -0.375
v 0.75 0 -0.375
v -0.75 1 0.375
v 0.75 1 0.375
v -0.75 1 0.25
v 0.75 1 0.25
v -0.625 1.625 0.25
v 0.625 1.625 0.25
v -0.625 1.625 -0
v 0.625 1.625 -0
v -0.25 2.125 0.25
v 0.625 2.125 0.25
v -0.25 2.125 0.125
v 0.625 2.125 0.125
v -0.25 2.125 -0
v 0.625 2.125 -0
v -0.625 2.625 0.25
v -0.5 2.625 0.25
v 0.25 2.625 0.25
v 0.5 2.625 0.25
v 0.625 2.625 0.25
v -0.625 2.625 0.125
v -0.5 2.625 0.125
v 0.5 2.625 0.125
v 0.625 2.625 0.125
v -0.625 2.625 -0
v 0.25 2.625 -0
v 0.5 2.625 -0
v 0.625 2.625 -0
v -0.75 0.125 0.375
v 0.75 0.125 0.375
v -0.75 0.125 0.25
v 0.75 0.125 0.25
v -0.75 1.125 0.375
v 0.75 1.125 0.375
v -0.75 1.125 0.25
v -0.625 1.125 0.25
v -0.5 1.125 0.25
v -0.375 1.125 0.25
v -0.25 1.125 0.25
v 0.125 1.125 0.25
v 0.25 1.125 0.25
v 0.375 1.125 0.25
v 0.5 1.125 0.25
v 0.625 1.125 0.25
v 0.75 1.125 0.25
v -0.25 1.125 0.125
v 0.125 1.125 0.125
v 0.25 1.125 0.125
v 0.375 1.125 0.125
v 0.5 1.125 0.125
v 0.625 1.125 0.125
v -0.25 1.125 -0
v 0.125 1.125 -0
v 0.25 1.125 -0
v 0.375 1.125 -0
v 0.5 1.125 -0
v 0.625 1.125 -0
v -0.625 1.5 0.25
v -0.5 1.5 0.25
v -0.375 1.5 0.25
v -0.25 1.5 0.25
v 0.125 1.5 0.25
v 0.25 1.5 0.25
v 0.375 1.5 0.25
v 0.5 1.5 0.25
v -0.625 1.5 -0
v -0.5 1.5 -0
v -0.375 1.5 -0
v -0.25 1.5 -0
v 0.125 1.5 -0
v 0.25 1.5 -0
v 0.375 1.5 -0
v 0.5 1.5 -0
v -0.25 1.75 0.25
v 0.625 1.75 0.25
v -0.25 1.75 -0
v 0.625 1.75 -0
v -0.625 2.25 0.25
v -0.375 2.25 0.25
v 0 2.25 0.25
v 0.25 2.25 0.25
v 0.5 2.25 0.25
v 0.625 2.25 0.25
v -0.625 2.25 0.125
v -0.375 2.25 0.125
v 0 2.25 0.125
v 0.25 2.25 0.125
v 0.5 2.25 0.125
v 0.625 2.25 0.125
v -0.625 2.25 -0
v -0.375 2.25 -0
v 0 2.25 -0
v 0.25 2.25 -0
v 0.5 2.25 -0
v 0.625 2.25 -0
v -0.375 2.375 0.25
v 0 2.375 0.25
v -0.375 2.375 -0
v 0 2.375 -0
v -0.75 2.75 0.25
v -0.5 2.75 0.25
v 0.5 2.75 0.25
v 0.75 2.75 0.25
v -0.625 2.75 0.125
v -0.5 2.75 0.125
v 0.5 2.75 0.125
v 0.625 2.75 0.125
v -0.75 2.75 -0.375
v -0.625 2.75 -0.375
v 0.625 2.75 -0.375
v 0.75 2.75 -0.375

# faces
f 3/3/1 2/3/1 1/3/1
f 4/3/1 2/3/1 3/3/1
f 5/3/1 2/3/1 4/3/1
f 7/2/1 5/2/1 4/2/1
f 8/2/1 5/2/1 7/2/1
f 9/3/1 7/3/1 6/3/1
f 9/3/1 8/3/1 7/3/1
f 10/3/1 8/3/1 9/3/1
f 11/3/1 8/3/1 10/3/1
f 12/1/1 11/1/1 10/1/1
f 13/1/1 11/1/1 12/1/1
f 14/2/1 13/2/1 12/2/1
f 15/2/1 13/2/1 14/2/1
f 16/1/1 15/1/1 14/1/1
f 16/2/1 13/2/1 15/2/1
f 17/2/1 13/2/1 16/2/1
f 18/1/1 16/1/1 14/1/1
f 18/1/1 17/1/1 16/1/1
f 19/1/1 17/1/1 18/1/1
f 23/1/1 21/1/1 20/1/1
f 23/1/1 22/1/1 21/1/1
f 24/1/1 22/1/1 23/1/1
f 28/7/1 26/7/1 25/7/1
f 28/7/1 27/7/1 26/7/1
f 29/7/1 27/7/1 28/7/1
f 33/7/1 31/7/1 30/7/1
f 33/7/1 32/7/1 31/7/1
f 34/7/1 32/7/1 33/7/1
f 38/2/1 36/2/1 35/2/1
f 38/2/1 37/2/1 36/2/1
f 39/2/1 37/2/1 38/2/1
f 43/1/1 41/1/1 40/1/1
f 43/1/1 42/1/1 41/1/1
f 44/1/1 42/1/1 43/1/1
f 45/2/1 44/2/1 43/2/1
f 46/2/1 44/2/1 45/2/1
f 49/2/1 48/2/1 47/2/1
f 50/2/1 48/2/1 49/2/1
f 51/2/1 48/2/1 50/2/1
f 55/2/1 53/2/1 52/2/1
f 55/2/1 54/2/1 53/2/1
f 56/2/1 54/2/1 55/2/1
f 57/1/1 56/1/1 55/1/1
f 58/2/1 54/2/1 56/2/1
f 58/1/1 56/1/1 57/1/1
f 59/2/1 54/2/1 58/2/1
f 60/2/2 61/2/2 62/2/2
f 62/2/2 61/2/2 63/2/2
f 64/2/2 65/2/2 67/2/2
f 65/2/2 66/2/2 67/2/2
f 67/2/2 66/2/2 68/2/2
f 67/1/2 68/1/2 69/1/2
f 68/2/2 66/2/2 70/2/2
f 69/1/2 68/1/2 70/1/2
f 70/2/2 66/2/2 71/2/2
f 72/9/2 73/9/2 75/9/2
f 73/9/2 74/9/2 75/9/2
f 75/9/2 74/9/2 76/9/2
f 77/7/2 78/7/2 79/7/2
f 79/7/2 78/7/2 80/7/2
f 80/7/2 78/7/2 81/7/2
f 82/1/2 83/1/2 85/1/2
f 83/1/2 84/1/2 85/1/2
f 85/1/2 84/1/2 86/1/2
f 87/7/2 88/7/2 90/7/2
f 88/7/2 89/7/2 90/7/2
f 90/7/2 89/7/2 91/7/2
f 92/2/2 93/2/2 95/2/2
f 93/2/2 94/2/2 95/2/2
f 95/2/2 94/2/2 96/2/2
f 97/6/2 98/6/2 100/6/2
f 98/2/2 99/2/2 101/2/2
f 100/6/2 98/6/2 101/6/2
f 101/2/2 99/2/2 102/2/2
f 103/3/2 104/3/2 107/3/2
f 104/2/2 105/2/2 108/2/2
f 107/3/2 104/3/2 108/3/2
f 105/3/2 106/3/2 109/3/2
f 108/2/2 105/2/2 109/2/2
f 109/3/2 106/3/2 110/3/2
f 108/2/2 109/2/2 112/2/2
f 109/2/2 110/2/2 112/2/2
f 112/2/2 110/2/2 113/2/2
f 111/3/2 112/3/2 114/3/2
f 112/3/2 113/3/2 114/3/2
f 114/3/2 113/3/2 115/3/2
f 115/3/2 113/3/2 116/3/2
f 115/1/2 116/1/2 117/1/2
f 117/1/2 116/1/2 118/1/2
f 117/2/2 118/2/2 119/2/2
f 119/2/2 118/2/2 120/2/2
f 119/1/2 120/1/2 121/1/2
f 120/2/2 118/2/2 121/2/2
f 121/2/2 118/2/2 122/2/2
f 119/1/2 121/1/2 123/1/2
f 121/1/2 122/1/2 123/1/2
f 123/1/2 122/1/2 124/1/2
f 129/3/3 126/3/3 125/3/3
f 130/3/3 126/3/3 129/3/3
f 131/3/3 128/3/3 127/3/3
f 132/3/3 128/3/3 131/3/3
f 139/1/3 136/1/3 135/1/3
f 140/2/3 137/2/3 136/2/3
f 140/1/3 136/1/3 139/1/3
f 141/2/3 137/2/3 140/2/3
f 142/2/3 137/2/3 141/2/3
f 143/2/3 137/2/3 142/2/3
f 144/2/3 137/2/3 143/2/3
f 145/2/3 137/2/3 144/2/3
f 146/1/3 138/1/3 137/1/3
f 146/2/3 137/2/3 145/2/3
f 147/1/3 138/1/3 146/1/3
f 148/8/3 140/8/3 139/8/3
f 148/8/3 141/8/3 140/8/3
f 149/8/3 141/8/3 148/8/3
f 150/7/3 144/7/3 143/7/3
f 150/3/3 143/3/3 142/3/3
f 151/3/3 145/3/3 144/3/3
f 151/7/3 144/7/3 150/7/3
f 152/1/3 138/1/3 147/1/3
f 153/1/3 138/1/3 152/1/3
f 154/2/3 134/2/3 133/2/3
f 155/2/3 134/2/3 154/2/3
f 156/5/3 149/5/3 148/5/3
f 157/5/3 149/5/3 156/5/3
f 158/3/3 150/3/3 142/3/3
f 158/4/3 151/4/3 150/4/3
f 159/3/3 145/3/3 151/3/3
f 159/4/3 151/4/3 158/4/3
f 160/3/3 145/3/3 159/3/3
f 162/2/3 154/2/3 133/2/3
f 162/3/3 155/3/3 154/3/3
f 163/2/3 134/2/3 155/2/3
f 163/3/3 155/3/3 162/3/3
f 164/9/3 157/9/3 156/9/3
f 165/9/3 157/9/3 164/9/3
f 166/3/3 158/3/3 142/3/3
f 166/7/3 159/7/3 158/7/3
f 167/3/3 160/3/3 159/3/3
f 167/7/3 159/7/3 166/7/3
f 168/3/3 160/3/3 167/3/3
f 168/1/3 161/1/3 160/1/3
f 169/1/3 161/1/3 168/1/3
f 172/2/3 163/2/3 162/2/3
f 172/2/3 162/2/3 133/2/3
f 173/2/3 134/2/3 163/2/3
f 173/2/3 163/2/3 172/2/3
f 174/7/3 171/7/3 170/7/3
f 175/7/3 171/7/3 174/7/3
f 176/3/3 168/3/3 167/3/3
f 177/2/3 153/2/3 152/2/3
f 178/2/3 172/2/3 133/2/3
f 178/3/3 173/3/3 172/3/3
f 179/2/3 134/2/3 173/2/3
f 179/3/3 173/3/3 178/3/3
f 182/7/3 177/7/3 176/7/3
f 182/3/3 176/3/3 167/3/3
f 183/2/3 153/2/3 177/2/3
f 183/7/3 177/7/3 182/7/3
f 184/2/3 181/2/3 180/2/3
f 185/2/3 181/2/3 184/2/3
f 186/3/3 182/3/3 167/3/3
f 186/6/3 183/6/3 182/6/3
f 187/2/3 153/2/3 183/2/3
f 187/6/3 183/6/3 186/6/3
f 188/2/3 153/2/3 187/2/3
f 191/3/3 166/3/3 142/3/3
f 192/3/3 166/3/3 191/3/3
f 193/3/3 186/3/3 167/3/3
f 194/3/3 186/3/3 193/3/3
f 196/1/3 188/1/3 187/1/3
f 197/2/3 178/2/3 133/2/3
f 197/2/3 179/2/3 178/2/3
f 198/2/3 134/2/3 179/2/3
f 198/2/3 179/2/3 197/2/3
f 199/1/3 190/1/3 189/1/3
f 200/2/3 192/2/3 191/2/3
f 200/1/3 190/1/3 199/1/3
f 200/2/3 195/2/3 194/2/3
f 200/2/3 191/2/3 190/2/3
f 200/2/3 194/2/3 193/2/3
f 200/2/3 193/2/3 192/2/3
f 201/1/3 196/1/3 195/1/3
f 201/2/3 195/2/3 200/2/3
f 202/1/3 188/1/3 196/1/3
f 202/1/3 196/1/3 201/1/3
f 207/2/3 204/2/3 203/2/3
f 208/2/3 204/2/3 207/2/3
f 209/2/3 206/2/3 205/2/3
f 210/2/3 206/2/3 209/2/3
f 212/2/3 204/2/3 208/2/3
f 216/2/3 206/2/3 210/2/3
f 217/2/3 212/2/3 211/2/3
f 218/2/3 204/2/3 212/2/3
f 218/2/3 212/2/3 217/2/3
f 220/2/3 204/2/3 218/2/3
f 221/2/3 216/2/3 215/2/3
f 222/2/3 206/2/3 216/2/3
f 222/2/3 216/2/3 221/2/3
f 223/2/3 220/2/3 219/2/3
f 224/2/3 204/2/3 220/2/3
f 224/2/3 220/2/3 223/2/3
f 226/2/3 204/2/3 224/2/3
f 229/2/3 226/2/3 225/2/3
f 230/2/3 226/2/3 229/2/3
f 231/2/3 204/2/3 226/2/3
f 231/2/3 226/2/3 230/2/3
f 232/2/3 214/2/3 213/2/3
f 233/2/3 214/2/3 232/2/3
f 234/2/3 228/2/3 227/2/3
f 235/2/3 228/2/3 234/2/3
f 238/3/4 239/3/4 243/3/4
f 239/1/4 240/1/4 243/1/4
f 240/2/4 241/2/4 244/2/4
f 243/1/4 240/1/4 244/1/4
f 241/1/4 242/1/4 245/1/4
f 244/2/4 241/2/4 245/2/4
f 245/1/4 242/1/4 246/1/4
f 243/2/4 244/2/4 247/2/4
f 238/3/4 243/3/4 247/3/4
f 245/2/4 246/2/4 247/2/4
f 244/2/4 245/2/4 247/2/4
f 247/2/4 246/2/4 248/2/4
f 248/2/4 246/2/4 249/2/4
f 249/2/4 246/2/4 250/2/4
f 236/3/4 237/3/4 251/3/4
f 237/2/4 238/2/4 252/2/4
f 251/3/4 237/3/4 252/3/4
f 238/3/4 247/3/4 253/3/4
f 252/2/4 238/2/4 253/2/4
f 247/1/4 248/1/4 254/1/4
f 253/3/4 247/3/4 254/3/4
f 248/2/4 249/2/4 255/2/4
f 254/1/4 248/1/4 255/1/4
f 249/1/4 250/1/4 256/1/4
f 255/2/4 249/2/4 256/2/4
f 256/1/4 250/1/4 257/1/4
f 260/3/5 259/3/5 258/3/5
f 261/3/5 259/3/5 260/3/5
f 262/3/5 260/3/5 258/3/5
f 262/2/5 261/2/5 260/2/5
f 263/2/5 261/2/5 262/2/5
f 264/3/5 262/3/5 258/3/5
f 264/3/5 263/3/5 262/3/5
f 265/3/5 263/3/5 264/3/5
f 268/3/5 267/3/5 266/3/5
f 269/3/5 267/3/5 268/3/5
f 272/3/5 271/3/5 270/3/5
f 273/3/5 271/3/5 272/3/5
f 276/3/5 275/3/5 274/3/5
f 277/3/5 275/3/5 276/3/5
f 278/2/5 277/2/5 276/2/5
f 279/2/5 277/2/5 278/2/5
f 285/1/5 281/1/5 280/1/5
f 286/2/5 282/2/5 281/2/5
f 286/1/5 281/1/5 285/1/5
f 287/1/5 284/1/5 283/1/5
f 288/1/5 284/1/5 287/1/5
f 289/2/5 286/2/5 285/2/5
f 290/2/5 282/2/5 286/2/5
f 290/2/5 286/2/5 289/2/5
f 291/2/5 288/2/5 287/2/5
f 292/2/5 288/2/5 291/2/5
f 293/3/6 294/3/6 295/3/6
f 295/3/6 294/3/6 296/3/6
f 297/3/6 298/3/6 299/3/6
f 299/3/6 298/3/6 300/3/6
f 300/3/6 298/3/6 301/3/6
f 301/3/6 298/3/6 302/3/6
f 302/3/6 298/3/6 303/3/6
f 303/3/6 298/3/6 304/3/6
f 304/3/6 298/3/6 305/3/6
f 305/3/6 298/3/6 306/3/6
f 306/3/6 298/3/6 307/3/6
f 307/3/6 298/3/6 308/3/6
f 308/3/6 298/3/6 309/3/6
f 303/3/6 304/3/6 310/3/6
f 310/3/6 304/3/6 311/3/6
f 305/3/6 306/3/6 312/3/6
f 312/3/6 306/3/6 313/3/6
f 307/3/6 308/3/6 314/3/6
f 314/3/6 308/3/6 315/3/6
f 310/2/6 311/2/6 316/2/6
f 316/2/6 311/2/6 317/2/6
f 312/2/6 313/2/6 318/2/6
f 318/2/6 313/2/6 319/2/6
f 314/2/6 315/2/6 320/2/6
f 320/2/6 315/2/6 321/2/6
f 322/8/6 323/8/6 330/8/6
f 323/5/6 324/5/6 331/5/6
f 330/8/6 323/8/6 331/8/6
f 324/9/6 325/9/6 332/9/6
f 331/5/6 324/5/6 332/5/6
f 332/9/6 325/9/6 333/9/6
f 326/7/6 327/7/6 334/7/6
f 334/7/6 327/7/6 335/7/6
f 328/2/6 329/2/6 336/2/6
f 336/2/6 329/2/6 337/2/6
f 338/3/6 339/3/6 340/3/6
f 340/3/6 339/3/6 341/3/6
f 342/3/6 343/3/6 348/3/6
f 348/3/6 343/3/6 349/3/6
f 344/3/6 345/3/6 350/3/6
f 350/3/6 345/3/6 351/3/6
f 346/3/6 347/3/6 352/3/6
f 352/3/6 347/3/6 353/3/6
f 348/2/6 349/2/6 354/2/6
f 354/2/6 349/2/6 355/2/6
f 350/2/6 351/2/6 356/2/6
f 356/2/6 351/2/6 357/2/6
f 352/2/6 353/2/6 358/2/6
f 358/2/6 353/2/6 359/2/6
f 360/1/6 361/1/6 362/1/6
f 362/1/6 361/1/6 363/1/6
f 364/1/6 365/1/6 368/1/6
f 365/2/6 366/2/6 369/2/6
f 368/1/6 365/1/6 369/1/6
f 366/1/6 367/1/6 370/1/6
f 369/2/6 366/2/6 370/2/6
f 370/1/6 367/1/6 371/1/6
f 364/1/6 368/1/6 372/1/6
f 368/2/6 369/2/6 373/2/6
f 372/1/6 368/1/6 373/1/6
f 369/2/6 370/2/6 373/2/6
f 370/2/6 371/2/6 373/2/6
f 371/1/6 367/1/6 374/1/6
f 373/2/6 371/2/6 374/2/6
f 374/1/6 367/1/6 375/1/6
